
                <svg 
                  xmlns="http://www.w3.org/2000/svg" 
                  viewBox="0 0 500 500" 
                  width="500mm" 
                  height="500mm"
                  style="transform: scale(1, -1)">
                    <path 
                    d="M 248.76818971471835 249.94189461615653L 248.5183420079636 249.93316974198092L 248.54450998608507 249.43385497460363L 249.29268302377994 249.4861723299117L 249.2055272810323 250.48236702800347L 249.23599461688354 250.23423049009313L 249.73112865125432 250.30381704057316L 249.61380280247414 251.0445832960195L 247.64418729644973 250.69728694068564L 247.88872419663318 250.7492648633901L 247.77624866946127 251.23644989578273L 247.04852687475426 251.05500847408297L 247.82498401006183 248.15723099521577L 247.75189108388116 248.3963071842065L 247.2763628257336 248.24179868701904L 247.52053894157643 247.53265975531954L 251.27930942472005 248.90074032862222L 251.04751346107838 248.80708868026824L 251.24287902532302 248.34683625354202L 251.92803811855498 248.65188873584887L 249.8149468098515 253.18342767103212L 249.92844443478634 252.96067603998503L 250.36991823121582 253.19541182137797L 250.00631101603108 253.8513766017325L 244.81015859332445 250.85137660173254L 245.02217061736354 250.98385641779083L 244.74985109985602 251.40319170176355L 244.12807292043976 250.98379702416048L 248.14310797489702 245.2497327141375L 247.992654219109 245.44939159164934L 247.59864884230564 245.1415608539865L 248.070639135593 244.55870138289376L 254.19899468054484 249.70100226038608L 254.01320847417549 249.53371960879636L 254.35420765420673 249.16804275798677L 254.89371250446072 249.689036535831L 248.52975147378186 256.05299756650993L 248.71258989918664 255.88249797649434L 249.04715520236607 256.254070389233L 248.48112301719897 256.7461146609759L 242.05324692033355 249.08567022978616L 242.20716228916496 249.28267291818784L 241.80784453414134 249.58358042976386L 241.36700559492198 248.97681768398266L 250.37767808210089 242.6674768841211L 250.16801044011453 242.80363664287486L 249.9030508079979 242.37961259479664L 250.54592628352447 241.9933340386141L 256.5459262835245 252.38563888402734L 256.42855839282805 252.1649019858126L 256.87406165492223 251.93790673594282L 257.20284001501403 252.6120022706672L 245.4208387835376 258.1060396732962L 245.65096499690065 258.0083568911739L 245.83826829360862 258.47194881845724L 245.13808297373572 258.74072478061623L 240.34980096717612 245.58502808961362L 240.42705521576983 245.8227922186874L 239.9489028377883 245.96897807104878L 239.74217482092558 245.24803179909503L 254.23106221526155 241.36574612255714L 253.9874696990653 241.4219838861431L 253.88351385365638 240.9329100857762L 254.6197342412421 240.7898033392438L 257.3981050839131 256.5467273874391L 257.3633118086731 256.29916037025373L 257.85958488449376 256.2382256985511L 257.9379812319445 256.98411712007737L 241.00267136438487 258.46576474678784L 241.25232874807347 258.4526807577272L 241.26977849642475 258.95237617123666L 240.51989272505745 258.96546547606465L 240.51989272505733 240.96546547606468L 240.5111678508817 241.21531318281944L 240.01185308350443 241.18914520469798L 240.06417043881248 240.4409721670031L 258.9918697025557 242.09693127920875L 258.74373316464533 242.06646394335746L 258.8133197151254 241.57132990898666L 259.5540859705717 241.68865575776684L 256.08112241723325 261.38481081801103L 256.1331003399377 261.1402739178276L 256.62028537233033 261.2527494449995L 256.4388439506306 261.9804712397065L 236.15440159856018 256.5452712925535L 236.39347778755098 256.6183642187341L 236.2389692903635 257.0938924768817L 235.52983035866401 256.8497163610389L 243.0542735118285 236.17647870374878L 242.96062186347456 236.4082746673905L 242.50036943674831 236.21290910314585L 242.80542191905516 235.5277500099139L 263.65050102089833 245.24797002994947L 263.4277493898512 245.13447240501458L 263.66248517124416 244.69299860858513L 264.3184499515987 245.05660582376987L 252.31844995159895 265.84121551459657L 252.45092976765727 265.6292034905574L 252.87026505162999 265.90152300806494L 252.45087037402692 266.52330118748125L 231.97206926680178 252.18389027870555L 232.1717281443136 252.33434403449354L 231.86389740665078 252.7283494112969L 231.281037935558 252.25635911800953L 247.9935157874084 232.3392035969164L 247.8262331358187 232.52498980328576L 247.4605562850091 232.18399062325452L 247.98155006285333 231.6444857730005L 267.07343315489004 250.73636886503735L 266.90293356487444 250.55353043963257L 267.2745059776131 250.21896513645314L 267.766550249356 250.7849973216202L 246.31730584202535 268.7830503928442L 246.51430853042706 268.6291350240127L 246.81521604200304 269.02845277903634L 246.20845329622188 269.4692917182558L 229.57473664204156 245.71388243387497L 229.71089640079532 245.92355007586133L 229.28687235271713 246.18850970797791L 228.90059379653457 245.54563423245133L 254.88135591006755 230.54563423245102L 254.66061901185282 230.6630021231475L 254.43362376198303 230.21749886105331L 255.1077192967074 229.88872050096148L 268.20888541066904 257.98426189909765L 268.1112026285467 257.7541356857346L 268.5747945558301 257.56683238902656L 268.84357051798906 258.2670177088995L 238.77340665284015 269.2116622953213L 239.01117078191396 269.1344080467276L 239.15735663427535 269.61256042470905L 238.43641036232162 269.81928844157176L 229.89538187393845 237.94373617403255L 229.9516196375244 238.18732869022887L 229.4625458371575 238.29128453563774L 229.3194390906251 237.55506414805197L 262.8029026930399 231.65102610737495L 262.5553356758545 231.68581938261497L 262.49440100415194 231.1895463067943L 263.24029242567815 231.11114995934358L 266.2907434218452 265.9779643925548L 266.27765943278445 265.72830700886607L 266.777354846294 265.7108572605149L 266.79044415112196 266.4607430318821L 230.79044415112202 266.46074303188266L 231.04029185787675 266.4694679060583L 231.0141238797553 266.9687826734356L 230.26595084206042 266.9164653181275L 233.49071332372165 230.05726148873273L 233.4602459878704 230.30539802664308L 232.96511195349956 230.235811476163L 233.08243780227974 229.49504522071666L 270.50513241674355 236.0936759720605L 270.2605955165601 236.04169804935609L 270.373071043732 235.55451301696345L 271.100792838439 235.7359544386632L 261.00685007944185 273.40706166393716L 261.0799430056225 273.16798547494636L 261.55547126377013 273.3224939721339L 261.3112951479273 274.0316329038334L 223.72359031649074 260.3508271708073L 223.95538628013242 260.4444788191612L 223.76002071588778 260.90473124588743L 223.07486162265582 260.5996787635805L 240.40221035402442 223.44105949507787L 240.28871272908953 223.66381112612495L 239.84723893266005 223.42907534473204L 240.2108461478448 222.77311056437748L 276.583913106791 243.7731105643779L 276.3719010827519 243.6406307483196L 276.64422060025936 243.22129546434687L 277.26599877967567 243.6406901419499L 252.60221201658186 278.8642280463773L 252.75266577236982 278.66456916886546L 253.1466711491732 278.9723999065284L 252.6746808558858 279.55525937762104L 218.96872535865026 251.27260455141393L 219.15451156501962 251.43988720300362L 218.81351238498837 251.8055640538132L 218.27400753473438 251.28457027596897L 250.09381268812888 219.46476512257422L 249.9109742627241 219.63526471258984L 249.57640895954466 219.26369229985116L 250.1424411447117 218.77164802810827L 279.7106711902942 254.00969241157986L 279.5567558214628 253.81268972317818L 279.9560735764864 253.51178221160217L 280.39691251570576 254.1185449573834L 241.89676643412406 281.0766374658839L 242.10643407611042 280.94047770713007L 242.37139370822706 281.36450175520827L 241.72851823270048 281.7507803113908L 217.72851823269963 240.18156092973823L 217.8458861233961 240.40229782795294L 217.40038286130192 240.62929307782275L 217.07160450121012 239.9551975430984L 261.48068606600583 219.24690271780386L 261.2505598526427 219.34458549992618L 261.0632565559348 218.88099357264278L 261.76344187580764 218.61221761048378L 278.8644490420934 265.5968486497784L 278.7871947934997 265.35908452070464L 279.26534717148115 265.2128986683432L 279.472075188344 265.9338449402969L 230.20985804760198 279.1336162405272L 230.4534505637983 279.07737847694125L 230.55740640920715 279.56645227730814L 229.82118602162143 279.7095590238406L 220.79148078294287 228.4995558672054L 220.8262740581829 228.7471228843908L 220.3300009823622 228.80805755609336L 220.25160463491147 228.06216613456718L 273.0499236337739 223.4429117689409L 272.80026625008526 223.45599575800165L 272.78281650173403 222.9563003444921L 273.5327022731013 222.94321103966413L 273.53270227310094 276.9432110396641L 273.5414271472766 276.69336333290937L 274.0407419146539 276.7195313110309L 273.98842455934584 277.46770434872576L 219.19771616429966 272.67413849760646L 219.44585270221 272.7046058334578L 219.37626615172996 273.1997398678286L 218.6354998962836 273.08241401904843L 228.35979784562733 217.93317985036398L 228.30781992292287 218.17771675054743L 227.82063489053024 218.0652412233755L 228.00207631223003 217.33751942866851L 283.05984841070705 232.0902049995117L 282.82077222171625 232.01711207333102L 282.9752807189037 231.54158381518346L 283.6844196506032 231.7857599310263L 263.84725133771417 286.28793193660886L 263.9409029860681 286.05613597296724L 264.40115541279437 286.2515015372119L 264.0961029304876 286.93666063044384L 210.62394349532428 262.00218318774455L 210.84669512637134 262.11568081267944L 210.6119593449784 262.5571546091089L 209.95599456462384 262.1935473939242L 239.95599456462253 210.23202316685715L 239.82351474856426 210.44403519089624L 239.40417946459155 210.17171567338875L 239.82357414219462 209.54993749397246L 289.79184884382147 244.5381001113886L 289.59218996630966 244.38764635560057L 289.9000207039725 243.9936409787972L 290.48288017506525 244.46563127208458L 250.63004837449967 291.96038674546105L 250.79733102608935 291.7746005390917L 251.16300787689897 292.115599719123L 250.64201409905473 292.65510456937693L 206.0942868843004 248.10737735462624L 206.26478647431605 248.29021578003102L 205.89321406157734 248.62478108321045L 205.40116978983446 248.0587488980434L 254.42801414944796 206.92034187810359L 254.23101146104625 207.07425724693502L 253.93010394947026 206.67493949191137L 254.5368666952515 206.23410055269198L 291.8193350580701 259.47898343147597L 291.6831752993163 259.2693157894896L 292.10719934739456 259.00435615737297L 292.49347790357706 259.64723163289955L 235.3358012538041 292.64723163289955L 235.55653815201885 292.529863742203L 235.78353340188863 292.97536700429725L 235.10943786716422 293.304145364389L 206.7940143305383 232.58152363293303L 206.8916971126606 232.81164984629615L 206.4281051853772 232.99895314300412L 206.15932922321826 232.29876782313121L 270.058427436658 209.04139807698033L 269.82066330758425 209.1186523255741L 269.67447745522287 208.64049994759256L 270.3954237271766 208.43377193072976L 288.25393783925523 275.08265394467423L 288.1977000756693 274.83906142847786L 288.68677387603617 274.73510558306896L 288.82988062256857 275.4713259706548L 219.89333791171333 287.626698407336L 220.14090492889875 287.5919051320959L 220.20183960060126 288.0881782079166L 219.4559481790751 288.16657455536745L 213.26789044398828 217.43675099085374L 213.28097443304904 217.6864083745424L 212.7812790195395 217.70385812289368L 212.76818971471153 216.95397235152637L 284.7681897147115 216.95397235152427L 284.51834200795673 216.94524747734863L 284.5445099860782 216.44593270997134L 285.29268302377307 216.4982500652794L 278.9303138031952 289.220463025977L 278.96078113904645 288.97232648806664L 279.4559151734173 289.04191303854657L 279.3385893246371 289.78267929399294L 206.46281560173225 276.93271414664855L 206.7073525019157 276.98469206935295L 206.59487697474378 277.4718771017456L 205.86715518003678 277.2904356800458L 225.27858356272668 204.84599870836595L 225.20549063654602 205.08507489735672L 224.72996237839845 204.93056640016925L 224.97413849424134 204.22142746846976L 296.3907776739697 230.21495836122241L 296.15898171032796 230.12130671286846L 296.3543472745726 229.66105428614225L 297.0395063678046 229.966106768449L 264.4979002137759 299.75180637027347L 264.6113978387108 299.52905473922635L 265.05287163514026 299.7637905206193L 264.6892644199555 300.419755300974L 197.13928292476697 261.41975530097795L 197.35129494880613 261.5522351170363L 197.0789754312986 261.971570401009L 196.45719725188235 261.55217572340587L 241.7697357236193 196.83916422457858L 241.61928196783128 197.03882310209042L 241.22527659102792 196.73099236442764L 241.69726688431524 196.14813289333486L 302.98082233383514 247.57114166825602L 302.7950361274658 247.4038590166663L 303.136035307497 247.0381821658567L 303.675540157751 247.55917594370092L 246.3998908816418 304.8348252198124L 246.58272930704658 304.66432562979674L 246.917294610226 305.03589804253545L 246.3512624250589 305.52794231427833L 193.64267843076237 242.71229797852243L 193.79659379959378 242.90930066692408L 193.39727604457016 243.21020817850012L 192.9564371053508 242.60344543271893L 260.9460567813321 194.99660121557497L 260.73638913934576 195.13276097432873L 260.4714295072292 194.70873692625054L 261.11430498275575 194.322458370068L 303.1143049827541 267.0685922879618L 302.99693709205764 266.847855389747L 303.4424403541518 266.6208601398773L 303.7712187142436 267.2949556746016L 226.73505681612704 303.2175079225583L 226.96518302949016 303.119825140436L 227.1524863261982 303.5834170677193L 226.45230100632529 303.85219302987844L 197.03856868031266 223.03862764229214L 197.11582292890637 223.27639177136592L 196.6376705509249 223.42257762372728L 196.43094253406207 222.70163135177356L 280.4664894212099 200.1843744278501L 280.22289690501356 200.24061219143604L 280.1189410596047 199.75153839106915L 280.8551614471904 199.60843164453678L 296.1362010818834 286.2715139096106L 296.1014078066434 286.0239468924251L 296.59768088246403 285.9630122207225L 296.6760772299148 286.70890364224874L 208.01474909974968 294.4657647467923L 208.26440648343828 294.4526807577315L 208.28185623178956 294.9523761712411L 207.53197046042226 294.9654654760691L 207.53197046042152 204.96546547606906L 207.52324558624588 205.21531318282382L 207.02393081886862 205.1891452047023L 207.07624817417667 204.44097216700743L 297.7299657005255 212.37214475704482L 297.48182916261516 212.34167742119357L 297.55141571309514 211.8465433868228L 298.2921819685415 211.96386923560294L 282.3165496231925 302.56618251272755L 282.3685275458969 302.3216456125441L 282.8557125782895 302.434121139716L 282.6742711565898 303.161842934423L 192.84316931170724 279.09167173988567L 193.08224550069798 279.1647646660664L 192.92773700351052 279.6402929242139L 192.21859807181102 279.39611680837106L 224.36849154441796 191.0650104544935L 224.274839896064 191.2968064181352L 223.81458746933777 191.1014408538906L 224.11963995164456 190.41628176065862L 310.2188797201284 230.56501662602054L 309.99612808908137 230.45151900108564L 310.2308638704743 230.01004520465617L 310.8868286508289 230.37365241984088L 262.8868286508321 313.51209118314887L 263.01930846689044 313.3000791591098L 263.43864375086315 313.57239867661735L 263.0192490732601 314.19417685603355L 183.5615007772265 258.5572625299842L 183.76115965473832 258.7077162857721L 183.4533289170755 259.1017216625755L 182.8704694459828 258.62973136928815L 245.86365519526277 183.5573759436276L 245.69637254367308 183.74316214999695L 245.33069569286346 183.4021629699657L 245.8516894707077 182.8626581197117L 315.85526080817573 252.86622945718008L 315.68476121816013 252.68339103177527L 316.05633363089885 252.3488257285958L 316.54837790264173 252.9148579137629L 239.9439335907502 317.1936188824243L 240.14093627915184 317.03970351359294L 240.4418437907279 317.43902126861656L 239.83508104494666 317.8798602078359L 181.9038609734841 235.14550373465258L 182.04002073223785 235.35517137663894L 181.61599668415965 235.62013100875558L 181.22971812797715 234.977255533229L 269.5643093139863 183.9772555332228L 269.3435724157716 184.09462342391927L 269.1165771659018 183.6491201618251L 269.79067270062615 183.32034180173324L 313.32035365992346 276.6700438665057L 313.2226708778011 276.43991765314263L 313.6862628050845 276.2526143564347L 313.95503876724354 276.95279967630756L 216.22700620550654 312.5228945821701L 216.4647703345803 312.4456403335764L 216.61095618694168 312.9237927115579L 215.8900099149879 313.1305207284207L 188.71401017922034 211.7083089680693L 188.7702479428063 211.95190148426562L 188.2811741424394 212.05585732967452L 188.13806739590694 211.3196369420888L 292.5276892152007 192.91293010939265L 292.2801221980153 192.94772338463264L 292.21918752631274 192.45145030881199L 292.96507894783895 192.37305396136114L 302.29074342183844 298.96588665717786L 302.27765943277774 298.71622927348926L 302.77735484628727 298.698779525138L 302.79044415111525 299.4486652965053L 194.79044415111525 299.4486652965039L 195.04029185787005 299.45739017067956L 195.01412387974858 299.95670493805676L 194.2659508420537 299.90438758274865L 203.76592680153902 191.31916549074762L 203.7354594656877 191.56730202865796L 203.24032543131693 191.49771547817798L 203.35765128009712 190.75694922273163L 311.6865041114414 209.858248766086L 311.441967211258 209.80627084338158L 311.5544427384298 209.31908581098895L 312.28216453313684 209.50052723268874L 283.5532505267634 316.718293950777L 283.62634345294407 316.47921776178623L 284.10187171109163 316.63372625897375L 283.8576955952488 317.34286519067325L 178.61212206722098 279.0366091382151L 178.84391803086265 279.130260786569L 178.648552466618 279.59051321329525L 177.96339337338605 279.28546073098846L 225.71925695009344 176.87268079585093L 225.6057593251586 177.09543242689804L 225.16428552872912 176.86069664550504L 225.52789274391387 176.20473186515048L 324.2547887753409 233.20473186514872L 324.04277675130174 233.0722520490904L 324.31509626880927 232.65291676511768L 324.9368744482256 233.07231144272063L 258.9755842678557 327.27479653595503L 259.12603802364373 327.07513765844317L 259.5200434004471 327.382968396106L 259.0480531071598 327.96582786719875L 170.18689770535906 253.40246514355934L 170.37268391172842 253.56974779514908L 170.03168473169717 253.93542464595868L 169.49217988144318 253.41443086811444L 252.22367328026178 170.6829374692809L 252.040834854857 170.8534370592965L 251.7062695516775 170.48186464655785L 252.2723017368446 169.989820374815L 328.12123967986315 260.3830646628486L 327.9673243110317 260.18606197444694L 328.3666420660553 259.8851544628709L 328.80748100527467 260.4919172086521L 231.3283877348889 328.74751313443267L 231.53805537687526 328.61135337567896L 231.8030150089919 329.03537742375715L 231.16013953346538 329.4216559799397L 171.16013953346027 225.49860752581L 171.2775074241568 225.7193444240247L 170.83200416206256 225.94633967389447L 170.50322580197076 225.2722441391701L 280.1664680333978 174.13543446852916L 279.93634182003467 174.2331172506515L 279.7490385233267 173.7695253233681L 280.4492238431996 173.50074936120907L 322.17568132892063 288.14324909709376L 322.09842708032687 287.90548496802L 322.5765794583084 287.75929911565856L 322.7833074751711 288.4802453876123L 203.97443084161597 320.31498793522326L 204.21802335781229 320.2587501716373L 204.3219792032212 320.7478239720042L 203.58575881563547 320.89093071853677L 182.0533847849369 198.77476934502278L 182.08817806017686 199.02233636220816L 181.59190498435623 199.08327103391076L 181.51350863690539 198.33737961238458L 306.0378458983738 187.4429117689298L 305.78818851468515 187.45599575799054L 305.7707387663339 186.95630034448098L 306.5206245377012 186.94321103965302L 306.5206245377112 312.9432110396531L 306.52934941188687 312.69336333289823L 307.0286641792642 312.71953131101964L 306.9763468239561 313.4677043487145L 180.45962016630364 302.39892501977033L 180.70775670421398 302.42939235562164L 180.638170153734 302.92452638999237L 179.89740389828762 302.8072005412122L 202.12437063964813 176.7518081556484L 202.07239271694368 176.99634505583185L 201.58520768455105 176.88386952865997L 201.76664910625078 176.15614773395296L 326.37108069754566 209.54380455215917L 326.13200450855487 209.4707116259785L 326.28651300574234 208.99518336783092L 326.99565193744183 209.23935948367375L 282.5330333051079 331.399400185843L 282.62668495346185 331.16760422220125L 283.08693738018803 331.3629697864459L 282.7818848978813 332.04812887967796L 164.05556479608583 276.6851365916341L 164.27831642713295 276.798634216569L 164.04358064574 277.24010801299846L 163.38761586538544 276.8765007978137L 229.38761586538578 162.56114749826796L 229.25513604932752 162.77315952230705L 228.8358007653548 162.50084000479953L 229.2551954429578 161.8790618253832L 338.20241733340106 238.16472786006176L 338.00275845588925 238.01427410427377L 338.31058919355206 237.6202687274704L 338.8934486646449 238.09225902075764L 252.75990896664553 340.742214398698L 252.9271916182352 340.5564281923288L 253.2928684690449 340.89742737235997L 252.77187469120054 341.4369322226139L 157.31245923101 245.97751676243655L 157.48295882102565 246.16035518784133L 157.11138640828693 246.49492049102076L 156.6193421365441 245.92888830585366L 260.80138640071027 158.5097733884667L 260.6043837123086 158.66368875729813L 260.3034762007326 158.26437100227452L 260.91023894651374 157.82353206305513L 339.49021072661174 270.0473621306437L 339.35405096785803 269.83769448865735L 339.77807501593617 269.5727348565407L 340.16435357211867 270.2156103320673L 220.6528478498759 339.2156103320842L 220.87358474809065 339.0982424413877L 221.10057999796044 339.54374570348193L 220.42648446323608 339.8725240635737L 161.68254608127705 213.8957416654802L 161.78022886339943 214.12586787884328L 161.31663693611603 214.31317117555122L 161.04786097395697 213.61298585567835L 292.6048278839895 165.73016579009962L 292.36706375491576 165.80742003869338L 292.2208779025544 165.32926766071185L 292.9418241745081 165.1225396438491L 329.4353095339617 301.31808115060824L 329.37907177037573 301.074488634412L 329.8681455707426 300.97053278900296L 330.01125231727514 301.7067531765887L 190.16855138954372 326.3647944053049L 190.41611840672914 326.33000113006483L 190.4770530784317 326.8262742058855L 189.7311616569055 326.9046705533365L 177.26789044399624 184.44882872621633L 177.28097443305694 184.69848610990496L 176.7812790195474 184.7159358582563L 176.76818971471954 183.966050086889L 320.76818971471954 183.96605008688053L 320.51834200796475 183.9573252127049L 320.54450998608627 183.45801044532763L 321.29268302378114 183.51032780063574L 308.6551003253936 327.9585590239409L 308.6855676612449 327.71042248603055L 309.18070169561565 327.7800090365105L 309.0633758468355 328.52077529195685L 165.2814439070524 303.1681413525895L 165.52598080723584 303.220119275294L 165.413505280064 303.7073043076866L 164.68578348535698 303.52586288598684L 202.73218311540893 161.53476642148877L 202.65909018922827 161.77384261047953L 202.1835619310807 161.61933411329207L 202.42773804692354 160.91019518159257L 341.5022459232497 211.52917639375946L 341.27044995960796 211.4355247454055L 341.4658155238526 210.97527231867932L 342.1509746170846 211.28032480098605L 279.18085361770363 346.32018506943916L 279.2943512426385 346.09743343839204L 279.735825039068 346.332169219785L 279.37221782388326 346.98813400013955L 149.46840725621928 271.98813400013637L 149.68041928025838 272.1206138161947L 149.4080997627509 272.5399491001674L 148.7863215833346 272.1205544225644L 235.39636347233318 148.42859573492012L 235.24590971654516 148.62825461243196L 234.8519043397418 148.32042387476912L 235.32389463302906 147.73756440367632L 351.76264998710866 245.4412810760363L 351.57686378073936 245.27399842444655L 351.91786296077055 244.90832157363693L 352.4573678110246 245.42931535148114L 244.27003028948803 353.6166528730281L 244.45286871489282 353.44615328301256L 244.78743401807236 353.81772569575116L 244.22140183290526 354.30976996749405L 145.23210994116073 236.33892572718602L 145.38602530999214 236.5359284155877L 144.98670755496852 236.83683592716375L 144.5458686157491 236.23007318138258L 271.514435480541 147.3257255469678L 271.30476783855465 147.46188530572155L 271.03980820643795 147.03786125764336L 271.6826836819645 146.65158270146074L 349.6826836819808 281.7515456918238L 349.5653157912843 281.530808793609L 350.01081905337844 281.30381354373924L 350.3395974134703 281.97790907846365L 208.04927484873087 348.3289761717848L 208.27940106209394 348.2312933896625L 208.4667043588019 348.69488531694583L 207.766519038929 348.96366127910494L 153.72733639349332 200.49222719492408L 153.80459064208708 200.72999132399787L 153.32643826410555 200.87617717635925L 153.11971024724278 200.1552309044055L 306.70191662720606 159.00300273311L 306.45832411100974 159.05924049669594L 306.35436826560084 158.57016669632904L 307.09058865318656 158.4270599497966L 334.8742970799057 315.99630043174807L 334.8395038046657 315.7487334145627L 335.3357768804864 315.6877987428601L 335.4141732279372 316.43369016438635L 175.0268268351653 330.4657647467493L 175.27648421885397 330.45268075768854L 175.29393396720525 330.9523761711981L 174.54404819583795 330.9654654760261L 174.54404819583186 168.96546547602608L 174.53532332165622 169.21531318278087L 174.03600855427896 169.18914520465947L 174.08832590958707 168.4409721669646L 336.4680616985436 182.64735823481055L 336.21992516063324 182.61689089895927L 336.2895117111132 182.1217568645885L 337.0302779665596 182.23908271336862L 308.55197682918464 343.7475542073711L 308.6039547518891 343.50301730718763L 309.0911397842817 343.61549283435943L 308.9096983625821 344.34321462906644L 149.53193702488113 301.63807218716806L 149.77101321387187 301.7111651133488L 149.6165047166844 302.1866933714963L 148.90736578498496 301.94251725565346L 205.6827095770132 145.95354220518075L 205.58905792865926 146.18533816882248L 205.12880550193307 145.9899726045778L 205.43385798423986 145.30481351134583L 356.7872584193662 215.88206322203015L 356.56450678831914 215.76856559709526L 356.7992425697121 215.3270918006658L 357.45520735006664 215.6906990158504L 273.4552073500601 361.1829668516323L 273.5876871661184 360.97095482759323L 274.0070224500912 361.24327434510064L 273.5876277724882 361.86505252451695L 135.15093228764323 264.9306347811978L 135.35059116515504 265.0810885369858L 135.04276042749223 265.4750939137891L 134.4599009563994 265.00310362050186L 243.73379460312054 134.77554829028358L 243.56651195153086 134.96133449665294L 243.20083510072124 134.62033531662175L 243.72182887856547 134.0808304663677L 364.63708846146835 254.99609004926404L 364.46658887145276 254.81325162385923L 364.8381612841914 254.47868632067974L 365.33020555593424 255.04471850584687L 233.57056133948407 365.60418737194834L 233.76756402788578 365.4502720031169L 234.06847153946183 365.8495897581406L 233.4617087936806 366.29042869735997L 134.2329853049497 224.57712503536433L 134.36914506370346 224.78679267735066L 133.94512101562532 225.05175230946733L 133.5588424594427 224.40887683394078L 284.2472627179264 137.4088768339258L 284.02652581971165 137.52624472462227L 283.79953056984186 137.0807414625281L 284.4736261045662 136.7519631024363L 358.4318219092203 295.3558258338353L 358.3341391270979 295.12569962047223L 358.7977310543813 294.9383963237643L 359.06650701654036 295.63858164363717L 193.68060575822483 355.8341268689668L 193.91836988729858 355.756872620373L 194.06455573965997 356.23502499835456L 193.34360946770624 356.4417530152174L 147.5326384845696 185.47288176204978L 147.58887624815554 185.7164742782461L 147.09980244778865 185.82043012365503L 146.9566957012562 185.0842097360693L 322.25247573742786 154.17483411134793L 322.00490872024244 154.20962738658795L 321.94397404853987 153.7133543107673L 322.6898654700661 153.63495796331642L 338.2907434219226 331.9538089217366L 338.27765943286187 331.704151538048L 338.7773548463714 331.6867017896967L 338.7904441511994 332.436587561064L 158.79044415119938 332.436587561067L 159.04029185795417 332.4453124352426L 159.01412387983277 332.9446272026199L 158.2659508421379 332.8923098473117L 174.04114027944303 152.58106949270396L 174.01067294359177 152.8292060306143L 173.515538909221 152.75961948013426L 173.63286475800112 152.01885322468792L 352.8678758062226 183.6228215600712L 352.6233389060392 183.5708436373668L 352.73581443321103 183.08365860497418L 353.4635362279181 183.26510002667385L 306.0996509741725 360.02952623757756L 306.17274390035317 359.79045004858676L 306.64827215850073 359.9449585457743L 306.4040960426579 360.6540974774738L 133.50065381803887 297.72239110558337L 133.73244978168054 297.81604275393727L 133.53708421743596 298.2762951806635L 132.851925124204 297.9712426983567L 211.0363035462231 130.3043020965717L 210.92280592128827 130.5270537276188L 210.48133212485885 130.29231794622584L 210.84493934004348 129.63635316587124L 371.9256644439429 222.6363531658819L 371.7136524199038 222.50387334982358L 371.98597193741125 222.08453806585084L 372.60775011682756 222.50393274345387L 265.34895651918714 375.685365025499L 265.4994102749751 375.4857061479871L 265.89341565177847 375.7935368856499L 265.4214253584912 376.3763963567428L 121.40507005210719 255.5323257356926L 121.59085625847655 255.6996083872823L 121.24985707844532 256.06528523809186L 120.71035222819133 255.54429146024768L 254.353533872448 121.9011098159894L 254.17069544704322 122.07160940600502L 253.83613014386373 121.70003699326637L 254.40216232903083 121.20799272152354L 376.5318081694887 266.7564369141164L 376.3778928006573 266.55943422571477L 376.77721055568094 266.2585267141387L 377.2180494949003 266.86528945991995L 220.76000903572543 376.4183888030019L 220.9696766777118 376.2822290442482L 221.23463630982843 376.7062530923263L 220.5917608343019 377.09253164850895L 124.59176083428888 210.81565412190423L 124.70912872498536 211.03639102011897L 124.26362546289118 211.26338626998873L 123.9348471027994 210.58929073526437L 298.8522500008583 129.0239662192782L 298.6221237874952 129.12164900140053L 298.4348204907872 128.65805707411718L 299.13500581066006 128.38928111195813L 365.48691361584906 310.68964954442094L 365.40965936725524 310.4518854153472L 365.8878117452368 310.30569956298586L 366.09453976209966 311.0266458349396L 177.7390036357275 361.4963596299167L 177.98259615192381 361.44012186633074L 178.08655199733272 361.92919566669764L 177.350331609747 362.0723024132301L 143.31528878702414 169.04998282283807L 143.35008206226416 169.29754984002346L 142.85380898644348 169.35848451172612L 142.77541263899263 168.6125930901999L 339.0257681630644 151.44291176888711L 338.77611077937576 151.45599575794787L 338.7586610310245 150.95630034443835L 339.5085468023918 150.94321103961036L 339.5085468023909 348.94321103961033L 339.51727167656657 348.6933633328556L 340.0165864439438 348.719531310977L 339.96426908863566 349.4677043486719L 141.72152416837662 332.1237115419068L 141.96966070628696 332.1541788777581L 141.90007415580692 332.64931291212883L 141.1593079003606 332.53198706334865L 175.88894343370822 135.57043646090025L 175.83696551100377 135.81497336108373L 175.34978047861114 135.70249783391185L 175.53122190031087 134.97477603920484L 369.6823129844171 186.99740410479833L 369.44323679542634 186.92431117861767L 369.5977452926138 186.44878292047008L 370.3068842243133 186.69295903631297L 301.21881527256005 376.510868435078L 301.312466920914 376.2790724714364L 301.77271934764025 376.4744380356809L 301.46766686533346 377.1595971289129L 117.48718609689008 291.3680899955583L 117.7099377279372 291.4815876204932L 117.47520194654423 291.92306141692256L 116.8192371661897 291.5594542017378L 218.81923716616495 114.89027182969804L 218.68675735010663 115.10228385373716L 218.26742206613386 114.82996433622978L 218.68681674373693 114.20818615681347L 386.6129858229817 231.79135560877577L 386.41332694546986 231.6409018529878L 386.72115768313256 231.2468964761844L 387.3040171542253 231.71888676947182L 254.88976955881594 389.5240420519963L 255.05705221040563 389.3382558456269L 255.4227290612152 389.6792550256582L 254.90173528337107 390.21875987591227L 108.53063157775792 243.84765617029475L 108.70113116777357 244.0304945956995L 108.32955875503491 244.365059898879L 107.83751448329197 243.79902771371198L 267.1747586520585 110.09920489893449L 266.97775596365676 110.25312026776592L 266.6768484520807 109.85380251274228L 267.2836111978619 109.4129635735228L 387.16108639526215 280.6157408298999L 387.02492663650844 280.40607318791353L 387.44895068458663 280.1411135557969L 387.8352292407692 280.7839890313235L 205.9698944460431 385.78398903133393L 206.19063134425784 385.6666211406374L 206.41762659412763 386.11212440273164L 205.7435310594032 386.4409027628234L 116.57107783208558 195.20995969810423L 116.66876061420787 195.44008591146735L 116.2051686869245 195.62738920817534L 115.93639272476547 194.92720388830244L 315.1512283313759 122.41893350325478L 314.9134642023021 122.49618775184857L 314.76727834994074 122.01803537386704L 315.4882246218945 121.81130735700435L 370.6166812287581 327.5535083565687L 370.5604434651721 327.30991584037247L 371.04951726553895 327.20595999496345L 371.1926240120714 327.94218038254917L 160.44376486745898 365.1028904032727L 160.69133188464434 365.0680971280326L 160.75226655634702 365.5643702038533L 160.00637513482081 365.642766551304L 141.26789044400374 151.46090646158484L 141.2809744330645 151.71056384527347L 140.78127901955497 151.72801359362475L 140.76818971472682 150.97812782225745L 356.7681897147268 150.97812782226296L 356.518342007972 150.96940294808738L 356.54450998609343 150.47008818071012L 357.2926830237883 150.5224055360181L 338.37988684751343 366.696655021924L 338.4103541833647 366.4485184840137L 338.90548821773547 366.5181050344937L 338.78816236895545 367.2588712899401L 124.10007221228751 329.4035685585867L 124.34460911247096 329.4555464812912L 124.23213358529908 329.94273151368384L 123.50441179059207 329.76129009198416L 180.18578266803422 118.2235341346755L 180.11268974185356 118.46261032366627L 179.63716148370594 118.30810182647878L 179.88133759954889 117.5989628947793L 386.6137141724597 192.84339442639612L 386.3819182088181 192.7497427780421L 386.57728377306256 192.28949035131583L 387.2624428662945 192.59454283362265L 293.8638070216038 392.8885637687241L 293.97730464653864 392.665812137677L 294.41877844296806 392.90054791906994L 294.05517122778326 393.5565126994245L 101.7975315876247 282.55651269944735L 102.00954361166383 282.68899251550556L 101.73722409415642 283.1083277994784L 101.11544591474002 282.6889331218755L 229.02299122102482 100.0180272454314L 228.87253746523686 100.21768612294323L 228.47853208843344 99.90985538528045L 228.95052238172093 99.32699591418776L 400.5444776404179 243.31142048391786L 400.3586914340485 243.14413783232814L 400.69969061407977 242.77846098151855L 401.2391954643339 243.2994547593627L 242.14016969735496 402.3984805263302L 242.32300812275975 402.22798093631457L 242.65757342593923 402.59955334905317L 242.0915412407722 403.09159762079616L 96.8215414516426 229.96555347588333L 96.97545682047401 230.162556164285L 96.57613906545036 230.46346367586102L 96.13530012623089 229.85670093007988L 282.0828141798107 99.654849878362L 281.8731465378243 99.79100963711574L 281.60818690570767 99.36698558903754L 282.25106238123425 98.98070703285495L 396.2510623812414 296.4344990957028L 396.1336944905449 296.2137621974881L 396.57919775263906 295.9867669476183L 396.90797611273086 296.66086248234274L 189.3634928813512 393.4404444209912L 189.5936190947143 393.34276163886886L 189.7809223914224 393.8063535661522L 189.0807370715495 394.0751295283112L 110.41610410664386 177.94582674755296L 110.49335835523765 178.1835908766267L 110.01520597725612 178.32977672898807L 109.80847796039343 177.60883045703432L 332.9373438331617 117.82163103832778L 332.6937513169654 117.87786880191376L 332.5897954715564 117.3887950015469L 333.3260158591421 117.24568825501433L 373.61239307786565 345.72108695384736L 373.57759980262557 345.473519936662L 374.0738728784462 345.4125852649594L 374.1522692258969 346.1584766864855L 142.03890457052643 366.46576474676147L 142.28856195421508 366.4526807577007L 142.3060117025663 366.9523761712103L 141.55612593119906 366.9654654760384L 141.5561259311567 132.96546547603836L 141.54740105698113 133.21531318279315L 141.04808628960387 133.18914520467172L 141.10040364491186 132.44097216697685L 375.2061576964685 152.92257171271726L 374.95802115855815 152.892104376866L 375.0276077090382 152.39697034249522L 375.76837396448457 152.51429619127524L 334.7874040351246 384.92892590216263L 334.8393819578291 384.6843890019792L 335.32656699022175 384.7968645291511L 335.145125568522 385.5245863238581L 106.22070473801126 324.18447263456653L 106.45978092700203 324.25756556074714L 106.30527242981454 324.73309381889476L 105.59613349811507 324.4889177030518L 186.99692760959613 100.84207395599537L 186.90327596124212 101.07386991963705L 186.44302353451582 100.87850435539255L 186.74807601682267 100.19334526216059L 403.35563711858185 201.19910981818816L 403.13288548753474 201.0856121932533L 403.36762126892756 200.64413839682382L 404.02358604928213 201.00774561200862L 284.0235860493025 408.85384252028564L 284.15606586536074 408.6418304962466L 284.5754011493335 408.914150013754L 284.1560064717306 409.5359281931703L 86.7403637980877 271.30400703256237L 86.94002267559954 271.4544607883504L 86.63219193793675 271.8484661651538L 86.04933246684409 271.3764758718663L 241.60393401093143 85.99372063702731L 241.43665135934168 86.17950684339667L 241.07097450853212 85.83850766336542L 241.59196828637624 85.29900281311131L 413.4189161147366 257.12595064141317L 413.24841652472094 256.94311221600833L 413.61998893745954 256.60854691282884L 414.1120332092025 257.1745790979959L 227.19718908814292 414.01475586147706L 227.39419177654457 413.8608404926456L 227.69509928812062 414.2601582476692L 227.08833654233945 414.7009971868887L 86.56210963630453 214.00874633610573L 86.69826939505826 214.21841397809212L 86.27424534698007 214.48337361020873L 85.8879667907975 213.84049813468218L 298.93021612176756 90.84049813467894L 298.7094792235528 90.95786602537547L 298.4824839736831 90.51236276328126L 299.1565795084075 90.18358440318951L 403.54329015838596 314.04160780123004L 403.4456073762637 313.81148158786687L 403.90919930354704 313.62417829115884L 404.17797526570604 314.3243636110317L 171.1342053107997 399.1453591557947L 171.3719694398735 399.0681049072009L 171.51815529223495 399.5462572851824L 170.79720902028117 399.7529853020451L 106.35126678973246 159.2374545560727L 106.40750455331845 159.48104707226898L 105.91843075295158 159.585002917678L 105.77532400641901 158.84878253009228" 
                    stroke-width="0.25" 
                    stroke="black" 
                    fill="none" 
                    stroke-linecap="round"
                    stroke-linejoin="round"
                    style="transform: scale(1, 1);"
                    />
                </svg>
            