
                <svg 
                  xmlns="http://www.w3.org/2000/svg" 
                  viewBox="0 0 125 125" 
                  width="125mm" 
                  height="125mm"
                  style="transform: scale(1, -1)">
                    <path 
                    d="M 0 80L 125 80M 27.5 0L 57.5 80L 67.5 80L 97.5 0M 59 0L 62 80L 63 80L 66 0" 
                    stroke-width="1" 
                    stroke="black" 
                    fill="none" 
                    stroke-linecap="round"
                    stroke-linejoin="round"
                    style="transform: scale(1, 1);"
                    />
<path 
                    d="M 49.3043718577206 125L 48.35786437626905 124.14213562373095L 47.03979093274526 122.68786568327292L 45.87060775394909 121.11140466039204L 44.861574713032894 119.42793473651996L 44.02240934977428 117.6536686473018L 43.361193285355824 115.80569354508924L 42.8842943919354 113.90180644032257L 42.59630546655606 111.9603428065912L 42.5 110L 42.59630546655606 108.0396571934088L 42.884294391935384 106.09819355967744L 43.361193285355824 104.19430645491076L 44.022409349774264 102.3463313526982L 44.861574713032894 100.57206526348006L 45.87060775394909 98.88859533960796L 47.03979093274526 97.31213431672708L 48.35786437626905 95.85786437626905L 49.81213431672708 94.53979093274526L 51.38859533960796 93.37060775394909L 53.07206526348004 92.36157471303291L 54.846331352698186 91.52240934977428L 56.694306454910745 90.86119328535582L 58.598193559677426 90.3842943919354L 60.539657193408786 90.09630546655606L 62.5 90L 64.46034280659121 90.09630546655606L 66.40180644032256 90.38429439193538L 68.30569354508924 90.86119328535582L 70.1536686473018 91.52240934977426L 71.92793473651996 92.3615747130329L 73.61140466039204 93.37060775394909L 75.18786568327292 94.53979093274526L 76.64213562373095 95.85786437626905L 77.96020906725474 97.31213431672708L 79.12939224605091 98.88859533960796L 80.1384252869671 100.57206526348004L 80.97759065022574 102.3463313526982L 81.63880671464418 104.19430645491076L 82.11570560806462 106.09819355967744L 82.40369453344394 108.03965719340879L 82.5 110L 82.40369453344394 111.96034280659121L 82.11570560806462 113.90180644032256L 81.63880671464418 115.80569354508924L 80.97759065022574 117.6536686473018L 80.1384252869671 119.42793473651996L 79.12939224605091 121.11140466039204L 77.96020906725474 122.6878656832729L 76.64213562373095 124.14213562373095L 75.69562814227942 125M 77.416535717765 80L 89.91293996919714 95.73663416452162L 102.40934422062928 80" 
                    stroke-width="1" 
                    stroke="black" 
                    fill="none" 
                    stroke-linecap="round"
                    stroke-linejoin="round"
                    style="transform: scale(1, 1);"
                    />
                </svg>
            