
                <svg 
                  xmlns="http://www.w3.org/2000/svg" 
                  viewBox="0 0 125 125" 
                  width="125mm" 
                  height="125mm"
                  style="transform: scale(1, -1)">
                    <path 
                    d="M 0 80L 125 80M 27.5 0L 57.5 80L 67.5 80L 97.5 0M 59 0L 62 80L 63 80L 66 0" 
                    stroke-width="1" 
                    stroke="black" 
                    fill="none" 
                    stroke-linecap="round"
                    stroke-linejoin="round"
                    style="transform: scale(1, 1);"
                    />
<path 
                    d="M 61.5198285967044 90.04815273327803L 62.5 90L 63.4801714032956 90.04815273327803L 64.45090322016128 90.19214719596769L 65.40284677254462 90.43059664267791L 66.3268343236509 90.76120467488713L 67.21396736825997 91.18078735651645L 68.05570233019603 91.68530387697454L 68.84393284163646 92.26989546637263L 69.57106781186548 92.92893218813452L 70.23010453362737 93.65606715836354L 70.81469612302546 94.44429766980397L 71.31921264348355 95.28603263174003L 71.73879532511287 96.1731656763491L 72.06940335732209 97.09715322745538L 72.30785280403231 98.04909677983872L 72.45184726672197 99.0198285967044L 72.5 100L 72.45184726672197 100.9801714032956L 72.30785280403231 101.95090322016128L 72.06940335732209 102.90284677254462L 71.73879532511287 103.8268343236509L 71.31921264348355 104.71396736825997L 70.81469612302546 105.55570233019603L 70.23010453362737 106.34393284163644L 69.57106781186548 107.07106781186548L 68.84393284163646 107.73010453362737L 68.05570233019603 108.31469612302546L 67.21396736825997 108.81921264348355L 66.3268343236509 109.23879532511287L 65.40284677254462 109.56940335732209L 64.45090322016128 109.80785280403231L 63.480171403295614 109.95184726672197L 62.5 110L 61.5198285967044 109.95184726672197L 60.54909677983872 109.80785280403231L 59.59715322745538 109.56940335732209L 58.6731656763491 109.23879532511287L 57.78603263174003 108.81921264348355L 56.94429766980397 108.31469612302546L 56.15606715836354 107.73010453362737L 55.428932188134524 107.07106781186548L 54.76989546637263 106.34393284163646L 54.185303876974544 105.55570233019603L 53.68078735651645 104.71396736825997L 53.26120467488714 103.8268343236509L 52.93059664267791 102.90284677254462L 52.69214719596769 101.95090322016128L 52.54815273327803 100.9801714032956L 52.5 100L 52.54815273327803 99.0198285967044L 52.69214719596769 98.04909677983872L 52.93059664267791 97.09715322745538L 53.26120467488714 96.1731656763491L 53.68078735651645 95.28603263174003L 54.185303876974544 94.44429766980399L 54.76989546637263 93.65606715836354L 55.428932188134524 92.92893218813452L 56.15606715836354 92.26989546637263L 56.94429766980397 91.68530387697454L 57.78603263174003 91.18078735651645L 58.6731656763491 90.76120467488714L 59.59715322745538 90.43059664267791L 60.549096779838706 90.19214719596769L 61.5198285967044 90.04815273327803M 106.19806569383967 95.18259356056271L 110.55413295062122 102.5865012436608L 113.33570653161625 97.85872437672421M 46.73508524734342 80.75047273869575L 54.72956342849172 90.10282787031095L 63.36555252861361 80M 91.40783701823275 80L 103.72446973778412 98.99804228194944L 110.26096582513097 88.91569007816173M 107.19562644539299 80L 116.09781322269649 105.89244729277968L 125 80M 36.814268081947944 90.06264907338291L 38.724147652677296 93.81873646374297L 44.12174742224878 83.20348263129556M 18.682263592184114 80L 33.10843611674114 93.54112873401985L 47.53460864129816 80M 109.79997561308555 80L 117.39998780654278 93.90856131070959L 125 80" 
                    stroke-width="1" 
                    stroke="black" 
                    fill="none" 
                    stroke-linecap="round"
                    stroke-linejoin="round"
                    style="transform: scale(1, 1);"
                    />
                </svg>
            