
                <svg 
                  xmlns="http://www.w3.org/2000/svg" 
                  viewBox="0 0 125 125" 
                  width="125mm" 
                  height="125mm"
                  style="transform: scale(1, -1)">
                    <path 
                    d="M 0 80L 125 80M 27.5 0L 57.5 80L 67.5 80L 97.5 0M 59 0L 62 80L 63 80L 66 0" 
                    stroke-width="1" 
                    stroke="black" 
                    fill="none" 
                    stroke-linecap="round"
                    stroke-linejoin="round"
                    style="transform: scale(1, 1);"
                    />
<path 
                    d="M 74.10705363252465 96.26179391510958L 73.61140466039204 96.62939224605091L 71.92793473651996 97.6384252869671L 70.1536686473018 98.47759065022574L 68.30569354508924 99.13880671464418L 66.40180644032257 99.61570560806462L 64.46034280659121 99.90369453344394L 62.5 100L 60.539657193408786 99.90369453344394L 58.59819355967743 99.61570560806462L 56.69430645491076 99.13880671464418L 54.84633135269821 98.47759065022574L 53.07206526348005 97.6384252869671L 51.38859533960796 96.62939224605091L 49.8121343167271 95.46020906725474L 48.35786437626905 94.14213562373095L 47.03979093274526 92.68786568327292L 45.87060775394909 91.11140466039204L 44.861574713032894 89.42793473651996L 44.383557222071715 88.41725166808142M 87.90706318774356 86.4694693767577L 95.452076525067 98.9322412547032L 106.91373322320024 80M 67.0589343509774 80L 78.88498406365629 107.28568793676926L 90.71103377633519 80M 35.682295263127706 94.77090402098882L 37.93761967284084 98.19034331668874L 49.93523733921704 80M 20.373962591489303 80L 30.755014644413023 108.11586905692607L 41.136066697336744 80M 75.7982366079926 80L 81.03194788704438 98.41071089459832L 86.26565916609616 80" 
                    stroke-width="1" 
                    stroke="black" 
                    fill="none" 
                    stroke-linecap="round"
                    stroke-linejoin="round"
                    style="transform: scale(1, 1);"
                    />
                </svg>
            