
                <svg 
                  xmlns="http://www.w3.org/2000/svg" 
                  viewBox="0 0 200 200" 
                  width="200mm" 
                  height="200mm"
                  style="transform: scale(1, -1)">
                    <path 
                    d="M 67.63883190873052 71.91660762110646L 86.80866465434426 66.21419475415307L 83.95745822086757 56.629278381346204L 64.78762547525383 62.3316912482996L 61.936419041777135 52.74677487549273L 76.19245120916065 100.67135673952704M 5.584393997114243 51.569541020218644L -14.285152251870056 49.28894200691665L -15.425451758521055 59.223715131408795L 4.444094490463245 61.50431414471079L 3.3037949838122462 71.43908726920294L 9.005292517067245 21.765221646742198M 75.8833523364466 112.64517291277768L 61.253229037151826 99.00847638292002L 54.434880772222996 106.32353803256741L 69.06500407151778 119.96023456242507L 62.24665580658895 127.27529621207246L 96.33839713123308 90.69998796383548M 55.89136582703594 45.841618777681525L 51.313963408580406 65.31075812947408L 61.04853308447669 67.59945933870185L 65.62593550293222 48.13031998690929L 75.3605051788285 50.41902119613706L 26.68765679934711 38.97551514999825M 43.859209619429706 13.492094309416622L 59.18700631026849 26.33960957908303L 65.6107639451017 18.67571123366364L 50.282967254262914 5.828195963997228L 56.70672488909612 -1.8357023814221627L 24.587936714930095 36.48378934567479M 175.84778454058053 88.32469605568906L 186.8718847789301 105.0120929148406L 195.21558320850588 99.5000427956658L 184.1914829701563 82.81264593651427L 192.53518139973207 77.30059581733948L 150.81668925185323 104.86084641321345M 129.99741145176753 94.3772633430495L 110.90884602650243 88.40845525387678L 107.92444198191608 97.95273796650933L 127.01300740718118 103.92154605568206L 124.02860336259482 113.46582876831461L 138.95062358552659 65.74441520515184M 29.47069431875616 0.4521316616917335L 47.493207762496276 9.123291282538693L 51.82878757291976 0.1120345606686346L 33.80627412917964 -8.559125060178328L 38.14185393960312 -17.570381782048386L 16.463954887485723 27.485901827301902M 41.46384378929246 149.95354410492664L 21.925145389273997 145.6827988733405L 19.78977277348092 155.45214807334972L 39.32847117349938 159.72289330493587L 37.1930985577063 169.4922425049451L 47.869961636671654 120.64549650489893M 30.896704739634114 70.45977012497833L 14.976607187071547 58.35396598329112L 8.92370511622794 66.3140147595724L 24.84380266879051 78.41981890125962L 18.7909005979469 86.3798676775409L 49.05541095216492 46.57962379613447" 
                    stroke-width="1" 
                    stroke="black" 
                    fill="none" 
                    stroke-linecap="round"
                    stroke-linejoin="round"
                    style="transform: scale(1, 1);"
                    />
                </svg>
            