<svg viewBox="0 0 54.009 66.811" xmlns="http://www.w3.org/2000/svg">
  <defs></defs>
  <path d="M 19.505 62.853 L 19.505 12.853 M 8.228 16.957 L 30.781 8.749 L 31.721 8.407 L 32.458 7.731 L 32.881 6.825 L 32.924 5.826 L 32.582 4.886 L 31.907 4.149 L 31 3.726 L 30.001 3.683 L 7.449 11.891 L 6.509 12.233 L 5.772 12.909 L 5.349 13.815 L 5.305 14.814 L 5.647 15.754 L 6.323 16.491 L 7.229 16.914 L 8.228 16.957 L 6.518 12.259 M 7.458 11.917 L 9.168 16.615 M 10.108 16.273 L 8.398 11.575 M 9.337 11.233 L 11.047 15.931 M 11.987 15.589 L 10.277 10.891 M 11.217 10.549 L 12.927 15.247 M 13.866 14.905 L 12.156 10.207 M 13.096 9.865 L 14.806 14.563 M 15.746 14.221 L 14.036 9.523 M 14.975 9.181 L 16.686 13.879 M 17.625 13.537 L 15.915 8.839 M 16.855 8.497 L 18.565 13.195 M 19.505 12.853 L 17.795 8.155 M 18.734 7.813 L 20.444 12.511 M 21.384 12.169 L 19.674 7.471 M 20.614 7.129 L 22.324 11.827 M 23.263 11.485 L 21.553 6.787 M 22.493 6.445 L 24.203 11.143 M 25.143 10.801 L 23.433 6.103 M 24.372 5.761 L 26.082 10.459 M 27.022 10.117 L 25.312 5.419 M 26.252 5.076 L 27.962 9.775 M 28.902 9.433 L 27.191 4.734 M 28.131 4.392 L 29.841 9.091 M 30.781 8.749 L 29.071 4.05 M 30.011 3.708 L 31.721 8.407 M 32.575 7.83 L 31.07 3.695 M 5.698 12.93 L 7.203 17.064 M 16.855 8.497 L 12.759 5.629 L 14.638 4.945 L 18.734 7.813 M 18.734 7.813 L 16.855 8.497 M 15.855 7.796 L 17.734 7.112 M 16.735 6.412 L 14.855 7.096 M 13.855 6.396 L 15.735 5.712 M 19.505 12.853 L 34.505 12.853 L 39.505 12.853 L 44.124 14.767 L 47.66 18.302 L 49.573 22.921 L 49.573 27.921 L 47.66 32.541 L 44.124 36.076 L 39.505 37.99 L 44.124 39.903 L 47.66 43.439 L 49.573 48.058 L 49.573 53.058 L 47.66 57.678 L 44.124 61.213 L 39.505 63.127 L 34.505 63.127 L 19.505 63.127 L 14.505 63.127 L 9.885 61.213 L 6.35 57.678 L 4.436 53.058 L 4.436 48.058 L 6.35 52.678 L 9.885 56.213 L 14.505 58.127 L 19.505 58.127 M 29.708 30.981 L 29.954 30.326 L 29.986 29.626 L 29.8 28.951 L 29.415 28.367 L 28.868 27.93 L 28.213 27.684 L 27.513 27.652 L 26.838 27.838 L 26.254 28.223 L 25.817 28.771 L 25.571 29.426 L 25.539 30.125 L 25.725 30.8 L 26.11 31.384 L 26.658 31.821 L 27.313 32.067 L 28.012 32.099 L 28.687 31.913 L 29.271 31.528 L 29.708 30.981 M 39.796 26.595 L 40.438 26.315 L 40.962 25.852 L 41.317 25.248 L 41.469 24.565 L 41.402 23.868 L 41.122 23.226 L 40.659 22.702 L 40.056 22.347 L 39.372 22.195 L 38.675 22.262 L 38.033 22.542 L 37.509 23.005 L 37.154 23.608 L 37.002 24.292 L 37.069 24.989 L 37.349 25.631 L 37.812 26.155 L 38.416 26.51 L 39.099 26.662 L 39.796 26.595" stroke="black" fill="none" stroke-linecap="round" stroke-linejoin="round" style="stroke-width: 2px;" vector-effect="non-scaling-stroke"></path>
</svg>