<?xml version="1.0" encoding="utf-8"?>
<!-- Generator: Adobe Illustrator 27.2.0, SVG Export Plug-In . SVG Version: 6.00 Build 0)  -->
<svg version="1.1" id="Layer_1" xmlns="http://www.w3.org/2000/svg" xmlns:xlink="http://www.w3.org/1999/xlink" x="0px" y="0px"
	 viewBox="0 0 272.1 297.6" style="enable-background:new 0 0 272.1 297.6;" xml:space="preserve">
<style type="text/css">
	.st0{fill:none;stroke:#000000;stroke-width:2.8346;stroke-miterlimit:11.3386;}
</style>
<g transform="scale(1, -1)">
	<path vector-effect="non-scaling-stroke" class="st0" d="M136.1-148.8"/>
</g>
<g transform="scale(1, -1)">
	<polyline vector-effect="non-scaling-stroke" class="st0" points="78.7,-59.8 79.1,-59.8 79.5,-59.7 79.8,-59.7 80.2,-59.7 
		80.5,-59.6 80.9,-59.5 81.2,-59.5 81.5,-59.4 81.9,-59.3 82.2,-59.2 82.5,-59 82.9,-58.9 83.2,-58.7 83.5,-58.6 83.8,-58.4 
		84.1,-58.2 84.4,-58 84.7,-57.8 85,-57.6 85.3,-57.4 85.5,-57.2 85.8,-56.9 86,-56.7 86.3,-56.4 86.5,-56.1 86.7,-55.9 86.9,-55.6 
		87.1,-55.3 87.3,-55 87.5,-54.7 87.7,-54.4 87.9,-54.1 88,-53.8 88.1,-53.4 88.3,-53.1 88.4,-52.8 88.5,-52.4 88.6,-52.1 
		88.7,-51.7 88.7,-51.4 88.8,-51 88.8,-50.7 88.9,-50.3 88.9,-50 88.9,-49.6 88.9,-49.3 88.9,-48.9 88.8,-48.6 88.8,-48.2 
		88.7,-47.9 88.7,-47.5 88.6,-47.2 88.5,-46.8 88.4,-46.5 88.3,-46.2 88.1,-45.8 88,-45.5 87.9,-45.2 87.7,-44.9 87.5,-44.6 
		87.3,-44.3 87.1,-44 86.9,-43.7 86.7,-43.4 86.5,-43.1 86.3,-42.8 86,-42.6 85.8,-42.3 85.5,-42.1 85.3,-41.9 85,-41.6 84.7,-41.4 
		84.4,-41.2 84.1,-41 83.8,-40.9 83.5,-40.7 83.2,-40.5 82.9,-40.4 82.5,-40.2 82.2,-40.1 81.9,-40 81.5,-39.9 81.2,-39.8 
		80.9,-39.7 80.5,-39.6 80.2,-39.6 79.8,-39.6 79.5,-39.5 79.1,-39.5 78.7,-39.5 78.4,-39.5 78,-39.5 77.7,-39.6 77.3,-39.6 
		77,-39.6 76.6,-39.7 76.3,-39.8 76,-39.9 75.6,-40 75.3,-40.1 75,-40.2 74.6,-40.4 74.3,-40.5 74,-40.7 73.7,-40.9 73.4,-41 
		73.1,-41.2 72.8,-41.4 72.5,-41.6 72.2,-41.9 72,-42.1 71.7,-42.3 71.5,-42.6 71.2,-42.8 71,-43.1 70.8,-43.4 70.5,-43.7 70.3,-44 
		70.2,-44.3 70,-44.6 69.8,-44.9 69.6,-45.2 69.5,-45.5 69.4,-45.8 69.2,-46.2 69.1,-46.5 69,-46.8 68.9,-47.2 68.8,-47.5 
		68.8,-47.9 68.7,-48.2 68.7,-48.6 68.6,-48.9 68.6,-49.3 68.6,-49.6 68.6,-50 68.6,-50.3 68.7,-50.7 68.7,-51 68.8,-51.4 
		68.8,-51.7 68.9,-52.1 69,-52.4 69.1,-52.8 69.2,-53.1 69.4,-53.4 69.5,-53.8 69.6,-54.1 69.8,-54.4 70,-54.7 70.2,-55 70.3,-55.3 
		70.5,-55.6 70.8,-55.9 71,-56.1 71.2,-56.4 71.5,-56.7 71.7,-56.9 72,-57.2 72.2,-57.4 72.5,-57.6 72.8,-57.8 73.1,-58 73.4,-58.2 
		73.7,-58.4 74,-58.6 74.3,-58.7 74.6,-58.9 75,-59 75.3,-59.2 75.6,-59.3 76,-59.4 76.3,-59.5 76.6,-59.5 77,-59.6 77.3,-59.7 
		77.7,-59.7 78,-59.7 78.4,-59.8 78.7,-59.8 	"/>
</g>
<g transform="scale(1, -1)">
	<polyline vector-effect="non-scaling-stroke" class="st0" points="193.4,-57.4 193.7,-57.4 193.9,-57.4 194.2,-57.4 194.5,-57.3 
		194.7,-57.3 195,-57.3 195.3,-57.2 195.5,-57.1 195.8,-57 196,-57 196.3,-56.9 196.6,-56.8 196.8,-56.6 197,-56.5 197.3,-56.4 
		197.5,-56.2 197.7,-56.1 198,-55.9 198.2,-55.8 198.4,-55.6 198.6,-55.4 198.8,-55.2 199,-55 199.2,-54.8 199.4,-54.6 199.5,-54.4 
		199.7,-54.2 199.8,-54 200,-53.8 200.1,-53.5 200.3,-53.3 200.4,-53 200.5,-52.8 200.6,-52.5 200.7,-52.3 200.8,-52 200.9,-51.8 
		200.9,-51.5 201,-51.2 201.1,-51 201.1,-50.7 201.1,-50.4 201.2,-50.2 201.2,-49.9 201.2,-49.6 201.2,-49.4 201.2,-49.1 
		201.1,-48.8 201.1,-48.5 201.1,-48.3 201,-48 200.9,-47.7 200.9,-47.5 200.8,-47.2 200.7,-47 200.6,-46.7 200.5,-46.5 200.4,-46.2 
		200.3,-46 200.1,-45.7 200,-45.5 199.8,-45.3 199.7,-45 199.5,-44.8 199.4,-44.6 199.2,-44.4 199,-44.2 198.8,-44 198.6,-43.8 
		198.4,-43.7 198.2,-43.5 198,-43.3 197.7,-43.2 197.5,-43 197.3,-42.9 197,-42.7 196.8,-42.6 196.6,-42.5 196.3,-42.4 196,-42.3 
		195.8,-42.2 195.5,-42.1 195.3,-42.1 195,-42 194.7,-42 194.5,-41.9 194.2,-41.9 193.9,-41.9 193.7,-41.8 193.4,-41.8 193.1,-41.8 
		192.8,-41.9 192.6,-41.9 192.3,-41.9 192,-42 191.8,-42 191.5,-42.1 191.2,-42.1 191,-42.2 190.7,-42.3 190.5,-42.4 190.2,-42.5 
		190,-42.6 189.7,-42.7 189.5,-42.9 189.2,-43 189,-43.2 188.8,-43.3 188.6,-43.5 188.4,-43.7 188.2,-43.8 188,-44 187.8,-44.2 
		187.6,-44.4 187.4,-44.6 187.2,-44.8 187.1,-45 186.9,-45.3 186.8,-45.5 186.6,-45.7 186.5,-46 186.4,-46.2 186.3,-46.5 
		186.2,-46.7 186.1,-47 186,-47.2 185.9,-47.5 185.8,-47.7 185.8,-48 185.7,-48.3 185.7,-48.5 185.6,-48.8 185.6,-49.1 185.6,-49.4 
		185.6,-49.6 185.6,-49.9 185.6,-50.2 185.6,-50.4 185.7,-50.7 185.7,-51 185.8,-51.2 185.8,-51.5 185.9,-51.8 186,-52 186.1,-52.3 
		186.2,-52.5 186.3,-52.8 186.4,-53 186.5,-53.3 186.6,-53.5 186.8,-53.8 186.9,-54 187.1,-54.2 187.2,-54.4 187.4,-54.6 
		187.6,-54.8 187.8,-55 188,-55.2 188.2,-55.4 188.4,-55.6 188.6,-55.8 188.8,-55.9 189,-56.1 189.2,-56.2 189.5,-56.4 189.7,-56.5 
		190,-56.6 190.2,-56.8 190.5,-56.9 190.7,-57 191,-57 191.2,-57.1 191.5,-57.2 191.8,-57.3 192,-57.3 192.3,-57.3 192.6,-57.4 
		192.8,-57.4 193.1,-57.4 193.4,-57.4 	"/>
</g>
<g transform="scale(1, -1)">
	<polyline vector-effect="non-scaling-stroke" class="st0" points="193.4,-255.8 193.7,-255.8 193.9,-255.8 194.2,-255.8 
		194.5,-255.7 194.7,-255.7 195,-255.6 195.3,-255.6 195.5,-255.5 195.8,-255.4 196,-255.3 196.3,-255.2 196.6,-255.1 196.8,-255 
		197,-254.9 197.3,-254.8 197.5,-254.6 197.7,-254.5 198,-254.3 198.2,-254.2 198.4,-254 198.6,-253.8 198.8,-253.6 199,-253.4 
		199.2,-253.2 199.4,-253 199.5,-252.8 199.7,-252.6 199.8,-252.4 200,-252.1 200.1,-251.9 200.3,-251.7 200.4,-251.4 200.5,-251.2 
		200.6,-250.9 200.7,-250.7 200.8,-250.4 200.9,-250.2 200.9,-249.9 201,-249.6 201.1,-249.4 201.1,-249.1 201.1,-248.8 
		201.2,-248.6 201.2,-248.3 201.2,-248 201.2,-247.7 201.2,-247.5 201.1,-247.2 201.1,-246.9 201.1,-246.7 201,-246.4 200.9,-246.1 
		200.9,-245.9 200.8,-245.6 200.7,-245.3 200.6,-245.1 200.5,-244.8 200.4,-244.6 200.3,-244.3 200.1,-244.1 200,-243.9 
		199.8,-243.6 199.7,-243.4 199.5,-243.2 199.4,-243 199.2,-242.8 199,-242.6 198.8,-242.4 198.6,-242.2 198.4,-242 198.2,-241.9 
		198,-241.7 197.7,-241.5 197.5,-241.4 197.3,-241.3 197,-241.1 196.8,-241 196.6,-240.9 196.3,-240.8 196,-240.7 195.8,-240.6 
		195.5,-240.5 195.3,-240.4 195,-240.4 194.7,-240.3 194.5,-240.3 194.2,-240.3 193.9,-240.2 193.7,-240.2 193.4,-240.2 
		193.1,-240.2 192.8,-240.2 192.6,-240.3 192.3,-240.3 192,-240.3 191.8,-240.4 191.5,-240.4 191.2,-240.5 191,-240.6 190.7,-240.7 
		190.5,-240.8 190.2,-240.9 190,-241 189.7,-241.1 189.5,-241.3 189.2,-241.4 189,-241.5 188.8,-241.7 188.6,-241.9 188.4,-242 
		188.2,-242.2 188,-242.4 187.8,-242.6 187.6,-242.8 187.4,-243 187.2,-243.2 187.1,-243.4 186.9,-243.6 186.8,-243.9 186.6,-244.1 
		186.5,-244.3 186.4,-244.6 186.3,-244.8 186.2,-245.1 186.1,-245.3 186,-245.6 185.9,-245.9 185.8,-246.1 185.8,-246.4 
		185.7,-246.7 185.7,-246.9 185.6,-247.2 185.6,-247.5 185.6,-247.7 185.6,-248 185.6,-248.3 185.6,-248.6 185.6,-248.8 
		185.7,-249.1 185.7,-249.4 185.8,-249.6 185.8,-249.9 185.9,-250.2 186,-250.4 186.1,-250.7 186.2,-250.9 186.3,-251.2 
		186.4,-251.4 186.5,-251.7 186.6,-251.9 186.8,-252.1 186.9,-252.4 187.1,-252.6 187.2,-252.8 187.4,-253 187.6,-253.2 
		187.8,-253.4 188,-253.6 188.2,-253.8 188.4,-254 188.6,-254.2 188.8,-254.3 189,-254.5 189.2,-254.6 189.5,-254.8 189.7,-254.9 
		190,-255 190.2,-255.1 190.5,-255.2 190.7,-255.3 191,-255.4 191.2,-255.5 191.5,-255.6 191.8,-255.6 192,-255.7 192.3,-255.7 
		192.6,-255.8 192.8,-255.8 193.1,-255.8 193.4,-255.8 	"/>
</g>
<g transform="scale(1, -1)">
	<polyline vector-effect="non-scaling-stroke" class="st0" points="78.7,-258.1 79.1,-258.1 79.5,-258.1 79.8,-258.1 80.2,-258 
		80.5,-258 80.9,-257.9 81.2,-257.8 81.5,-257.8 81.9,-257.6 82.2,-257.5 82.5,-257.4 82.9,-257.3 83.2,-257.1 83.5,-257 
		83.8,-256.8 84.1,-256.6 84.4,-256.4 84.7,-256.2 85,-256 85.3,-255.8 85.5,-255.5 85.8,-255.3 86,-255 86.3,-254.8 86.5,-254.5 
		86.7,-254.2 86.9,-254 87.1,-253.7 87.3,-253.4 87.5,-253.1 87.7,-252.8 87.9,-252.5 88,-252.1 88.1,-251.8 88.3,-251.5 
		88.4,-251.1 88.5,-250.8 88.6,-250.5 88.7,-250.1 88.7,-249.8 88.8,-249.4 88.8,-249.1 88.9,-248.7 88.9,-248.4 88.9,-248 
		88.9,-247.7 88.9,-247.3 88.8,-246.9 88.8,-246.6 88.7,-246.2 88.7,-245.9 88.6,-245.6 88.5,-245.2 88.4,-244.9 88.3,-244.5 
		88.1,-244.2 88,-243.9 87.9,-243.6 87.7,-243.3 87.5,-242.9 87.3,-242.6 87.1,-242.3 86.9,-242.1 86.7,-241.8 86.5,-241.5 
		86.3,-241.2 86,-241 85.8,-240.7 85.5,-240.5 85.3,-240.2 85,-240 84.7,-239.8 84.4,-239.6 84.1,-239.4 83.8,-239.2 83.5,-239.1 
		83.2,-238.9 82.9,-238.8 82.5,-238.6 82.2,-238.5 81.9,-238.4 81.5,-238.3 81.2,-238.2 80.9,-238.1 80.5,-238 80.2,-238 
		79.8,-237.9 79.5,-237.9 79.1,-237.9 78.7,-237.9 78.4,-237.9 78,-237.9 77.7,-237.9 77.3,-238 77,-238 76.6,-238.1 76.3,-238.2 
		76,-238.3 75.6,-238.4 75.3,-238.5 75,-238.6 74.6,-238.8 74.3,-238.9 74,-239.1 73.7,-239.2 73.4,-239.4 73.1,-239.6 72.8,-239.8 
		72.5,-240 72.2,-240.2 72,-240.5 71.7,-240.7 71.5,-241 71.2,-241.2 71,-241.5 70.8,-241.8 70.5,-242.1 70.3,-242.3 70.2,-242.6 
		70,-242.9 69.8,-243.3 69.6,-243.6 69.5,-243.9 69.4,-244.2 69.2,-244.5 69.1,-244.9 69,-245.2 68.9,-245.6 68.8,-245.9 
		68.8,-246.2 68.7,-246.6 68.7,-246.9 68.6,-247.3 68.6,-247.7 68.6,-248 68.6,-248.4 68.6,-248.7 68.7,-249.1 68.7,-249.4 
		68.8,-249.8 68.8,-250.1 68.9,-250.5 69,-250.8 69.1,-251.1 69.2,-251.5 69.4,-251.8 69.5,-252.1 69.6,-252.5 69.8,-252.8 
		70,-253.1 70.2,-253.4 70.3,-253.7 70.5,-254 70.8,-254.2 71,-254.5 71.2,-254.8 71.5,-255 71.7,-255.3 72,-255.5 72.2,-255.8 
		72.5,-256 72.8,-256.2 73.1,-256.4 73.4,-256.6 73.7,-256.8 74,-257 74.3,-257.1 74.6,-257.3 75,-257.4 75.3,-257.5 75.6,-257.6 
		76,-257.8 76.3,-257.8 76.6,-257.9 77,-258 77.3,-258 77.7,-258.1 78,-258.1 78.4,-258.1 78.7,-258.1 	"/>
</g>
<g transform="scale(1, -1)">
	<polyline vector-effect="non-scaling-stroke" class="st0" points="136.1,-73.6 136.4,-73.6 136.8,-73.5 137.1,-73.5 137.5,-73.5 
		137.8,-73.4 138.2,-73.4 138.5,-73.3 138.9,-73.2 139.2,-73.1 139.5,-73 139.9,-72.8 140.2,-72.7 140.5,-72.5 140.8,-72.4 
		141.1,-72.2 141.4,-72 141.7,-71.8 142,-71.6 142.3,-71.4 142.6,-71.2 142.8,-71 143.1,-70.7 143.4,-70.5 143.6,-70.2 143.8,-70 
		144,-69.7 144.3,-69.4 144.5,-69.1 144.7,-68.8 144.8,-68.5 145,-68.2 145.2,-67.9 145.3,-67.6 145.5,-67.2 145.6,-66.9 
		145.7,-66.6 145.8,-66.2 145.9,-65.9 146,-65.5 146,-65.2 146.1,-64.8 146.1,-64.5 146.2,-64.1 146.2,-63.8 146.2,-63.4 
		146.2,-63.1 146.2,-62.7 146.1,-62.4 146.1,-62 146,-61.7 146,-61.3 145.9,-61 145.8,-60.6 145.7,-60.3 145.6,-60 145.5,-59.6 
		145.3,-59.3 145.2,-59 145,-58.7 144.8,-58.4 144.7,-58.1 144.5,-57.8 144.3,-57.5 144,-57.2 143.8,-56.9 143.6,-56.7 143.4,-56.4 
		143.1,-56.1 142.8,-55.9 142.6,-55.7 142.3,-55.5 142,-55.2 141.7,-55 141.4,-54.8 141.1,-54.7 140.8,-54.5 140.5,-54.3 
		140.2,-54.2 139.9,-54 139.5,-53.9 139.2,-53.8 138.9,-53.7 138.5,-53.6 138.2,-53.5 137.8,-53.5 137.5,-53.4 137.1,-53.4 
		136.8,-53.3 136.4,-53.3 136.1,-53.3 135.7,-53.3 135.4,-53.3 135,-53.4 134.7,-53.4 134.3,-53.5 134,-53.5 133.6,-53.6 
		133.3,-53.7 132.9,-53.8 132.6,-53.9 132.3,-54 131.9,-54.2 131.6,-54.3 131.3,-54.5 131,-54.7 130.7,-54.8 130.4,-55 130.1,-55.2 
		129.8,-55.5 129.5,-55.7 129.3,-55.9 129,-56.1 128.8,-56.4 128.5,-56.7 128.3,-56.9 128.1,-57.2 127.9,-57.5 127.7,-57.8 
		127.5,-58.1 127.3,-58.4 127.1,-58.7 127,-59 126.8,-59.3 126.7,-59.6 126.5,-60 126.4,-60.3 126.3,-60.6 126.2,-61 126.2,-61.3 
		126.1,-61.7 126,-62 126,-62.4 126,-62.7 125.9,-63.1 125.9,-63.4 125.9,-63.8 126,-64.1 126,-64.5 126,-64.8 126.1,-65.2 
		126.2,-65.5 126.2,-65.9 126.3,-66.2 126.4,-66.6 126.5,-66.9 126.7,-67.2 126.8,-67.6 127,-67.9 127.1,-68.2 127.3,-68.5 
		127.5,-68.8 127.7,-69.1 127.9,-69.4 128.1,-69.7 128.3,-70 128.5,-70.2 128.8,-70.5 129,-70.7 129.3,-71 129.5,-71.2 129.8,-71.4 
		130.1,-71.6 130.4,-71.8 130.7,-72 131,-72.2 131.3,-72.4 131.6,-72.5 131.9,-72.7 132.3,-72.8 132.6,-73 132.9,-73.1 133.3,-73.2 
		133.6,-73.3 134,-73.4 134.3,-73.4 134.7,-73.5 135,-73.5 135.4,-73.5 135.7,-73.6 136.1,-73.6 	"/>
</g>
<g transform="scale(1, -1)">
	<polyline vector-effect="non-scaling-stroke" class="st0" points="42.3,-242.6 42.6,-242.6 42.8,-242.5 43.1,-242.5 43.4,-242.5 
		43.6,-242.4 43.9,-242.4 44.2,-242.3 44.4,-242.3 44.7,-242.2 44.9,-242.1 45.2,-242 45.5,-241.9 45.7,-241.8 45.9,-241.6 
		46.2,-241.5 46.4,-241.4 46.6,-241.2 46.9,-241.1 47.1,-240.9 47.3,-240.7 47.5,-240.6 47.7,-240.4 47.9,-240.2 48.1,-240 
		48.3,-239.8 48.4,-239.6 48.6,-239.3 48.7,-239.1 48.9,-238.9 49,-238.7 49.2,-238.4 49.3,-238.2 49.4,-237.9 49.5,-237.7 
		49.6,-237.4 49.7,-237.2 49.8,-236.9 49.8,-236.7 49.9,-236.4 50,-236.1 50,-235.9 50,-235.6 50.1,-235.3 50.1,-235 50.1,-234.8 
		50.1,-234.5 50.1,-234.2 50,-234 50,-233.7 50,-233.4 49.9,-233.1 49.8,-232.9 49.8,-232.6 49.7,-232.4 49.6,-232.1 49.5,-231.8 
		49.4,-231.6 49.3,-231.3 49.2,-231.1 49,-230.9 48.9,-230.6 48.7,-230.4 48.6,-230.2 48.4,-230 48.3,-229.8 48.1,-229.5 
		47.9,-229.4 47.7,-229.2 47.5,-229 47.3,-228.8 47.1,-228.6 46.9,-228.5 46.6,-228.3 46.4,-228.2 46.2,-228 45.9,-227.9 
		45.7,-227.8 45.5,-227.6 45.2,-227.5 44.9,-227.4 44.7,-227.4 44.4,-227.3 44.2,-227.2 43.9,-227.1 43.6,-227.1 43.4,-227 
		43.1,-227 42.8,-227 42.6,-227 42.3,-227 42,-227 41.7,-227 41.5,-227 41.2,-227 40.9,-227.1 40.7,-227.1 40.4,-227.2 40.1,-227.3 
		39.9,-227.4 39.6,-227.4 39.4,-227.5 39.1,-227.6 38.9,-227.8 38.6,-227.9 38.4,-228 38.2,-228.2 37.9,-228.3 37.7,-228.5 
		37.5,-228.6 37.3,-228.8 37.1,-229 36.9,-229.2 36.7,-229.4 36.5,-229.5 36.3,-229.8 36.1,-230 36,-230.2 35.8,-230.4 35.7,-230.6 
		35.5,-230.9 35.4,-231.1 35.3,-231.3 35.2,-231.6 35.1,-231.8 35,-232.1 34.9,-232.4 34.8,-232.6 34.7,-232.9 34.7,-233.1 
		34.6,-233.4 34.6,-233.7 34.5,-234 34.5,-234.2 34.5,-234.5 34.5,-234.8 34.5,-235 34.5,-235.3 34.5,-235.6 34.6,-235.9 
		34.6,-236.1 34.7,-236.4 34.7,-236.7 34.8,-236.9 34.9,-237.2 35,-237.4 35.1,-237.7 35.2,-237.9 35.3,-238.2 35.4,-238.4 
		35.5,-238.7 35.7,-238.9 35.8,-239.1 36,-239.3 36.1,-239.6 36.3,-239.8 36.5,-240 36.7,-240.2 36.9,-240.4 37.1,-240.6 
		37.3,-240.7 37.5,-240.9 37.7,-241.1 37.9,-241.2 38.2,-241.4 38.4,-241.5 38.6,-241.6 38.9,-241.8 39.1,-241.9 39.4,-242 
		39.6,-242.1 39.9,-242.2 40.1,-242.3 40.4,-242.3 40.7,-242.4 40.9,-242.4 41.2,-242.5 41.5,-242.5 41.7,-242.5 42,-242.6 
		42.3,-242.6 	"/>
</g>
<g transform="scale(1, -1)">
	<polyline vector-effect="non-scaling-stroke" class="st0" points="229.8,-242.6 230.1,-242.6 230.4,-242.5 230.7,-242.5 
		230.9,-242.5 231.2,-242.4 231.5,-242.4 231.7,-242.3 232,-242.3 232.3,-242.2 232.5,-242.1 232.8,-242 233,-241.9 233.3,-241.8 
		233.5,-241.6 233.7,-241.5 234,-241.4 234.2,-241.2 234.4,-241.1 234.6,-240.9 234.9,-240.7 235.1,-240.6 235.3,-240.4 
		235.5,-240.2 235.6,-240 235.8,-239.8 236,-239.6 236.1,-239.3 236.3,-239.1 236.5,-238.9 236.6,-238.7 236.7,-238.4 236.8,-238.2 
		237,-237.9 237.1,-237.7 237.2,-237.4 237.3,-237.2 237.3,-236.9 237.4,-236.7 237.5,-236.4 237.5,-236.1 237.6,-235.9 
		237.6,-235.6 237.6,-235.3 237.6,-235 237.6,-234.8 237.6,-234.5 237.6,-234.2 237.6,-234 237.6,-233.7 237.5,-233.4 237.5,-233.1 
		237.4,-232.9 237.3,-232.6 237.3,-232.4 237.2,-232.1 237.1,-231.8 237,-231.6 236.8,-231.3 236.7,-231.1 236.6,-230.9 
		236.5,-230.6 236.3,-230.4 236.1,-230.2 236,-230 235.8,-229.8 235.6,-229.5 235.5,-229.4 235.3,-229.2 235.1,-229 234.9,-228.8 
		234.6,-228.6 234.4,-228.5 234.2,-228.3 234,-228.2 233.7,-228 233.5,-227.9 233.3,-227.8 233,-227.6 232.8,-227.5 232.5,-227.4 
		232.3,-227.4 232,-227.3 231.7,-227.2 231.5,-227.1 231.2,-227.1 230.9,-227 230.7,-227 230.4,-227 230.1,-227 229.8,-227 
		229.6,-227 229.3,-227 229,-227 228.8,-227 228.5,-227.1 228.2,-227.1 228,-227.2 227.7,-227.3 227.4,-227.4 227.2,-227.4 
		226.9,-227.5 226.7,-227.6 226.4,-227.8 226.2,-227.9 225.9,-228 225.7,-228.2 225.5,-228.3 225.3,-228.5 225,-228.6 224.8,-228.8 
		224.6,-229 224.4,-229.2 224.2,-229.4 224.1,-229.5 223.9,-229.8 223.7,-230 223.5,-230.2 223.4,-230.4 223.2,-230.6 223.1,-230.9 
		223,-231.1 222.8,-231.3 222.7,-231.6 222.6,-231.8 222.5,-232.1 222.4,-232.4 222.3,-232.6 222.3,-232.9 222.2,-233.1 
		222.2,-233.4 222.1,-233.7 222.1,-234 222.1,-234.2 222.1,-234.5 222,-234.8 222.1,-235 222.1,-235.3 222.1,-235.6 222.1,-235.9 
		222.2,-236.1 222.2,-236.4 222.3,-236.7 222.3,-236.9 222.4,-237.2 222.5,-237.4 222.6,-237.7 222.7,-237.9 222.8,-238.2 
		223,-238.4 223.1,-238.7 223.2,-238.9 223.4,-239.1 223.5,-239.3 223.7,-239.6 223.9,-239.8 224.1,-240 224.2,-240.2 224.4,-240.4 
		224.6,-240.6 224.8,-240.7 225,-240.9 225.3,-241.1 225.5,-241.2 225.7,-241.4 225.9,-241.5 226.2,-241.6 226.4,-241.8 
		226.7,-241.9 226.9,-242 227.2,-242.1 227.4,-242.2 227.7,-242.3 228,-242.3 228.2,-242.4 228.5,-242.4 228.8,-242.5 229,-242.5 
		229.3,-242.5 229.6,-242.6 229.8,-242.6 	"/>
</g>
<g transform="scale(1, -1)">
	<polyline vector-effect="non-scaling-stroke" class="st0" points="78,-125.6 78.2,-125.6 78.5,-125.6 78.8,-125.6 79,-125.6 
		79.3,-125.5 79.6,-125.5 79.8,-125.4 80.1,-125.3 80.4,-125.2 80.6,-125.2 80.9,-125.1 81.1,-125 81.4,-124.8 81.6,-124.7 
		81.9,-124.6 82.1,-124.4 82.3,-124.3 82.5,-124.1 82.8,-124 83,-123.8 83.2,-123.6 83.4,-123.4 83.6,-123.2 83.7,-123 83.9,-122.8 
		84.1,-122.6 84.3,-122.4 84.4,-122.2 84.6,-122 84.7,-121.7 84.8,-121.5 85,-121.2 85.1,-121 85.2,-120.8 85.3,-120.5 85.4,-120.2 
		85.4,-120 85.5,-119.7 85.6,-119.5 85.6,-119.2 85.7,-118.9 85.7,-118.6 85.7,-118.4 85.7,-118.1 85.7,-117.8 85.7,-117.6 
		85.7,-117.3 85.7,-117 85.7,-116.7 85.6,-116.5 85.6,-116.2 85.5,-115.9 85.4,-115.7 85.4,-115.4 85.3,-115.2 85.2,-114.9 
		85.1,-114.7 85,-114.4 84.8,-114.2 84.7,-113.9 84.6,-113.7 84.4,-113.5 84.3,-113.3 84.1,-113 83.9,-112.8 83.7,-112.6 
		83.6,-112.4 83.4,-112.2 83.2,-112 83,-111.9 82.8,-111.7 82.5,-111.5 82.3,-111.4 82.1,-111.2 81.9,-111.1 81.6,-110.9 
		81.4,-110.8 81.1,-110.7 80.9,-110.6 80.6,-110.5 80.4,-110.4 80.1,-110.3 79.8,-110.3 79.6,-110.2 79.3,-110.2 79,-110.1 
		78.8,-110.1 78.5,-110.1 78.2,-110 78,-110 77.7,-110 77.4,-110.1 77.1,-110.1 76.9,-110.1 76.6,-110.2 76.3,-110.2 76.1,-110.3 
		75.8,-110.3 75.5,-110.4 75.3,-110.5 75,-110.6 74.8,-110.7 74.5,-110.8 74.3,-110.9 74.1,-111.1 73.8,-111.2 73.6,-111.4 
		73.4,-111.5 73.2,-111.7 72.9,-111.9 72.7,-112 72.5,-112.2 72.3,-112.4 72.2,-112.6 72,-112.8 71.8,-113 71.6,-113.3 71.5,-113.5 
		71.3,-113.7 71.2,-113.9 71.1,-114.2 70.9,-114.4 70.8,-114.7 70.7,-114.9 70.6,-115.2 70.5,-115.4 70.5,-115.7 70.4,-115.9 
		70.3,-116.2 70.3,-116.5 70.2,-116.7 70.2,-117 70.2,-117.3 70.2,-117.6 70.2,-117.8 70.2,-118.1 70.2,-118.4 70.2,-118.6 
		70.2,-118.9 70.3,-119.2 70.3,-119.5 70.4,-119.7 70.5,-120 70.5,-120.2 70.6,-120.5 70.7,-120.8 70.8,-121 70.9,-121.2 
		71.1,-121.5 71.2,-121.7 71.3,-122 71.5,-122.2 71.6,-122.4 71.8,-122.6 72,-122.8 72.2,-123 72.3,-123.2 72.5,-123.4 72.7,-123.6 
		72.9,-123.8 73.2,-124 73.4,-124.1 73.6,-124.3 73.8,-124.4 74.1,-124.6 74.3,-124.7 74.5,-124.8 74.8,-125 75,-125.1 75.3,-125.2 
		75.5,-125.2 75.8,-125.3 76.1,-125.4 76.3,-125.5 76.6,-125.5 76.9,-125.6 77.1,-125.6 77.4,-125.6 77.7,-125.6 78,-125.6 	"/>
</g>
<g transform="scale(1, -1)">
	<polyline vector-effect="non-scaling-stroke" class="st0" points="78,-187.6 78.2,-187.6 78.5,-187.6 78.8,-187.6 79,-187.5 
		79.3,-187.5 79.6,-187.4 79.8,-187.4 80.1,-187.3 80.4,-187.2 80.6,-187.1 80.9,-187 81.1,-186.9 81.4,-186.8 81.6,-186.7 
		81.9,-186.6 82.1,-186.4 82.3,-186.3 82.5,-186.1 82.8,-185.9 83,-185.8 83.2,-185.6 83.4,-185.4 83.6,-185.2 83.7,-185 
		83.9,-184.8 84.1,-184.6 84.3,-184.4 84.4,-184.2 84.6,-183.9 84.7,-183.7 84.8,-183.5 85,-183.2 85.1,-183 85.2,-182.7 
		85.3,-182.5 85.4,-182.2 85.4,-182 85.5,-181.7 85.6,-181.4 85.6,-181.2 85.7,-180.9 85.7,-180.6 85.7,-180.3 85.7,-180.1 
		85.7,-179.8 85.7,-179.5 85.7,-179.3 85.7,-179 85.7,-178.7 85.6,-178.5 85.6,-178.2 85.5,-177.9 85.4,-177.7 85.4,-177.4 
		85.3,-177.1 85.2,-176.9 85.1,-176.6 85,-176.4 84.8,-176.1 84.7,-175.9 84.6,-175.7 84.4,-175.4 84.3,-175.2 84.1,-175 
		83.9,-174.8 83.7,-174.6 83.6,-174.4 83.4,-174.2 83.2,-174 83,-173.8 82.8,-173.7 82.5,-173.5 82.3,-173.3 82.1,-173.2 
		81.9,-173.1 81.6,-172.9 81.4,-172.8 81.1,-172.7 80.9,-172.6 80.6,-172.5 80.4,-172.4 80.1,-172.3 79.8,-172.2 79.6,-172.2 
		79.3,-172.1 79,-172.1 78.8,-172.1 78.5,-172 78.2,-172 78,-172 77.7,-172 77.4,-172 77.1,-172.1 76.9,-172.1 76.6,-172.1 
		76.3,-172.2 76.1,-172.2 75.8,-172.3 75.5,-172.4 75.3,-172.5 75,-172.6 74.8,-172.7 74.5,-172.8 74.3,-172.9 74.1,-173.1 
		73.8,-173.2 73.6,-173.3 73.4,-173.5 73.2,-173.7 72.9,-173.8 72.7,-174 72.5,-174.2 72.3,-174.4 72.2,-174.6 72,-174.8 71.8,-175 
		71.6,-175.2 71.5,-175.4 71.3,-175.7 71.2,-175.9 71.1,-176.1 70.9,-176.4 70.8,-176.6 70.7,-176.9 70.6,-177.1 70.5,-177.4 
		70.5,-177.7 70.4,-177.9 70.3,-178.2 70.3,-178.5 70.2,-178.7 70.2,-179 70.2,-179.3 70.2,-179.5 70.2,-179.8 70.2,-180.1 
		70.2,-180.3 70.2,-180.6 70.2,-180.9 70.3,-181.2 70.3,-181.4 70.4,-181.7 70.5,-182 70.5,-182.2 70.6,-182.5 70.7,-182.7 
		70.8,-183 70.9,-183.2 71.1,-183.5 71.2,-183.7 71.3,-183.9 71.5,-184.2 71.6,-184.4 71.8,-184.6 72,-184.8 72.2,-185 72.3,-185.2 
		72.5,-185.4 72.7,-185.6 72.9,-185.8 73.2,-185.9 73.4,-186.1 73.6,-186.3 73.8,-186.4 74.1,-186.6 74.3,-186.7 74.5,-186.8 
		74.8,-186.9 75,-187 75.3,-187.1 75.5,-187.2 75.8,-187.3 76.1,-187.4 76.3,-187.4 76.6,-187.5 76.9,-187.5 77.1,-187.6 
		77.4,-187.6 77.7,-187.6 78,-187.6 	"/>
</g>
<g transform="scale(1, -1)">
	<polyline vector-effect="non-scaling-stroke" class="st0" points="194.2,-187.6 194.4,-187.6 194.7,-187.6 195,-187.6 
		195.3,-187.5 195.5,-187.5 195.8,-187.4 196.1,-187.4 196.3,-187.3 196.6,-187.2 196.8,-187.1 197.1,-187 197.3,-186.9 
		197.6,-186.8 197.8,-186.7 198.1,-186.6 198.3,-186.4 198.5,-186.3 198.8,-186.1 199,-185.9 199.2,-185.8 199.4,-185.6 
		199.6,-185.4 199.8,-185.2 200,-185 200.1,-184.8 200.3,-184.6 200.5,-184.4 200.6,-184.2 200.8,-183.9 200.9,-183.7 201.1,-183.5 
		201.2,-183.2 201.3,-183 201.4,-182.7 201.5,-182.5 201.6,-182.2 201.7,-182 201.7,-181.7 201.8,-181.4 201.9,-181.2 201.9,-180.9 
		201.9,-180.6 201.9,-180.3 202,-180.1 202,-179.8 202,-179.5 201.9,-179.3 201.9,-179 201.9,-178.7 201.9,-178.5 201.8,-178.2 
		201.7,-177.9 201.7,-177.7 201.6,-177.4 201.5,-177.1 201.4,-176.9 201.3,-176.6 201.2,-176.4 201.1,-176.1 200.9,-175.9 
		200.8,-175.7 200.6,-175.4 200.5,-175.2 200.3,-175 200.1,-174.8 200,-174.6 199.8,-174.4 199.6,-174.2 199.4,-174 199.2,-173.8 
		199,-173.7 198.8,-173.5 198.5,-173.3 198.3,-173.2 198.1,-173.1 197.8,-172.9 197.6,-172.8 197.3,-172.7 197.1,-172.6 
		196.8,-172.5 196.6,-172.4 196.3,-172.3 196.1,-172.2 195.8,-172.2 195.5,-172.1 195.3,-172.1 195,-172.1 194.7,-172 194.4,-172 
		194.2,-172 193.9,-172 193.6,-172 193.4,-172.1 193.1,-172.1 192.8,-172.1 192.6,-172.2 192.3,-172.2 192,-172.3 191.8,-172.4 
		191.5,-172.5 191.3,-172.6 191,-172.7 190.8,-172.8 190.5,-172.9 190.3,-173.1 190,-173.2 189.8,-173.3 189.6,-173.5 189.4,-173.7 
		189.2,-173.8 189,-174 188.8,-174.2 188.6,-174.4 188.4,-174.6 188.2,-174.8 188,-175 187.9,-175.2 187.7,-175.4 187.6,-175.7 
		187.4,-175.9 187.3,-176.1 187.2,-176.4 187.1,-176.6 186.9,-176.9 186.8,-177.1 186.8,-177.4 186.7,-177.7 186.6,-177.9 
		186.5,-178.2 186.5,-178.5 186.5,-178.7 186.4,-179 186.4,-179.3 186.4,-179.5 186.4,-179.8 186.4,-180.1 186.4,-180.3 
		186.4,-180.6 186.5,-180.9 186.5,-181.2 186.5,-181.4 186.6,-181.7 186.7,-182 186.8,-182.2 186.8,-182.5 186.9,-182.7 187.1,-183 
		187.2,-183.2 187.3,-183.5 187.4,-183.7 187.6,-183.9 187.7,-184.2 187.9,-184.4 188,-184.6 188.2,-184.8 188.4,-185 188.6,-185.2 
		188.8,-185.4 189,-185.6 189.2,-185.8 189.4,-185.9 189.6,-186.1 189.8,-186.3 190,-186.4 190.3,-186.6 190.5,-186.7 190.8,-186.8 
		191,-186.9 191.3,-187 191.5,-187.1 191.8,-187.2 192,-187.3 192.3,-187.4 192.6,-187.4 192.8,-187.5 193.1,-187.5 193.4,-187.6 
		193.6,-187.6 193.9,-187.6 194.2,-187.6 	"/>
</g>
<g transform="scale(1, -1)">
	<polyline vector-effect="non-scaling-stroke" class="st0" points="194.2,-125.6 194.4,-125.6 194.7,-125.6 195,-125.6 
		195.3,-125.6 195.5,-125.5 195.8,-125.5 196.1,-125.4 196.3,-125.3 196.6,-125.2 196.8,-125.2 197.1,-125.1 197.3,-125 
		197.6,-124.8 197.8,-124.7 198.1,-124.6 198.3,-124.4 198.5,-124.3 198.8,-124.1 199,-124 199.2,-123.8 199.4,-123.6 199.6,-123.4 
		199.8,-123.2 200,-123 200.1,-122.8 200.3,-122.6 200.5,-122.4 200.6,-122.2 200.8,-122 200.9,-121.7 201.1,-121.5 201.2,-121.2 
		201.3,-121 201.4,-120.8 201.5,-120.5 201.6,-120.2 201.7,-120 201.7,-119.7 201.8,-119.5 201.9,-119.2 201.9,-118.9 201.9,-118.6 
		201.9,-118.4 202,-118.1 202,-117.8 202,-117.6 201.9,-117.3 201.9,-117 201.9,-116.7 201.9,-116.5 201.8,-116.2 201.7,-115.9 
		201.7,-115.7 201.6,-115.4 201.5,-115.2 201.4,-114.9 201.3,-114.7 201.2,-114.4 201.1,-114.2 200.9,-113.9 200.8,-113.7 
		200.6,-113.5 200.5,-113.3 200.3,-113 200.1,-112.8 200,-112.6 199.8,-112.4 199.6,-112.2 199.4,-112 199.2,-111.9 199,-111.7 
		198.8,-111.5 198.5,-111.4 198.3,-111.2 198.1,-111.1 197.8,-110.9 197.6,-110.8 197.3,-110.7 197.1,-110.6 196.8,-110.5 
		196.6,-110.4 196.3,-110.3 196.1,-110.3 195.8,-110.2 195.5,-110.2 195.3,-110.1 195,-110.1 194.7,-110.1 194.4,-110 194.2,-110 
		193.9,-110 193.6,-110.1 193.4,-110.1 193.1,-110.1 192.8,-110.2 192.6,-110.2 192.3,-110.3 192,-110.3 191.8,-110.4 191.5,-110.5 
		191.3,-110.6 191,-110.7 190.8,-110.8 190.5,-110.9 190.3,-111.1 190,-111.2 189.8,-111.4 189.6,-111.5 189.4,-111.7 189.2,-111.9 
		189,-112 188.8,-112.2 188.6,-112.4 188.4,-112.6 188.2,-112.8 188,-113 187.9,-113.3 187.7,-113.5 187.6,-113.7 187.4,-113.9 
		187.3,-114.2 187.2,-114.4 187.1,-114.7 186.9,-114.9 186.8,-115.2 186.8,-115.4 186.7,-115.7 186.6,-115.9 186.5,-116.2 
		186.5,-116.5 186.5,-116.7 186.4,-117 186.4,-117.3 186.4,-117.6 186.4,-117.8 186.4,-118.1 186.4,-118.4 186.4,-118.6 
		186.5,-118.9 186.5,-119.2 186.5,-119.5 186.6,-119.7 186.7,-120 186.8,-120.2 186.8,-120.5 186.9,-120.8 187.1,-121 187.2,-121.2 
		187.3,-121.5 187.4,-121.7 187.6,-122 187.7,-122.2 187.9,-122.4 188,-122.6 188.2,-122.8 188.4,-123 188.6,-123.2 188.8,-123.4 
		189,-123.6 189.2,-123.8 189.4,-124 189.6,-124.1 189.8,-124.3 190,-124.4 190.3,-124.6 190.5,-124.7 190.8,-124.8 191,-125 
		191.3,-125.1 191.5,-125.2 191.8,-125.2 192,-125.3 192.3,-125.4 192.6,-125.5 192.8,-125.5 193.1,-125.6 193.4,-125.6 
		193.6,-125.6 193.9,-125.6 194.2,-125.6 	"/>
</g>
<g transform="scale(1, -1)">
	<polyline vector-effect="non-scaling-stroke" class="st0" points="226.8,-14.2 227.9,-14.2 228.9,-14.2 230,-14.3 231.1,-14.5 
		232.2,-14.6 233.3,-14.9 234.3,-15.1 235.4,-15.4 236.4,-15.7 237.4,-16.1 238.5,-16.4 239.5,-16.9 240.4,-17.3 241.4,-17.8 
		242.4,-18.4 243.3,-18.9 244.2,-19.5 245.1,-20.1 246,-20.8 246.8,-21.5 247.6,-22.2 248.4,-22.9 249.2,-23.7 249.9,-24.5 
		250.7,-25.3 251.3,-26.2 252,-27 252.6,-27.9 253.2,-28.8 253.8,-29.8 254.3,-30.7 254.8,-31.7 255.3,-32.7 255.7,-33.7 
		256.1,-34.7 256.4,-35.7 256.7,-36.8 257,-37.8 257.3,-38.9 257.5,-39.9 257.6,-41 257.8,-42.1 257.9,-43.2 257.9,-44.3 258,-45.4 
		258,-252.3 257.9,-253.4 257.9,-254.5 257.8,-255.5 257.6,-256.6 257.5,-257.7 257.3,-258.8 257,-259.8 256.7,-260.9 256.4,-261.9 
		256.1,-262.9 255.7,-264 255.3,-265 254.8,-266 254.3,-266.9 253.8,-267.9 253.2,-268.8 252.6,-269.7 252,-270.6 251.3,-271.5 
		250.7,-272.3 249.9,-273.1 249.2,-273.9 248.4,-274.7 247.6,-275.5 246.8,-276.2 246,-276.9 245.1,-277.5 244.2,-278.1 
		243.3,-278.7 242.4,-279.3 241.4,-279.8 240.4,-280.3 239.5,-280.8 238.5,-281.2 237.4,-281.6 236.4,-281.9 235.4,-282.3 
		234.3,-282.5 233.3,-282.8 232.2,-283 231.1,-283.2 230,-283.3 228.9,-283.4 227.9,-283.4 226.8,-283.5 45.4,-283.5 44.3,-283.4 
		43.2,-283.4 42.1,-283.3 41,-283.2 39.9,-283 38.9,-282.8 37.8,-282.5 36.8,-282.3 35.7,-281.9 34.7,-281.6 33.7,-281.2 
		32.7,-280.8 31.7,-280.3 30.7,-279.8 29.8,-279.3 28.8,-278.7 27.9,-278.1 27,-277.5 26.2,-276.9 25.3,-276.2 24.5,-275.5 
		23.7,-274.7 22.9,-273.9 22.2,-273.1 21.5,-272.3 20.8,-271.5 20.1,-270.6 19.5,-269.7 18.9,-268.8 18.4,-267.9 17.8,-266.9 
		17.3,-266 16.9,-265 16.4,-264 16.1,-262.9 15.7,-261.9 15.4,-260.9 15.1,-259.8 14.9,-258.8 14.6,-257.7 14.5,-256.6 14.3,-255.5 
		14.2,-254.5 14.2,-253.4 14.2,-252.3 14.2,-45.4 14.2,-44.3 14.2,-43.2 14.3,-42.2 14.5,-41.1 14.6,-40.1 14.8,-39 15.1,-38 
		15.3,-36.9 15.6,-35.9 16,-34.9 16.3,-33.9 16.8,-32.9 17.2,-32 17.7,-31 18.2,-30.1 18.7,-29.2 19.3,-28.3 19.9,-27.4 20.5,-26.5 
		21.2,-25.7 21.9,-24.9 22.6,-24.1 23.3,-23.3 24.1,-22.6 24.9,-21.9 25.7,-21.2 26.5,-20.5 27.4,-19.9 28.3,-19.3 29.2,-18.7 
		30.1,-18.2 31,-17.7 32,-17.2 32.9,-16.8 33.9,-16.3 34.9,-16 35.9,-15.6 36.9,-15.3 38,-15.1 39,-14.8 40.1,-14.6 41.1,-14.5 
		42.2,-14.3 43.2,-14.2 44.3,-14.2 45.4,-14.2 226.8,-14.2 	"/>
</g>
</svg>
