
                <svg 
                  xmlns="http://www.w3.org/2000/svg" 
                  viewBox="0 0 275 297" 
                  width="275mm" 
                  height="297mm"
                  style="transform: scale(1, -1)">
                    <path 
                    d="M 0.000000 0.000000  L 187.500000 148.500000  L 46.403707 73.936402  L 180.801270 178.500000  L 102.917139 40.628076  L 162.500000 200.461524  L 164.838469 41.953236  L 137.500000 208.500000  L 228.009879 81.185632  L 112.500000 200.461524  L 255.619520 130.678309  L 94.198730 178.500000  L 252.165916 197.403414  L 87.500000 148.500000  L 207.895297 250.222313  L 94.198730 118.500000  L 135.753055 271.289633  L 112.500000 96.538476  L 74.665244 250.799703  L 137.500000 88.500000  L 37.865774 208.560897  L 162.500000 96.538476  L 15.844135 152.643526  L 180.801270 118.500000  L 27.176068 90.018389  M 0.000000 0.000000  L 187.500000 148.500000  L 70.013509 50.998242  L 177.950850 183.767115  L 145.818108 35.279994  L 152.950850 205.563391  L 225.738927 71.714188  L 122.049150 205.563391  L 253.768764 128.722953  L 97.049150 183.767115  L 248.660213 200.903011  L 87.500000 148.500000  L 202.336975 248.026710  L 97.049150 113.232885  L 118.911631 263.198350  L 122.049150 91.436609  L 52.199592 229.146559  L 152.950850 91.436609  L 15.271760 160.691921  L 177.950850 113.232885  L 25.234026 91.607375  M 0.000000 0.000000  L 187.500000 148.500000  L 63.606148 66.751403  L 177.950850 183.767115  L 122.227105 46.720561  L 152.950850 205.563391  L 177.547707 58.324638  L 122.049150 205.563391  L 222.919859 94.975222  L 97.049150 183.767115  L 240.644872 142.003443  L 87.500000 148.500000  L 221.267262 208.193239  L 97.049150 113.232885  L 165.748428 242.252174  L 122.049150 91.436609  L 107.641905 237.730991  L 152.950850 91.436609  L 64.762339 209.557810  L 177.950850 113.232885  L 35.506790 154.735855  M 0.000000 0.000000  L 187.500000 148.500000  L 80.346850 54.703290  L 172.855339 190.926407  L 161.113997 49.983250  L 137.500000 208.500000  L 236.364733 107.795341  L 102.144661 190.926407  L 243.749476 200.471202  L 87.500000 148.500000  L 177.353456 261.998436  L 102.144661 106.073593  L 84.744397 249.524015  L 137.500000 88.500000  L 22.702901 174.665434  L 172.855339 106.073593  L 29.244941 95.371861  M 0.000000 0.000000  L 187.500000 148.500000  L 71.037673 73.303652  L 177.950850 183.767115  L 132.525933 53.414552  L 152.950850 205.563391  L 187.164863 71.447910  L 122.049150 205.563391  L 232.554421 121.373581  L 97.049150 183.767115  L 234.411516 176.165259  L 87.500000 148.500000  L 197.700159 233.767896  L 97.049150 113.232885  L 140.288618 242.585034  L 122.049150 91.436609  L 82.783183 225.332414  L 152.950850 91.436609  L 37.805100 165.667689  L 177.950850 113.232885  L 41.584707 107.750320  M 0.000000 0.000000  L 187.500000 148.500000  L 74.677840 81.078900  L 179.562677 180.938449  L 113.488573 64.678960  L 158.270751 203.077920  L 157.955686 69.164726  L 130.384258 207.889287  L 196.211738 90.182370  L 104.756963 193.844974  L 219.316235 129.477841  L 89.525351 165.403953  L 223.941508 164.658974  L 89.525351 131.596047  L 197.140373 210.163415  L 104.756963 103.155026  L 146.020135 231.655485  L 130.384258 89.110713  L 88.976007 214.092513  L 158.270751 93.922080  L 59.297896 185.567671  L 179.562677 116.061551  L 48.667314 140.209837  M 0.000000 0.000000  L 187.500000 148.500000  L 103.599213 50.928340  L 172.855339 190.926407  L 189.702407 62.593670  L 137.500000 208.500000  L 243.706256 136.209232  L 102.144661 190.926407  L 228.230559 212.503352  L 87.500000 148.500000  L 153.366505 258.664877  L 102.144661 106.073593  L 67.852811 228.442016  L 137.500000 88.500000  L 27.002391 149.215699  L 172.855339 106.073593  L 53.420780 59.848862  M 0.000000 0.000000  L 187.500000 148.500000  L 130.870639 37.274460  L 162.500000 200.461524  L 227.421526 97.280269  L 112.500000 200.461524  L 236.934634 207.712229  L 87.500000 148.500000  L 142.452980 258.962998  L 112.500000 96.538476  L 46.142251 198.237231  L 162.500000 96.538476  L 39.791046 90.474690  M 0.000000 0.000000  L 187.500000 148.500000  L 136.896371 42.337986  L 162.500000 200.461524  L 230.420707 105.167934  L 112.500000 200.461524  L 229.408192 219.714623  L 87.500000 148.500000  L 121.030326 261.897933  L 112.500000 96.538476  L 29.464433 182.211281  L 162.500000 96.538476  L 51.579610 61.242532  M 0.000000 0.000000  L 187.500000 148.500000  L 94.149641 85.790697  L 179.562677 180.938449  L 141.201438 72.891446  L 158.270751 203.077920  L 184.779809 92.427421  L 130.384258 207.889287  L 205.733924 124.154814  L 104.756963 193.844974  L 211.677193 163.231205  L 89.525351 165.403953  L 195.794371 204.579206  L 89.525351 131.596047  L 154.406265 226.154578  L 104.756963 103.155026  L 102.550954 214.874008  L 130.384258 89.110713  L 74.792634 189.086596  L 158.270751 93.922080  L 56.460513 141.171895  L 179.562677 116.061551  L 66.859796 108.658634  M 0.000000 0.000000  L 187.500000 148.500000  L 118.304118 67.184926  L 172.855339 190.926407  L 178.052471 81.176307  L 137.500000 208.500000  L 211.139763 130.415643  L 102.144661 190.926407  L 211.710607 183.934294  L 87.500000 148.500000  L 170.733947 214.843701  L 102.144661 106.073593  L 106.881892 212.480760  L 137.500000 88.500000  L 65.508046 166.305561  L 172.855339 106.073593  L 63.085422 104.721538  M 0.000000 0.000000  L 187.500000 148.500000  L 121.876820 70.622989  L 168.674490 195.409889  L 181.069910 92.797448  L 126.373953 206.995675  L 213.184480 152.558521  L 92.451557 174.533024  L 192.772424 200.577011  L 92.451557 122.466976  L 138.694607 216.261732  L 126.373953 90.004325  L 83.876179 182.892581  L 168.674490 101.590111  L 68.494774 128.345120  M 0.000000 0.000000  L 187.500000 148.500000  L 143.715661 61.765520  L 162.500000 200.461524  L 215.929994 120.483737  L 112.500000 200.461524  L 209.632015 209.069852  L 87.500000 148.500000  L 124.075892 241.317711  L 112.500000 96.538476  L 58.860530 176.373070  L 162.500000 96.538476  L 63.480027 93.452365  M 0.000000 0.000000  L 187.500000 148.500000  L 121.204593 85.699738  L 172.855339 190.926407  L 171.447537 96.725203  L 137.500000 208.500000  L 202.515075 140.783047  L 102.144661 190.926407  L 195.533883 185.685661  L 87.500000 148.500000  L 159.492183 208.181629  L 102.144661 106.073593  L 104.508304 200.428202  L 137.500000 88.500000  L 72.151195 152.291603  L 172.855339 106.073593  L 79.676984 108.043954  M 0.000000 0.000000  L 187.500000 148.500000  L 113.929291 100.298710  L 179.562677 180.938449  L 145.899760 100.209257  L 158.270751 203.077920  L 179.696931 116.364364  L 130.384258 207.889287  L 195.477411 147.172218  L 104.756963 193.844974  L 193.336264 181.244091  L 89.525351 165.403953  L 164.887887 206.979296  L 89.525351 131.596047  L 131.579911 206.959420  L 104.756963 103.155026  L 96.703003 189.358505  L 130.384258 89.110713  L 80.215125 161.229201  L 158.270751 93.922080  L 75.461721 123.422604  L 179.562677 116.061551  L 96.198337 89.456395  M 0.000000 0.000000  L 187.500000 148.500000  L 140.053768 79.886470  L 168.674490 195.409889  L 192.789593 114.556337  L 126.373953 206.995675  L 204.795652 180.956653  L 92.451557 174.533024  L 163.204254 219.434882  L 92.451557 122.466976  L 106.464414 203.378090  L 126.373953 90.004325  L 69.611324 151.086908  L 168.674490 101.590111  L 84.686188 91.249616  M 0.000000 0.000000  L 187.500000 148.500000  L 151.913902 78.339533  L 162.500000 200.461524  L 208.354656 138.871868  L 112.500000 200.461524  L 190.692647 214.472361  L 87.500000 148.500000  L 111.432704 220.769512  L 112.500000 96.538476  L 62.238910 156.554142  L 162.500000 96.538476  L 86.950595 82.534534  M 0.000000 0.000000  L 187.500000 148.500000  L 124.572912 108.181131  L 177.950850 183.767115  L 154.153996 115.700796  L 152.950850 205.563391  L 178.289374 139.045332  L 122.049150 205.563391  L 182.175371 163.772349  L 97.049150 183.767115  L 170.241254 190.206082  L 87.500000 148.500000  L 146.118811 191.817540  L 97.049150 113.232885  L 122.329690 182.640169  L 122.049150 91.436609  L 100.670682 161.535950  L 152.950850 91.436609  L 96.940931 138.716759  L 177.950850 113.232885  L 105.887981 114.957411  M 0.000000 0.000000  L 187.500000 148.500000  L 137.366251 101.896220  L 172.855339 190.926407  L 171.483280 124.618666  L 137.500000 208.500000  L 185.116737 160.212454  L 102.144661 190.926407  L 170.701070 190.193617  L 87.500000 148.500000  L 138.995804 190.984632  L 102.144661 106.073593  L 112.600674 172.786587  L 137.500000 88.500000  L 99.886167 144.789955  L 172.855339 106.073593  L 108.047906 121.831053  M 0.000000 0.000000  L 187.500000 148.500000  L 139.305782 107.108263  L 177.950850 183.767115  L 166.776918 122.456487  L 152.950850 205.563391  L 181.302652 148.915845  L 122.049150 205.563391  L 174.704327 173.263309  L 97.049150 183.767115  L 160.872088 185.525175  L 87.500000 148.500000  L 136.894724 190.440638  L 97.049150 113.232885  L 110.031120 176.191909  L 122.049150 91.436609  L 92.348954 149.041869  L 152.950850 91.436609  L 93.970267 117.109819  L 177.950850 113.232885  L 119.025523 95.913363  M 0.000000 0.000000  L 187.500000 148.500000  L 142.493506 114.955198  L 177.950850 183.767115  L 162.120768 126.663179  L 152.950850 205.563391  L 173.649372 151.181328  L 122.049150 205.563391  L 166.974825 171.592074  L 97.049150 183.767115  L 153.691182 178.394230  L 87.500000 148.500000  L 139.843937 177.185873  L 97.049150 113.232885  L 124.343792 166.473920  L 122.049150 91.436609  L 117.671092 150.214160  L 152.950850 91.436609  L 116.497466 138.080235  L 177.950850 113.232885  L 124.132755 132.348649  M 0.000000 0.000000  L 187.500000 148.500000  L 143.362573 120.813677  L 179.562677 180.938449  L 158.001747 130.437389  L 158.270751 203.077920  L 167.113162 149.833246  L 130.384258 207.889287  L 166.336595 168.359050  L 104.756963 193.844974  L 155.951939 179.452377  L 89.525351 165.403953  L 138.551843 184.920424  L 89.525351 131.596047  L 116.465818 175.276499  L 104.756963 103.155026  L 107.296450 154.879332  L 130.384258 89.110713  L 105.404042 133.978876  L 158.270751 93.922080  L 109.743919 118.528548  L 179.562677 116.061551  L 124.768541 114.131768  M 0.000000 0.000000  L 187.500000 148.500000  L 165.364116 104.704154  L 162.500000 200.461524  L 186.122009 156.899045  L 112.500000 200.461524  L 161.627151 199.849839  L 87.500000 148.500000  L 110.586132 192.440544  L 112.500000 96.538476  L 83.357484 135.554380  L 162.500000 96.538476  L 114.846527 87.957048  M 0.000000 0.000000  L 187.500000 148.500000  L 155.471386 118.126627  L 172.855339 190.926407  L 173.686705 146.877415  L 137.500000 208.500000  L 166.751823 175.920880  L 102.144661 190.926407  L 146.381900 187.553558  L 87.500000 148.500000  L 123.292611 174.990879  L 102.144661 106.073593  L 105.763964 148.512788  L 137.500000 88.500000  L 106.734752 120.357073  L 172.855339 106.073593  L 128.799939 110.660206  M 0.000000 0.000000  L 187.500000 148.500000  L 152.725112 130.327685  L 180.801270 178.500000  L 160.645050 144.182604  L 162.500000 200.461524  L 160.294067 162.871185  L 137.500000 208.500000  L 153.280961 172.478953  L 112.500000 200.461524  L 144.972797 180.273134  L 94.198730 178.500000  L 132.282763 177.016254  L 87.500000 148.500000  L 119.620215 165.973957  L 94.198730 118.500000  L 113.047395 151.351824  L 112.500000 96.538476  L 109.553595 134.691776  L 137.500000 88.500000  L 117.047515 121.578247  L 162.500000 96.538476  L 128.286769 114.463775  L 180.801270 118.500000  L 142.202152 115.200494  M 0.000000 0.000000  L 187.500000 148.500000  L 169.128160 119.937518  L 162.500000 200.461524  L 177.130308 171.498835  L 112.500000 200.461524  L 145.428386 199.678998  L 87.500000 148.500000  L 107.081757 177.452156  L 112.500000 96.538476  L 95.743699 126.415443  L 162.500000 96.538476  L 130.937281 94.964156  M 0.000000 0.000000  L 187.500000 148.500000  L 172.460572 125.503046  L 162.500000 200.461524  L 174.868913 174.184674  L 112.500000 200.461524  L 140.976403 200.000959  L 87.500000 148.500000  L 100.309055 174.752221  L 112.500000 96.538476  L 97.984634 119.044328  L 162.500000 96.538476  L 135.596832 97.225973  M 0.000000 0.000000  L 187.500000 148.500000  L 166.044319 136.327515  L 180.801270 178.500000  L 169.597689 157.254530  L 162.500000 200.461524  L 163.928732 175.779360  L 137.500000 208.500000  L 151.924416 189.229466  L 112.500000 200.461524  L 132.458576 191.064303  L 94.198730 178.500000  L 117.009314 181.356878  L 87.500000 148.500000  L 105.186535 164.402689  L 94.198730 118.500000  L 102.341067 140.455912  L 112.500000 96.538476  L 109.256617 118.859873  L 137.500000 88.500000  L 124.268648 105.306481  L 162.500000 96.538476  L 142.638249 104.095021  L 180.801270 118.500000  L 158.507309 114.714142  M 0.000000 0.000000  L 187.500000 148.500000  L 170.028457 140.040856  L 180.801270 178.500000  L 171.107519 163.243227  L 162.500000 200.461524  L 161.534304 181.313755  L 137.500000 208.500000  L 144.668414 192.161459  L 112.500000 200.461524  L 127.132680 190.021354  L 94.198730 178.500000  L 111.309074 178.118130  L 87.500000 148.500000  L 104.044444 158.891916  L 94.198730 118.500000  L 101.158886 134.210278  L 112.500000 96.538476  L 110.722867 114.672193  L 137.500000 88.500000  L 126.569014 104.075613  L 162.500000 96.538476  L 146.420363 105.584078  L 180.801270 118.500000  L 164.746335 119.171602  M 0.000000 0.000000  L 187.500000 148.500000  L 177.878513 137.050278  L 168.674490 195.409889  L 171.498447 181.127277  L 126.373953 206.995675  L 136.219327 200.949176  L 92.451557 174.533024  L 106.525521 178.952065  L 92.451557 122.466976  L 96.949664 136.062480  L 126.373953 90.004325  L 118.910041 101.275055  L 168.674490 101.590111  L 155.355938 103.899231  M 0.000000 0.000000  L 187.500000 148.500000  L 179.970720 143.240135  L 179.562677 180.938449  L 177.599095 175.007492  L 158.270751 203.077920  L 159.989765 195.063279  L 130.384258 207.889287  L 137.686284 201.169789  L 104.756963 193.844974  L 111.648199 193.128023  L 89.525351 165.403953  L 96.903306 169.962981  L 89.525351 131.596047  L 93.711151 139.644348  L 104.756963 103.155026  L 103.711650 109.681646  L 130.384258 89.110713  L 126.483736 93.994492  L 158.270751 93.922080  L 151.588188 95.676245  L 179.562677 116.061551  L 171.688077 114.232773  M 0.000000 0.000000  L 187.500000 148.500000  L 186.325020 146.037905  L 162.500000 200.461524  L 163.774762 198.765797  L 112.500000 200.461524  L 115.690630 200.873030  L 87.500000 148.500000  L 88.594640 150.750844  L 112.500000 96.538476  L 110.537869 99.071880  L 162.500000 96.538476  L 159.722539 96.352721  M 0.000000 0.000000  L 187.500000 148.500000  L 187.492385 149.547144  L 187.469541 150.593970  L 187.431477 151.640157  L 187.378203 152.685388  L 187.309735 153.729345  L 187.226095 154.771708  L 187.127308 155.812161  L 187.013403 156.850386  L 186.884417 157.886068  L 186.740388 158.918891  L 186.581359 159.948540  L 186.407380 160.974701  L 186.218503 161.997063  L 186.014786 163.015314  L 185.796291 164.029143  L 185.563085 165.038241  L 185.315238 166.042302  L 185.052826 167.041020  L 184.775929 168.034089  L 184.484631 169.021209  L 184.179021 170.002077  L 183.859193 170.976396  L 183.525243 171.943868  L 183.177273 172.904199  L 182.815389 173.857096  L 182.439702 174.802269  L 182.050326 175.739430  L 181.647380 176.668294  L 181.230985 177.588577  L 180.801270 178.500000  L 180.358365 179.402284  L 179.902405 180.295156  L 179.433528 181.178342  L 178.951879 182.051574  L 178.457602 182.914586  L 177.950850 183.767115  L 177.431776 184.608901  L 176.900538 185.439689  L 176.357298 186.259223  L 175.802222 187.067257  L 175.235479 187.863542  L 174.657241 188.647836  L 174.067685 189.419902  L 173.466990 190.179502  L 172.855339 190.926407  L 172.232919 191.660388  L 171.599918 192.381222  L 170.956530 193.088690  L 170.302951 193.782575  L 169.639380 194.462667  L 168.966020 195.128758  L 168.283074 195.780645  L 167.590751 196.418131  L 166.889263 197.041020  L 166.178822 197.649123  L 165.459645 198.242254  L 164.731952 198.820234  L 163.995963 199.382886  L 163.251904 199.930038  L 162.500000 200.461524  L 161.740481 200.977182  L 160.973578 201.476856  L 160.199525 201.960391  L 159.418557 202.427643  L 158.630913 202.878467  L 157.836832 203.312727  L 157.036556 203.730291  L 156.230330 204.131031  L 155.418397 204.514826  L 154.601007 204.881557  L 153.778408 205.231115  L 152.950850 205.563391  L 152.118585 205.878285  L 151.281868 206.175702  L 150.440952 206.455550  L 149.596095 206.717744  L 148.747553 206.962204  L 147.895585 207.188856  L 147.040450 207.397631  L 146.182409 207.588465  L 145.321723 207.761300  L 144.458655 207.916084  L 143.593467 208.052769  L 142.726423 208.171314  L 141.857787 208.271682  L 140.987824 208.353843  L 140.116798 208.417772  L 139.244975 208.463450  L 138.372620 208.490862  L 137.500000 208.500000  L 136.627380 208.490862  L 135.755025 208.463450  L 134.883202 208.417772  L 134.012176 208.353843  L 133.142213 208.271682  L 132.273577 208.171314  L 131.406533 208.052769  L 130.541345 207.916084  L 129.678277 207.761300  L 128.817591 207.588465  L 127.959550 207.397631  L 127.104415 207.188856  L 126.252447 206.962204  L 125.403905 206.717744  L 124.559048 206.455550  L 123.718132 206.175702  L 122.881415 205.878285  L 122.049150 205.563391  L 121.221592 205.231115  L 120.398993 204.881557  L 119.581603 204.514826  L 118.769670 204.131031  L 117.963444 203.730291  L 117.163168 203.312727  L 116.369087 202.878467  L 115.581443 202.427643  L 114.800475 201.960391  L 114.026422 201.476856  L 113.259519 200.977182  L 112.500000 200.461524  L 111.748096 199.930038  L 111.004037 199.382886  L 110.268048 198.820234  L 109.540355 198.242254  L 108.821178 197.649123  L 108.110737 197.041020  L 107.409249 196.418131  L 106.716926 195.780645  L 106.033980 195.128758  L 105.360620 194.462667  L 104.697049 193.782575  L 104.043470 193.088690  L 103.400082 192.381222  L 102.767081 191.660388  L 102.144661 190.926407  L 101.533010 190.179502  L 100.932315 189.419902  L 100.342759 188.647836  L 99.764521 187.863542  L 99.197778 187.067257  L 98.642702 186.259223  L 98.099462 185.439689  L 97.568224 184.608901  L 97.049150 183.767115  L 96.542398 182.914586  L 96.048121 182.051574  L 95.566472 181.178342  L 95.097595 180.295156  L 94.641635 179.402284  L 94.198730 178.500000  L 93.769015 177.588577  L 93.352620 176.668294  L 92.949674 175.739430  L 92.560298 174.802269  L 92.184611 173.857096  L 91.822727 172.904199  L 91.474757 171.943868  L 91.140807 170.976396  L 90.820979 170.002077  L 90.515369 169.021209  L 90.224071 168.034089  L 89.947174 167.041020  L 89.684762 166.042302  L 89.436915 165.038241  L 89.203709 164.029143  L 88.985214 163.015314  L 88.781497 161.997063  L 88.592620 160.974701  L 88.418641 159.948540  L 88.259612 158.918891  L 88.115583 157.886068  L 87.986597 156.850386  L 87.872692 155.812161  L 87.773905 154.771708  L 87.690265 153.729345  L 87.621797 152.685388  L 87.568523 151.640157  L 87.530459 150.593970  L 87.507615 149.547144  L 87.500000 148.500000  L 87.507615 147.452856  L 87.530459 146.406030  L 87.568523 145.359843  L 87.621797 144.314612  L 87.690265 143.270655  L 87.773905 142.228292  L 87.872692 141.187839  L 87.986597 140.149614  L 88.115583 139.113932  L 88.259612 138.081109  L 88.418641 137.051460  L 88.592620 136.025299  L 88.781497 135.002937  L 88.985214 133.984686  L 89.203709 132.970857  L 89.436915 131.961759  L 89.684762 130.957698  L 89.947174 129.958980  L 90.224071 128.965911  L 90.515369 127.978791  L 90.820979 126.997923  L 91.140807 126.023604  L 91.474757 125.056132  L 91.822727 124.095801  L 92.184611 123.142904  L 92.560298 122.197731  L 92.949674 121.260570  L 93.352620 120.331706  L 93.769015 119.411423  L 94.198730 118.500000  L 94.641635 117.597716  L 95.097595 116.704844  L 95.566472 115.821658  L 96.048121 114.948426  L 96.542398 114.085414  L 97.049150 113.232885  L 97.568224 112.391099  L 98.099462 111.560311  L 98.642702 110.740777  L 99.197778 109.932743  L 99.764521 109.136458  L 100.342759 108.352164  L 100.932315 107.580098  L 101.533010 106.820498  L 102.144661 106.073593  L 102.767081 105.339612  L 103.400082 104.618778  L 104.043470 103.911310  L 104.697049 103.217425  L 105.360620 102.537333  L 106.033980 101.871242  L 106.716926 101.219355  L 107.409249 100.581869  L 108.110737 99.958980  L 108.821178 99.350877  L 109.540355 98.757746  L 110.268048 98.179766  L 111.004037 97.617114  L 111.748096 97.069962  L 112.500000 96.538476  L 113.259519 96.022818  L 114.026422 95.523144  L 114.800475 95.039609  L 115.581443 94.572357  L 116.369087 94.121533  L 117.163168 93.687273  L 117.963444 93.269709  L 118.769670 92.868969  L 119.581603 92.485174  L 120.398993 92.118443  L 121.221592 91.768885  L 122.049150 91.436609  L 122.881415 91.121715  L 123.718132 90.824298  L 124.559048 90.544450  L 125.403905 90.282256  L 126.252447 90.037796  L 127.104415 89.811144  L 127.959550 89.602369  L 128.817591 89.411535  L 129.678277 89.238700  L 130.541345 89.083916  L 131.406533 88.947231  L 132.273577 88.828686  L 133.142213 88.728318  L 134.012176 88.646157  L 134.883202 88.582228  L 135.755025 88.536550  L 136.627380 88.509138  L 137.500000 88.500000  L 138.372620 88.509138  L 139.244975 88.536550  L 140.116798 88.582228  L 140.987824 88.646157  L 141.857787 88.728318  L 142.726423 88.828686  L 143.593467 88.947231  L 144.458655 89.083916  L 145.321723 89.238700  L 146.182409 89.411535  L 147.040450 89.602369  L 147.895585 89.811144  L 148.747553 90.037796  L 149.596095 90.282256  L 150.440952 90.544450  L 151.281868 90.824298  L 152.118585 91.121715  L 152.950850 91.436609  L 153.778408 91.768885  L 154.601007 92.118443  L 155.418397 92.485174  L 156.230330 92.868969  L 157.036556 93.269709  L 157.836832 93.687273  L 158.630913 94.121533  L 159.418557 94.572357  L 160.199525 95.039609  L 160.973578 95.523144  L 161.740481 96.022818  L 162.500000 96.538476  L 163.251904 97.069962  L 163.995963 97.617114  L 164.731952 98.179766  L 165.459645 98.757746  L 166.178822 99.350877  L 166.889263 99.958980  L 167.590751 100.581869  L 168.283074 101.219355  L 168.966020 101.871242  L 169.639380 102.537333  L 170.302951 103.217425  L 170.956530 103.911310  L 171.599918 104.618778  L 172.232919 105.339612  L 172.855339 106.073593  L 173.466990 106.820498  L 174.067685 107.580098  L 174.657241 108.352164  L 175.235479 109.136458  L 175.802222 109.932743  L 176.357298 110.740777  L 176.900538 111.560311  L 177.431776 112.391099  L 177.950850 113.232885  L 178.457602 114.085414  L 178.951879 114.948426  L 179.433528 115.821658  L 179.902405 116.704844  L 180.358365 117.597716  L 180.801270 118.500000  L 181.230985 119.411423  L 181.647380 120.331706  L 182.050326 121.260570  L 182.439702 122.197731  L 182.815389 123.142904  L 183.177273 124.095801  L 183.525243 125.056132  L 183.859193 126.023604  L 184.179021 126.997923  L 184.484631 127.978791  L 184.775929 128.965911  L 185.052826 129.958980  L 185.315238 130.957698  L 185.563085 131.961759  L 185.796291 132.970857  L 186.014786 133.984686  L 186.218503 135.002937  L 186.407380 136.025299  L 186.581359 137.051460  L 186.740388 138.081109  L 186.884417 139.113932  L 187.013403 140.149614  L 187.127308 141.187839  L 187.226095 142.228292  L 187.309735 143.270655  L 187.378203 144.314612  L 187.431477 145.359843  L 187.469541 146.406030  L 187.492385 147.452856" 
                    stroke-width="1" 
                    stroke="black" 
                    fill="none" 
                    stroke-linecap="round"
                    stroke-linejoin="round"
                    style="transform: scale(1, 1);"
                    />
                </svg>
            