
                <svg 
                  xmlns="http://www.w3.org/2000/svg" 
                  viewBox="0 0 275 298" 
                  width="275mm" 
                  height="298mm"
                  style="transform: scale(1, -1)">
                    <path 
                    d="M 0.000000 0.000000  L 187.500000 149.000000  L 48.602753 71.032660  L 179.562677 181.438449  L 115.073836 35.952590  L 158.270751 203.577920  L 187.003000 49.536320  L 130.384258 208.389287  L 241.623394 95.634235  L 104.756963 194.344974  L 257.135953 157.544431  L 89.525351 165.903953  L 242.550325 212.176528  L 89.525351 132.096047  L 201.052596 246.763763  L 104.756963 103.655026  L 130.434649 261.118530  L 130.384258 89.610713  L 68.997510 233.612568  L 158.270751 94.422080  L 27.272690 182.879206  L 179.562677 116.561551  L 21.550712 129.505487  M 0.000000 0.000000  L 187.500000 149.000000  L 82.892234 39.918583  L 172.855339 191.426407  L 176.401024 38.255931  L 137.500000 209.000000  L 255.034877 111.579278  L 102.144661 191.426407  L 252.162084 215.521329  L 87.500000 149.000000  L 168.389145 277.643446  L 102.144661 106.573593  L 58.898198 253.609962  L 137.500000 89.000000  L -0.640290 153.366252  L 172.855339 106.573593  L 29.585695 50.933619  M 0.000000 0.000000  L 187.500000 149.000000  L 61.981679 67.247110  L 179.562677 181.438449  L 114.706800 49.852753  L 158.270751 203.577920  L 185.383811 56.976058  L 130.384258 208.389287  L 225.347441 93.279266  L 104.756963 194.344974  L 243.279290 140.382594  L 89.525351 165.903953  L 232.085778 201.004796  L 89.525351 132.096047  L 189.212735 242.102856  L 104.756963 103.655026  L 127.956200 249.998486  L 130.384258 89.610713  L 78.475103 226.202812  L 158.270751 94.422080  L 42.152777 183.741623  L 179.562677 116.561551  L 33.969712 131.757495  M 0.000000 0.000000  L 187.500000 149.000000  L 112.241675 29.566052  L 162.500000 200.961524  L 228.962747 75.642696  L 112.500000 200.961524  L 254.262972 202.499566  L 87.500000 149.000000  L 156.838987 272.246951  L 112.500000 97.038476  L 44.172807 223.713979  L 162.500000 97.038476  L 18.355102 94.091975  M 0.000000 0.000000  L 187.500000 149.000000  L 66.851248 81.456674  L 180.801270 179.000000  L 108.226206 61.152336  L 162.500000 200.961524  L 152.272019 65.163293  L 137.500000 209.000000  L 201.882640 87.106782  L 112.500000 200.961524  L 234.046049 135.305311  L 94.198730 179.000000  L 231.098701 184.479375  L 87.500000 149.000000  L 202.183040 228.528766  L 94.198730 119.000000  L 142.438009 246.532007  L 112.500000 97.038476  L 101.017880 233.318029  L 137.500000 89.000000  L 62.484790 206.522074  L 162.500000 97.038476  L 34.786212 150.502258  L 180.801270 119.000000  L 43.587780 106.017325  M 0.000000 0.000000  L 187.500000 149.000000  L 102.374398 48.594726  L 168.674490 195.909889  L 202.448625 67.134067  L 126.373953 207.495675  L 250.411384 162.397961  L 92.451557 175.033024  L 207.690035 238.132923  L 92.451557 122.966976  L 109.700396 253.127197  L 126.373953 90.504325  L 31.152481 181.719039  L 168.674490 102.090111  L 36.013442 87.878642  M 0.000000 0.000000  L 187.500000 149.000000  L 83.390482 74.120610  L 177.950850 184.267115  L 139.108854 61.031337  L 152.950850 206.063391  L 186.326708 80.789461  L 122.049150 206.063391  L 215.531137 118.249315  L 97.049150 184.267115  L 222.997711 157.221056  L 87.500000 149.000000  L 202.906230 206.870402  L 97.049150 113.732885  L 153.282550 227.613738  L 122.049150 91.936609  L 94.959875 218.938937  L 152.950850 91.936609  L 58.072617 180.403393  L 177.950850 113.732885  L 53.105861 131.746781  M 0.000000 0.000000  L 187.500000 149.000000  L 103.551862 57.217990  L 168.674490 195.909889  L 184.006533 71.865131  L 126.373953 207.495675  L 234.335663 145.999670  L 92.451557 175.033024  L 207.840093 219.093138  L 92.451557 122.966976  L 131.481628 240.047016  L 126.373953 90.504325  L 52.212091 188.255987  L 168.674490 102.090111  L 47.778204 96.482909  M 0.000000 0.000000  L 187.500000 149.000000  L 87.849071 85.997030  L 180.801270 179.000000  L 119.674623 78.182537  L 162.500000 200.961524  L 160.292830 83.790677  L 137.500000 209.000000  L 192.296994 104.614970  L 112.500000 200.961524  L 213.041368 142.731202  L 94.198730 179.000000  L 212.110077 180.230388  L 87.500000 149.000000  L 185.986427 210.348249  L 94.198730 119.000000  L 149.241162 221.842691  L 112.500000 97.038476  L 103.824725 214.596187  L 137.500000 89.000000  L 68.127342 183.067858  L 162.500000 97.038476  L 58.287068 151.287389  L 180.801270 119.000000  L 62.003470 115.733563  M 0.000000 0.000000  L 187.500000 149.000000  L 107.122397 69.937979  L 172.855339 191.426407  L 167.100428 79.551896  L 137.500000 209.000000  L 212.904456 122.308658  L 102.144661 191.426407  L 213.360865 193.210839  L 87.500000 149.000000  L 164.175208 230.896877  L 102.144661 106.573593  L 89.175618 217.045111  L 137.500000 89.000000  L 53.900147 167.374617  L 172.855339 106.573593  L 62.467501 94.925164  M 0.000000 0.000000  L 187.500000 149.000000  L 109.562583 75.475639  L 175.802222 187.567257  L 166.865431 78.108434  L 146.182409 208.088465  L 215.068850 126.446006  L 112.500000 200.961524  L 220.969360 189.377149  L 90.515369 169.521209  L 176.440643 237.979988  L 90.515369 128.478791  L 111.367334 233.203524  L 112.500000 97.038476  L 68.038456 197.180693  L 146.182409 89.911535  L 49.377478 136.900252  L 175.802222 110.432743  L 67.733553 92.865500  M 0.000000 0.000000  L 187.500000 149.000000  L 107.794678 80.830759  L 175.802222 187.567257  L 159.344050 84.967272  L 146.182409 208.088465  L 206.534328 122.938584  L 112.500000 200.961524  L 211.181978 178.209198  L 90.515369 169.521209  L 178.423689 220.139296  L 90.515369 128.478791  L 118.901907 225.448643  L 112.500000 97.038476  L 65.388818 189.266006  L 146.182409 89.911535  L 52.837559 131.898329  L 175.802222 110.432743  L 78.028356 81.112733  M 0.000000 0.000000  L 187.500000 149.000000  L 120.811678 76.480093  L 168.674490 195.909889  L 179.757761 97.627133  L 126.373953 207.495675  L 210.882932 155.791948  L 92.451557 175.033024  L 183.820892 208.934596  L 92.451557 122.966976  L 128.460378 213.923586  L 126.373953 90.504325  L 73.914145 174.031941  L 168.674490 102.090111  L 70.087964 113.891177  M 0.000000 0.000000  L 187.500000 149.000000  L 109.133241 101.716190  L 179.562677 181.438449  L 138.239646 99.075562  L 158.270751 203.577920  L 166.237796 111.539227  L 130.384258 208.389287  L 191.124403 139.406986  L 104.756963 194.344974  L 194.252145 163.183987  L 89.525351 165.903953  L 181.790622 187.895256  L 89.525351 132.096047  L 149.387754 201.603780  L 104.756963 103.655026  L 118.495205 195.289837  L 130.384258 89.610713  L 87.623794 174.188821  L 158.270751 94.422080  L 82.169911 146.018955  L 179.562677 116.561551  L 88.108554 120.269897  M 0.000000 0.000000  L 187.500000 149.000000  L 107.357542 111.267556  L 180.801270 179.000000  L 131.445153 105.836036  L 162.500000 200.961524  L 163.044458 111.482918  L 137.500000 209.000000  L 175.474254 131.440832  L 112.500000 200.961524  L 181.138092 146.203907  L 94.198730 179.000000  L 181.682011 168.285863  L 87.500000 149.000000  L 170.080354 180.198379  L 94.198730 119.000000  L 145.808462 190.983543  L 112.500000 97.038476  L 128.125320 183.866048  L 137.500000 89.000000  L 109.315047 173.430926  L 162.500000 97.038476  L 93.216076 148.634704  L 180.801270 119.000000  L 92.719649 133.369445  M 0.000000 0.000000  L 187.500000 149.000000  L 139.884025 81.640017  L 168.674490 195.909889  L 186.790271 115.928191  L 126.373953 207.495675  L 201.208678 170.120600  L 92.451557 175.033024  L 167.840080 210.378406  L 92.451557 122.966976  L 116.784348 202.370036  L 126.373953 90.504325  L 82.263589 161.334778  L 168.674490 102.090111  L 87.317759 106.947491  M 0.000000 0.000000  L 187.500000 149.000000  L 122.143665 105.878464  L 177.950850 184.267115  L 145.570304 113.447636  L 152.950850 206.063391  L 166.615463 130.717005  L 122.049150 206.063391  L 179.440569 153.284279  L 97.049150 184.267115  L 175.134084 179.460833  L 87.500000 149.000000  L 156.129339 187.764943  L 97.049150 113.732885  L 130.232126 185.611870  L 122.049150 91.936609  L 109.132770 167.452164  L 152.950850 91.936609  L 97.265897 146.446107  L 177.950850 113.732885  L 100.884981 123.480537  M 0.000000 0.000000  L 187.500000 149.000000  L 125.757352 107.751235  L 180.801270 179.000000  L 147.097021 114.822203  L 162.500000 200.961524  L 169.144344 128.892760  L 137.500000 209.000000  L 175.683962 147.050744  L 112.500000 200.961524  L 177.335831 168.153502  L 94.198730 179.000000  L 167.529781 179.706359  L 87.500000 149.000000  L 150.219587 187.897400  L 94.198730 119.000000  L 132.185907 182.892025  L 112.500000 97.038476  L 112.287613 171.309001  L 137.500000 89.000000  L 96.217934 148.920864  L 162.500000 97.038476  L 98.665689 129.964309  L 180.801270 119.000000  L 107.099961 109.687861  M 0.000000 0.000000  L 187.500000 149.000000  L 129.201281 111.183636  L 179.562677 181.438449  L 156.562049 119.408479  L 158.270751 203.577920  L 176.632782 139.607888  L 130.384258 208.389287  L 176.240646 160.750173  L 104.756963 194.344974  L 171.142315 177.053144  L 89.525351 165.903953  L 152.781192 188.710051  L 89.525351 132.096047  L 126.382419 190.054458  L 104.756963 103.655026  L 109.528173 172.656374  L 130.384258 89.610713  L 93.544795 147.974282  L 158.270751 94.422080  L 94.967998 122.232112  L 179.562677 116.561551  L 111.025420 107.461314  M 0.000000 0.000000  L 187.500000 149.000000  L 133.850463 116.708664  L 179.562677 181.438449  L 151.760086 123.716867  L 158.270751 203.577920  L 169.033377 142.693123  L 130.384258 208.389287  L 173.214912 160.516137  L 104.756963 194.344974  L 164.716250 181.162946  L 89.525351 165.903953  L 149.761166 184.174331  L 89.525351 132.096047  L 132.201548 179.603548  L 104.756963 103.655026  L 118.299945 164.538328  L 130.384258 89.610713  L 107.143264 147.190907  L 158.270751 94.422080  L 108.389129 132.438864  L 179.562677 116.561551  L 116.229426 126.362548  M 0.000000 0.000000  L 187.500000 149.000000  L 158.548005 100.684160  L 162.500000 200.961524  L 188.280557 147.149947  L 112.500000 200.961524  L 171.830383 194.630688  L 87.500000 149.000000  L 122.397708 195.394089  L 112.500000 97.038476  L 92.881692 153.691318  L 162.500000 97.038476  L 106.375274 105.081585  M 0.000000 0.000000  L 187.500000 149.000000  L 140.652436 123.961201  L 179.562677 181.438449  L 154.294150 135.239926  L 158.270751 203.577920  L 157.847810 152.076188  L 130.384258 208.389287  L 160.567751 164.818437  L 104.756963 194.344974  L 156.448425 176.627252  L 89.525351 165.903953  L 140.683051 176.914882  L 89.525351 132.096047  L 125.000728 173.104035  L 104.756963 103.655026  L 113.894127 154.843024  L 130.384258 89.610713  L 114.514054 138.746554  L 158.270751 94.422080  L 114.552104 127.343765  L 179.562677 116.561551  L 125.894002 121.908420  M 0.000000 0.000000  L 187.500000 149.000000  L 150.673453 115.407311  L 175.802222 187.567257  L 170.408091 141.549934  L 146.182409 208.088465  L 173.049158 167.216759  L 112.500000 200.961524  L 158.802397 188.093386  L 90.515369 169.521209  L 134.400979 188.543597  L 90.515369 128.478791  L 114.613725 170.123061  L 112.500000 97.038476  L 101.098640 144.625441  L 146.182409 89.911535  L 110.360228 120.343474  L 175.802222 110.432743  L 129.666760 109.609759  M 0.000000 0.000000  L 187.500000 149.000000  L 159.753707 117.887925  L 168.674490 195.909889  L 179.460580 152.398389  L 126.373953 207.495675  L 166.056103 190.372978  L 92.451557 175.033024  L 131.457381 191.801493  L 92.451557 122.966976  L 103.711350 163.959854  L 126.373953 90.504325  L 97.779348 124.122976  L 168.674490 102.090111  L 127.826121 98.385401  M 0.000000 0.000000  L 187.500000 149.000000  L 161.029313 122.677695  L 175.802222 187.567257  L 169.311543 149.150602  L 146.182409 208.088465  L 165.350898 176.722346  L 112.500000 200.961524  L 149.151459 189.179196  L 90.515369 169.521209  L 126.596611 181.879395  L 90.515369 128.478791  L 107.727895 160.777960  L 112.500000 97.038476  L 102.340315 133.435536  L 146.182409 89.911535  L 112.136079 110.855890  L 175.802222 110.432743  L 139.004258 108.215599  M 0.000000 0.000000  L 187.500000 149.000000  L 160.143063 131.364701  L 177.950850 184.267115  L 167.138520 153.359662  L 152.950850 206.063391  L 164.530617 174.093576  L 122.049150 206.063391  L 150.332162 186.657349  L 97.049150 184.267115  L 129.294944 182.355975  L 87.500000 149.000000  L 117.468756 166.495650  L 97.049150 113.732885  L 110.090185 143.955996  L 122.049150 91.936609  L 112.369672 122.805714  L 152.950850 91.936609  L 126.121083 112.782412  L 177.950850 113.732885  L 145.344405 112.469249  M 0.000000 0.000000  L 187.500000 149.000000  L 162.241621 136.872897  L 180.801270 179.000000  L 166.607410 153.900814  L 162.500000 200.961524  L 163.220228 172.349044  L 137.500000 209.000000  L 153.706468 186.744276  L 112.500000 200.961524  L 138.163361 189.218379  L 94.198730 179.000000  L 120.109148 183.110776  L 87.500000 149.000000  L 108.705321 168.135049  L 94.198730 119.000000  L 105.019213 145.996407  L 112.500000 97.038476  L 106.467997 124.290416  L 137.500000 89.000000  L 119.723450 108.957982  L 162.500000 97.038476  L 134.997828 105.363069  L 180.801270 119.000000  L 153.907404 113.445601  M 0.000000 0.000000  L 187.500000 149.000000  L 168.007247 137.083280  L 177.950850 184.267115  L 169.372263 164.838453  L 152.950850 206.063391  L 156.392700 181.980351  L 122.049150 206.063391  L 139.157843 188.587033  L 97.049150 184.267115  L 120.014594 179.056484  L 87.500000 149.000000  L 109.151015 158.805740  L 97.049150 113.732885  L 109.561620 134.011739  L 122.049150 91.936609  L 119.578788 114.970326  L 152.950850 91.936609  L 135.896323 108.645961  L 177.950850 113.732885  L 154.234500 117.941433  M 0.000000 0.000000  L 187.500000 149.000000  L 178.634727 133.333774  L 162.500000 200.961524  L 171.803201 187.402611  L 112.500000 200.961524  L 130.183144 203.195804  L 87.500000 149.000000  L 95.997846 166.408326  L 112.500000 97.038476  L 101.837639 112.300334  L 162.500000 97.038476  L 143.363362 95.164239  M 0.000000 0.000000  L 187.500000 149.000000  L 180.842305 138.165525  L 162.500000 200.961524  L 167.624890 189.989068  L 112.500000 200.961524  L 126.051683 200.197469  L 87.500000 149.000000  L 94.087356 159.091415  L 112.500000 97.038476  L 107.632528 107.132844  L 162.500000 97.038476  L 150.228436 97.147275  M 0.000000 0.000000  L 187.500000 149.000000  L 181.069819 144.249414  L 177.950850 184.267115  L 176.553720 178.056665  L 152.950850 206.063391  L 157.209540 198.044592  L 122.049150 206.063391  L 128.195058 203.294650  L 97.049150 184.267115  L 105.797847 185.635590  L 87.500000 149.000000  L 93.509011 154.397530  L 97.049150 113.732885  L 98.192998 121.540003  L 122.049150 91.936609  L 117.909863 100.764644  L 152.950850 91.936609  L 147.396729 94.705445  L 177.950850 113.732885  L 171.451142 112.484126  M 0.000000 0.000000  L 187.500000 149.000000  L 185.264143 147.275314  L 177.950850 184.267115  L 177.013243 181.296749  L 152.950850 206.063391  L 153.515478 204.751449  L 122.049150 206.063391  L 126.402992 203.865547  L 97.049150 184.267115  L 100.638012 184.604208  L 87.500000 149.000000  L 88.279440 149.702005  L 97.049150 113.732885  L 97.895759 118.638692  L 122.049150 91.936609  L 121.360045 93.119737  L 152.950850 91.936609  L 150.054784 92.998874  L 177.950850 113.732885  L 176.727996 113.334083  M 0.000000 0.000000  L 187.500000 149.000000  L 187.492385 150.047144  L 187.469541 151.093970  L 187.431477 152.140157  L 187.378203 153.185388  L 187.309735 154.229345  L 187.226095 155.271708  L 187.127308 156.312161  L 187.013403 157.350386  L 186.884417 158.386068  L 186.740388 159.418891  L 186.581359 160.448540  L 186.407380 161.474701  L 186.218503 162.497063  L 186.014786 163.515314  L 185.796291 164.529143  L 185.563085 165.538241  L 185.315238 166.542302  L 185.052826 167.541020  L 184.775929 168.534089  L 184.484631 169.521209  L 184.179021 170.502077  L 183.859193 171.476396  L 183.525243 172.443868  L 183.177273 173.404199  L 182.815389 174.357096  L 182.439702 175.302269  L 182.050326 176.239430  L 181.647380 177.168294  L 181.230985 178.088577  L 180.801270 179.000000  L 180.358365 179.902284  L 179.902405 180.795156  L 179.433528 181.678342  L 178.951879 182.551574  L 178.457602 183.414586  L 177.950850 184.267115  L 177.431776 185.108901  L 176.900538 185.939689  L 176.357298 186.759223  L 175.802222 187.567257  L 175.235479 188.363542  L 174.657241 189.147836  L 174.067685 189.919902  L 173.466990 190.679502  L 172.855339 191.426407  L 172.232919 192.160388  L 171.599918 192.881222  L 170.956530 193.588690  L 170.302951 194.282575  L 169.639380 194.962667  L 168.966020 195.628758  L 168.283074 196.280645  L 167.590751 196.918131  L 166.889263 197.541020  L 166.178822 198.149123  L 165.459645 198.742254  L 164.731952 199.320234  L 163.995963 199.882886  L 163.251904 200.430038  L 162.500000 200.961524  L 161.740481 201.477182  L 160.973578 201.976856  L 160.199525 202.460391  L 159.418557 202.927643  L 158.630913 203.378467  L 157.836832 203.812727  L 157.036556 204.230291  L 156.230330 204.631031  L 155.418397 205.014826  L 154.601007 205.381557  L 153.778408 205.731115  L 152.950850 206.063391  L 152.118585 206.378285  L 151.281868 206.675702  L 150.440952 206.955550  L 149.596095 207.217744  L 148.747553 207.462204  L 147.895585 207.688856  L 147.040450 207.897631  L 146.182409 208.088465  L 145.321723 208.261300  L 144.458655 208.416084  L 143.593467 208.552769  L 142.726423 208.671314  L 141.857787 208.771682  L 140.987824 208.853843  L 140.116798 208.917772  L 139.244975 208.963450  L 138.372620 208.990862  L 137.500000 209.000000  L 136.627380 208.990862  L 135.755025 208.963450  L 134.883202 208.917772  L 134.012176 208.853843  L 133.142213 208.771682  L 132.273577 208.671314  L 131.406533 208.552769  L 130.541345 208.416084  L 129.678277 208.261300  L 128.817591 208.088465  L 127.959550 207.897631  L 127.104415 207.688856  L 126.252447 207.462204  L 125.403905 207.217744  L 124.559048 206.955550  L 123.718132 206.675702  L 122.881415 206.378285  L 122.049150 206.063391  L 121.221592 205.731115  L 120.398993 205.381557  L 119.581603 205.014826  L 118.769670 204.631031  L 117.963444 204.230291  L 117.163168 203.812727  L 116.369087 203.378467  L 115.581443 202.927643  L 114.800475 202.460391  L 114.026422 201.976856  L 113.259519 201.477182  L 112.500000 200.961524  L 111.748096 200.430038  L 111.004037 199.882886  L 110.268048 199.320234  L 109.540355 198.742254  L 108.821178 198.149123  L 108.110737 197.541020  L 107.409249 196.918131  L 106.716926 196.280645  L 106.033980 195.628758  L 105.360620 194.962667  L 104.697049 194.282575  L 104.043470 193.588690  L 103.400082 192.881222  L 102.767081 192.160388  L 102.144661 191.426407  L 101.533010 190.679502  L 100.932315 189.919902  L 100.342759 189.147836  L 99.764521 188.363542  L 99.197778 187.567257  L 98.642702 186.759223  L 98.099462 185.939689  L 97.568224 185.108901  L 97.049150 184.267115  L 96.542398 183.414586  L 96.048121 182.551574  L 95.566472 181.678342  L 95.097595 180.795156  L 94.641635 179.902284  L 94.198730 179.000000  L 93.769015 178.088577  L 93.352620 177.168294  L 92.949674 176.239430  L 92.560298 175.302269  L 92.184611 174.357096  L 91.822727 173.404199  L 91.474757 172.443868  L 91.140807 171.476396  L 90.820979 170.502077  L 90.515369 169.521209  L 90.224071 168.534089  L 89.947174 167.541020  L 89.684762 166.542302  L 89.436915 165.538241  L 89.203709 164.529143  L 88.985214 163.515314  L 88.781497 162.497063  L 88.592620 161.474701  L 88.418641 160.448540  L 88.259612 159.418891  L 88.115583 158.386068  L 87.986597 157.350386  L 87.872692 156.312161  L 87.773905 155.271708  L 87.690265 154.229345  L 87.621797 153.185388  L 87.568523 152.140157  L 87.530459 151.093970  L 87.507615 150.047144  L 87.500000 149.000000  L 87.507615 147.952856  L 87.530459 146.906030  L 87.568523 145.859843  L 87.621797 144.814612  L 87.690265 143.770655  L 87.773905 142.728292  L 87.872692 141.687839  L 87.986597 140.649614  L 88.115583 139.613932  L 88.259612 138.581109  L 88.418641 137.551460  L 88.592620 136.525299  L 88.781497 135.502937  L 88.985214 134.484686  L 89.203709 133.470857  L 89.436915 132.461759  L 89.684762 131.457698  L 89.947174 130.458980  L 90.224071 129.465911  L 90.515369 128.478791  L 90.820979 127.497923  L 91.140807 126.523604  L 91.474757 125.556132  L 91.822727 124.595801  L 92.184611 123.642904  L 92.560298 122.697731  L 92.949674 121.760570  L 93.352620 120.831706  L 93.769015 119.911423  L 94.198730 119.000000  L 94.641635 118.097716  L 95.097595 117.204844  L 95.566472 116.321658  L 96.048121 115.448426  L 96.542398 114.585414  L 97.049150 113.732885  L 97.568224 112.891099  L 98.099462 112.060311  L 98.642702 111.240777  L 99.197778 110.432743  L 99.764521 109.636458  L 100.342759 108.852164  L 100.932315 108.080098  L 101.533010 107.320498  L 102.144661 106.573593  L 102.767081 105.839612  L 103.400082 105.118778  L 104.043470 104.411310  L 104.697049 103.717425  L 105.360620 103.037333  L 106.033980 102.371242  L 106.716926 101.719355  L 107.409249 101.081869  L 108.110737 100.458980  L 108.821178 99.850877  L 109.540355 99.257746  L 110.268048 98.679766  L 111.004037 98.117114  L 111.748096 97.569962  L 112.500000 97.038476  L 113.259519 96.522818  L 114.026422 96.023144  L 114.800475 95.539609  L 115.581443 95.072357  L 116.369087 94.621533  L 117.163168 94.187273  L 117.963444 93.769709  L 118.769670 93.368969  L 119.581603 92.985174  L 120.398993 92.618443  L 121.221592 92.268885  L 122.049150 91.936609  L 122.881415 91.621715  L 123.718132 91.324298  L 124.559048 91.044450  L 125.403905 90.782256  L 126.252447 90.537796  L 127.104415 90.311144  L 127.959550 90.102369  L 128.817591 89.911535  L 129.678277 89.738700  L 130.541345 89.583916  L 131.406533 89.447231  L 132.273577 89.328686  L 133.142213 89.228318  L 134.012176 89.146157  L 134.883202 89.082228  L 135.755025 89.036550  L 136.627380 89.009138  L 137.500000 89.000000  L 138.372620 89.009138  L 139.244975 89.036550  L 140.116798 89.082228  L 140.987824 89.146157  L 141.857787 89.228318  L 142.726423 89.328686  L 143.593467 89.447231  L 144.458655 89.583916  L 145.321723 89.738700  L 146.182409 89.911535  L 147.040450 90.102369  L 147.895585 90.311144  L 148.747553 90.537796  L 149.596095 90.782256  L 150.440952 91.044450  L 151.281868 91.324298  L 152.118585 91.621715  L 152.950850 91.936609  L 153.778408 92.268885  L 154.601007 92.618443  L 155.418397 92.985174  L 156.230330 93.368969  L 157.036556 93.769709  L 157.836832 94.187273  L 158.630913 94.621533  L 159.418557 95.072357  L 160.199525 95.539609  L 160.973578 96.023144  L 161.740481 96.522818  L 162.500000 97.038476  L 163.251904 97.569962  L 163.995963 98.117114  L 164.731952 98.679766  L 165.459645 99.257746  L 166.178822 99.850877  L 166.889263 100.458980  L 167.590751 101.081869  L 168.283074 101.719355  L 168.966020 102.371242  L 169.639380 103.037333  L 170.302951 103.717425  L 170.956530 104.411310  L 171.599918 105.118778  L 172.232919 105.839612  L 172.855339 106.573593  L 173.466990 107.320498  L 174.067685 108.080098  L 174.657241 108.852164  L 175.235479 109.636458  L 175.802222 110.432743  L 176.357298 111.240777  L 176.900538 112.060311  L 177.431776 112.891099  L 177.950850 113.732885  L 178.457602 114.585414  L 178.951879 115.448426  L 179.433528 116.321658  L 179.902405 117.204844  L 180.358365 118.097716  L 180.801270 119.000000  L 181.230985 119.911423  L 181.647380 120.831706  L 182.050326 121.760570  L 182.439702 122.697731  L 182.815389 123.642904  L 183.177273 124.595801  L 183.525243 125.556132  L 183.859193 126.523604  L 184.179021 127.497923  L 184.484631 128.478791  L 184.775929 129.465911  L 185.052826 130.458980  L 185.315238 131.457698  L 185.563085 132.461759  L 185.796291 133.470857  L 186.014786 134.484686  L 186.218503 135.502937  L 186.407380 136.525299  L 186.581359 137.551460  L 186.740388 138.581109  L 186.884417 139.613932  L 187.013403 140.649614  L 187.127308 141.687839  L 187.226095 142.728292  L 187.309735 143.770655  L 187.378203 144.814612  L 187.431477 145.859843  L 187.469541 146.906030  L 187.492385 147.952856" 
                    stroke-width="1" 
                    stroke="black" 
                    fill="none" 
                    stroke-linecap="round"
                    stroke-linejoin="round"
                    style="transform: scale(1, 1);"
                    />
                </svg>
            