
                <svg 
                  xmlns="http://www.w3.org/2000/svg" 
                  viewBox="0 0 275 298" 
                  width="275mm" 
                  height="298mm"
                  style="transform: scale(1, -1)">
                    <path 
                    d="M 0.000000 0.000000  L 187.500000 149.000000  L 80.272273 34.948502  L 172.855339 191.426407  L 177.288540 33.799516  L 137.500000 209.000000  L 260.966546 110.106706  L 102.144661 191.426407  L 260.210616 195.141805  L 87.500000 149.000000  L 199.011353 258.380897  L 102.144661 106.573593  L 90.070172 264.560132  L 137.500000 89.000000  L 15.368893 190.827375  L 172.855339 106.573593  L 14.711214 93.262176  M 0.000000 0.000000  L 187.500000 149.000000  L 112.358993 13.913246  L 162.500000 200.961524  L 230.331118 63.350134  L 112.500000 200.961524  L 266.463827 198.532089  L 87.500000 149.000000  L 157.345199 284.548864  L 112.500000 97.038476  L 31.534500 228.421643  L 162.500000 97.038476  L 10.499134 104.697314  M 0.000000 0.000000  L 187.500000 149.000000  L 67.524043 65.535739  L 179.562677 181.438449  L 127.657653 41.151812  L 158.270751 203.577920  L 189.864212 58.080587  L 130.384258 208.389287  L 239.052448 110.124510  L 104.756963 194.344974  L 249.100647 162.965099  L 89.525351 165.903953  L 225.133869 223.800615  L 89.525351 132.096047  L 170.985507 256.798939  L 104.756963 103.655026  L 107.186263 252.659234  L 130.384258 89.610713  L 57.587065 217.942594  L 158.270751 94.422080  L 25.639527 155.908236  L 179.562677 116.561551  L 31.545857 102.678005  M 0.000000 0.000000  L 187.500000 149.000000  L 107.023358 30.745869  L 162.500000 200.961524  L 220.936836 69.500850  L 112.500000 200.961524  L 254.926444 192.545521  L 87.500000 149.000000  L 169.092380 264.978910  L 112.500000 97.038476  L 48.264268 225.468694  L 162.500000 97.038476  L 20.345640 106.327765  M 0.000000 0.000000  L 187.500000 149.000000  L 99.073523 45.623972  L 168.674490 195.909889  L 197.079026 61.902818  L 126.373953 207.495675  L 252.224895 150.857460  L 92.451557 175.033024  L 210.675271 249.361620  L 92.451557 122.966976  L 104.413853 262.162905  L 126.373953 90.504325  L 30.930340 191.727547  L 168.674490 102.090111  L 33.376501 86.152936  M 0.000000 0.000000  L 187.500000 149.000000  L 79.660973 72.631919  L 175.802222 187.567257  L 131.471182 61.214425  L 146.182409 208.088465  L 200.248715 87.409661  L 112.500000 200.961524  L 232.739134 143.436881  L 90.515369 169.521209  L 215.519142 210.896632  L 90.515369 128.478791  L 150.295374 246.492891  L 112.500000 97.038476  L 73.917198 224.269348  L 146.182409 89.911535  L 35.562834 162.322634  L 175.802222 110.432743  L 41.375091 105.644997  M 0.000000 0.000000  L 187.500000 149.000000  L 115.337851 41.864465  L 168.674490 195.909889  L 215.010936 75.012068  L 126.373953 207.495675  L 244.640868 159.896902  L 92.451557 175.033024  L 203.513415 242.087835  L 92.451557 122.966976  L 108.141577 251.118967  L 126.373953 90.504325  L 36.942607 180.350308  L 168.674490 102.090111  L 39.730888 92.813435  M 0.000000 0.000000  L 187.500000 149.000000  L 104.784557 55.413349  L 172.855339 191.426407  L 173.374967 70.001312  L 137.500000 209.000000  L 219.223922 118.558696  L 102.144661 191.426407  L 225.934152 179.411962  L 87.500000 149.000000  L 186.006089 224.030489  L 102.144661 106.573593  L 122.260997 228.986550  L 137.500000 89.000000  L 62.232032 187.094041  L 172.855339 106.573593  L 53.312896 125.455935  M 0.000000 0.000000  L 187.500000 149.000000  L 117.690753 56.340238  L 168.674490 195.909889  L 191.201731 80.017479  L 126.373953 207.495675  L 231.010979 154.024621  L 92.451557 175.033024  L 199.751397 225.818679  L 92.451557 122.966976  L 119.355387 237.925019  L 126.373953 90.504325  L 51.753064 179.652012  L 168.674490 102.090111  L 51.292730 103.761790  M 0.000000 0.000000  L 187.500000 149.000000  L 106.070327 73.025974  L 172.855339 191.426407  L 178.125399 79.010860  L 137.500000 209.000000  L 214.620400 127.998852  L 102.144661 191.426407  L 216.566815 180.081841  L 87.500000 149.000000  L 177.237678 219.825150  L 102.144661 106.573593  L 107.194003 219.243035  L 137.500000 89.000000  L 66.998733 175.422040  L 172.855339 106.573593  L 59.648035 115.998325  M 0.000000 0.000000  L 187.500000 149.000000  L 126.085938 59.184133  L 162.500000 200.961524  L 213.722444 107.415123  L 112.500000 200.961524  L 219.097222 196.253801  L 87.500000 149.000000  L 137.426028 243.670085  L 112.500000 97.038476  L 52.149731 188.047016  L 162.500000 97.038476  L 53.823787 87.870874  M 0.000000 0.000000  L 187.500000 149.000000  L 107.411633 82.955095  L 175.802222 187.567257  L 154.377922 85.997306  L 146.182409 208.088465  L 201.471247 119.149181  L 112.500000 200.961524  L 212.874145 176.275475  L 90.515369 169.521209  L 185.781461 212.767583  L 90.515369 128.478791  L 140.013378 219.361598  L 112.500000 97.038476  L 96.796654 197.297557  L 146.182409 89.911535  L 66.342440 153.506556  L 175.802222 110.432743  L 72.947771 115.200315  M 0.000000 0.000000  L 187.500000 149.000000  L 127.907473 73.647236  L 168.674490 195.909889  L 184.856726 98.509064  L 126.373953 207.495675  L 210.010486 155.754702  L 92.451557 175.033024  L 185.229985 205.385565  L 92.451557 122.966976  L 123.504564 216.918501  L 126.373953 90.504325  L 66.638234 167.828424  L 168.674490 102.090111  L 72.545034 97.538066  M 0.000000 0.000000  L 187.500000 149.000000  L 110.342864 100.165353  L 177.950850 184.267115  L 146.608933 96.196047  L 152.950850 206.063391  L 178.437953 117.071783  L 122.049150 206.063391  L 200.039492 154.433154  L 97.049150 184.267115  L 189.654949 184.697509  L 87.500000 149.000000  L 166.214786 202.072138  L 97.049150 113.732885  L 132.682332 201.760450  L 122.049150 91.936609  L 94.704792 181.987356  L 152.950850 91.936609  L 75.570620 146.566189  L 177.950850 113.732885  L 84.301131 114.209903  M 0.000000 0.000000  L 187.500000 149.000000  L 110.163398 104.298968  L 180.801270 179.000000  L 142.202186 102.075010  L 162.500000 200.961524  L 165.489829 114.315426  L 137.500000 209.000000  L 186.858347 135.023146  L 112.500000 200.961524  L 192.699235 160.252323  L 94.198730 179.000000  L 183.123677 182.768663  L 87.500000 149.000000  L 158.841213 197.461365  L 94.198730 119.000000  L 132.556758 197.391483  L 112.500000 97.038476  L 112.754344 183.862399  L 137.500000 89.000000  L 94.422828 167.501336  L 162.500000 97.038476  L 84.376348 138.319165  L 180.801270 119.000000  L 92.384336 116.327187  M 0.000000 0.000000  L 187.500000 149.000000  L 116.676033 105.116968  L 180.801270 179.000000  L 139.283989 107.657544  L 162.500000 200.961524  L 157.096927 118.612806  L 137.500000 209.000000  L 172.768889 131.853241  L 112.500000 200.961524  L 184.726989 157.403059  L 94.198730 179.000000  L 175.985490 181.673325  L 87.500000 149.000000  L 160.093654 187.958583  L 94.198730 119.000000  L 139.152712 186.750892  L 112.500000 97.038476  L 113.986666 180.328807  L 137.500000 89.000000  L 96.935542 161.068749  L 162.500000 97.038476  L 87.875783 135.666780  L 180.801270 119.000000  L 96.610123 118.742563  M 0.000000 0.000000  L 187.500000 149.000000  L 135.118729 89.728700  L 172.855339 191.426407  L 176.155739 114.217017  L 137.500000 209.000000  L 190.628316 154.604789  L 102.144661 191.426407  L 179.860966 188.826891  L 87.500000 149.000000  L 144.670176 199.747382  L 102.144661 106.573593  L 101.754851 185.597313  L 137.500000 89.000000  L 81.006504 140.897502  L 172.855339 106.573593  L 93.343801 98.979990  M 0.000000 0.000000  L 187.500000 149.000000  L 145.780459 89.357359  L 162.500000 200.961524  L 187.955623 133.123462  L 112.500000 200.961524  L 183.178411 185.555358  L 87.500000 149.000000  L 135.864576 205.197441  L 112.500000 97.038476  L 89.574673 164.899866  L 162.500000 97.038476  L 93.159172 115.875741  M 0.000000 0.000000  L 187.500000 149.000000  L 136.270628 101.958062  L 175.802222 187.567257  L 161.616332 122.486622  L 146.182409 208.088465  L 176.474220 146.619897  L 112.500000 200.961524  L 172.141415 169.732153  L 90.515369 169.521209  L 159.627458 180.547014  L 90.515369 128.478791  L 136.257873 178.324565  L 112.500000 97.038476  L 120.792651 164.377525  L 146.182409 89.911535  L 108.952558 146.216085  L 175.802222 110.432743  L 109.263186 124.741549  M 0.000000 0.000000  L 187.500000 149.000000  L 135.535414 110.240348  L 179.562677 181.438449  L 154.426596 123.769848  L 158.270751 203.577920  L 167.108671 141.813717  L 130.384258 208.389287  L 169.264589 160.963190  L 104.756963 194.344974  L 166.516976 179.757597  L 89.525351 165.903953  L 149.275162 191.274812  L 89.525351 132.096047  L 120.312141 186.714729  L 104.756963 103.655026  L 96.122838 166.424746  L 130.384258 89.610713  L 93.191053 140.261759  L 158.270751 94.422080  L 97.507783 115.651407  L 179.562677 116.561551  L 121.515504 97.421756  M 0.000000 0.000000  L 187.500000 149.000000  L 141.014134 115.746060  L 179.562677 181.438449  L 161.012311 124.798613  L 158.270751 203.577920  L 171.710296 147.316577  L 130.384258 208.389287  L 171.645602 167.226944  L 104.756963 194.344974  L 162.335164 182.507954  L 89.525351 165.903953  L 142.965234 190.510068  L 89.525351 132.096047  L 120.509145 180.076539  L 104.756963 103.655026  L 105.558539 161.400402  L 130.384258 89.610713  L 99.741980 138.289582  L 158.270751 94.422080  L 107.105904 119.200348  L 179.562677 116.561551  L 120.578176 105.619036  M 0.000000 0.000000  L 187.500000 149.000000  L 145.459793 113.983650  L 177.950850 184.267115  L 168.528419 133.173593  L 152.950850 206.063391  L 172.366645 157.647945  L 122.049150 206.063391  L 166.070739 176.056142  L 97.049150 184.267115  L 148.566517 186.428313  L 87.500000 149.000000  L 130.500924 180.906606  L 97.049150 113.732885  L 116.185705 163.394848  L 122.049150 91.936609  L 109.205605 142.634570  L 152.950850 91.936609  L 115.991852 128.440234  L 177.950850 113.732885  L 124.771172 120.492635  M 0.000000 0.000000  L 187.500000 149.000000  L 146.690332 120.130512  L 177.950850 184.267115  L 159.668676 140.153579  L 152.950850 206.063391  L 167.349281 159.071459  L 122.049150 206.063391  L 158.531908 173.616041  L 97.049150 184.267115  L 144.648993 178.085199  L 87.500000 149.000000  L 127.419421 172.568689  L 97.049150 113.732885  L 119.000268 157.683383  L 122.049150 91.936609  L 112.922557 139.321484  L 152.950850 91.936609  L 117.299589 123.695704  L 177.950850 113.732885  L 130.168528 114.775152  M 0.000000 0.000000  L 187.500000 149.000000  L 150.109209 124.955640  L 180.801270 179.000000  L 163.312742 138.130903  L 162.500000 200.961524  L 164.618580 156.905004  L 137.500000 209.000000  L 160.743287 174.335530  L 112.500000 200.961524  L 149.439334 182.935266  L 94.198730 179.000000  L 137.291532 185.146704  L 87.500000 149.000000  L 124.155057 174.953895  L 94.198730 119.000000  L 114.552918 156.711235  L 112.500000 97.038476  L 112.948044 141.603088  L 137.500000 89.000000  L 112.341278 126.133352  L 162.500000 97.038476  L 121.777902 115.387507  L 180.801270 119.000000  L 137.234185 116.536912  M 0.000000 0.000000  L 187.500000 149.000000  L 159.257632 125.530959  L 175.802222 187.567257  L 171.399309 151.476243  L 146.182409 208.088465  L 168.537167 176.985839  L 112.500000 200.961524  L 149.602850 193.167014  L 90.515369 169.521209  L 126.320301 186.048970  L 90.515369 128.478791  L 108.994921 163.192044  L 112.500000 97.038476  L 107.585885 134.588669  L 146.182409 89.911535  L 116.632449 116.211686  L 175.802222 110.432743  L 138.734618 111.912985  M 0.000000 0.000000  L 187.500000 149.000000  L 163.482060 127.266597  L 172.855339 191.426407  L 171.859119 157.304500  L 137.500000 209.000000  L 158.251578 183.999982  L 102.144661 191.426407  L 133.387229 186.213889  L 87.500000 149.000000  L 114.899940 168.561103  L 102.144661 106.573593  L 110.314149 139.253284  L 137.500000 89.000000  L 120.358583 115.604671  L 172.855339 106.573593  L 139.678693 116.161690  M 0.000000 0.000000  L 187.500000 149.000000  L 163.541505 131.025766  L 177.950850 184.267115  L 168.814857 158.382910  L 152.950850 206.063391  L 158.941493 180.027651  L 122.049150 206.063391  L 144.806811 186.676338  L 97.049150 184.267115  L 125.409813 182.663691  L 87.500000 149.000000  L 112.561926 165.215082  L 97.049150 113.732885  L 108.534425 138.976417  L 122.049150 91.936609  L 116.757884 121.133352  L 152.950850 91.936609  L 130.891085 110.477300  L 177.950850 113.732885  L 150.564929 114.142532  M 0.000000 0.000000  L 187.500000 149.000000  L 168.130668 136.803003  L 177.950850 184.267115  L 168.716246 163.984735  L 152.950850 206.063391  L 157.649970 184.753699  L 122.049150 206.063391  L 140.328262 190.131990  L 97.049150 184.267115  L 119.293895 180.894247  L 87.500000 149.000000  L 109.567165 160.381776  L 97.049150 113.732885  L 107.369900 136.448085  L 122.049150 91.936609  L 117.508911 113.117126  L 152.950850 91.936609  L 134.986084 109.253916  L 177.950850 113.732885  L 155.225890 116.423252  M 0.000000 0.000000  L 187.500000 149.000000  L 173.727959 135.031899  L 172.855339 191.426407  L 174.347258 173.310794  L 137.500000 209.000000  L 152.683340 196.561860  L 102.144661 191.426407  L 118.227050 193.200308  L 87.500000 149.000000  L 99.989948 163.783282  L 102.144661 106.573593  L 100.797658 124.657231  L 137.500000 89.000000  L 123.116109 100.589114  L 172.855339 106.573593  L 154.034362 103.829458  M 0.000000 0.000000  L 187.500000 149.000000  L 180.037391 136.935632  L 162.500000 200.961524  L 170.401691 188.771621  L 112.500000 200.961524  L 127.350533 202.046412  L 87.500000 149.000000  L 94.375652 161.359835  L 112.500000 97.038476  L 106.832127 108.449086  L 162.500000 97.038476  L 148.725446 98.790100  M 0.000000 0.000000  L 187.500000 149.000000  L 182.165359 141.533854  L 168.674490 195.909889  L 170.153255 188.605050  L 126.373953 207.495675  L 132.667240 203.914100  L 92.451557 175.033024  L 99.297876 177.453454  L 92.451557 122.966976  L 94.614339 131.203823  L 126.373953 90.504325  L 122.374002 96.885896  L 168.674490 102.090111  L 161.975252 103.279187  M 0.000000 0.000000  L 187.500000 149.000000  L 185.008778 147.365054  L 180.801270 179.000000  L 179.718025 176.628670  L 162.500000 200.961524  L 163.085783 196.557120  L 137.500000 209.000000  L 138.162256 208.189856  L 112.500000 200.961524  L 113.781976 200.442419  L 94.198730 179.000000  L 99.081836 179.485848  L 87.500000 149.000000  L 89.519324 150.410741  L 94.198730 119.000000  L 95.222401 121.639652  L 112.500000 97.038476  L 112.019010 99.166075  L 137.500000 89.000000  L 135.645354 90.867646  L 162.500000 97.038476  L 157.847628 98.541389  L 180.801270 119.000000  L 176.241284 117.827397  M 0.000000 0.000000  L 187.500000 149.000000  L 187.492385 150.047144  L 187.469541 151.093970  L 187.431477 152.140157  L 187.378203 153.185388  L 187.309735 154.229345  L 187.226095 155.271708  L 187.127308 156.312161  L 187.013403 157.350386  L 186.884417 158.386068  L 186.740388 159.418891  L 186.581359 160.448540  L 186.407380 161.474701  L 186.218503 162.497063  L 186.014786 163.515314  L 185.796291 164.529143  L 185.563085 165.538241  L 185.315238 166.542302  L 185.052826 167.541020  L 184.775929 168.534089  L 184.484631 169.521209  L 184.179021 170.502077  L 183.859193 171.476396  L 183.525243 172.443868  L 183.177273 173.404199  L 182.815389 174.357096  L 182.439702 175.302269  L 182.050326 176.239430  L 181.647380 177.168294  L 181.230985 178.088577  L 180.801270 179.000000  L 180.358365 179.902284  L 179.902405 180.795156  L 179.433528 181.678342  L 178.951879 182.551574  L 178.457602 183.414586  L 177.950850 184.267115  L 177.431776 185.108901  L 176.900538 185.939689  L 176.357298 186.759223  L 175.802222 187.567257  L 175.235479 188.363542  L 174.657241 189.147836  L 174.067685 189.919902  L 173.466990 190.679502  L 172.855339 191.426407  L 172.232919 192.160388  L 171.599918 192.881222  L 170.956530 193.588690  L 170.302951 194.282575  L 169.639380 194.962667  L 168.966020 195.628758  L 168.283074 196.280645  L 167.590751 196.918131  L 166.889263 197.541020  L 166.178822 198.149123  L 165.459645 198.742254  L 164.731952 199.320234  L 163.995963 199.882886  L 163.251904 200.430038  L 162.500000 200.961524  L 161.740481 201.477182  L 160.973578 201.976856  L 160.199525 202.460391  L 159.418557 202.927643  L 158.630913 203.378467  L 157.836832 203.812727  L 157.036556 204.230291  L 156.230330 204.631031  L 155.418397 205.014826  L 154.601007 205.381557  L 153.778408 205.731115  L 152.950850 206.063391  L 152.118585 206.378285  L 151.281868 206.675702  L 150.440952 206.955550  L 149.596095 207.217744  L 148.747553 207.462204  L 147.895585 207.688856  L 147.040450 207.897631  L 146.182409 208.088465  L 145.321723 208.261300  L 144.458655 208.416084  L 143.593467 208.552769  L 142.726423 208.671314  L 141.857787 208.771682  L 140.987824 208.853843  L 140.116798 208.917772  L 139.244975 208.963450  L 138.372620 208.990862  L 137.500000 209.000000  L 136.627380 208.990862  L 135.755025 208.963450  L 134.883202 208.917772  L 134.012176 208.853843  L 133.142213 208.771682  L 132.273577 208.671314  L 131.406533 208.552769  L 130.541345 208.416084  L 129.678277 208.261300  L 128.817591 208.088465  L 127.959550 207.897631  L 127.104415 207.688856  L 126.252447 207.462204  L 125.403905 207.217744  L 124.559048 206.955550  L 123.718132 206.675702  L 122.881415 206.378285  L 122.049150 206.063391  L 121.221592 205.731115  L 120.398993 205.381557  L 119.581603 205.014826  L 118.769670 204.631031  L 117.963444 204.230291  L 117.163168 203.812727  L 116.369087 203.378467  L 115.581443 202.927643  L 114.800475 202.460391  L 114.026422 201.976856  L 113.259519 201.477182  L 112.500000 200.961524  L 111.748096 200.430038  L 111.004037 199.882886  L 110.268048 199.320234  L 109.540355 198.742254  L 108.821178 198.149123  L 108.110737 197.541020  L 107.409249 196.918131  L 106.716926 196.280645  L 106.033980 195.628758  L 105.360620 194.962667  L 104.697049 194.282575  L 104.043470 193.588690  L 103.400082 192.881222  L 102.767081 192.160388  L 102.144661 191.426407  L 101.533010 190.679502  L 100.932315 189.919902  L 100.342759 189.147836  L 99.764521 188.363542  L 99.197778 187.567257  L 98.642702 186.759223  L 98.099462 185.939689  L 97.568224 185.108901  L 97.049150 184.267115  L 96.542398 183.414586  L 96.048121 182.551574  L 95.566472 181.678342  L 95.097595 180.795156  L 94.641635 179.902284  L 94.198730 179.000000  L 93.769015 178.088577  L 93.352620 177.168294  L 92.949674 176.239430  L 92.560298 175.302269  L 92.184611 174.357096  L 91.822727 173.404199  L 91.474757 172.443868  L 91.140807 171.476396  L 90.820979 170.502077  L 90.515369 169.521209  L 90.224071 168.534089  L 89.947174 167.541020  L 89.684762 166.542302  L 89.436915 165.538241  L 89.203709 164.529143  L 88.985214 163.515314  L 88.781497 162.497063  L 88.592620 161.474701  L 88.418641 160.448540  L 88.259612 159.418891  L 88.115583 158.386068  L 87.986597 157.350386  L 87.872692 156.312161  L 87.773905 155.271708  L 87.690265 154.229345  L 87.621797 153.185388  L 87.568523 152.140157  L 87.530459 151.093970  L 87.507615 150.047144  L 87.500000 149.000000  L 87.507615 147.952856  L 87.530459 146.906030  L 87.568523 145.859843  L 87.621797 144.814612  L 87.690265 143.770655  L 87.773905 142.728292  L 87.872692 141.687839  L 87.986597 140.649614  L 88.115583 139.613932  L 88.259612 138.581109  L 88.418641 137.551460  L 88.592620 136.525299  L 88.781497 135.502937  L 88.985214 134.484686  L 89.203709 133.470857  L 89.436915 132.461759  L 89.684762 131.457698  L 89.947174 130.458980  L 90.224071 129.465911  L 90.515369 128.478791  L 90.820979 127.497923  L 91.140807 126.523604  L 91.474757 125.556132  L 91.822727 124.595801  L 92.184611 123.642904  L 92.560298 122.697731  L 92.949674 121.760570  L 93.352620 120.831706  L 93.769015 119.911423  L 94.198730 119.000000  L 94.641635 118.097716  L 95.097595 117.204844  L 95.566472 116.321658  L 96.048121 115.448426  L 96.542398 114.585414  L 97.049150 113.732885  L 97.568224 112.891099  L 98.099462 112.060311  L 98.642702 111.240777  L 99.197778 110.432743  L 99.764521 109.636458  L 100.342759 108.852164  L 100.932315 108.080098  L 101.533010 107.320498  L 102.144661 106.573593  L 102.767081 105.839612  L 103.400082 105.118778  L 104.043470 104.411310  L 104.697049 103.717425  L 105.360620 103.037333  L 106.033980 102.371242  L 106.716926 101.719355  L 107.409249 101.081869  L 108.110737 100.458980  L 108.821178 99.850877  L 109.540355 99.257746  L 110.268048 98.679766  L 111.004037 98.117114  L 111.748096 97.569962  L 112.500000 97.038476  L 113.259519 96.522818  L 114.026422 96.023144  L 114.800475 95.539609  L 115.581443 95.072357  L 116.369087 94.621533  L 117.163168 94.187273  L 117.963444 93.769709  L 118.769670 93.368969  L 119.581603 92.985174  L 120.398993 92.618443  L 121.221592 92.268885  L 122.049150 91.936609  L 122.881415 91.621715  L 123.718132 91.324298  L 124.559048 91.044450  L 125.403905 90.782256  L 126.252447 90.537796  L 127.104415 90.311144  L 127.959550 90.102369  L 128.817591 89.911535  L 129.678277 89.738700  L 130.541345 89.583916  L 131.406533 89.447231  L 132.273577 89.328686  L 133.142213 89.228318  L 134.012176 89.146157  L 134.883202 89.082228  L 135.755025 89.036550  L 136.627380 89.009138  L 137.500000 89.000000  L 138.372620 89.009138  L 139.244975 89.036550  L 140.116798 89.082228  L 140.987824 89.146157  L 141.857787 89.228318  L 142.726423 89.328686  L 143.593467 89.447231  L 144.458655 89.583916  L 145.321723 89.738700  L 146.182409 89.911535  L 147.040450 90.102369  L 147.895585 90.311144  L 148.747553 90.537796  L 149.596095 90.782256  L 150.440952 91.044450  L 151.281868 91.324298  L 152.118585 91.621715  L 152.950850 91.936609  L 153.778408 92.268885  L 154.601007 92.618443  L 155.418397 92.985174  L 156.230330 93.368969  L 157.036556 93.769709  L 157.836832 94.187273  L 158.630913 94.621533  L 159.418557 95.072357  L 160.199525 95.539609  L 160.973578 96.023144  L 161.740481 96.522818  L 162.500000 97.038476  L 163.251904 97.569962  L 163.995963 98.117114  L 164.731952 98.679766  L 165.459645 99.257746  L 166.178822 99.850877  L 166.889263 100.458980  L 167.590751 101.081869  L 168.283074 101.719355  L 168.966020 102.371242  L 169.639380 103.037333  L 170.302951 103.717425  L 170.956530 104.411310  L 171.599918 105.118778  L 172.232919 105.839612  L 172.855339 106.573593  L 173.466990 107.320498  L 174.067685 108.080098  L 174.657241 108.852164  L 175.235479 109.636458  L 175.802222 110.432743  L 176.357298 111.240777  L 176.900538 112.060311  L 177.431776 112.891099  L 177.950850 113.732885  L 178.457602 114.585414  L 178.951879 115.448426  L 179.433528 116.321658  L 179.902405 117.204844  L 180.358365 118.097716  L 180.801270 119.000000  L 181.230985 119.911423  L 181.647380 120.831706  L 182.050326 121.760570  L 182.439702 122.697731  L 182.815389 123.642904  L 183.177273 124.595801  L 183.525243 125.556132  L 183.859193 126.523604  L 184.179021 127.497923  L 184.484631 128.478791  L 184.775929 129.465911  L 185.052826 130.458980  L 185.315238 131.457698  L 185.563085 132.461759  L 185.796291 133.470857  L 186.014786 134.484686  L 186.218503 135.502937  L 186.407380 136.525299  L 186.581359 137.551460  L 186.740388 138.581109  L 186.884417 139.613932  L 187.013403 140.649614  L 187.127308 141.687839  L 187.226095 142.728292  L 187.309735 143.770655  L 187.378203 144.814612  L 187.431477 145.859843  L 187.469541 146.906030  L 187.492385 147.952856" 
                    stroke-width="1" 
                    stroke="black" 
                    fill="none" 
                    stroke-linecap="round"
                    stroke-linejoin="round"
                    style="transform: scale(1, 1);"
                    />
                </svg>
            