<svg width="265" height="1411" viewBox="0 0 265 1411" fill="none" xmlns="http://www.w3.org/2000/svg">
<g filter="url(#filter0_d_1_6)">
<path d="M102 308L99.0276 308.406L102 308ZM234 650L235.468 652.616L241.823 649.051L234.8 647.109L234 650ZM82.4999 1134L79.9466 1135.58L79.9625 1135.6L79.9789 1135.63L82.4999 1134ZM260.5 1402.5L250.219 1369.42L226.711 1394.86L260.5 1402.5ZM233.529 0.0371363C231.529 0.354873 229.473 0.749804 227.37 1.22487L228.693 7.07739C230.673 6.62995 232.602 6.2597 234.471 5.96286L233.529 0.0371363ZM215.342 4.67419C211.571 5.97942 207.702 7.52584 203.768 9.32863L206.268 14.783C210.028 13.0596 213.719 11.5854 217.305 10.3441L215.342 4.67419ZM192.717 15.0007C189.219 16.9923 185.696 19.1889 182.171 21.6007L185.559 26.5526C188.948 24.2341 192.331 22.125 195.686 20.2148L192.717 15.0007ZM172.213 29.006C169.067 31.54 165.938 34.2547 162.84 37.1575L166.942 41.5357C169.931 38.7355 172.948 36.1189 175.977 33.6784L172.213 29.006ZM154.12 45.9369C151.376 48.9031 148.671 52.0298 146.017 55.3227L150.69 59.0871C153.257 55.9008 155.872 52.8776 158.524 50.0118L154.12 45.9369ZM138.554 65.2369C136.238 68.5306 133.974 71.9662 131.773 75.5478L136.885 78.6894C139.022 75.2127 141.217 71.8805 143.462 68.6884L138.554 65.2369ZM125.624 86.2516C123.718 89.8027 121.874 93.4802 120.096 97.2871L125.532 99.8259C127.263 96.1187 129.059 92.5406 130.911 89.088L125.624 86.2516ZM115.173 108.599C113.662 112.333 112.214 116.179 110.834 120.139L116.499 122.113C117.847 118.245 119.261 114.491 120.735 110.85L115.173 108.599ZM107.052 131.866C105.904 135.727 104.818 139.686 103.8 143.748L109.62 145.207C110.617 141.229 111.68 137.353 112.803 133.576L107.052 131.866ZM101.049 155.759C100.228 159.71 99.4676 163.75 98.7721 167.881L104.689 168.877C105.372 164.821 106.118 160.856 106.924 156.98L101.049 155.759ZM96.9538 180.01C96.4291 183.986 95.9625 188.041 95.5567 192.175L101.528 192.761C101.927 188.693 102.386 184.704 102.902 180.795L96.9538 180.01ZM94.5517 204.404C94.2835 208.432 94.0712 212.531 93.9171 216.703L99.913 216.924C100.065 212.811 100.274 208.771 100.538 204.803L94.5517 204.404ZM93.6355 228.97C93.5985 232.976 93.6135 237.045 93.6824 241.178L99.6816 241.078C99.6135 236.996 99.5987 232.979 99.6353 229.025L93.6355 228.97ZM94.0398 253.46C94.2061 257.489 94.4222 261.576 94.6896 265.722L100.677 265.336C100.413 261.235 100.199 257.195 100.035 253.213L94.0398 253.46ZM95.6073 277.874C95.9555 281.906 96.3509 285.992 96.795 290.131L102.761 289.491C102.321 285.392 101.93 281.348 101.585 277.358L95.6073 277.874ZM98.2143 302.239C98.4738 304.282 98.7448 306.338 99.0276 308.406L104.972 307.594C104.692 305.544 104.424 303.507 104.167 301.483L98.2143 302.239ZM99.0276 308.406C99.2966 310.375 99.5688 312.335 99.8441 314.286L105.785 313.448C105.511 311.505 105.24 309.554 104.972 307.594L99.0276 308.406ZM101.532 325.888C102.119 329.806 102.719 333.688 103.331 337.533L109.256 336.591C108.647 332.763 108.05 328.899 107.466 324.999L101.532 325.888ZM105.217 349.057C105.877 352.978 106.549 356.86 107.234 360.703L113.141 359.651C112.46 355.826 111.791 351.963 111.134 348.061L105.217 349.057ZM109.345 372.24C110.076 376.124 110.818 379.967 111.572 383.769L117.457 382.602C116.707 378.82 115.969 374.996 115.242 371.132L109.345 372.24ZM113.923 395.317C114.729 399.178 115.548 402.994 116.377 406.765L122.237 405.477C121.412 401.726 120.598 397.93 119.796 394.09L113.923 395.317ZM118.969 418.253C119.864 422.121 120.771 425.941 121.689 429.711L127.518 428.293C126.606 424.544 125.705 420.747 124.815 416.9L118.969 418.253ZM124.525 441.082C125.509 444.927 126.503 448.719 127.508 452.457L133.302 450.9C132.304 447.185 131.316 443.417 130.338 439.595L124.525 441.082ZM130.64 463.827C131.719 467.649 132.809 471.413 133.908 475.117L139.66 473.41C138.569 469.731 137.486 465.994 136.414 462.196L130.64 463.827ZM137.32 486.333C138.506 490.136 139.701 493.873 140.904 497.544L146.606 495.675C145.411 492.032 144.225 488.323 143.048 484.547L137.32 486.333ZM144.665 508.727C145.969 512.504 147.28 516.206 148.597 519.833L154.237 517.784C152.93 514.188 151.63 510.517 150.337 506.77L144.665 508.727ZM152.713 530.863C154.145 534.601 155.583 538.252 157.025 541.816L162.587 539.565C161.159 536.036 159.735 532.42 158.316 528.716L152.713 530.863ZM161.55 552.688C163.134 556.387 164.72 559.981 166.307 563.472L171.769 560.99C170.201 557.54 168.633 553.985 167.066 550.326L161.55 552.688ZM171.316 574.156C173.081 577.804 174.844 581.323 176.601 584.716L181.929 581.957C180.198 578.614 178.459 575.142 176.716 571.542L171.316 574.156ZM182.189 595.119C184.175 598.681 186.15 602.079 188.108 605.311L193.24 602.203C191.321 599.034 189.382 595.699 187.429 592.196L182.189 595.119ZM194.48 615.347C196.794 618.817 199.078 622.048 201.321 625.041L206.122 621.442C203.949 618.543 201.729 615.403 199.471 612.018L194.48 615.347ZM208.84 634.36C211.73 637.664 214.54 640.545 217.252 643L221.279 638.553C218.766 636.278 216.118 633.567 213.356 630.41L208.84 634.36ZM227.198 650.356C229.246 651.495 231.252 652.353 233.2 652.891L234.8 647.109C233.4 646.721 231.836 646.07 230.115 645.112L227.198 650.356ZM232.532 647.384C230.834 648.336 229.108 649.299 227.357 650.272L230.271 655.517C232.028 654.54 233.761 653.574 235.468 652.616L232.532 647.384ZM216.811 656.1C213.36 658.001 209.832 659.944 206.241 661.928L209.143 667.18C212.73 665.197 216.253 663.258 219.706 661.356L216.811 656.1ZM195.674 667.802C192.203 669.744 188.686 671.728 185.134 673.757L188.109 678.967C191.644 676.949 195.146 674.973 198.605 673.037L195.674 667.802ZM174.691 679.796C171.252 681.811 167.789 683.87 164.311 685.975L167.417 691.108C170.869 689.02 174.308 686.975 177.725 684.972L174.691 679.796ZM154.006 692.324C150.608 694.457 147.203 696.636 143.8 698.864L147.085 703.884C150.455 701.679 153.828 699.52 157.197 697.405L154.006 692.324ZM133.719 705.611C130.405 707.882 127.1 710.2 123.811 712.569L127.318 717.438C130.567 715.098 133.833 712.806 137.11 710.561L133.719 705.611ZM114.062 719.784C110.85 722.227 107.66 724.722 104.501 727.27L108.269 731.94C111.381 729.429 114.525 726.969 117.694 724.559L114.062 719.784ZM95.1617 735.045C92.0972 737.679 89.069 740.369 86.0843 743.115L90.1472 747.531C93.08 744.832 96.0575 742.187 99.0729 739.595L95.1617 735.045ZM77.2868 751.51C74.4082 754.361 71.5795 757.271 68.8076 760.242L73.1946 764.335C75.9106 761.424 78.6842 758.571 81.5087 755.773L77.2868 751.51ZM60.686 769.32C58.0489 772.398 55.4747 775.539 52.9704 778.745L57.6986 782.439C60.1455 779.307 62.6622 776.236 65.2424 773.224L60.686 769.32ZM45.6964 788.526C43.3546 791.84 41.0885 795.219 38.9047 798.667L43.9734 801.878C46.1015 798.518 48.3113 795.222 50.5963 791.989L45.6964 788.526ZM32.6428 809.152C30.6606 812.681 28.7649 816.278 26.962 819.944L32.3463 822.592C34.0998 819.026 35.9445 815.526 37.8741 812.09L32.6428 809.152ZM21.8822 831.05C20.2998 834.785 18.8131 838.589 17.4282 842.463L23.0779 844.483C24.4238 840.718 25.8687 837.022 27.4068 833.391L21.8822 831.05ZM13.6559 854.053C12.5194 857.919 11.4829 861.851 10.5517 865.851L16.3954 867.211C17.3006 863.323 18.3079 859.502 19.4123 855.745L13.6559 854.053ZM8.11189 877.868C7.42512 881.821 6.83939 885.836 6.35929 889.915L12.3182 890.617C12.7855 886.646 13.3554 882.739 14.0233 878.896L8.11189 877.868ZM5.25951 902.048C5.00082 906.085 4.84357 910.183 4.79177 914.342L10.7913 914.417C10.8418 910.36 10.9952 906.365 11.2472 902.431L5.25951 902.048ZM4.93499 926.417C5.07864 930.431 5.31849 934.499 5.65781 938.624L11.6376 938.132C11.3058 934.098 11.0714 930.122 10.9311 926.202L4.93499 926.417ZM6.92002 950.713C7.4194 954.67 8.00845 958.676 8.68982 962.732L14.6069 961.739C13.9389 957.761 13.3618 953.836 12.8728 949.962L6.92002 950.713ZM10.9462 974.731C11.7537 978.615 12.6441 982.544 13.6196 986.519L19.4467 985.089C18.4879 981.182 17.6133 977.323 16.8207 973.51L10.9462 974.731ZM16.7352 998.336C17.8088 1002.15 18.9593 1006 20.1883 1009.89L25.91 1008.09C24.6995 1004.25 23.567 1000.46 22.5106 996.709L16.7352 998.336ZM24.0287 1021.46C25.3361 1025.21 26.7152 1029 28.1673 1032.83L33.7771 1030.7C32.344 1026.92 30.9838 1023.19 29.6947 1019.48L24.0287 1021.46ZM32.6068 1044.09C34.1262 1047.8 35.7133 1051.55 37.3693 1055.33L42.8659 1052.93C41.229 1049.19 39.6609 1045.48 38.1602 1041.82L32.6068 1044.09ZM42.2952 1066.25C44.0006 1069.92 45.7699 1073.63 47.6041 1077.36L52.9899 1074.72C51.1743 1071.02 49.4237 1067.36 47.7367 1063.73L42.2952 1066.25ZM52.9639 1088.01C54.7927 1091.56 56.6792 1095.13 58.6243 1098.74L63.9046 1095.89C61.9771 1092.32 60.1082 1088.78 58.2968 1085.26L52.9639 1088.01ZM64.5224 1109.44C66.4476 1112.86 68.4246 1116.31 70.4544 1119.78L75.6341 1116.75C73.6207 1113.31 71.6599 1109.89 69.7511 1106.5L64.5224 1109.44ZM76.7025 1130.27C77.7705 1132.03 78.8518 1133.8 79.9466 1135.58L85.0532 1132.42C83.9665 1130.66 82.8933 1128.91 81.8334 1127.16L76.7025 1130.27ZM79.9789 1135.63C81.0518 1137.29 82.1186 1138.94 83.1794 1140.59L88.221 1137.33C87.1604 1135.69 86.0937 1134.04 85.021 1132.37L79.9789 1135.63ZM89.4717 1150.34C91.5782 1153.6 93.6601 1156.82 95.7175 1160.01L100.757 1156.75C98.7001 1153.57 96.6186 1150.34 94.5123 1147.08L89.4717 1150.34ZM102.04 1169.79C104.146 1173.05 106.224 1176.26 108.277 1179.43L113.314 1176.17C111.262 1173 109.184 1169.79 107.079 1166.53L102.04 1169.79ZM114.615 1189.23C116.727 1192.49 118.81 1195.7 120.863 1198.87L125.899 1195.61C123.845 1192.44 121.763 1189.23 119.652 1185.97L114.615 1189.23ZM127.2 1208.65C129.325 1211.92 131.417 1215.15 133.478 1218.32L138.511 1215.06C136.45 1211.88 134.358 1208.66 132.234 1205.38L127.2 1208.65ZM139.789 1228.04C141.933 1231.34 144.041 1234.58 146.113 1237.77L151.143 1234.5C149.071 1231.31 146.964 1228.07 144.82 1224.77L139.789 1228.04ZM152.37 1247.38C154.538 1250.71 156.664 1253.98 158.75 1257.18L163.776 1253.9C161.691 1250.7 159.565 1247.44 157.398 1244.11L152.37 1247.38ZM165.055 1266.84C167.201 1270.13 169.3 1273.34 171.355 1276.48L176.377 1273.2C174.323 1270.06 172.224 1266.85 170.08 1263.56L165.055 1266.84ZM177.739 1286.24C179.908 1289.55 182.023 1292.78 184.086 1295.92L189.102 1292.63C187.041 1289.49 184.927 1286.27 182.759 1282.95L177.739 1286.24ZM190.413 1305.56C192.586 1308.87 194.694 1312.07 196.741 1315.18L201.751 1311.88C199.706 1308.77 197.598 1305.57 195.427 1302.27L190.413 1305.56ZM203.134 1324.87C205.346 1328.22 207.477 1331.44 209.53 1334.54L214.531 1331.22C212.48 1328.13 210.351 1324.91 208.141 1321.56L203.134 1324.87ZM215.924 1344.17C218.17 1347.55 220.309 1350.76 222.345 1353.8L227.334 1350.47C225.3 1347.43 223.164 1344.22 220.92 1340.85L215.924 1344.17ZM228.829 1363.48C231.139 1366.92 233.288 1370.11 235.286 1373.06L240.254 1369.69C238.261 1366.75 236.115 1363.57 233.809 1360.14L228.829 1363.48ZM241.83 1382.66C244.345 1386.33 246.53 1389.49 248.413 1392.17L253.326 1388.73C251.458 1386.06 249.285 1382.93 246.779 1379.27L241.83 1382.66Z" fill="#3333EE"/>
</g>
<defs>
<filter id="filter0_d_1_6" x="0.791779" y="0.0371399" width="263.708" height="1410.46" filterUnits="userSpaceOnUse" color-interpolation-filters="sRGB">
<feFlood flood-opacity="0" result="BackgroundImageFix"/>
<feColorMatrix in="SourceAlpha" type="matrix" values="0 0 0 0 0 0 0 0 0 0 0 0 0 0 0 0 0 0 127 0" result="hardAlpha"/>
<feOffset dy="4"/>
<feGaussianBlur stdDeviation="2"/>
<feComposite in2="hardAlpha" operator="out"/>
<feColorMatrix type="matrix" values="0 0 0 0 0 0 0 0 0 0 0 0 0 0 0 0 0 0 0.25 0"/>
<feBlend mode="normal" in2="BackgroundImageFix" result="effect1_dropShadow_1_6"/>
<feBlend mode="normal" in="SourceGraphic" in2="effect1_dropShadow_1_6" result="shape"/>
</filter>
</defs>
</svg>