
                <svg 
                  xmlns="http://www.w3.org/2000/svg" 
                  viewBox="0 0 200 200" 
                  width="200mm" 
                  height="200mm"
                  style="transform: scale(1, -1)">
                    <path 
                    d="M 53.3110569495035 68.99994622659868L 33.449837622972616 66.64793286281098L 32.27383094107876 76.57854252607642L 52.13505026760964 78.93055588986414L 50.95904358571578 88.86116555312958L 56.83907699518506 39.20811723680236M 115.6630735880842 89.08337536013764L 96.1797093924247 84.56690332775514L 93.92147337623345 94.3085854255849L 113.40483757189295 98.8250574579674L 111.14660155570171 108.56673955579716L 122.43778163665797 59.8583290666484M 126.02545623807829 113.7556373057318L 143.72999857081058 123.05881852445962L 148.3815891801745 114.20654735809347L 130.67704684744223 104.90336613936564L 135.32863745680615 96.0510949729995L 112.07068440998657 140.31245080483023M 152.49585397366803 19.909244873539837L 137.94429993574286 6.188739231204947L 131.0840471145754 13.46451625016753L 145.63560115250058 27.185021892502427L 138.77534833133313 34.46079891146501L 173.07661243717035 -1.9180861833479383M 44.052772364591426 25.043584551905187L 44.626255614597824 45.03536078519576L 54.62214373124311 44.74861916019257L 54.048660481236716 24.75684292690199L 64.044548597882 24.47010130189879L 14.065108014655543 25.90380942691477M 117.44423509515921 5.779107556626924L 97.90337054518973 10.039930556910523L 100.03378204533153 19.81036283189527L 119.57464659530103 15.549539831611671L 121.70505809544284 25.319972106596417L 111.05300059473382 -23.532189268327294M 91.83607715923247 92.70935293582951L 77.13072407913656 106.26489020993685L 83.90849271619022 113.61756674998482L 98.61384579628614 100.06202947587748L 105.39161443333981 107.41470601592545L 71.50277124807147 70.65132331568564M 88.06742584520659 99.38725940868893L 70.45008669729096 89.91998095354042L 65.7164474697167 98.72865052749823L 83.33378661763233 108.19592898264675L 78.60014739005807 117.00459855660456L 102.26834352792935 72.96125068681548M 69.20176096940455 135.88794517235084L 68.66799275388287 155.8808211908755L 78.6644307631452 156.14770529863634L 79.19819897866688 136.15482928011167L 89.19463698792921 136.4217133878725L 39.21244694161754 135.08729284906832M 94.8134537215376 117.35240848906162L 113.41962650399529 110.01685572261448L 109.75185012077172 100.71376933138563L 91.14567733831402 108.04932209783277L 87.47790095509045 98.74623570660393L 105.81678287120832 145.26166766274815" 
                    stroke-width="1" 
                    stroke="black" 
                    fill="none" 
                    stroke-linecap="round"
                    stroke-linejoin="round"
                    style="transform: scale(1, 1);"
                    />
                </svg>
            