
                <svg 
                  xmlns="http://www.w3.org/2000/svg" 
                  viewBox="0 0 200 200" 
                  width="200mm" 
                  height="200mm"
                  style="transform: scale(1, -1)">
                    <path 
                    d="M 116.48577276535467 68.74036717199263L 100.34604467858139 80.55176748207533L 106.25174483362275 88.62163152546198L 122.39147292039603 76.81023121537928L 128.29717307543737 84.88009525876592L 98.7686723002306 44.53077504183273M 56.575551875069635 108.5442867615596L 72.58907818450638 120.52623047437088L 78.58005004091201 112.5194673196525L 62.566523731475286 100.53752360684123L 68.55749558788092 92.53076045212286L 38.60263630585275 132.5645762257147M 41.691888552552996 20.981951831137284L 50.42662768394376 2.9901666971782035L 41.430735116964215 -1.3772028685171733L 32.69599598557347 16.614582265441914L 23.700103418593926 12.247212699746537L 68.67956625349163 34.08406052822343M 14.537266966546248 136.03578214208497L 33.18073222650582 128.79553331344098L 29.560607812183825 119.4738006834612L 10.917142552224256 126.71404951210519L 7.297018137902263 117.39231688212541L 25.39764020951223 164.00098003202433M 167.03307588748473 55.582728051949L 178.58084894712607 71.91211681463763L 186.74554332847038 66.13823028481696L 175.19777026882906 49.80884152212832L 183.36246465017337 44.034954992307654L 142.5389927434518 72.90438764141098M 101.67355733031258 69.23514627135246L 109.97100596639915 51.037554503992006L 100.87221008271892 46.88883018594871L 92.57476144663235 65.08642195330917L 83.47596556295213 60.93769763526588L 128.96994498135325 81.68131922548231M 87.59786995304698 63.32506428317285L 97.71234680192696 80.57897277004825L 106.33930104536466 75.52173434560827L 96.22482419648469 58.26782585873286L 104.8517784399224 53.21058743429288L 61.71700722273389 78.49677955649281M 42.72419050399312 94.64386814382017L 22.90758503749668 91.94161949034222L 21.556460710757708 101.84992222359044L 41.373066177254145 104.55217087706839L 40.02194185051517 114.46047361031661L 46.777563484210035 64.91895994407551M 131.83196899290942 46.278188353469176L 145.3697988000275 31.556532056927487L 138.00897065175664 24.787617153368455L 124.47114084463858 39.50927344991015L 117.11031269636774 32.74035854635111L 153.914453437722 66.58493306414624M 172.18126017883915 123.00754413544375L 192.17432166174703 123.5343197429515L 192.43770946550092 113.53778900149756L 172.44464798259304 113.01101339398981L 172.70803578634693 103.01448265253588L 171.39109676757755 152.99713635980558" 
                    stroke-width="1" 
                    stroke="black" 
                    fill="none" 
                    stroke-linecap="round"
                    stroke-linejoin="round"
                    style="transform: scale(1, 1);"
                    />
                </svg>
            