<svg
  xmlns="http://www.w3.org/2000/svg"
  viewBox="0 0 125 125"
  width="125mm"
  height="125mm"
>
  <path
    d="M 65.75472898230565 99.8950195295914L 64.75645812176496 99.83623782329285L 63.75877154995968 99.7682561754795L 62.76225192892781 99.68489764323176L 61.76755840525812 99.58201521533671L 60.77542514771536 99.45682895699505L 59.78663998951128 99.3074840176254L 58.802023266558564 99.13275591776205L 57.82241189886347 98.93185403055702L 56.84864865229318 98.70429054572503L 55.88157520846635 98.44979309142553L 54.92202766832945 98.16824643771211L 53.97083345889873 97.85965354092824L 53.02880896709233 97.52410942037642L 52.096757497165235 97.16178352093402L 51.175467332846566 96.77290766268402L 50.26570980043411 96.35776764748577L 49.368237295960455 95.91669724073218L 48.48378127521013 95.45007368007703L 47.613050221996815 94.95831415249262L 46.75672761576312 94.44187287407547L 45.91546991934204 93.90123853534706L 45.089904604729306 93.33693195970898L 44.28062823078955 92.74950387850845L 43.4882045829877 92.13953276246737L 42.71316288204206 91.50762267250576L 41.95599606608337 90.85440110763594L 41.2171591495423 90.18051683659522L 40.49706766153798 89.48663770525913L 39.7960961668975 88.77344841502723L 39.114576873957404 88.04164826925624L 38.45272620973064 87.2920125588858L 37.810665559680295 86.52535871153556L 37.18855524943151 85.74242910941149L 36.58657729024019 84.94391640653954L 36.00492355324724 84.13047991224995L 35.443787785389816 83.30275613584199L 34.903360326000744 82.46136552433134L 34.38358772153026 81.60706087162133L 33.88431421947082 80.74061643015881L 33.40535412860791 79.86277975323047L 32.94648609425006 78.97427532046463L 32.507449453943295 78.07580616213578L 32.0879421174475 77.16805421659878L 31.68761958214931 76.25167991112507L 31.306094811250404 75.32732129608947L 30.9429387820081 74.39559295669811L 30.597681565850493 73.45708485620504L 30.269813839088947 72.5123612173835L 29.958788747714653 71.56195951676654L 29.664024066289944 70.60638964355758L 29.384904601973208 69.64613325871052L 29.120784802169187 68.68164337729574L 28.870991529504668 67.71334418751422L 28.634826971700363 66.74163111173665L 28.411571657044984 65.76687110820853L 28.200487548958552 64.78940320627346L 28.000821195780553 63.80953926295857L 27.811806914541748 62.8275649244508L 27.632669990102748 61.84374077232678L 27.462629873638225 60.858303631362055L 27.30090336694842 59.871468013321284L 27.146707781404608 58.88342766930754L 26.999264062390516 57.894357222006995L 26.85779987179783 56.90441384848508L 26.721552622392718 55.91373898404693L 26.589772458629376 54.922460018044674L 26.461725178706708 53.93069195337209M 26.2139878077643 51.9460960963886L 26.09382518631658 50.95334187483786L 25.982386624310546 49.95957054958339L 25.88375115897965 48.96444691657141L 25.800604341351207 47.967909608329386L 25.7347052079481 46.97008331872948L 25.687195892105038 45.9712125238275L 25.658807428354763 44.97161555748261M 25.66103802942711 42.971715328789635L 25.69208336051028 41.97219735125349L 25.743203384941644 40.97350483445859L 25.814414171822097 39.976043545068435L 25.905695131006986 38.98021836638983L 26.0170008787328 37.98643215672338L 26.148269076341304 36.99508526471402L 26.299425581781435 36.00657542112968L 26.47038780746004 35.02129783720167L 26.661066880248676 34.03964540828375L 26.87136900078148 33.0620089635358L 27.101196266685488 32.088777527623925L 27.350447136073793 31.12033857543893L 27.619016648804568 30.15707826958617M 28.213674905044424 28.24763295087741L 28.53953663024776 27.30221551077621M 45.50849547741889 43.50487338634349L 45.80779005199179 42.55071262544875L 46.120388605585426 41.600827293268516L 46.4549361693225 40.658448426995726L 46.816932949589585 39.726269082086034L 47.20977042828363 38.80666116817201L 47.6354288132428 37.901777231242L 48.09494188058868 37.01360622240509L 48.588704442546266 36.144009458146456L 49.11667431122143 35.2947463553502L 49.6785040180414 34.467493443276396L 50.27362605781581 33.66385810447232L 50.90130759173836 32.88538787898348L 51.560685251115274 32.13357599937887L 52.25078713217701 31.409863768063786L 52.97054670096752 30.715640343556586L 53.71881174905393 30.052240450722522L 54.49435049164209 29.420940475477174L 55.359858773728355 28.92004586217007L 56.279280366313024 28.526772502928598L 57.231954581365514 28.22277934515343L 58.20558830748443 27.994662341482528L 59.19244358641559 27.83305584889728L 60.18728005122935 27.731564921830586L 61.18623534917311 27.68586686158619L 62.186209667827164 27.693033592525342L 63.18452560951115 27.751044630954453L 64.17874137998196 27.85844575640081L 65.16655083591336 28.01411360398831L 66.14573332255785 28.21709551906629L 67.11413211699465 28.466502365270102L 68.0696490927039 28.761438475523594L 69.01024822100601 29.100957664726963L 69.93396343657908 29.484037552633904L 70.8389081322672 29.909566749923492L 71.72328461276483 30.376341043070227L 72.58539250668431 30.883065799956753L 73.42363557036413 31.428362568875013L 74.23652660539375 32.01077836980117L 75.02269040774624 32.62879655389503L 75.78086480030673 33.28084838501395L 76.50989989077632 33.96532470809897L 77.208755754817 34.680587234236015L 77.87649877750978 35.42497910391563L 78.51229690031118 36.19683449648747L 79.11541402017015 36.99448714001912L 79.685203776076 37.81627764499272L 80.22110293930163 38.660559639858214L 80.72262459977681 39.52570472831114L 81.18935131470927 40.41010631897477L 81.62092835864891 41.31218239954909L 82.01705718810088 42.23037734098419L 82.37748920957249 43.163162824307065L 82.70201991826049 44.10903798473706L 82.99048345582514 45.06652886589242L 83.24274761999524 46.034187272291895L 83.45870934606249 47.01058910190614L 83.63829067049375 47.9943322329701L 83.78143517967312 48.984034031236526L 83.8881049419026 49.97832853581045L 83.9582779179433 50.97586337401591L 83.99194584428318 51.975296448681725L 83.98911258369816 52.9752924349909L 83.94979293929207 53.974519118763794L 83.87401193083541 54.97164360384943L 83.76180453568752 55.96532841327047L 83.61321590070783 56.954227506987756L 83.42830203618789 57.9369822387028L 83.20713100781397 58.91221727509558L 82.94978464784745 59.878536503410935L 82.65636081191089 60.834518957488555L 82.32697621278676 61.77871479832871L 81.9617698672156 62.709641393262245L 81.56090719549637 63.62577954792132L 81.12458481633234 64.52556995765052L 80.65303608030707 65.40740995989184L 80.14653738396856 66.26965068649166L 79.60541530194742 67.11059473477852L 79.03005456588721 67.92849449844168L 78.42090690512153 68.72155132325545L 77.77850074376667 69.48791567775879L 77.10345172092045 70.22568855388963L 76.39647396370702 70.9329243355109L 75.65839199591989 71.60763539131736L 74.89015310734149 72.24779865961368L 74.09283994052753 72.85136449200074L 73.26768297409038 73.41626800654127L 72.41607249694763 73.9404431635458L 71.53956958116108 74.42183971382183L 70.63991547862426 74.85844307591226L 69.71903879799936 75.24829707304613L 68.77905977401835 75.5895293025845L 67.82229093386897 75.8803787249996L 66.85123350709334 76.11922485518363L 65.86856902639288 76.30461773090894L 64.87757930042962 76.43855563829618L 63.88111946165307 76.52262578582443L 62.881738712592 76.55781269256735L 61.88182375109583 76.54477161223973L 60.88367091842172 76.48401864832314L 59.88951548835155 76.37606041166663M 58.52463406840264 71.67945822196245L 57.57241801050126 71.37403297894092L 56.62540513200123 71.05283738750934L 55.68754758990968 70.70581688272324L 54.762098459041454 70.32694499649355L 53.85179407621961 69.91300547118178L 52.958907635674215 69.46272355472257L 52.08526913889193 68.97614799333464L 51.232284849879726 68.45421140456322L 50.400964668639546 67.89841759723645L 49.591956976765886 67.31061954136244L 48.80558807736433 66.69286234467916L 48.045516710600786 66.04302273567843L 47.31504083522351 65.36008423515895L 46.6165919218304 64.64442431915137L 45.95193689993773 63.89727393142955L 45.322330724251124 63.120359480838445L 44.72863496363234 62.315669886135446L 44.17141058056139 61.48530792475282L 43.65099028638187 60.63139767337619L 43.167534610145324 59.75602883162166L 42.721075060369145 58.861225014903354L 42.3115471588281 57.94892742208652L 41.93881560151297 57.0209882073847L 41.60269334442219 56.079169844701L 41.30295602395677 55.12514807413169L 41.03935280301072 54.160516879370256L 40.81161447894277 53.1867945083883L 40.619459489924786 52.20542991752745L 40.462598302145 51.217809257674524L 40.34073654287599 50.22526217484779L 40.253577155508594 49.229067795625674L 40.20082178568465 48.23046032972391L 40.18217155735065 47.2306342603583L 40.19732735979504 46.23074911612809L 40.2459897383905 45.231933831448565L 40.32785846047914 44.23529070959221L 40.44263181185382 43.24189900547232L 40.590005667297746 42.252818145920585L 40.769672369683924 41.26909060434534L 40.98131944549639 40.29174444494221L 41.22462817979256 39.32179554947648L 41.499272070194685 38.36024953733521L 41.804915177189976 37.4081033872373L 42.14121038661867 36.46634676681177L 42.50779759957223 35.53596307429618L 42.90430186488119 34.617930194933024L 43.330331469839315 33.71322097330476L 43.785476005697916 32.822803401893424L 44.269304425690166 31.94764052561964L 44.78136311483138 31.08869006204506L 45.32117399240821 30.24690373734637L 45.88823266983361 29.423226339115388L 46.48200668831538 28.61859448853028L 47.10193386246716 27.83393513648751L 47.74742075747775 27.070163790880994L 48.41784132863701 26.32818248534393L 49.112535752781696 25.608877503391017L 49.8308094814568 24.913116875951403L 50.57193254517967 24.241747674678347L 51.335139137044884 23.59559312804613L 52.18631734253673 23.0707163210755L 53.09068356605836 22.64395909061159L 54.02849037083984 22.296801493970605L 54.988182261184484 22.0157472721437L 55.9626895849626 21.791391581547668L 56.947427440678524 21.617347462083657L 57.93920213365107 21.48935153097955L 58.93560368230008 21.404593322823317L 59.934663268821616 21.361235018204425L 60.93465827700887 21.358075334584775L 61.93400132425822 21.394317215253327L 62.931177991718656 21.46940845224209L 63.92471318968754 21.582932944740115L 64.9131545036961 21.73453693136649L 65.89506562223453 21.923879360025836L 66.86902569554518 22.150598956877804L 67.83363209259231 22.41429290594707L 68.7875049898486 22.71450365838592L 69.72929281063583 23.050711481936823L 70.6576778926822 23.42233109852582L 71.57138198534427 23.828711254356016L 72.46917132061479 24.269136400634626L 73.3498610958349 24.74282988784207L 74.21231927015991 25.248958228818896L 75.05546962264016 25.786636090658526L 75.87829405388352 26.354931749052138L 76.6798341394389 26.952872792339747L 77.45919196339891 27.579451903252586L 78.21553027645113 28.233632578761515L 78.94807203440132 28.914354675405395L 79.65609938150797 29.62053969064511L 80.33895214817606 30.351095711121108L 80.99602593501454 31.104921976682178L 81.6267698553373 31.880913024939744L 82.23068400627027 32.67796239499339L 82.80731673511363 33.49496588092638L 83.3562617628905 34.3308243357374L 83.87715522145919 35.184446034630035L 84.36967265451295 36.05474861312681L 84.83352602652906 36.94066060044231M 63.77438774222458 18.793562650764656L 64.75039275249395 19.01131071603524L 65.72380530537579 19.240369664544243L 66.69259144861094 19.488267644922402L 67.65498020675695 19.759943698696368L 68.60935155551005 20.058566083455435L 69.55419474235671 20.386089139543753L 70.48809180632196 20.74363112857036L 71.4097093695521 21.131730429195514L 72.31779294318224 21.55051942535362L 73.2111621017327 21.99984285736095L 74.08870620979897 22.47933877850956L 74.94938070190301 22.988494372254205L 75.79220391851192 23.526684882710324L 76.61625444120156 24.09320119849913L 77.42066882487151 24.687269796680262L 78.20463960809532 25.308067518205924L 78.96741348795055 25.954732816649095L 79.70828956363654 26.626374566748154L 80.42661757626897 27.32207914936031L 81.12179609551146 28.040916284171672L 81.79327062445023 28.781943919949487L 82.44053161115035 29.544212386499165L 83.06311236840112 30.326767944080256L 83.6605869125279 31.128655822228126L 84.23256773832743 31.948922812248874L 84.77870355076153 32.786619460431815L 85.29867697559534 33.640801898478045L 85.79220227120867 34.510533341275064L 86.25902306278563 35.39488527831792L 86.69891011835867 36.29293838272728M 42.870114376539114 83.56521539028576L 42.20941856137335 82.81456164865621L 41.55529640915338 82.05817272093773L 40.912171712260644 81.292411254L 40.28304298302804 80.51511012698798L 39.66993769487823 79.7251089208859L 39.07420648694765 78.92192505158972L 38.4967187458223 78.10552569536145L 37.93799519573629 77.27617173318409L 37.39829910265532 76.43431181187108L 36.87769973137504 75.58051072577283L 36.37611695118182 74.71540107109682L 35.89335293253363 73.83965059162298L 35.42911496934856 72.95394007822836L 34.983032193898175 72.0589483701961L 34.55466809251883 71.15534215250531L 34.143530141099134 70.2437690150652L 33.749077471860126 69.32485275569755L 33.37072720003485 68.39919025142845L 33.00785984226832 67.46734944921621L 32.65982412168178 66.52986817623216L 32.32594135947638 65.58725356723116L 32.00550958710152 64.63998196982485L 31.697807467588124 63.68849922923153L 31.402098083481267 62.73322128007163L 31.117632627566977 61.77453498915501L 30.843654018221415 60.81279920338998L 30.579400451559007 59.8483459632035L 30.324108896091193 58.881481845704656L 30.077018531245372 57.91248940424788L 29.837374128066585 56.94162867271885L 29.604429368192747 55.96913870421155L 29.38103941756198 54.99440954698008L 29.171661544676667 54.01657474173636L 28.979233398135936 53.035263675652374L 28.80568217399189 52.050438832039L 28.652261227160967 51.06227790735441L 28.519773781745535 50.07109322385325L 28.40872210275642 49.07727859093939L 28.319407149803627 48.0812751576225L 28.251995204363173 47.083549930111474L 28.206562418291462 46.084582532270204L 28.183124583423712 45.08485723605293L 28.181657002224597 44.0848583129508L 28.202107726043728 43.0850674508725L 28.244406348679085 42.085962438112006L 28.308469820486067 41.08801661213745L 28.394206264183893 40.09169876013336M 28.630300363655195 38.10580046845623L 28.780448179212833 37.117136909158496L 28.951850803474386 36.13193584318452L 29.1443951535025 35.15064757092593L 29.35796523735592 34.17371982575598L 29.592442103070137 33.201598125841386L 29.847703694679783 32.234726097158735L 30.12362464201791 31.273545765056568L 30.420076002429358 30.318497812904322L 30.73692496682446 29.370021807007625L 31.074034538717907 28.428556387282708M 31.8084645148133 26.568408135441132L 32.205486834472666 25.650599180542404L 32.62217284047983 24.741548702077207L 33.058359193819626 23.841692344006585L 33.513876133277094 22.951465228115758M 34.48218822898043 21.201636203300446L 34.99460817100475 20.342901201675506L 35.52560747819943 19.49552894831883M 36.64250410209839 17.836594673594547M 72.9844734571832 83.83812672526975L 72.01626635458963 84.0882766932637L 71.04493786374601 84.32601807139437L 70.06872084842297 84.54281368711058L 69.08691614296852 84.73270713183021L 68.09960253920507 84.89148952324567L 67.10740365731326 85.01615458961406L 66.1113171959623 85.10453875965219L 65.11259532068209 85.15508196727465L 64.1126705672049 85.16734929720351L 63.11300121753477 85.14163565626926L 62.11501925779866 85.0781375614848L 61.12014447355666 84.97702295482763L 60.12978826161879 84.83847847288743L 59.14535120246884 84.66274095107666L 58.16821692924219 84.45011778186449L 57.19974391868588 84.20099928029546L 56.24125627136791 83.91586522421156L 55.294034199830925 83.5952870789908L 54.35930471989497 83.23992698086684L 53.438232891472694 82.85053426536379L 52.531913851029394 82.42794013747044L 51.64136580054839 81.97305095339976L 50.767524057456384 81.48684049687922L 49.91123622089679 80.97034157049109L 49.073258469163214 80.42463717468733L 48.25425296965353 79.85085150758428L 47.4547863557424 79.25014098391962L 46.67532920413495 78.62368543976027L 45.916256431217086 77.97267965989745L 45.17784851721692 77.29832533719912L 44.460293462060584 76.60182354766833L 43.763689375950676 75.88436780184496L 43.088047610150205 75.1471377127235L 42.433296338434154 74.39129330268516L 41.79928450642115 73.61796995707381L 41.18578607383805 72.82827401988148L 40.59250448311884 72.0232790173419L 40.01907729612838 71.20402248778586L 39.46508094887897 70.37150339056689L 38.93003558162879 69.52668006289173L 38.4134099085676 68.67046869066284L 37.91462609733237 67.80374225766933L 37.433064633840516 66.92732993639608L 36.968069152405675 66.04201688315153L 36.51895121486154 65.14854439998481L 36.08499502552317 64.24761042585857L 35.6654620713268 63.33987031969201L 35.259595678465566 62.42593789814991L 34.86662547833053 61.506386691415976L 34.485771776614314 60.58175138066419L 34.120746516775135 59.650753765372215L 33.774886607259816 58.71246760273842L 33.45039283556985 57.76657976999375L 33.14870484023891 56.81317306062298L 32.870750338684736 55.852578820027205L 32.61711200309048 54.885279696324005L 32.3881396963162 53.91184675937844L 32.18402614669652 52.932899539727835L 32.00485803235677 51.94908106724221L 31.85065047712048 50.96104259131729L 31.721370337660378 49.96943448044829L 31.61695190974896 48.97490102605246L 31.53730750369621 47.9780776873487L 31.482334544472845 46.979589843780126L 31.45192031509299 45.980052463463L 31.445945098856303 44.980070315226875L 31.464284230722527 43.98023849124726L 31.50680940237097 42.981143095513566L 31.57338945363001 41.98336200891474L 31.66389080750121 40.98746567648476L 31.778177655134982 39.99401788396724L 31.916111962845445 39.003576504199394L 32.07755335017744 38.01669420196862M 32.470382731234345 36.05579533892331L 32.70147592753696 35.0828637202457L 32.95548587109543 34.11566211325085L 33.232255951873995 33.15472594347378L 33.53162508110136 32.200588571568844L 33.85342720615498 31.253781625929463L 34.19749080319697 30.314835279650545L 34.56363835086881 29.384278471425546L 34.951685788049126 28.46263906987102L 35.361441958541036 27.550443980680225L 35.792708045535804 26.64821919593519L 36.24527699876517 25.756489784862033L 36.71893295738182 24.875779825302732M 37.72859492777411 23.149508783484347M 39.395273441811064 20.655773826292393L 39.990352723621875 19.852106825377504L 40.60471349785905 19.063081579216963L 41.23804929188842 18.289204475277852L 41.89004003983302 17.530977553707107L 42.56035167643623 16.78889783438153L 43.24863577405936 16.063456588684048L 43.954529228096355 15.355138558737245L 44.67765399607523 14.664421127412755M 41.68267693089485 64.5881895100589L 41.17354721616789 63.727499709037616L 40.67485270997199 62.86072188889567L 40.19348416889453 61.98420359036394L 39.73402325870137 61.09600559892032L 39.29951677458667 60.195336894422226L 38.89197725778487 59.28214932209934L 38.51271448093053 58.35686031530594L 38.16255849923073 57.420168910157024L 37.84201123437903 56.47293638801893L 37.55135006898647 55.51611033960018L 37.29069884410054 54.55067730776138L 37.060076569634994 53.57763395491407L 36.859430843320894 52.59797008780868L 36.6886607587345 51.61265918346917L 36.54763258023519 50.62265360122775L 36.436190434930026 49.628882677800334L 36.3541635663487 48.63225255943608L 36.301371209787845 47.63364704819115L 36.27762581633495 46.63392900979744L 36.28273512412254 45.63394206239566L 36.31650341879737 44.63451237388588L 36.37873221802461 43.6364504637086L 36.46922054157184 42.64055294724337L 36.587764878456746 41.647604187139144L 36.7341589284634 40.65837783178732L 36.90819317201137 39.67363823063751L 37.10965430646458 38.69414172155499L 37.33832457614969 37.720637788454496L 37.59398101602028 36.753870088977166L 37.876394623966384 35.79457735260997L 38.185329473492 34.84349414975725L 38.520541776362045 33.90135153210079L 38.88177890351432 32.96887754427766L 39.26877837180612 32.04679760655975L 39.681266803859465 31.135834767898274L 40.118958868269644 30.236709828441942L 40.58155620766958 29.350141330479094L 41.068746362537496 28.476845416713445L 41.58020169915178 27.61753555487735L 42.11557835069628 26.77292212792926L 42.67451518116861 25.94371188948454L 43.25663278241121 25.130607284698932L 43.86153251523984 24.334305637567734L 44.488795606254634 23.555498206522962L 45.137982312454106 22.79486911130383L 45.808631166198474 22.053094135336476L 46.50025831335365 21.3308394092751L 47.2123569575572 20.628759982911195L 47.94439692345159 19.947498294326454L 48.69582435139859 19.28768254691741L 49.466061535595905 18.64992500671911L 50.32058503656396 18.130512274594356L 51.22570872020261 17.705363927171486L 52.16248732934547 17.35544131079413L 53.11996503849019 17.066934055268437L 54.09154751236647 16.83023277420629L 55.073055227823474 16.63881019325418L 56.06166453274665 16.488305568011917L 57.055320672092336 16.375844567035454L 58.052406404237615 16.299555362344897L 59.051552215570474 16.258231668221523L 60.05152679049305 16.25110078409609L 61.05117390117606 16.277664934809337L 62.04937659017331 16.337593155862944L 63.045037591393765 16.43064782070401L 64.03706947980692 16.55663485325669L 65.0243906581744 16.715370138392156L 66.00592482575345 16.906657037773382L 66.9806024891042 17.130271555560423L 67.94736362602328 17.385952810530245L 68.9051609478174 17.673397223180796L 69.85296340917739 17.99225533306657L 70.7897597404213 18.342130501902474L 71.71456185495342 18.722578985874904M 73.52436582542241 19.573192602336334L 74.40753460726472 20.042247932525804L 75.27504779924739 20.539662107772205L 76.1260746969792 21.064784207228094L 76.95982193008697 21.616930520522978L 77.7755345454011 22.195387890791L 78.57249672563977 22.79941709808915L 79.35003215957488 23.428256226146022L 80.10750408447323 24.081123963892935L 80.8443150254292 24.757222800815164L 81.5599062590715 25.45574208210545L 82.25375703107885 26.17586089604159L 82.9253835580369 26.916750771992305L 83.5743378444897 27.677578172980557L 84.20020634567534 28.45750677177896L 84.8026085054894 29.255699504050654L 85.38119519779927 30.07132039605988L 85.93564709744389 30.903536167948676M 87.62241867024055 58.63673873764056L 87.32835267958231 59.5925238563457L 87.024349943567 60.545195014980834L 86.70372954855826 61.49240278643567L 86.36203042120972 62.432212185393375L 85.99629741865718 63.36293199867979L 85.60459531601188 64.28302409340904L 85.18568052557883 65.19104964280532L 84.73878077258554 66.0856336862437L 84.26344819705187 66.96543988230992L 83.7594622094097 67.82915171171852L 83.22676598843836 68.67545823784415L 82.66542571044026 69.50304333455446L 82.07560514697558 70.31057766999426L 81.45755067524772 71.09671294459858L 80.81158336918655 71.86007802075812L 80.13809592919274 72.59927668699784L 79.43755293531044 73.31288688432016L 78.71049338895708 73.99946129110829L 77.95753482153447 74.65752921749954L 77.17937844800066 75.28559980137426L 76.376814966227 75.88216652666434L 75.55073067352873 76.4457131009217L 74.70211360730767 76.97472073311461L 73.83205942947153 77.46767684437592L 72.94177677325385 77.92308522378718L 72.03259176339319 78.33947760825724L 71.10595141235153 78.71542662052008L 70.16342559167609 79.04955994325232L 69.20670728351618 79.34057554220134L 68.23761083688295 79.58725768002822L 67.25806798982185 79.78849338951203L 66.27012147438279 79.94328900518575L 65.27597101365369 80.05129299322375L 64.27794216177378 80.11404975234399L 63.278112898595616 80.13252796904916L 62.27842961440138 80.1073618946109L 61.28076780303338 80.03901783753267L 60.28695969536511 79.92790777888439L 59.29880207074833 79.77446557832756L 58.31805235529148 79.57919654434802L 57.34641811361001 79.3427078545718L 56.385543234452335 79.06572506340287L 55.436992989195886 78.74909841856082L 54.50223941874674 78.39380169393115L 53.582648015761094 78.00092556643688L 52.67946632245986 77.57166710247198L 51.79381480729169 77.10731659511754L 50.92668018739529 76.60924275422933L 50.078911212525206 76.07887706411756L 49.25121681122016 75.5176979678851L 48.44416641630114 74.92721540246843L 47.65819223040999 74.30895608865849L 46.89359315963846 73.66444987381233L 46.15054013061936 72.9952173312193L 45.4290825098579 72.30275873935607L 44.7291553596593 71.58854449669853L 44.0505872890397 70.85400697312633L 43.393108687159646 70.1005337565686L 42.756360158278774 69.32946222229435L 42.13990100876619 68.54207533074597L 41.54321766666856 67.73959854649412L 40.96573194162847 66.92319776417277L 40.40680905691327 66.09397812563203M 48.621188843070776 50.716390133649014L 48.667865648606686 49.71748008973867L 48.7325980529537 48.71957743124564L 48.82706994375325 47.72404990181777L 48.95871498162327 46.732752981614645L 49.13213139411762 45.74790439026794L 49.35002356600037 44.771931541551226L 49.61382800565557 43.807355356059276L 49.92412801581759 42.85671667407045L 50.28092652428871 41.922535308192934L 50.68382371138267 41.00729006421088L 51.1321309245527 40.11341051828776L 51.6249421959381 39.24327429286354L 52.1611778037949 38.399205946776306L 52.73960967085276 37.583475246623394L 53.35887525784326 36.79829365439819L 54.0174845030473 36.04580853020518L 54.713822944459544 35.328094955712146L 55.44615320935066 34.64714533707322L 56.21261640769968 34.004857110825384L 57.075703683679 33.49980230781625L 57.99699292023369 33.11092425159749L 58.953990235053595 32.820827475628704L 59.932921322508435 32.61663656982122L 60.9247762314272 32.489263732631564L 61.92315902340499 32.43241480403455L 62.92311571129267 32.44172191683694L 63.92049456244636 32.514078169305854L 64.91160017601501 32.647155826155846L 65.89301207602807 32.83906904225303L 66.86149623288338 33.08814420745474L 67.81396883248581 33.39276847931531L 68.74748858610837 33.75129444712861L 69.65926347889787 34.16198477435668L 70.54666347604393 34.62298504015396L 71.40723411527117 35.1323161455265L 72.23870805631145 35.68787990007761L 73.03901304371408 36.28747303474352L 73.80627565120398 36.92880609263762L 74.53882077423381 37.60952456801874L 75.2351672178207 38.32723037857338L 75.89401995013772 39.07950232216719L 76.51425970109563 39.86391461894208L 77.09493061136546 40.67805299413785L 77.63522660644533 41.51952803102287L 78.13447710303181 42.38598572858124L 78.59213256746759 43.27511534560683L 79.00775035092887 44.184654711478764L 79.38098113236128 45.112393243496996L 79.71155621404215 46.056172939915434L 79.99927583963472 47.013887624489534L 80.24399864236875 47.983480709150314L 80.44563228179453 48.96294172187717L 80.60412529073523 49.950301821393516L 80.71946012836935 50.943628492347194L 80.79164741930397 51.94101958666653L 80.82072135048266 52.94059685057653L 80.80673619630939 53.94049905352578L 80.74976394610627 54.938874815805086L 80.64989301577383 55.93387521644547L 80.50722803627312 56.92364625240483L 80.3218907244205 57.90632121435066L 80.09402185569587 58.88001304376393L 79.82378437356597 59.84280674090372L 79.51136768443537 60.79275190371717L 79.15699320086885 61.72785549444761L 78.76092120709531 62.646074953916994L 78.32345912863293 63.545311813652724L 77.84497129041979 64.42340599350025L 77.32589024287759 65.27813101716721L 76.7667297201401 66.10719042988258L 76.16809926595438 66.90821575989493L 75.53072051674941 67.67876642666637L 74.85544506401742 68.41633205963579L 74.14327372552881 69.11833774667497L 73.3953769338209 69.78215277283287L 72.61311579939533 70.40510342703209L 71.79806322667483 70.98449043387785L 70.95202425912085 71.51761149459503L 70.07705461833396 72.00178927981577L 69.17547620034375 72.43440499406374L 68.24988812860059 72.81293731956154L 67.30317187233283 73.13500614779294L 66.33848895947008 73.39842003814546L 65.35966415712656 73.60311983374173L 64.3707774420489 73.75179082870349L 63.37523261533627 73.84608026610621L 62.376071177133056 73.88702437933003L 61.376139285479375 73.87535338734627L 60.378166958465464 73.81170407851705L 59.384794619348256 73.69676324209759L 58.398568719464265 73.53135926875352M 60.860231268600195 56.89268136939759L 60.02235421633327 56.346822371775964L 59.24915918384877 55.71265406466713L 58.58231102250911 54.96746044572107L 58.04715399169197 54.122707847401905L 57.6555888334177 53.202557464678705L 57.410017105993745 52.23317904182723L 57.30709797578764 51.23848931500905L 57.34047720542273 50.23904655675374L 57.50244466835463 49.25225045777918L 57.7847867845773 48.2929366773054L 58.17912504114869 47.37397131375558L 58.67696553639469 46.50670270410041L 59.269612463933406 45.701240340436584L 59.94804424222709 44.96657693301706L 60.70281448328555 44.31058769285183L 61.584709535379254 43.83914191962585L 62.53865873508303 43.53917371400312L 63.528385708248926 43.396203372365825L 64.5283853152121 43.397089980221544L 65.51949065532988 43.53016967360131L 66.48654125790638 43.78475390731664L 67.41719871834763 44.15064554609108L 68.30135075230673 44.617844840660325L 69.13078934372022 45.17644274888592L 69.89899575418282 45.81664499109081L 70.60095261201195 46.528864458493L 71.23295331138272 47.303832274595614L 71.79240496579193 48.13269525867609L 72.27763220661599 49.00708334457517L 72.68769159688937 49.91914216748553L 73.02220474290046 50.86153325145533L 73.28121509163753 51.827407797784765L 73.46507040052964 52.81036111579747L 73.5743305984465 53.804374299387696L 73.6096993575383 54.80374862909619L 73.57197705004991 55.80303688956849L 73.46203267284179 56.79697463103941L 73.28079258486027 57.780413510944236L 73.02924435313204 58.74825827489887L 72.70845451397483 59.695408674304105L 72.31959953089955 60.61670764973907L 71.86400958776449 61.506897406877506L 71.34322501544897 62.360585540353746L 70.75906502410571 63.17222407105189L 70.11370790005397 63.93610507123168L 69.40978082187536 64.64637732087044L 68.65045587256925 65.29708894775388L 67.83954666614287 65.88226093865308L 66.98159740974064 66.39599537728735L 66.08195356274544 66.83261987106165L 65.14680119758998 67.18686562466236L 64.18566949906025 67.46295593249906L 63.206223633201525 67.66466313577214L 62.21467998181154 67.79443673627789L 61.21645806365881 67.85404380062002L 60.21649855557408 67.84504479006715L 59.21938529468837 67.7691162383499L 58.22935768916858 67.62824274790991L 57.250270066981315 67.42480374457061L 56.285535040829664 67.16158077954633L 55.338073862761945 66.84170999930136L 54.410286018932574 66.46860181546931L 53.504042376061065 66.04584602336828L 52.62405030771581 65.5708576449321L 51.774951683841046 65.04262329643329L 50.96056601941838 64.46229925800058L 50.18392197405562 63.83235955707472L 49.44733181388159 63.15602019260242L 48.75248935135866 62.43685821343843L 48.10057405451659 61.6785664188479L 47.492349996317415 60.88480102842846L 46.928253683768475 60.05909202994977L 46.40846854596059 59.20479500284851L 45.93298610579194 58.32506979058547L 45.50165502663289 57.42287607516096L 45.11421970406475 56.50097918785386L 44.770350154713256 55.56196175828783L 44.4696648310201 54.60823835178281L 44.21174777940639 53.64207128833731L 43.99616132567197 52.66558653117711L 43.82245524963567 51.680788988964466L 43.69017321598836 50.6895768706093L 43.59885706458396 49.69375491840464L 43.548049429992986 48.695046460311254L 43.537295053712974 47.69510429028799L 43.56614106880653 46.695520423164666L 43.634136471813875 45.6978347887237L 43.740830946896665 44.70354293570126L 43.8857731692193 43.714102815133984M 74.74462526823392 28.550064290138454L 75.50268171070347 29.202253242843422L 76.2523694851897 29.86404493271711L 76.98784859262254 30.54159233513985L 77.70489846033462 31.238614205108142L 78.40038712723293 31.95715127041237L 79.07194293009127 32.69810525255114L 79.71774055601567 33.461613881415545L 80.3363557524576 34.24730799411534L 80.9266636824431 35.05448613293987L 81.48776632925276 35.88223236201205L 82.01893987567082 36.729495404747695L 82.51959610988673 37.59514159987637L 82.9892538094536 38.47799019688355L 83.42751728130901 39.37683675177334L 83.83406006494246 40.29046849655652L 84.20861238277287 41.2176742780354L 84.55095132984782 42.15725080249502L 84.86089308563466 43.108006348374076L 85.13828663808087 44.0687627259544L 85.3830086579549 45.03835600820669L 85.59495926660044 46.01563638736857L 85.7740585148095 46.99946739892033L 85.92024344334271 47.98872467924216L 86.03346563305925 48.98229437269894L 86.11368917923791 49.97907126982212L 86.16088904374848 50.97795673512341L 86.17504975259268 51.97785646725911L 86.15616441661915 52.97767812339843L 86.10423406107675 53.97632883219167L 86.01926725590425 54.972712614686536L 85.90128004381182 55.965727729265694L 85.75029616766346 56.95426395477451L 85.56634760266493 57.937199825233506L 85.34947540255266 58.91339982975023L 85.09973087245122 59.881711592399235L 84.81717708435116 60.8409630489164M 95.75221768866089 30.885346919745366L 96.08517185670071 31.82828993074068L 96.41142351655085 32.77357288015055L 96.72645881505294 33.72265283500036L 97.02722090838526 34.67635203454619M 97.57826284528412 36.59885323250467L 97.82614330726167 37.56764385826949L 98.05459547070225 38.5411989974472L 98.26314881509457 39.519209990505445L 98.45147249289934 40.501317007269954L 98.61933106165696 41.48712809510304L 98.76655446719121 42.47623136011782L 98.89301767131082 43.4682026590997L 98.99862681283122 44.46261037690328M 99.14700989369223 46.456987408090875L 99.18968136672952 47.4560765659686L 99.21128650464115 48.45584314773448L 99.21179358886234 49.45584301916726L 99.1911755147165 50.45563044408244L 99.14940885922265 51.45475783660496L 99.08647326055578 52.45277542684095L 99.00235101775253 53.44923086902878L 98.89702684932368 54.44366881055393L 98.77048776980011 55.435630433477584L 98.62272305703951 56.424652976022884L 98.45372429248647 57.41026923886535L 98.26348546294936 58.392007079501205L 98.05200311680638 59.36938889704738L 97.81927657053976 60.34193110932549L 97.56530816356458 61.30914362385293L 97.29010356076644 62.27052930431562L 96.99367210319147 63.22558343417423L 96.67602720807736 64.17379317922432L 96.33718681996429 65.114637051173L 95.97717391503905 66.04758437459877L 95.5960170611813 66.972094760023L 95.19375103642113 67.88761758623961L 94.77041750869496 68.79359149552339L 94.3260657799072 69.68944390586972L 93.86075359736934 70.5745905450103L 93.37454803569084 71.44843501160197L 92.86752645213136 72.31036836970156L 92.33977751828063 73.15976878341668L 91.79140233069784 73.99600119946113L 91.22251560280279 74.81841708623915L 90.63324693984833 75.62635423903005L 90.02374219820005 76.41913666183486L 89.39416492938395 77.19607453746588L 88.74469790841576 77.95646429849288L 88.07554474477422 78.6995888126818L 87.38693157300438 79.42471769754647L 86.67910881831621 80.13110777954483L 85.95235303066107 80.81800371424656L 85.20696877861079 81.48463878442772L 84.44329059192593 82.13023589345293L 83.6616849389813 82.75400877141814L 82.86255222223241 83.35516341127509L 82.04632877168216 83.93289975146136L 81.21348881288625 84.48641362033263L 80.364546382482 85.01489895585229L 79.50005716062255 85.51755031145458L 78.62062018615794 85.99356565568681L 77.72687941705941 86.44214946909425L 76.81952509559376 86.86251613679948L 75.89929487530412 87.25389362933795L 74.96697466514252 87.61552745757338L 74.023399145342 87.94668488000745L 73.069451910028 88.24665933264764L 72.10606519335388 88.51477504299653L 71.13421913928609 88.75039178092672L 70.15494058019561 88.95290969051915L 69.16930129621369 89.12177413873604L 68.17841573587818 89.25648050947837L 67.18343818884131 89.35657886557124L 66.18555941313095 89.42167839695817L 65.18600273235103 89.45145157126369L 64.18601859735455 89.44581865413785L 63.186842260894394 89.40523973525055L 62.1896754788835 89.33001733929001L 61.19570443174749 89.22037447606881L 60.206107397517485 89.07650748943469L 59.22205627136504 88.89862162400938L 58.244714415077794 88.68695467819828L 57.27523236484124 88.44179237630598L 56.314742352801936 88.1634779196697L 55.36435225087437 87.85241738832876L 54.42513933283753 87.50908213730912L 53.49814411880181 87.13400898023856L 52.58436448219663 86.7277987197506L 51.684750144096284 86.29111342954232L 50.800197641384614 85.82467279028955L 49.93154582716619 85.32924971285468L 49.07957194008517 84.80566543527173L 48.24498826168214 84.2547842468624L 47.42843936649419 83.67750796832037L 46.6304999577357 83.07477029739698L 45.85167327181962 82.44753111390716L 45.09239002753477 81.79677082397832L 44.35300789024497 81.12348481116001M 57.97182687781601 42.89234228056567L 58.781158108641854 42.304989780945625L 59.607596022961545 41.74196191860228L 60.51548166447286 41.32274400159778L 61.47307334737115 41.034615265016335L 62.45893111545123 40.86703107388793L 63.45740073020253 40.811728014131795L 64.45613141689911 40.86209680854428L 65.44475767937506 41.01249000367908L 66.41423519007422 41.25767025624553L 67.35653541526158 41.59243925960734L 68.26452610405428 42.011429604443286L 69.13193596049217 42.509023958264144L 69.95334513378164 43.079363304650066L 70.72417063109503 43.716409655154926L 71.44063334825829 44.41403503808982L 72.09970424834391 45.16611585067603L 72.69903322382274 45.96661867962263M 73.92763620696961 108.57734827558977L 72.94163477827523 108.74408514197707L 71.95448104817768 108.90385846000764L 70.96551004385913 109.05196771906039L 69.97442612674308 109.18520686208497L 68.98119489815076 109.30136075375023L 67.98596065379199 109.39887382392862L 66.98898835591824 109.47663137836759L 65.99062468292324 109.53381508622162L 64.99127262033477 109.5698075159834L 63.9913751808179 109.5841291935251L 62.991405072693574 109.57639725600396L 61.991858144336014 109.54629845185883L 60.99324916884487 109.49357166484758L 59.99610904221116 109.41799674932061L 59.000982807753644 109.31938753324826L 58.00842814132794 109.19758755723612L 57.01901407446107 109.05246759208329L 56.03331982335416 108.88392429398219L 55.05193364897653 108.6918795680967L 54.07545170930235 108.47628035313952L 53.104476886898176 108.23709863507312L 52.13961758851168 107.97433156271221L 51.18148652116696 107.6880015821149L 50.23069945350107 107.37815653703706L 49.28787397290997 107.04486970389154M 46.513344370918475 105.90547112313338L 45.60853461962587 105.47965506664207L 44.71475913725303 105.0311404212745L 43.83262127650379 104.560149131936L 42.96271810345679 104.06692659643832L 42.10563936151382 103.55174116369642L 41.261966455084504 103.01488361559161L 40.43227144302771 102.45666664436261M 38.81705054152769 101.27751166319666L 38.032612870457505 100.65730400425815L 37.264327376324644 100.01719666989537L 36.512703726460124 99.35760445574762L 35.77823566278622 98.67896120377858L 35.06139968254096 97.98171936809615M 33.68182423301279 96.53390753280578L 33.01823653540816 95.78580903154557L 32.3714798262889 95.0231126573512L 31.741324548873532 94.2466435167245L 31.127663738800912 93.45707375401761L 30.530472217620893 92.65497507740065L 29.949778372576247 91.84085306054614L 29.385644761750324 91.0151695442177L 28.838154861805776 90.1783572537614L 28.30740406942705 89.33082932124864L 27.793493637601863 88.4729854729515L 27.296526630966717 87.6052160368015L 26.81660526673938 86.72790452761096M 25.908294481827113 84.94616464761958L 25.480092895058174 84.04248140605284L 25.06931167271335 83.13074746055729M 24.30033580158368 81.28458565778365L 23.942292297777342 80.35088075291162L 23.601971703979753 79.4105712860672L 23.279438650097045 78.46401308439489L 22.9747537460769 77.51155987858253L 22.687973803017503 76.5535633941115L 22.41915205715613 75.59037344973291L 22.168338391891957 74.62233806540196L 21.93557955449476 73.64980358086504L 21.720919365178215 72.67311478543294L 21.52439891692163 71.6926150590602L 21.346056764906916 70.70864652459645L 21.18592910476838 69.72155021092763L 21.044049939077393 68.7316662266432L 20.920451231635056 67.73933394382732L 20.81516304924525 66.74489219156173L 20.728213690702905 65.7486794587335L 20.659629802768357 64.75103410575691L 20.60943648291524 63.75229458483961L 20.57765736864132 62.75279966844635L 20.564314713122464 61.75288868563653L 20.569429446971732 60.75290176597325L 20.593021225840065 59.75318009072067L 20.633575506302307 58.75400275393996L 20.68636488113997 57.75539708506748L 20.747871474817927 56.75729040793615M 21.035276604066826 52.76764407272539L 21.109586913354583 51.77040890590988M 21.253296729102725 49.77557998093065L 21.32097659888562 48.77787289203824L 21.384865036720974 47.77991584511139M 21.49863902081621 45.783161071803214L 21.547351396760664 44.78434822425376L 21.58991903852307 43.7852546371085M 38.78827615125819 91.94212361222722L 38.130518275667065 91.18889418031564L 37.47866940805433 90.43054528053929L 36.83675476415575 89.66376917896298L 36.20756471747101 88.88651768481655L 35.59306431524743 88.09760117740461L 34.99465881478229 87.29640778189197L 34.41336947477862 86.4827108461732L 33.8499516802186 85.65653871594057L 33.30497513968994 84.81808742321486L 32.778878721112946 83.96766249509923L 32.27200813932015 83.10564032988941L 31.784641966546157 82.23244263541488L 31.317009656769226 81.34851954891205L 30.86930409405713 80.45433851068957L 30.441690380206822 79.55037694528585L 30.034312036818537 78.63711746116415L 29.64729542779413 77.71504471764591L 29.280752955168495 76.7846433979126L 28.934785407421888 75.84639691861935L 28.60948372007226 74.90078663303258L 28.304930326394683 73.94829136774278L 28.021200219881862 72.98938718761933L 27.75708775275047 72.02489529822587L 27.5110825128873 71.05562679984172M 27.068516170937407 69.10527447828504L 26.86986885917922 68.12520343722156L 26.68505934721932 67.14242907639954M 80.73510557056854 87.982964465677L 79.82691635451339 88.40152431544895L 78.91466546760905 88.81115624699513L 77.99578757821702 89.20569829087188L 77.06880723392095 89.58080819648455L 76.13301412634192 89.93335785228864L 75.1882258366477 90.26103923359778L 74.23462243443629 90.56210492624776L 73.27263426679757 90.83519605631808L 72.30286704276868 91.07922788047084L 71.32605221423083 91.29331382290651L 70.34301412130213 91.47671531649675L 69.35464804231573 91.62880901757951L 68.36190521268172 91.74906571889073L 67.36578221135491 91.83703711326224L 66.36731301828887 91.89234778581327L 65.36756875410892 91.91496207862323L 64.36761792130116 91.90504583099282L 63.36851599490284 91.86267437046607L 62.371316754092 91.7878835011953L 61.377077034635356 91.6807043042643L 60.386857421488685 91.54118685825965L 59.40172043412913 91.36941632488403L 58.42272717332099 91.16552371763146L 57.45093304320581 90.92969291244759L 56.48738294613118 90.6621649504932L 55.5331062149888 90.36324034394464L 54.589111465882425 90.03327987107009L 53.65638150242003 89.67270419904071L 52.73586836942803 89.2819925764989L 51.82848863090547 88.86168077542888L 50.93511893010239 88.41235842155916L 50.056591876146825 87.93466582640183L 49.193692290260486 87.42929041675353L 48.347153834608164 86.896962845514L 47.5176560379439 86.33845285873745L 46.705821724392464 85.75456498650472L 45.9122148449756 85.14613411866333L 45.137338705914985 84.5140210203063L 44.38163458334823 83.85910783587984M 46.90846049110065 13.84968019732012L 47.719286864694894 13.264393436933382L 48.59676171532027 12.78477078680103M 50.45825685797642 12.05684954766661L 51.418915257965324 11.779116873084092L 52.39145549727103 11.546382082106897L 53.37257200869407 11.352964422589768L 54.36003005973423 11.195082829501882L 55.352208234769016 11.070253069489945L 56.34783799585295 10.97686474664418L 57.34585307068979 10.91388927206549L 58.34530149088432 10.880680005728072L 59.34529410317639 10.876836132516216L 60.34497466320454 10.902110188419792L 61.34350285483889 10.956345329347322L 62.34004511143508 11.03943281828617M 64.32384745413862 11.29180712851096L 65.30944726578728 11.46090180991193L 66.2897418858483 11.658442838256518L 67.26390734847217 11.884278290368913L 68.2311254982198 12.138225235219167L 69.19058619805128 12.420067683191231L 70.14148957161433 12.729555605647663L 71.08304820654327 13.06640473655162L 72.01448926885737 13.430296956082591L 72.93505649343167 13.820881114798187L 73.84401202536782 14.237774195770617L 74.74063809400741 14.680562737894183L 75.62423850654363 15.148804460688963L 76.49413995241235 15.642030042421624L 77.34969311327536 16.159745011238737L 78.19027357664721 16.701431714599238L 79.0152825541527 17.2665513364806L 79.82414740806331 17.854545935187243M 81.39128681492484 19.096844847271885L 82.14854903531729 19.74995580994691L 82.88764230190414 20.423558915110462L 83.60812644843233 21.117030323750743L 84.30958705880457 21.829738547427315L 84.99163491540476 22.56104608964678L 85.65390534481523 23.310310981609877L 86.29605747495738 24.07688820652195M 87.51875738841447 25.659392083897057L 88.09873478076798 26.47402465405296L 88.65745119948427 27.303383420484504L 89.1946714715192 28.146825403856635M 90.20377295482757 29.873402944461077L 90.6752708600974 30.755270125688593L 91.12450399922373 31.648684691671654L 91.55131823102136 32.553024014898845L 91.9555726705302 33.467670584966974L 92.33713875686927 34.39201214616386L 92.69589935271516 35.32544175511586L 93.03174787893691 36.2673577638102L 93.34458748730431 37.21716373317265L 93.63433027364215 38.174268282198085L 93.9008965333268 39.138084877405774M 94.36421749294072 41.083530664911436L 94.56084770107844 42.06400838584533L 94.73405122576798 43.04889443967852L 94.88377976133738 44.03762158385746L 95.0099896866656 45.02962513967197L 95.11264164380714 46.02434247424246L 95.19170016457171 47.02121245086655L 95.24713334537967 48.01967484999108L 95.27891257077763 49.01916976285112L 95.28701228609967 50.01913695961895L 95.27140981989233 51.01901523373448L 95.2320852568865 52.01824172394799L 95.16902136249176 53.016251215497924L 95.08220356000778 54.01247542177473L 94.97161996199148 55.00634224778804L 94.837261457484 55.99727503676341L 94.6791218570883 56.98469180124875L 94.49719809819237 57.96800444021419L 94.29149051295346 58.94661794378706L 94.06200316199167 59.91992958748015L 93.80874423708335 60.88732811805288L 93.53172653649234 61.84819293349742L 93.23096801692438 62.80189326007139L 92.90649242643039 63.74778732981365L 92.55833002291092 64.6852215625871L 92.18651838317575 65.61352975740036L 91.79110330777873 66.53203229857745L 91.37213982706338 67.44003538327864L 90.92969331400303 68.33683027793445L 90.46384070947909 69.22169261234487L 89.97467186558926 70.09388172152217L 89.46229101238563 70.95264004682116L 88.92681835307815 71.79719260950401L 88.36839179216575 72.62674657162314L 87.78716880013451 73.44049090096391L 87.18332841724254 74.23759615874916L 86.55707339744875 75.01721443084331L 85.90863249168258 75.77847942526323M 52.81619077788764 105.90804293665778L 51.87633928291483 105.56645961241993L 50.93946547561362 105.2167919570771L 50.00771370574371 104.85369604778552L 49.08273385107733 104.47367990541608L 48.16586193245671 104.07449838674953L 47.25822352322865 103.65474546169246L 46.36079716945217 103.21358116174578L 45.47445549095379 102.75054938210569L 44.59999282285051 102.2654565640866L 43.73814417890975 101.75829099453611L 42.88959833819562 101.22916912180096L 42.05500682496539 100.67829980331965L 41.23498996599528 100.10596043633115L 40.43014084707261 99.51248095415052L 39.64102775008679 98.8982330236164L 38.86819548537185 98.26362267811643L 38.11216591533403 97.60908521606522L 37.373437880287376 96.93508158830339L 36.65248667647374 96.24209575748166L 35.9493571672256 95.53103395058689L 35.263568580496205 94.80323314383294M 33.94308790166707 93.30129393904629L 33.308248041157995 92.52865019739764L 32.690372414879164 91.74237434856941L 32.08954096400143 90.94299861236262L 31.50585869921917 90.13101646121726L 30.93944483570409 89.30689551425746L 30.39042543490104 88.47108590822158L 29.858928475029963 87.62402570867978L 29.345080598352194 86.76614438842986L 28.849005012771578 85.8978650477849L 28.370820185776157 85.01960581997608M 27.468568760090065 83.23480035599532L 27.04471024378313 82.32907194297402M 26.252002719281855 80.49298553635367M 25.53320707650432 78.6267225954175L 25.201718054010144 77.68326351948159L 24.888927125288134 76.73344151778377L 24.59489766233091 75.77764516138086L 24.319688746364204 74.8162607156088M 23.825949117825047 72.87826182555499L 23.607517615647676 71.9024095422372L 23.40810559303335 70.92249380849431L 23.22775471196232 69.93889147030224M 22.924389397865614 67.96212778670531M 91.86948343943706 82.84188167944004L 91.13661198786336 83.52224881229424L 90.3983672045225 84.19678171725144L 89.65120136508052 84.86141936918742L 88.89283369680307 85.51324640123765L 88.12184954771351 86.15010073454523L 87.33742236746119 86.77032166202301L 86.53912480227544 87.37258489136589L 85.72680209058674 87.95579309781941L 84.90048806130565 88.51900276127809L 84.06034985375486 89.0613751354025L 83.20665181166642 89.58214346482967L 82.33973208236927 90.08059123837806L 81.45998758040633 90.55603798751618L 80.56786442085681 91.00783027186304L 79.66385189919122 91.4353362492152L 78.74847874223826 91.83794273640831L 77.82231078439726 92.21505401158929L 76.88594950704737 92.56609184185788L 75.94003106622368 92.89049637837006L 74.98522555694323 93.187727667853L 74.02223634399368 93.45726760133743L 73.05179934308912 93.69862216888347L 72.07468217266604 93.91132392079071L 71.09168312157134 94.0949345565036L 70.10366095648669 94.24924658228723L 69.1115053786805 94.37425581965817L 68.11608494710137 94.46984956628837L 67.11826575210767 94.53585603644191L 66.11892199987457 94.57207847248182L 65.11894147127445 94.57831885873894L 64.11922769811764 94.55439456647011L 63.120700009455945 94.50015016605929L 62.1242921736012 94.41546590159854L 61.130950097083755 94.3002638225374L 60.141628878547365 94.15451223059523L 59.157289415460134 93.97822887514401L 58.17889470065142 93.77148318103075L 57.207405909000954 93.53439769497663L 56.24377835256883 93.26714887367959L 55.28895736902421 92.96996729722693L 54.3438741996071 92.6431373676236L 53.40944190669133 92.28699653879859L 52.48655137590142 91.90193411765324L 51.57606744288639 91.48838967297833L 50.67882517989051 91.0468510886009L 49.79562637207236 90.57785229769777L 48.927236208160416 90.08197073601093L 48.074380204644115 89.55982455220203L 47.237741377475906 89.01206961349806L 46.41795767039974 88.43939634398703L 45.61561964470318 87.84252643142538L 44.831268431551706 87.22220943631095L 44.0653939451932 86.57921933440805L 43.31843335325203 85.91435102106556L 42.59076979904446 85.22841680273409M 54.55689655536953 55.534140531966116L 54.29975252779992 54.567767441961394L 54.07349394339252 53.593700168626555L 53.89760873664119 52.60928948499597L 53.78413116271048 51.61574892708462L 53.74013237274554 50.616717342758264L 53.76935986576435 49.61714455718843L 53.873341568828266 48.62256534695532L 54.052129048629936 47.638677631275236L 54.30478871021709 46.6711224155864L 54.6297160655242 45.725383437975175L 55.0248273721635 44.8067501839691L 55.48766831959081 43.92030883938696L 56.01546864076765 43.07094035576774M 82.95765492630788 97.74132179723796L 82.02939456379815 98.11325283841802L 81.09837405152307 98.47821969406799L 80.16284167545874 98.83146065054873L 79.22176845663539 99.16966354351902L 78.2746265703032 99.49047851691506L 77.32123016556277 99.7921990754258L 76.36162568243087 100.0735515873271L 75.39601815848796 100.33355564442017L 74.42472251672802 100.57143119234L 73.44813171397729 100.7865367570813L 72.4666960585483 100.97832845203357L 71.48090982520058 101.14633292263524L 70.4913025813938 101.290129664619L 69.49843351799282 101.40933965975904L 68.50288766646685 101.50361827615434L 67.50527327392582 101.5726510494942L 66.50621986258932 101.61615140922713M 75.95075367691146 49.95522751188056L 76.04604906912533 50.95067655036661L 76.12258288023533 51.94774353696128L 76.1676308069319 52.946728363823205L 76.17258168387008 53.94671610815688L 76.13164950286827 54.945878035252996L 76.04100079021116 55.941760965568406L 75.89815782545905 56.93150633050872L 75.70158946972445 57.91199645362256L 75.45043225629192 58.87994276109049L 75.14430333722335 59.8319328266426L 74.7831789922117 60.76445049802471L 74.3673204800008 61.673879823383054L 73.89723454871819 62.55650047644424L 73.37365975616643 63.40848019251991L 72.79757237905254 64.22586830959162L 72.170207420017 65.004593683632L 71.49309125309391 65.74046982571801L 70.76808291565395 66.42920991504238L 69.99742105501828 67.06645421400594L 69.1837731572629 67.64781219191478L 68.3302830263284 68.16892119816723L 67.44061168622979 68.6255226727675L 66.51896614988244 69.01355553907011L 65.57011009744433 69.32926456927282L 64.60089756337422 69.57549020522771L 63.61722608869903 69.75546361968199L 62.62394723341919 69.87120952956207L 61.625346424207855 69.9240907534745L 60.62538589087318 69.9152063979528L 59.62780665072171 69.84566749072235L 58.636148245910604 69.71677370434186M 56.901695929907184 12.914343366252435L 57.90167624426618 12.920617989308283L 58.90154592300136 12.936761890509676L 59.901012302548594 12.969426185309114L 60.899571273838745 13.023091638404736L 61.8965498333185 13.100768867614294L 62.89115867053233 13.204466798819103L 63.88253577506158 13.335506627173688L 64.86977794531572 13.49473255870463L 65.85196211158318 13.68265345571583L 66.82815933253667 13.899538185013846L 67.79744393915239 14.145479949213845L 68.75889963070163 14.420439861178428L 69.71162372635439 14.72427665546548L 70.65473032663017 15.056767167384617L 71.58735283224033 15.417620686183346L 72.5086460704936 15.806489261860003L 73.41778815835953 16.222975352949206L 74.31398216055783 16.66663773632626L 75.19645756223333 17.13699628619822M 85.7654027968811 104.93604082497978L 84.84939768909408 105.33720742691479L 83.9309219259746 105.73268469878018L 83.00839484026983 106.11861704536575L 82.08085961977426 106.49235280059963L 81.1477850496507 106.85203578127667L 80.2089260310486 107.19633760118111L 79.26422863252456 107.52428092741584M 77.3577007986029 108.12827371115769L 76.39625021499023 108.40325148347911L 75.42967664372408 108.65964089693021M 60.85668984519077 65.75276226350037L 59.86991534467528 65.59066326556268L 58.8871538930045 65.40578511890939L 57.91209100098952 65.18385639923711L 56.9484329519809 64.91671755035718L 56.00003328812565 64.59964015034379L 55.074267319850314 64.22154310991206L 54.17804584258401 63.77793623024652L 53.317456119868936 63.26863736989319L 52.49753998344647 62.69615372014059L 51.72224304038684 62.06455681539644L 50.994486022415416 61.37872176030423L 50.3163012213197 60.6438303563793L 49.68899109800701 59.865060808188424L 49.113282714776055 59.04740571129389L 48.58946454438934 58.1955756082964L 48.11750065126089 57.31395772985754L 47.697122093983864 56.40660891678636L 47.32789781019102 55.47726859792698L 47.00928816534344 54.5293825846268L 46.74068444345628 53.56613181738685L 46.52143725296414 52.59046247305891L 46.350876362314644 51.605115334949275L 46.228324000460674 50.612653286000295L 46.15310322084828 49.615486382059686L 46.12454255807017 48.615894320995935L 46.14197790769478 47.616046328257305L 46.20475232579036 46.61801858694309L 46.31221426560409 45.623809387885125L 46.46371463448624 44.6353521868751M 96.46327576289698 74.3166808204379L 95.91658728985146 75.15401690197216L 95.35692535863801 75.98273791820768L 94.78251884410922 76.80130810827502L 94.19223255033097 77.60850206971027L 93.58535981826753 78.40330109278331L 92.9614836888722 79.18482433310999L 92.3203845353224 79.95228239406038L 91.66197896106502 80.70494573167342L 90.98627963035048 81.44212306072792M 43.22574460222963 107.62457094680798L 42.35070403338927 107.14052135959243L 41.48424457377301 106.64127392109975L 40.62790111629117 106.12486721817265L 39.78289914965988 105.59010402161809L 38.95025239083539 105.03629956603918L 38.13082690444966 104.46311384372788L 37.32538412493329 103.87044030043027L 36.5346100587373 103.25833215946834M 34.25640356410314 101.30741720412699L 33.53023047634451 100.61990527941943L 32.821533378748455 99.91439239941019L 32.13079560227372 99.19128706534693L 31.458479929480617 98.45102249364518L 30.8043668836608 97.6946256908437L 30.167491343545187 96.9236590596576L 29.54723414195616 96.13926056152228M 28.355211980356493 94.53343204891969L 27.783117901408946 93.71324404313495L 27.226894653108555 92.88221113280578L 26.68655278390379 92.04076555263775M 25.65369693870836 90.32820593671343L 25.161314501115115 89.45782697605908L 24.685063366022245 88.57851766965845L 24.225023066297812 87.69061963349132L 23.78127315052409 86.79446896967926L 23.353891685273357 85.89039757694518M 22.54853370190326 84.05980398081338M 21.809516805339058 82.2014356417109L 21.465048968840012 81.26263752197606L 21.137354814877575 80.31785366232411M 88.50365548283592 39.84503156290006L 88.74944020407685 40.81435600332469L 88.9861398594934 41.78593887324659L 89.20762694278187 42.76110217851211L 89.40975000321745 43.74046231065971L 89.58968709976556 44.72414042939868L 89.74551533099458 45.71192459729774L 89.87592186968693 46.70338520401204L 89.98000889384954 47.697953397451265L 90.05716144010972 48.694972697467854L 90.10695770814833 49.69373209376379L 90.12910813013559 50.693486743068206L 90.12341398561519 51.69347053129589L 90.08973932248249 52.69290337899647L 90.02799195120083 53.690995189472744L 89.93811063786696 54.68694767303477L 89.82005654439 55.67995483867525L 89.67380759172165 56.669202655879516L 89.49935484936846 57.653868203507464L 89.29670034535364 58.63311850450436M 90.98140037158684 38.91376968488847L 91.21636193861887 39.885774346409114L 91.4429822812756 40.85975751889935L 91.6556409169958 41.83688407398504L 91.85053489934693 42.81770838834685L 92.02508276220581 43.802357078779835L 92.17752752260554 44.79066907153651L 92.30667040451759 45.7822950675912L 92.41169138166836 46.77676507435777L 92.49202786650903 47.773532875404456L 92.54729256434764 48.7720046141997L 92.57721780446073 49.77155675391237L 92.58161781170516 50.771547073833645L 92.56036315281622 51.77132116805469L 92.51336345467884 52.770216071623125L 92.4405557505622 53.76756206886844L 92.3418966629658 54.762683360186564L 92.21735721011525 55.75489801674213L 92.06691941571403 56.74351749359644L 91.89057416803219 57.727845870521556L 91.6883199552821 58.7071789259347L 91.46016222698103 59.68080310959927L 91.20611321431069 60.64799445528079L 90.92619209904169 61.608017459810654L 90.6204254590105 62.560123946420234L 90.28884794426128 63.503551925501164L 89.93150315574727 64.43752446370658L 89.54844471060039 65.36124857165314L 89.13973748621751 66.27391412087543L 88.70545904098134 67.17469280179725L 88.24570121312794 68.06273713612269L 87.76057190160884 68.93717955910148L 87.25019703409988 69.79713158951668L 86.71472272777537 70.64168310793713L 86.15431764819401 71.46990176673408L 85.56917557066902 72.28083255854663L 84.95951814680457 73.07349757324513L 84.32559787643207 73.84689597692261L 83.66770128190267 74.60000424995286L 82.98615227750993 75.33177672457272L 82.28131572164493 76.04114646562202L 81.55360113305024 76.7270265408148L 80.80346654518497 77.38831172898115L 80.03142246421663 78.02388071582818L 79.23803588654617 78.63259882659241L 78.42393432114471 79.21332134312753L 77.58980975051738 79.76489744909637L 76.73642245210114 80.28617484060864L 75.86460458976354 80.77600503047968L 74.97526347334941 81.23324936194291L 74.06938437361714 81.65678573189034L 73.14803277124375 82.04551600444957M 52.74270333629402 41.810930824043176L 53.33233500670897 41.00325855558049L 53.93833788844581 40.20779610685858L 54.57096330776739 39.43333818106262L 55.236159633531514 38.686669681532926L 55.93691659663556 37.973269598366976L 56.67420504820811 37.297691520586355L 57.447615595606116 36.66378606614263L 58.31869487174438 36.17264362785975L 59.24844523708875 35.80445310904917L 60.213574944535935 35.54268097951105L 61.19941329696734 35.37498261077919L 62.1960080930855 35.29252769976595L 63.19600204149866 35.289048743446486L 64.1934816423095 35.36000257326745L 65.18335923190457 35.501926347235795L 66.16105025542397 35.711974585813486L 67.1223149552379 35.98760146565587L 68.06319082783557 36.326352985746304L 68.97997334675105 36.725739781986476L 69.86921997237245 37.183167851546L 70.72776272246325 37.69590983955411L 71.55272082486302 38.26110372600811L 72.34150891229346 38.87576896264331L 73.09183874698151 39.5368326049479L 73.8017140735736 40.24115995831121L 74.4694191817423 40.985585836774234L 75.09350230068894 41.76694379612823L 75.67275517785349 42.58209169945412L 76.20619021328027 43.42793273829015L 76.69301640695417 44.301431597564154L 77.13261518879048 45.19962584771722L 77.5245169839554 46.119632903639356L 77.86837915031516 47.058653036834784L 78.16396572921379 48.013968992095144L 78.4111292857227 48.982942766938336L 78.60979498376332 49.96301008116835M 62.92322739774122 116.76370075511251L 61.92323592969583 116.7595699154377M 59.923544383412974 116.72633517790183L 58.924219421369536 116.68959800004504L 57.925638992354585 116.63633331391702L 56.92817885864824 116.5651063410309L 55.93225394752416 116.47492002609066L 54.93830554390762 116.36507208142112M 52.95818866449172 116.0845237434497L 51.972974570822785 115.91319601762548L 50.9916406031005 115.7208846976403L 50.01468309918556 115.50745078387705L 49.04260389236832 115.2727978152754M 66.98394177418163 54.71517725670666L 66.80268372106387 55.698612825607825L 66.56325372188437 56.669526454873015L 66.22714498719574 57.61134964341002L 65.77218782587879 58.50186296805285L 65.18977503496994 59.31475615967507L 64.48281024030761 60.022004898880766L 63.664236807945755 60.59640679288123L 62.76604039890893 61.03600116362926L 61.81515159492677 61.34553384762463L 60.83244746216866 61.53071642634123L 59.83474840297403 61.59851456261463L 58.83588968471376 61.55075201499146L 57.850568425826495 61.38004168494431L 56.89416786650659 61.08798352270163L 55.980306663429026 60.68195679758414L 55.11976999386918 60.17256830110739L 54.320352658737896 59.571792199475844L 53.587189241570954 58.89173969876131L 52.92327410782092 58.143931772099876L 52.32999761673954 57.33893301115042L 51.80761512304481 56.4862217292494L 51.35562075859553 55.59420093660716L 50.97302715167671 54.67028420229348L 50.65856477070437 53.72101426652536L 50.410817900417186 52.75218946901917L 50.22831317838514 51.76898449220304M 33.60895579410657 43.523475097089L 33.729748107800305 42.53079729591053L 33.85909930719832 41.539198452015334L 34.00264196152018 40.549554320829664L 34.16405732362269 39.562667761554835L 34.34572757899164 38.57930825541571L 34.549170639665064 37.60022147628741L 34.77532939892149 36.626131020728174L 35.02476384749131 35.65773933557868L 35.29777845251792 34.69572944714605L 35.59450644148284 33.740767405719886L 35.9149654278073 32.7935050143605L 36.25909399762842 31.85458247898664L 36.62677566058069 30.924630762643982L 37.017854422005065 30.00427354810021L 37.43214480483968 29.09412879110232L 37.869438198597514 28.19480988894594L 38.329506781016576 27.30692650726177L 38.812105838661594 26.431085112053633L 39.31697503483098 25.56788925087306L 39.84383898914333 24.71793962080881L 40.392407411550415 23.88183395407894L 40.962374953232704 23.060166745637073L 41.55342088391284 22.253528841849725L 42.16520867030059 21.462506905095264L 42.79738550750745 20.687682766016508L 43.44958184026124 19.929632672986695L 44.12141090090565 19.188926446960718L 44.812468284693246 18.466126549124088L 45.522331578583156 17.761787068484413L 46.250560056845934 17.07645263665782L 46.996694454732946 16.410657277489715L 47.7602568299364 15.764923199735058L 48.54075052031673 15.13975954174101L 49.40240333814079 14.63226134318672L 50.312348440560385 14.217532623922436M 101.93821945571332 80.77743813571985L 101.32827857749929 81.56988505828532L 100.71335468684607 82.35847152070014L 100.09012853517926 83.14051318447424L 99.45641631182667 83.91408206826775L 98.81080207281728 84.6777457733031L 98.1523867819173 85.43040061100037L 97.48061899328796 86.17116240682952L 96.79518153842119 86.89929391656231M 95.38277357846177 88.3151751071336L 94.65578073529433 89.00182014351216L 93.91501918358202 89.67358820133032L 93.16061114937632 90.32999395840889L 92.39271052217404 90.97056294512488L 91.61149715251337 91.59482704874083L 90.81717332629832 92.20232162411338L 90.00996167274181 92.7925837238306L 89.19010401323511 93.36515111562672L 88.35786082410523 93.9195618606046L 87.51351109558053 94.45535429797215L 86.65735244133151 94.97206733124548L 85.78998465332526 95.46973501186092L 84.91196002839867 95.9483504713088L 84.02373046038501 96.40775033472438M 105.18113989335221 71.53436601406541L 104.73286684246482 72.42826269257368L 104.2756424145017 73.31761404185798L 103.80708020075241 74.20104454384801L 103.32560306653225 75.07750319616605M 102.32013296592005 76.8063015935396L 101.79504560810025 77.65734992745362L 101.25465496420837 78.49876418451974L 100.69881264444923 79.33005192986715M 56.986131642710006 39.90739210802065L 57.802039333550965 39.32920992217732L 58.63156317932901 38.770738625434504L 59.537792204143166 38.34795149863856L 60.49068352819982 38.04463957250053L 61.47116284468934 37.84801732061574L 62.46621283247149 37.748641660543775L 63.466172102563945 37.739616243314224L 64.46326889571813 37.81576074463672L 65.45083974162004 37.972935247418114L 66.42292912772028 38.20754604305904L 67.37410027373184 38.51621002054114L 68.29935989233346 38.89554448797745L 69.19414025439197 39.342051042995884L 70.0543052511472 39.852066903883625L 70.87616129330884 40.42176212587728L 71.65646278906966 41.04716565617865L 72.39240764189681 41.724207142054695L 73.08162179864966 42.44876483205008L 73.72213400255757 43.2167128228965M 51.75644765884534 27.518189263816033L 52.55900603695076 26.921615672603018L 53.43175094602391 26.433439143377264L 54.34862062855299 26.03425248871678L 55.29435459723802 25.709310554711223L 56.25964480185786 25.448130883096084L 57.2384891165678 25.24352441311032L 58.22673815758478 25.0906720891862L 59.2212863733814 24.986394352081064L 60.21961565441974 24.92861332905902L 61.2195357256834 24.91597010620736L 62.219036729070666 24.947557195782768L 63.216206985569364 25.02273351887931L 64.2091891771101 25.14099749176603L 65.1961593613169 25.301900740604573L 66.17531954800916 25.50499020068753L 67.14489821693635 25.749770111549033L 68.10315530891197 26.035678043720278L 69.04838951521033 26.362070897875356L 69.97894648069276 26.728218045880283L 70.89322702993383 27.133299614554357L 71.78969484232682 27.576408474027183L 72.66688321218167 28.05655487231774L 73.52340067466733 28.572672917397686M 53.56380195573898 103.68856693779625L 52.62617346231648 103.34092803272053L 51.691666947956 102.98498200504521L 50.762532919296135 102.61523890938786L 49.840504225116774 102.22811736889972L 48.92698406187351 101.82132391842637L 48.02315329812399 101.39343380344363L 47.13003615714652 100.94360964614188L 46.24854273610565 100.47141334304152L 45.37949758561175 99.97668056021523L 44.5236593046376 99.45943706163916L 43.68173404457505 98.91984290260052L 42.85438474935187 98.35815513907554L 42.042237356123536 97.7747028173967L 41.245884809577824 97.1698700953899L 40.465889496731116 96.54408473926756L 39.702784537989636 95.89781016763088L 38.957074248230974 95.23153982929362L 38.229233993841746 94.54579310922081L 37.51895764330846 93.84187016892612L 36.82607670689845 93.12081815418684L 36.15054787775243 92.38348457907132L 35.492411103912076 91.63058618823827L 34.85176014475022 90.86275394840655L 34.22872209369305 90.08056242011257L 33.62344326039786 89.2845488938677L 33.036079526255044 88.47522581634315L 32.46678982830215 87.65308882057865L 31.91573182148889 86.81862188107355L 31.383059052318544 85.97230059398194L 30.868919177607147 85.11459424025023L 30.373452903367323 84.24596706413213L 29.89679341774168 83.36687905103953L 29.43906616092654 82.47778639086935L 29.000388823053992 81.57914174851228L 28.580871494359346 80.67139442082417L 28.18061691510191 79.75499043142678L 27.79972078874702 78.83037259635769L 27.438272133031543 77.89798058154769L 27.096353651237827 76.9582509652176L 26.774042111342382 76.01161731313765L 26.471408724413827 75.05851027134426L 26.188519516212867 74.09935767874836L 25.925435687743096 73.13458470068684M 48.75491498711339 98.50933662077925L 47.89273135867144 98.00274073563342L 47.03524461256037 97.4882346810103L 46.18574734064495 96.96064167024512L 45.346651146856594 96.41665860288926L 44.51978810841449 95.85425526394266L 43.7065940507884 95.27226263113567L 42.90822518230821 94.67009392567046L 42.12563487510381 94.04755684961013L 41.359625326610875 93.40472765641987L 40.61088272386082 92.74186680011059M 66.68121555151211 82.88835625515314L 65.6812766003148 82.8994058650303L 64.68128084967893 82.8964906102897L 63.68159860243959 82.87128337810306L 62.68301131002795 82.81814751983408L 61.6866173444909 82.73330021321013L 60.69372869131195 82.61425348965801L 59.70578517294788 82.45943874707056L 58.72428978542973 82.26795296618695L 57.75076162615174 82.03938585767654L 56.78670173452971 81.77370084612018L 55.83356791478485 81.4711518060315L 54.89275572337042 81.13222346480585L 53.96558376994506 80.7575874163783L 53.05328218509824 80.3480684079233L 52.15698357271616 79.90461739885696L 51.27771604786627 79.42828912996632L 50.41639811910229 78.92022277053113L 49.573835252192154 78.3816247615261M 100.76449325008296 61.5355214229991L 100.45450043523769 62.48626032235281L 100.13803284890349 63.434863646614225L 99.8107483478084 64.37978949309263L 99.46974642512758 65.31985209139552L 99.1130970799506 66.2540904146219L 98.73952226347356 67.18169046663469L 98.34818162936838 68.10193636208773L 97.93852898465606 69.01417794778759L 97.51021641387376 69.9178085923044L 97.06303044008173 70.81224959362515M 104.31659299392729 62.55453798135688L 104.01167011000616 63.50691502584148L 103.69688577937939 64.45607824952424L 103.36959539821655 65.40100205936199L 103.02803720660252 66.34086268825403L 102.67104181167986 67.27496883211779L 102.29783700225998 68.20271781229825L 101.9079170229933 69.1235665565384L 101.50095525056777 70.03701174689428L 101.07674600469929 70.94257594435335L 100.63516587637261 71.83979776211471L 100.1761481124966 72.72822485110191L 99.69966572746534 73.60740886867441L 99.20572044573808 74.4769018580995L 98.69433554127676 75.33625363676123L 98.16555128354902 76.18500990847846L 97.61942213019772 77.02271089800861L 97.0560150938045 77.84889036479692L 96.47540890177348 78.66307489533973L 95.87769369598155 79.4647834039419L 95.2629711037434 80.25352679351293L 94.63135456803114 81.02880774375926L 93.98296986226208 81.79012060541652L 93.31795573965292 82.53695138727434M 81.86490428082983 110.89908663865285L 80.92152740118551 111.23080950936357L 79.97625138938531 111.55708126958056M 78.07568265310648 112.17972757160572L 77.11929939064612 112.47184236973426L 76.15856980514552 112.74932870010718L 75.19348872398126 113.01128004440383L 74.22415052957558 113.25701051639768L 73.25071686615027 113.4859797346572L 72.27339590967253 113.69774315933067L 71.2924292427442 113.89191936378307M 69.32064620362823 114.2261788853953L 68.33042107665895 114.36565719166076L 67.3377280054517 114.48632394920854L 66.34290123733905 114.5879098805502L 65.3462890518953 114.67015434434586M 63.34917035868263 114.77561645318782L 62.34942888202151 114.79835364394326M 44.83699917703389 38.973970646910296L 45.26036183340068 38.068010349107986L 45.69524653394616 37.16752420416656L 46.14913087164068 36.27646359568047L 46.62674592741428 35.397894384691156L 47.13097557082797 34.534324777361846L 47.663465652581806 33.687888534734086L 48.22503114521488 32.86045624295198L 48.81592572867737 32.05370746468536L 49.43601901487021 31.2691793795166L 50.084912357335355 30.508300000045445L 50.76201414845914 29.772410630332192L 51.46658859832449 29.06278055444974M 104.53360875272921 48.95536576004158L 104.47826048540287 49.95383286981735L 104.41270046252865 50.951681497315896L 104.3341757106433 51.94859366162193M 104.13144491141658 53.938226740164374L 104.00516256312852 54.930221079115384L 103.86142930958717 55.91983754615017L 103.6998672099843 56.90670009380912L 103.52022168031111 57.89043150210533M 103.10605077171141 59.84698711768041L 102.87133329671305 60.81905075084976M 89.64106037819388 20.848064727043337L 90.20784033590738 21.67193393968227L 90.76838554663884 22.500057762987712L 91.31847019173078 23.33516666800195L 91.85519349788466 24.17892498211284L 92.37654150402517 25.032269142749865L 92.88110026959536 25.895646494830793L 93.36786519995908 26.76917949510497L 93.83611284730402 27.652776768050025L 94.28531405041844 28.546207391613244L 94.71507477058917 29.449150204530174M 71.88074488462394 104.64722101470257L 70.8867242591821 104.75641348786915L 69.8918710278867 104.85773993151084L 68.89576380897704 104.94588985173803L 67.89831310645255 105.01724877573078L 66.89967040042822 105.06933280115524L 65.90015357760902 105.10041528659994L 64.90019286802563 105.10927978260814L 63.90029402642652 105.09505633124188L 62.90101413288309 105.05711302669636L 61.90294598899712 104.99498428809646L 60.906708107979114 104.9083235448227L 59.912938221603575 104.79687215212998L 58.92228893071952 104.660439082565L 57.93542462002879 104.49888775237886L 56.95301908912055 104.31212755094157L 55.97575356734511 104.10010844814899L 55.00431491737379 103.86281759425466M 101.45934841273724 49.63617742673146L 101.39971377093876 50.63439769776264M 101.24440363732494 52.62830885192661L 101.14375812600665 53.62323120118382L 101.02577899864811 54.616247276334526L 100.8895653545369 55.60692676191901L 100.73451195087151 56.59483285159139L 100.56021229286911 57.579525508830315L 100.36639370436541 58.5605628958602L 100.15287387526172 59.537501626067744L 99.91953183044254 60.509896345366236M 84.71071407620278 18.886714357485182L 85.37748910299344 19.631973415563856L 86.0380965908672 20.382704890170537L 86.68832823564392 21.142440902303008L 87.32525814873152 21.9133626141611L 87.9468178564975 22.696729405442085L 88.5515214759079 23.49317998939062L 89.13828392117284 24.302939109639794L 89.70629866287875 25.12595748926735L 90.2549545909673 25.96200573702181L 90.78377902595867 26.810736976552946L 91.29239843026042 27.671728440835686L 91.78051119477666 28.54450901412791L 92.2478687029574 29.428577427514053L 92.69426208514001 30.323414255289695L 93.1195128915646 31.228489805525825L 93.52346646754334 32.14326929177045L 93.90598719446282 33.067216202299946M 38.6218855531111 82.96728486682552L 38.058403725092546 82.1411564085983L 37.50146677883075 81.31060163142308L 36.95543605338513 80.4728364812352L 36.423213138003916 79.62623222401515L 35.90670397517345 78.7699505619949L 35.40712361368269 77.90368301532543L 34.92520008308213 77.02746973612139L 34.46131270924163 76.1415755526032L 34.01558697144877 75.2464059783498L 33.587960151327295 74.34245061290702L 33.17822717668389 73.43024510454288L 32.786072967406184 72.51034561212767L 32.41109555984998 71.58331166246755L 32.05282292829168 70.64969465240598L 31.710725502057368 69.71003016389753L 31.3842257483763 68.76483287716518L 31.072705759379232 67.81459327766657M 69.97480076326099 57.65458360364754L 69.51328256198649 58.541714343669746L 69.02082240221519 59.41204933149801L 68.47690138485318 60.251185748817555L 67.86912542301903 61.04529429317189L 67.19141587060501 61.78062398968006L 66.44272382489177 62.44354194892217L 65.62616690322504 63.02080687395932L 64.74844954619122 63.49998558922283L 63.822692706088134 63.878104979101664L 62.86333062471098 64.16028293149287L 61.88152695782812 64.35018174585295M 58.88983151120989 96.94835007011211L 57.92480040234856 96.68621468728509L 56.96240251026263 96.41457099177836L 56.00461092527995 96.12710746411553L 55.053037366588725 95.81968631585191L 54.10907073345541 95.48964541606681L 53.173946268491626 95.13532601915746L 52.24878381771348 94.75575462973227L 51.33461137632199 94.35042914644714L 50.43238079679063 93.91917518257142L 49.542978717948074 93.46204944259331L 48.66723422593416 92.97927456264688L 47.80592412170044 92.4711949386263L 46.9597763881 91.93824652374654L 46.12947230235225 91.38093590551773L 45.315647544017246 90.79982553500196L 44.51889257558623 90.19552302774215L 43.73975251310843 89.56867315493201L 42.978726655101866 88.91995160954804L 42.23626779818568 88.25005994234601L 41.51278143645713 87.5597212686555L 40.80862491751664 86.84967648356542L 40.12410661002397 86.12068081368297L 39.45948512455981 85.37350059374978L 38.81496862026962 84.60891019641436M 23.994452398199297 61.90942912429596L 23.95231366882118 60.91031735502968L 23.911775852887434 59.911139350127996L 23.873681371021117 58.911865208337396L 23.83835633429297 57.91248933221262L 23.805777242630317 56.91302017171469M 23.74767020400754 54.9138655349356L 23.72121776469024 53.91421546193297L 23.695756856189544 52.91453964341063L 23.670682980055492 51.9148540424662L 23.645378746617894 50.91517424584624L 23.61922812918483 49.91551623171947L 23.591626958507973 48.91589721660558L 23.56199079990305 47.91633646402315L 23.529760992369315 46.916855979218006L 23.502022833409924 45.91724075597581L 23.483801944366302 44.91740677015493M 101.54533093210276 85.56283424913995L 100.87642486807273 86.30618119202991M 98.12921014013611 89.21296793299727M 96.69003104581944 90.60165582641258L 95.95185955016208 91.27626893256974L 95.20110296041837 91.93684787785665L 94.43775256847171 92.58283253643214L 93.6618711727682 93.21371133604517L 92.87357310464951 93.82900488858763L 92.07301614796978 94.4282615607338M 90.43763211849061 95.57941179013447L 89.60363908035187 96.13118675543838L 88.75918441807698 96.66681379299548L 87.90451767240872 97.18599078964384L 87.0398720970624 97.68837314307004L 86.16547807440925 98.17358968560384L 85.28157161647034 98.64125342550025L 84.38839968178532 99.09096877446113M 75.55827902558184 110.69635737081067L 74.58040130003761 110.90553469722164L 73.6011775837826 111.10831761939149L 72.61979693874986 111.3003905991547L 71.63584185363408 111.47880693942321L 70.64916920090339 111.64152472072998L 69.65982231039017 111.78710195188867L 68.66797008177349 111.91449565890802L 67.67386639067786 112.02292928538088L 66.67782368526031 112.11180520441687L 65.68019610375607 112.18064711477696L 64.68136880503363 112.22906227073882L 63.68175126706648 112.25671688678204M 61.68188119991743 112.2486149017286L 60.6825382619223 112.21237000858119M 58.6874203338587 112.07445304803898L 57.69263842434459 111.97242877394963M 55.711200020612594 111.70151911966506L 54.7256039319231 111.53240273973705L 53.74414581781695 111.34072600600236L 52.767377895729105 111.12642615443873L 51.795859418500214 110.88946234200557M 49.87083676890609 110.34749120118983L 48.91847690920857 110.04251464858795L 47.973653023854666 109.71493591657877L 47.03694390933078 109.36482731233164L 46.10892920548778 108.99228374514628M 86.77104812277106 101.54659944274492L 85.8674694696432 101.97502168494486L 84.9611251737519 102.39756164436326L 84.05023715863283 102.81021528110047L 83.13372049033472 103.2102117769998L 82.2109644387694 103.59559635025042L 81.28167838609578 103.96495719320252L 80.34578674913432 104.3172452058649L 79.40335873966482 104.65165430706784L 78.45456204929883 104.96754169261929L 77.49963262289997 105.26437462643483L 76.53885510460209 105.54169494724341L 75.57255029746005 105.79909545169939L 74.60106719967145 106.03620426788105L 73.62477800853958 106.25267462446381M 79.98552905201332 95.92251201361078L 79.037143231299 96.23963081637724L 78.08619369935148 96.54897688098582L 77.13108478529878 96.84523177511767L 76.17092896513307 97.12469698046874L 75.20533536867386 97.38475275617267L 74.23425448534604 97.623503500748L 73.257869995323 97.839543607308L 72.2765256932017 98.03180218499453L 71.2906770251816 98.19943990080746L 70.30085928729522 98.34178049854931L 69.30766683553985 98.45826549233027L 68.3117394420184 98.54842439002537L 67.31375321222787 98.61185533790157L 66.31441436179108 98.64821275815761M 50.62915571248493 71.53293458449879L 49.84816579537898 70.90839095161247L 49.07432048512683 70.27501631066073L 48.31237941910675 69.62736994734803L 47.56552789555039 68.96237911901913L 46.835857462544915 68.27858012867357L 46.12467129058971 67.57557640975047L 45.43269060811965 66.85366039310568L 44.76020105804316 66.11355377576064L 44.110757420812405 65.3531440427479L 43.48765398945678 64.57100459620857M 66.71077099306865 8.999733869149132L 67.66878045583569 9.28647045427356L 68.62416852444912 9.58182386690174M 70.51976275844953 10.21928644764834L 71.45716044722667 10.56754723079119L 72.38609476268208 10.937791795328458M 74.21476081844477 11.747316568059983L 75.11280836378641 12.1872149725875L 75.99898892130334 12.650555041520684L 76.87261164108197 13.137158929181458L 77.73302912413504 13.646748719951084L 78.57963177849743 14.178974184981243L 79.4118437134298 14.733431843739885L 80.22911975114414 15.30967821308025L 81.03094323834 15.907239168448884L 81.81682441836783 16.525616699475087L 82.58629918582625 17.164293912349333L 83.33892809274766 17.822738844341572M 83.93820934586769 79.71086945696462L 83.14303477814092 80.31725003617254L 82.34167305471642 80.91543009955657L 81.5300903742003 81.49966768195458L 80.70578183465577 82.06580850510193L 79.86730434510278 82.61074473945686L 79.01394585934239 83.1320692974634L 78.1454984066134 83.62785052123911L 77.26210544927537 84.09648351508993L 76.36416063851875 84.53659158913001L 75.45224131690415 84.94696111878098L 74.5270651185982 85.32649899842957L 73.58946169610779 85.67420551567402M 41.83545370890482 77.63701804170594L 41.239266774348536 76.83417239087113L 40.64953114593918 76.02657602598046L 40.070511084670265 75.21126273119854L 39.505004261868564 74.38651911445166L 38.95480345605258 73.55148673587018L 38.42100071373366 72.70587770547091L 37.90419218061358 71.84977669502047L 37.40461838534813 70.9835053616127L 36.92226158985285 70.10753052074138L 36.456914105227334 69.2224024404317L 36.008226754180264 68.32871364615801M 59.69531802759288 101.52844147818686L 58.718593386126 101.31394445081492L 57.7438764823228 101.09050104088682L 56.77269600615985 100.85215573944393L 55.80633326248274 100.59497283248304L 54.845924014766496 100.31637980152009L 53.89250642967145 100.01472617825073L 52.94704637108543 99.68898812763564L 52.01045263993355 99.33857097228076L 51.08358717669835 98.96317729484092L 50.16727226353511 98.56271883268205M 92.75165414782872 86.53184683678126L 91.98859079179515 87.17817052865614L 91.22069784976776 87.81874872808578L 90.44479371307045 88.44959955883422L 89.65884118606687 89.06788640593408L 88.86158526061882 89.67152784697171L 88.05230155899719 90.25894583298302L 87.23062530861444 90.82890033955081L 86.39643668352448 91.38037956651276L 85.54978469963717 91.91252655577388L 84.6908370933532 92.42459003783351L 83.81984753506997 92.9158915637436L 82.93713432021083 93.38580366223975L 82.04306661095066 93.83373549997657L 81.1380556135184 94.2591236692134L 80.2225489569068 94.66142649259382M 63.949892895756165 29.869176770121467L 64.91918407791098 30.115092617916808L 65.88422076260382 30.37720747288896L 66.84153938409084 30.66624217141871L 67.78798835039663 30.98909562761625L 68.72059017255242 31.350002598055582L 69.63652253525456 31.75133526175851L 70.53313190248731 32.19415762184264L 71.40794946826797 32.67861012374723L 72.25870110686303 33.204178054111914L 73.08331060743076 33.76988042424433L 73.87989758786743 34.374404354787025L 74.64677166937929 35.016201942119146L 75.38242415667197 35.69356109200943L 76.08551809577055 36.40465807048905M 40.54145995273932 34.61952897249285L 40.97640072042629 33.71906990701355L 41.42050809517741 32.823096336146826L 41.87976457216842 31.93479262212678L 42.35799885456555 31.056560323050903L 42.85759519664661 30.190301992655623L 43.379972754722615 29.337587687147295L 43.92590587227498 28.49975892710169L 44.49573643974116 27.677996720389086L 45.08951387671993 26.873367392477828L 45.707086956791784 26.086853889243102L 46.34816377847157 25.319377173827615L 47.01235077053842 24.571810695466525L 47.69917796445888 23.844989943360932L 48.40811532051539 23.139718488396532L 49.138583267350405 22.45677150755055L 49.88995953722521 21.796897503615686L 50.66158366790137 21.160818734155278L 51.518411455873675 20.64521603656877L 52.426394678350974 20.226209511918206L 53.36633513981865 19.884871074446057L 54.32708611300577 19.60745880449389L 55.30189334711538 19.384409804658503L 56.28642971788108 19.20922951284599L 57.277725911418834 19.077579003247443L 58.27357830114873 18.986595390056628L 59.272215581101065 18.93440743081883L 60.272108853620715 18.919797722747024L 61.271863021274584 18.941969873267915L 62.27015515970101 19.000389102601943M 98.72463933674408 31.962077434374162L 99.00573936447734 32.9217559088688L 99.2804608025393 33.883279767891125L 99.54451299999323 34.84778815925936L 99.7949970924658 35.81590887457238L 100.02994692781614 36.78791637190399L 100.24802383485157 37.76384795896215M 100.63018356459881 39.72690727579055L 100.7932017680982 40.713530337211594L 100.9370631083898 41.703128192286826L 101.06155300251346 42.69534906803027L 101.16651778011392 43.68982500814309M 101.31745262848915 45.68402348040695L 101.36327583112863 46.682973045750394M 62.568740618221675 46.59891443138007L 63.551617645421814 46.783177149807344L 64.52354613302676 47.018453614805395L 65.4714303211541 47.337068689618484L 66.37937681290394 47.75615480024393L 67.23062042368143 48.28092552647635L 68.0096993240529 48.90785141284249L 68.70392301471604 49.62761072491984L 69.30395864272694 50.42758400267203L 69.80373007461426 51.293741330107L 70.1999229995044 52.211908616753064L 70.4913473812901 53.168502485487764L 70.67832114069466 54.1508673939073L 70.76215823313805 55.14734686782065L 70.74478860845672 56.14719600450999M 50.59275463590983 112.93798692905543L 49.63928474596779 112.63649867227926L 48.68820991046121 112.32753806432716L 47.74125773232273 112.00616355955309L 46.79976489491429 111.6691305684252L 45.86482318989139 111.31432920398466L 44.937362597693905 110.94040828999255M 43.10808259368814 110.13217923448622L 42.20768919994754 109.69710253261827L 41.317666586837966 109.24118614976545M 39.571171613246136 108.26692211048092L 38.71586817735301 107.74879468160901L 37.87328228412982 107.21023269581603L 37.04396602689154 106.65145318162435L 36.2284623833016 106.07270124228286L 35.42730621066575 105.47424590807029L 34.64102477126323 104.85637739612692L 33.87013789286829 104.21940532396165L 33.11515783347075 103.56365757527159M 96.87556688413576 93.56704058008803L 96.09160884067312 94.18785438960762L 95.30419998273784 94.804285481008L 94.51103911425038 95.41329766208503L 93.71061720746897 96.01273470727361M 92.08448119099555 97.17697328562461L 91.2578126543884 97.73966248099254L 90.4217788062592 98.28834035076885L 89.57631803723336 98.82237788506606L 88.72145330145693 99.34122881117673L 87.85726906789866 99.84440433767746L 86.98389597059814 100.33145611409522M 78.8365505965961 52.6561560049477L 78.75914478846771 53.653155674389964L 78.66590762418862 54.64879960230656L 78.54613499961644 55.64160095121937L 78.3926284113143 56.629748575488044L 78.20058739665922 57.611135476098724L 77.9668554999885 58.58343656140034L 77.6894079471346 59.544177346115646L 77.3670051419924 60.490779919129494L 76.99896049912519 61.420588039580565L 76.5849874978719 62.33087719926189L 76.12510190999924 63.21885537808558L 75.61956270176265 64.08165901097982L 75.06884028244482 64.91634746595014L 74.47360430340555 65.71989841595715L 73.83472559390886 66.48920589320655L 73.15328838311376 67.2210824727907L 72.43060992782381 67.91226685503594L 71.66826520011472 68.55943801951574L 70.86811450116687 69.15923703499783L 70.03233184627214 69.70829746316318L 69.16343179055825 70.20328503187615L 68.264292117587 70.64094682880291L 67.33816958580596 71.01816964906631L 66.38870582426647 71.33204632154018L 65.42022252358929 71.58112481581345L 64.43801314369846 71.76891388379791M 78.67736826721337 19.74263878802905L 79.43884990869218 20.390825265588358L 80.19409816602975 21.046264103153355L 80.93880644863665 21.713654224309394L 81.66991160551034 22.395919018647128L 82.38518048725315 23.09476837781574L 83.08294874692527 23.811091947017637L 83.76194984184562 24.545229204686095L 84.42120006484457 25.297152833438272L 85.05991978182506 26.066592319779055L 85.67747876857084 26.85311688893728L 86.27335791649496 27.65619100822467L 86.8471222007228 28.47521148791033L 87.39840145666652 29.30953227871332L 87.92687659401746 30.15848105761691L 88.43226960646183 31.02137033381195L 88.9143362356718 31.897504892542596L 89.37286049485807 32.78618678373746L 89.80765049880513 33.686718655726295L 90.21853521604635 34.598405964586966L 90.60536187665485 35.52055841111762L 90.96799385127503 36.452490839453L 91.30630887416817 37.39352375348142M 54.50217435085831 8.763589020384323L 55.49957885959989 8.691587312474292L 56.498154225015675 8.63822778113515L 57.49764279682801 8.606249744664199L 58.49760477017189 8.5975289725529L 59.49747958611613 8.6133515020748L 60.49662863713069 8.654596790977937M 62.48996663905176 8.815536102371048M 64.47181682745303 9.083003247930742L 65.45656568173139 9.256985126290099M 82.82783183844677 100.52897670652519L 81.89395986560162 100.8865842264885L 80.9575477178048 101.23748633457357L 80.0169882462391 101.57711536814996L 79.07134131770346 101.90231051963767L 78.120127789272 102.2108438619671L 77.16318174550337 102.50110972168119L 76.20054888638992 102.77191957850897L 75.23241842744869 103.02236600884935L 74.2590782311088 103.25173222734944L 73.28088559748988 103.45943194216314M 77.84339707349888 10.73817547662091L 78.67371168207467 11.29547041719156L 79.4993991002105 11.859598317168327L 80.31724760453771 12.435031913658614L 81.12495112920368 13.024620767218588L 81.92080421466899 13.630110541166383L 82.70351098333597 14.252501185603533L 83.47206097093617 14.892290929628658L 84.2256461394822 15.549641212010481M 85.68538024030408 16.916614465857158L 86.39049823443985 17.62570445615879L 87.07854331531745 18.35137240135145L 87.74914769690437 19.09318758277902L 88.40198128806952 19.850688937395905M 96.51009992804715 96.58781873626502L 95.71002890547577 97.18772402782491L 94.9066352004256 97.78317222430027L 94.09772079579776 98.37109865335887L 93.28186194323806 98.94934975167168L 92.45816138065733 99.51637478039986L 91.62607794403428 100.07102525997917L 90.78531131780834 100.61242296982346M 88.2100730877163 102.15072521005582M 37.731086723754636 62.712670701469634L 37.31842093422059 61.8017881919503L 36.915178893491436 60.88669483245708L 36.52757608148697 59.96486835197052L 36.15972449529826 59.03498383734602L 35.81433942752816 58.096522780635915L 35.493200817312164 57.14949057789488L 35.19745892246617 56.194222693145846L 34.92783887485156 55.2312559076728L 34.684778410565265 54.2612447682002L 34.46852092531364 53.28490840194488L 34.2791784498343 52.30299729243478L 34.11677428859418 51.31627297003673L 33.98127187794655 50.325495953393386L 33.872594294800116 49.33141890259629L 33.7906374169542 48.334783026173135L 33.7352787693659 47.33631649186305L 33.70638343528676 46.336734049205894L 33.70380796671471 45.33673736573058M 60.97967120283318 53.6501537002809L 61.28749020685054 52.698708767157726L 61.7255670502379 51.79977123913491L 62.337079698297906 51.008536582877596L 63.17944531974595 50.46963013477881L 64.14738928772148 50.21846390524188L 65.14677571457308 50.25348917932767L 66.10271242589626 50.547062004951286L 66.9627258770303 51.05733336792252L 67.69495549713564 51.738391209401776L 68.28351484246735 52.54684522604261M 52.93659907915489 33.5968823440366L 53.703799540060004 32.955474944027074L 54.481088388830614 32.326331045084345L 55.274708839525566 31.717917879350118L 56.150192739340994 31.234670591552277L 57.07575219936085 30.856068312151116L 58.0327497475017 30.565972305883527L 59.00974421133108 30.35270764015869L 59.999241735213246 30.208157820957588L 60.995925560312024 30.126786125716098L 61.995684479162065 30.10482925481432M 70.93757240233705 86.74706827207679L 69.94838276235846 86.89371020386655L 68.95746871710314 87.02820687637455L 67.96399538644381 87.14227151273776L 66.96786926897131 87.23020761504603L 65.96954515373346 87.28807782270559L 64.96985962804335 87.3131546990201L 63.96990233446853 87.30391289040305L 62.97087042740936 87.25992142898468L 61.97399813050473 87.1808921707059L 60.98054348190299 87.06666493589915L 59.99177682463688 86.91719755658583L 59.00897035087962 86.73255889557244L 58.033388316395005 86.5129235295886L 57.06627773926621 86.25856722122255L 56.10885952088269 85.96986260555573L 55.16232000136383 85.64727472917316L 54.22780300227975 85.29135622948134M 64.62091743098995 54.56366384351921L 64.48680388675095 55.55462981531221L 64.22937750527076 56.52092772906243L 63.78055190605918 57.41454710077075L 63.12565409644207 58.17026454728016L 62.31212224803667 58.751784909460284L 61.39667659576074 59.154226529734686L 60.423645157824716 59.38489906990398L 59.42459874498028 59.42855986447609L 58.43458711491779 59.287574147678235L 57.484147726450345 58.97666424296365L 56.596094932643815 58.51692275537262L 55.78548234919088 57.931339934972506L 55.06099288352493 57.242054062392M 85.78874399644134 38.808641705931954L 86.10211026140841 39.75827404740974L 86.40575460113885 40.711059498048904L 86.69310749393384 41.6688842810872L 86.9597015611956 42.63269318502036L 87.20248521049263 43.602773645412185L 87.41936728484289 44.578971456219776L 87.60891143232531 45.56084365572191L 87.77012929858009 46.547762497167476L 87.90233985495891 47.53898415188553L 88.0050734121981 48.53369306217888L 88.07800601574701 49.531029933722074L 88.12091458041175 50.53010893714393L 88.13364622068877 51.53002788652726"
    stroke-width="1"
    stroke="black"
    fill="none"
    stroke-linecap="round"
    stroke-linejoin="round"
    transform="scale(1,-1) translate(0,-125)"
  />
</svg>
