
                <svg 
                  xmlns="http://www.w3.org/2000/svg" 
                  viewBox="0 0 125 125" 
                  width="125mm" 
                  height="125mm"
                  style="transform: scale(1, -1)">
                    <path 
                    d="M 103.979027 15.747244  L 50.765186 88.606800  M 91.076521 102.184894  L 57.216439 45.387975  M 10.453852 75.028706  L 97.527774 58.966069" 
                    stroke-width="1" 
                    stroke="black" 
                    fill="none" 
                    stroke-linecap="round"
                    stroke-linejoin="round"
                    style="transform: scale(1, 1);"
                    />
<path 
                    d="M 91.076521 102.184894  L 10.453852 75.028706  L 103.979027 15.747244  L 91.076521 102.184894" 
                    stroke-width="1" 
                    stroke="black" 
                    fill="none" 
                    stroke-linecap="round"
                    stroke-linejoin="round"
                    style="transform: scale(1, 1);"
                    />
<path 
                    d="M 91.076521 102.184894  L 55.689111 46.356081  M 10.453852 75.028706  L 93.284529 87.392802  M 103.979027 15.747244  L 76.516123 97.280506  M 91.076521 102.184894  L 80.489901 85.482954  M 10.453852 75.028706  L 80.489901 85.482954  M 103.979027 15.747244  L 80.489901 85.482954" 
                    stroke-width="1" 
                    stroke="black" 
                    fill="none" 
                    stroke-linecap="round"
                    stroke-linejoin="round"
                    style="transform: scale(1, 1);"
                    />
<path 
                    d="M 71.499825 41.490359  L 74.256125 41.625768  L 76.985880 42.030689  L 79.662802 42.701223  L 82.261109 43.630912  L 84.755780 44.810803  L 87.122788 46.229533  L 89.339339 47.873439  L 91.384085 49.726690  L 93.237335 51.771436  L 94.881241 53.987987  L 96.299972 56.354995  L 97.479863 58.849666  L 98.409552 61.447973  L 99.080086 64.124895  L 99.485007 66.854650  L 99.620415 69.610950  L 99.485007 72.367250  L 99.080086 75.097005  L 98.409552 77.773926  L 97.479863 80.372234  L 96.299972 82.866904  L 94.881241 85.233913  L 93.237335 87.450463  L 91.384085 89.495210  L 89.339339 91.348460  L 87.122788 92.992366  L 84.755780 94.411096  L 82.261109 95.590988  L 79.662802 96.520677  L 76.985880 97.191211  L 74.256125 97.596132  L 71.499825 97.731540  L 68.743525 97.596132  L 66.013770 97.191211  L 63.336849 96.520677  L 60.738541 95.590988  L 58.243871 94.411096  L 55.876862 92.992366  L 53.660311 91.348460  L 51.615565 89.495210  L 49.762315 87.450463  L 48.118409 85.233913  L 46.699679 82.866904  L 45.519787 80.372234  L 44.590098 77.773926  L 43.919564 75.097005  L 43.514643 72.367250  L 43.379235 69.610950  L 43.514643 66.854650  L 43.919564 64.124895  L 44.590098 61.447973  L 45.519787 58.849666  L 46.699679 56.354995  L 48.118409 53.987987  L 49.762315 51.771436  L 51.615565 49.726690  L 53.660311 47.873439  L 55.876862 46.229533  L 58.243871 44.810803  L 60.738541 43.630912  L 63.336849 42.701223  L 66.013770 42.030689  L 68.743525 41.625768  L 71.499825 41.490359" 
                    stroke-width="1" 
                    stroke="black" 
                    fill="none" 
                    stroke-linecap="round"
                    stroke-linejoin="round"
                    style="transform: scale(1, 1);"
                    />
<path 
                    d="M 50.765186 87.636800  L 50.860263 87.641471  L 50.954424 87.655439  L 51.046762 87.678568  L 51.136389 87.710637  L 51.222441 87.751337  L 51.304089 87.800275  L 51.380548 87.856980  L 51.451080 87.920907  L 51.515006 87.991439  L 51.571712 88.067897  L 51.620650 88.149546  L 51.661349 88.235597  L 51.693418 88.325224  L 51.716548 88.417563  L 51.730515 88.511724  L 51.735186 88.606800  L 51.730515 88.701877  L 51.716548 88.796038  L 51.693418 88.888377  L 51.661349 88.978003  L 51.620650 89.064055  L 51.571712 89.145703  L 51.515006 89.222162  L 51.451080 89.292694  L 51.380548 89.356621  L 51.304089 89.413326  L 51.222441 89.462264  L 51.136389 89.502964  L 51.046762 89.535032  L 50.954424 89.558162  L 50.860263 89.572130  L 50.765186 89.576800  L 50.670109 89.572130  L 50.575948 89.558162  L 50.483610 89.535032  L 50.393983 89.502964  L 50.307931 89.462264  L 50.226283 89.413326  L 50.149825 89.356621  L 50.079292 89.292694  L 50.015366 89.222162  L 49.958661 89.145703  L 49.909722 89.064055  L 49.869023 88.978003  L 49.836954 88.888377  L 49.813824 88.796038  L 49.799857 88.701877  L 49.795186 88.606800  L 49.799857 88.511724  L 49.813824 88.417563  L 49.836954 88.325224  L 49.869023 88.235597  L 49.909722 88.149546  L 49.958661 88.067897  L 50.015366 87.991439  L 50.079292 87.920907  L 50.149825 87.856980  L 50.226283 87.800275  L 50.307931 87.751337  L 50.393983 87.710637  L 50.483610 87.678568  L 50.575948 87.655439  L 50.670109 87.641471  L 50.765186 87.636800" 
                    stroke-width="1" 
                    stroke="black" 
                    fill="none" 
                    stroke-linecap="round"
                    stroke-linejoin="round"
                    style="transform: scale(1, 1);"
                    />
<path 
                    d="M 57.216439 44.417975  L 57.311516 44.422646  L 57.405677 44.436613  L 57.498016 44.459743  L 57.587642 44.491812  L 57.673694 44.532512  L 57.755343 44.581450  L 57.831801 44.638155  L 57.902333 44.702082  L 57.966260 44.772614  L 58.022965 44.849072  L 58.071903 44.930720  L 58.112603 45.016772  L 58.144672 45.106399  L 58.167801 45.198738  L 58.181769 45.292899  L 58.186439 45.387975  L 58.181769 45.483052  L 58.167801 45.577213  L 58.144672 45.669551  L 58.112603 45.759178  L 58.071903 45.845230  L 58.022965 45.926878  L 57.966260 46.003337  L 57.902333 46.073869  L 57.831801 46.137795  L 57.755343 46.194501  L 57.673694 46.243439  L 57.587642 46.284138  L 57.498016 46.316207  L 57.405677 46.339337  L 57.311516 46.353304  L 57.216439 46.357975  L 57.121363 46.353304  L 57.027202 46.339337  L 56.934863 46.316207  L 56.845236 46.284138  L 56.759185 46.243439  L 56.677536 46.194501  L 56.601078 46.137795  L 56.530546 46.073869  L 56.466619 46.003337  L 56.409914 45.926878  L 56.360976 45.845230  L 56.320276 45.759178  L 56.288207 45.669551  L 56.265078 45.577213  L 56.251110 45.483052  L 56.246439 45.387975  L 56.251110 45.292899  L 56.265078 45.198738  L 56.288207 45.106399  L 56.320276 45.016772  L 56.360976 44.930720  L 56.409914 44.849072  L 56.466619 44.772614  L 56.530546 44.702082  L 56.601078 44.638155  L 56.677536 44.581450  L 56.759185 44.532512  L 56.845236 44.491812  L 56.934863 44.459743  L 57.027202 44.436613  L 57.121363 44.422646  L 57.216439 44.417975" 
                    stroke-width="1" 
                    stroke="black" 
                    fill="none" 
                    stroke-linecap="round"
                    stroke-linejoin="round"
                    style="transform: scale(1, 1);"
                    />
<path 
                    d="M 97.527774 57.996069  L 97.622851 58.000740  L 97.717012 58.014708  L 97.809350 58.037837  L 97.898977 58.069906  L 97.985029 58.110606  L 98.066677 58.159544  L 98.143135 58.216249  L 98.213667 58.280176  L 98.277594 58.350708  L 98.334299 58.427166  L 98.383238 58.508814  L 98.423937 58.594866  L 98.456006 58.684493  L 98.479136 58.776832  L 98.493103 58.870993  L 98.497774 58.966069  L 98.493103 59.061146  L 98.479136 59.155307  L 98.456006 59.247645  L 98.423937 59.337272  L 98.383238 59.423324  L 98.334299 59.504972  L 98.277594 59.581431  L 98.213667 59.651963  L 98.143135 59.715889  L 98.066677 59.772595  L 97.985029 59.821533  L 97.898977 59.862232  L 97.809350 59.894301  L 97.717012 59.917431  L 97.622851 59.931398  L 97.527774 59.936069  L 97.432697 59.931398  L 97.338536 59.917431  L 97.246198 59.894301  L 97.156571 59.862232  L 97.070519 59.821533  L 96.988871 59.772595  L 96.912412 59.715889  L 96.841880 59.651963  L 96.777954 59.581431  L 96.721248 59.504972  L 96.672310 59.423324  L 96.631611 59.337272  L 96.599542 59.247645  L 96.576412 59.155307  L 96.562445 59.061146  L 96.557774 58.966069  L 96.562445 58.870993  L 96.576412 58.776832  L 96.599542 58.684493  L 96.631611 58.594866  L 96.672310 58.508814  L 96.721248 58.427166  L 96.777954 58.350708  L 96.841880 58.280176  L 96.912412 58.216249  L 96.988871 58.159544  L 97.070519 58.110606  L 97.156571 58.069906  L 97.246198 58.037837  L 97.338536 58.014708  L 97.432697 58.000740  L 97.527774 57.996069" 
                    stroke-width="1" 
                    stroke="black" 
                    fill="none" 
                    stroke-linecap="round"
                    stroke-linejoin="round"
                    style="transform: scale(1, 1);"
                    />
<path 
                    d="M 55.689111 45.386081  L 55.784188 45.390752  L 55.878349 45.404719  L 55.970687 45.427849  L 56.060314 45.459918  L 56.146366 45.500617  L 56.228014 45.549555  L 56.304472 45.606261  L 56.375005 45.670187  L 56.438931 45.740719  L 56.495637 45.817178  L 56.544575 45.898826  L 56.585274 45.984878  L 56.617343 46.074505  L 56.640473 46.166843  L 56.654440 46.261004  L 56.659111 46.356081  L 56.654440 46.451158  L 56.640473 46.545319  L 56.617343 46.637657  L 56.585274 46.727284  L 56.544575 46.813336  L 56.495637 46.894984  L 56.438931 46.971442  L 56.375005 47.041975  L 56.304472 47.105901  L 56.228014 47.162607  L 56.146366 47.211545  L 56.060314 47.252244  L 55.970687 47.284313  L 55.878349 47.307443  L 55.784188 47.321410  L 55.689111 47.326081  L 55.594034 47.321410  L 55.499873 47.307443  L 55.407535 47.284313  L 55.317908 47.252244  L 55.231856 47.211545  L 55.150208 47.162607  L 55.073750 47.105901  L 55.003217 47.041975  L 54.939291 46.971442  L 54.882585 46.894984  L 54.833647 46.813336  L 54.792948 46.727284  L 54.760879 46.637657  L 54.737749 46.545319  L 54.723782 46.451158  L 54.719111 46.356081  L 54.723782 46.261004  L 54.737749 46.166843  L 54.760879 46.074505  L 54.792948 45.984878  L 54.833647 45.898826  L 54.882585 45.817178  L 54.939291 45.740719  L 55.003217 45.670187  L 55.073750 45.606261  L 55.150208 45.549555  L 55.231856 45.500617  L 55.317908 45.459918  L 55.407535 45.427849  L 55.499873 45.404719  L 55.594034 45.390752  L 55.689111 45.386081" 
                    stroke-width="1" 
                    stroke="black" 
                    fill="none" 
                    stroke-linecap="round"
                    stroke-linejoin="round"
                    style="transform: scale(1, 1);"
                    />
<path 
                    d="M 93.284529 86.422802  L 93.379606 86.427473  L 93.473767 86.441440  L 93.566105 86.464570  L 93.655732 86.496639  L 93.741784 86.537338  L 93.823432 86.586276  L 93.899891 86.642982  L 93.970423 86.706908  L 94.034349 86.777440  L 94.091055 86.853899  L 94.139993 86.935547  L 94.180692 87.021599  L 94.212761 87.111226  L 94.235891 87.203564  L 94.249858 87.297725  L 94.254529 87.392802  L 94.249858 87.487879  L 94.235891 87.582040  L 94.212761 87.674378  L 94.180692 87.764005  L 94.139993 87.850057  L 94.091055 87.931705  L 94.034349 88.008163  L 93.970423 88.078695  L 93.899891 88.142622  L 93.823432 88.199327  L 93.741784 88.248266  L 93.655732 88.288965  L 93.566105 88.321034  L 93.473767 88.344164  L 93.379606 88.358131  L 93.284529 88.362802  L 93.189452 88.358131  L 93.095292 88.344164  L 93.002953 88.321034  L 92.913326 88.288965  L 92.827274 88.248266  L 92.745626 88.199327  L 92.669168 88.142622  L 92.598636 88.078695  L 92.534709 88.008163  L 92.478004 87.931705  L 92.429065 87.850057  L 92.388366 87.764005  L 92.356297 87.674378  L 92.333167 87.582040  L 92.319200 87.487879  L 92.314529 87.392802  L 92.319200 87.297725  L 92.333167 87.203564  L 92.356297 87.111226  L 92.388366 87.021599  L 92.429065 86.935547  L 92.478004 86.853899  L 92.534709 86.777440  L 92.598636 86.706908  L 92.669168 86.642982  L 92.745626 86.586276  L 92.827274 86.537338  L 92.913326 86.496639  L 93.002953 86.464570  L 93.095292 86.441440  L 93.189452 86.427473  L 93.284529 86.422802" 
                    stroke-width="1" 
                    stroke="black" 
                    fill="none" 
                    stroke-linecap="round"
                    stroke-linejoin="round"
                    style="transform: scale(1, 1);"
                    />
<path 
                    d="M 76.516123 96.310506  L 76.611200 96.315177  L 76.705361 96.329144  L 76.797700 96.352274  L 76.887326 96.384343  L 76.973378 96.425042  L 77.055027 96.473981  L 77.131485 96.530686  L 77.202017 96.594612  L 77.265944 96.665145  L 77.322649 96.741603  L 77.371587 96.823251  L 77.412287 96.909303  L 77.444356 96.998930  L 77.467485 97.091268  L 77.481453 97.185429  L 77.486123 97.280506  L 77.481453 97.375583  L 77.467485 97.469744  L 77.444356 97.562082  L 77.412287 97.651709  L 77.371587 97.737761  L 77.322649 97.819409  L 77.265944 97.895868  L 77.202017 97.966400  L 77.131485 98.030326  L 77.055027 98.087032  L 76.973378 98.135970  L 76.887326 98.176669  L 76.797700 98.208738  L 76.705361 98.231868  L 76.611200 98.245835  L 76.516123 98.250506  L 76.421047 98.245835  L 76.326886 98.231868  L 76.234547 98.208738  L 76.144921 98.176669  L 76.058869 98.135970  L 75.977220 98.087032  L 75.900762 98.030326  L 75.830230 97.966400  L 75.766303 97.895868  L 75.709598 97.819409  L 75.660660 97.737761  L 75.619960 97.651709  L 75.587891 97.562082  L 75.564762 97.469744  L 75.550794 97.375583  L 75.546123 97.280506  L 75.550794 97.185429  L 75.564762 97.091268  L 75.587891 96.998930  L 75.619960 96.909303  L 75.660660 96.823251  L 75.709598 96.741603  L 75.766303 96.665145  L 75.830230 96.594612  L 75.900762 96.530686  L 75.977220 96.473981  L 76.058869 96.425042  L 76.144921 96.384343  L 76.234547 96.352274  L 76.326886 96.329144  L 76.421047 96.315177  L 76.516123 96.310506" 
                    stroke-width="1" 
                    stroke="black" 
                    fill="none" 
                    stroke-linecap="round"
                    stroke-linejoin="round"
                    style="transform: scale(1, 1);"
                    />
<path 
                    d="M 80.489901 84.512954  L 80.584978 84.517625  L 80.679139 84.531592  L 80.771477 84.554722  L 80.861104 84.586791  L 80.947156 84.627490  L 81.028804 84.676428  L 81.105262 84.733134  L 81.175795 84.797060  L 81.239721 84.867592  L 81.296426 84.944051  L 81.345365 85.025699  L 81.386064 85.111751  L 81.418133 85.201378  L 81.441263 85.293716  L 81.455230 85.387877  L 81.459901 85.482954  L 81.455230 85.578031  L 81.441263 85.672192  L 81.418133 85.764530  L 81.386064 85.854157  L 81.345365 85.940209  L 81.296426 86.021857  L 81.239721 86.098315  L 81.175795 86.168847  L 81.105262 86.232774  L 81.028804 86.289479  L 80.947156 86.338418  L 80.861104 86.379117  L 80.771477 86.411186  L 80.679139 86.434316  L 80.584978 86.448283  L 80.489901 86.452954  L 80.394824 86.448283  L 80.300663 86.434316  L 80.208325 86.411186  L 80.118698 86.379117  L 80.032646 86.338418  L 79.950998 86.289479  L 79.874539 86.232774  L 79.804007 86.168847  L 79.740081 86.098315  L 79.683375 86.021857  L 79.634437 85.940209  L 79.593738 85.854157  L 79.561669 85.764530  L 79.538539 85.672192  L 79.524572 85.578031  L 79.519901 85.482954  L 79.524572 85.387877  L 79.538539 85.293716  L 79.561669 85.201378  L 79.593738 85.111751  L 79.634437 85.025699  L 79.683375 84.944051  L 79.740081 84.867592  L 79.804007 84.797060  L 79.874539 84.733134  L 79.950998 84.676428  L 80.032646 84.627490  L 80.118698 84.586791  L 80.208325 84.554722  L 80.300663 84.531592  L 80.394824 84.517625  L 80.489901 84.512954" 
                    stroke-width="1" 
                    stroke="black" 
                    fill="none" 
                    stroke-linecap="round"
                    stroke-linejoin="round"
                    style="transform: scale(1, 1);"
                    />
<path 
                    d="M 80.489901 84.512954  L 80.584978 84.517625  L 80.679139 84.531592  L 80.771477 84.554722  L 80.861104 84.586791  L 80.947156 84.627490  L 81.028804 84.676428  L 81.105262 84.733134  L 81.175795 84.797060  L 81.239721 84.867592  L 81.296426 84.944051  L 81.345365 85.025699  L 81.386064 85.111751  L 81.418133 85.201378  L 81.441263 85.293716  L 81.455230 85.387877  L 81.459901 85.482954  L 81.455230 85.578031  L 81.441263 85.672192  L 81.418133 85.764530  L 81.386064 85.854157  L 81.345365 85.940209  L 81.296426 86.021857  L 81.239721 86.098315  L 81.175795 86.168847  L 81.105262 86.232774  L 81.028804 86.289479  L 80.947156 86.338418  L 80.861104 86.379117  L 80.771477 86.411186  L 80.679139 86.434316  L 80.584978 86.448283  L 80.489901 86.452954  L 80.394824 86.448283  L 80.300663 86.434316  L 80.208325 86.411186  L 80.118698 86.379117  L 80.032646 86.338418  L 79.950998 86.289479  L 79.874539 86.232774  L 79.804007 86.168847  L 79.740081 86.098315  L 79.683375 86.021857  L 79.634437 85.940209  L 79.593738 85.854157  L 79.561669 85.764530  L 79.538539 85.672192  L 79.524572 85.578031  L 79.519901 85.482954  L 79.524572 85.387877  L 79.538539 85.293716  L 79.561669 85.201378  L 79.593738 85.111751  L 79.634437 85.025699  L 79.683375 84.944051  L 79.740081 84.867592  L 79.804007 84.797060  L 79.874539 84.733134  L 79.950998 84.676428  L 80.032646 84.627490  L 80.118698 84.586791  L 80.208325 84.554722  L 80.300663 84.531592  L 80.394824 84.517625  L 80.489901 84.512954" 
                    stroke-width="1" 
                    stroke="black" 
                    fill="none" 
                    stroke-linecap="round"
                    stroke-linejoin="round"
                    style="transform: scale(1, 1);"
                    />
<path 
                    d="M 80.489901 84.512954  L 80.584978 84.517625  L 80.679139 84.531592  L 80.771477 84.554722  L 80.861104 84.586791  L 80.947156 84.627490  L 81.028804 84.676428  L 81.105262 84.733134  L 81.175795 84.797060  L 81.239721 84.867592  L 81.296426 84.944051  L 81.345365 85.025699  L 81.386064 85.111751  L 81.418133 85.201378  L 81.441263 85.293716  L 81.455230 85.387877  L 81.459901 85.482954  L 81.455230 85.578031  L 81.441263 85.672192  L 81.418133 85.764530  L 81.386064 85.854157  L 81.345365 85.940209  L 81.296426 86.021857  L 81.239721 86.098315  L 81.175795 86.168847  L 81.105262 86.232774  L 81.028804 86.289479  L 80.947156 86.338418  L 80.861104 86.379117  L 80.771477 86.411186  L 80.679139 86.434316  L 80.584978 86.448283  L 80.489901 86.452954  L 80.394824 86.448283  L 80.300663 86.434316  L 80.208325 86.411186  L 80.118698 86.379117  L 80.032646 86.338418  L 79.950998 86.289479  L 79.874539 86.232774  L 79.804007 86.168847  L 79.740081 86.098315  L 79.683375 86.021857  L 79.634437 85.940209  L 79.593738 85.854157  L 79.561669 85.764530  L 79.538539 85.672192  L 79.524572 85.578031  L 79.519901 85.482954  L 79.524572 85.387877  L 79.538539 85.293716  L 79.561669 85.201378  L 79.593738 85.111751  L 79.634437 85.025699  L 79.683375 84.944051  L 79.740081 84.867592  L 79.804007 84.797060  L 79.874539 84.733134  L 79.950998 84.676428  L 80.032646 84.627490  L 80.118698 84.586791  L 80.208325 84.554722  L 80.300663 84.531592  L 80.394824 84.517625  L 80.489901 84.512954" 
                    stroke-width="1" 
                    stroke="black" 
                    fill="none" 
                    stroke-linecap="round"
                    stroke-linejoin="round"
                    style="transform: scale(1, 1);"
                    />
<path 
                    d="M 85.783211 92.863924  L 85.878287 92.868595  L 85.972448 92.882562  L 86.064787 92.905692  L 86.154414 92.937761  L 86.240466 92.978461  L 86.322114 93.027399  L 86.398572 93.084104  L 86.469104 93.148031  L 86.533031 93.218563  L 86.589736 93.295021  L 86.638674 93.376669  L 86.679374 93.462721  L 86.711443 93.552348  L 86.734572 93.644687  L 86.748540 93.738848  L 86.753211 93.833924  L 86.748540 93.929001  L 86.734572 94.023162  L 86.711443 94.115500  L 86.679374 94.205127  L 86.638674 94.291179  L 86.589736 94.372827  L 86.533031 94.449286  L 86.469104 94.519818  L 86.398572 94.583744  L 86.322114 94.640450  L 86.240466 94.689388  L 86.154414 94.730087  L 86.064787 94.762156  L 85.972448 94.785286  L 85.878287 94.799253  L 85.783211 94.803924  L 85.688134 94.799253  L 85.593973 94.785286  L 85.501635 94.762156  L 85.412008 94.730087  L 85.325956 94.689388  L 85.244308 94.640450  L 85.167849 94.583744  L 85.097317 94.519818  L 85.033391 94.449286  L 84.976685 94.372827  L 84.927747 94.291179  L 84.887048 94.205127  L 84.854979 94.115500  L 84.831849 94.023162  L 84.817882 93.929001  L 84.813211 93.833924  L 84.817882 93.738848  L 84.831849 93.644687  L 84.854979 93.552348  L 84.887048 93.462721  L 84.927747 93.376669  L 84.976685 93.295021  L 85.033391 93.218563  L 85.097317 93.148031  L 85.167849 93.084104  L 85.244308 93.027399  L 85.325956 92.978461  L 85.412008 92.937761  L 85.501635 92.905692  L 85.593973 92.882562  L 85.688134 92.868595  L 85.783211 92.863924" 
                    stroke-width="1" 
                    stroke="black" 
                    fill="none" 
                    stroke-linecap="round"
                    stroke-linejoin="round"
                    style="transform: scale(1, 1);"
                    />
<path 
                    d="M 45.471876 79.285830  L 45.566953 79.290501  L 45.661114 79.304468  L 45.753452 79.327598  L 45.843079 79.359667  L 45.929131 79.400366  L 46.010779 79.449305  L 46.087238 79.506010  L 46.157770 79.569937  L 46.221696 79.640469  L 46.278402 79.716927  L 46.327340 79.798575  L 46.368039 79.884627  L 46.400108 79.974254  L 46.423238 80.066592  L 46.437205 80.160753  L 46.441876 80.255830  L 46.437205 80.350907  L 46.423238 80.445068  L 46.400108 80.537406  L 46.368039 80.627033  L 46.327340 80.713085  L 46.278402 80.794733  L 46.221696 80.871192  L 46.157770 80.941724  L 46.087238 81.005650  L 46.010779 81.062356  L 45.929131 81.111294  L 45.843079 81.151993  L 45.753452 81.184062  L 45.661114 81.207192  L 45.566953 81.221159  L 45.471876 81.225830  L 45.376800 81.221159  L 45.282639 81.207192  L 45.190300 81.184062  L 45.100673 81.151993  L 45.014621 81.111294  L 44.932973 81.062356  L 44.856515 81.005650  L 44.785983 80.941724  L 44.722056 80.871192  L 44.665351 80.794733  L 44.616413 80.713085  L 44.575713 80.627033  L 44.543644 80.537406  L 44.520515 80.445068  L 44.506547 80.350907  L 44.501876 80.255830  L 44.506547 80.160753  L 44.520515 80.066592  L 44.543644 79.974254  L 44.575713 79.884627  L 44.616413 79.798575  L 44.665351 79.716927  L 44.722056 79.640469  L 44.785983 79.569937  L 44.856515 79.506010  L 44.932973 79.449305  L 45.014621 79.400366  L 45.100673 79.359667  L 45.190300 79.327598  L 45.282639 79.304468  L 45.376800 79.290501  L 45.471876 79.285830" 
                    stroke-width="1" 
                    stroke="black" 
                    fill="none" 
                    stroke-linecap="round"
                    stroke-linejoin="round"
                    style="transform: scale(1, 1);"
                    />
<path 
                    d="M 92.234464 49.645099  L 92.329541 49.649770  L 92.423702 49.663737  L 92.516040 49.686867  L 92.605667 49.718936  L 92.691719 49.759635  L 92.773367 49.808573  L 92.849826 49.865279  L 92.920358 49.929205  L 92.984284 49.999738  L 93.040990 50.076196  L 93.089928 50.157844  L 93.130627 50.243896  L 93.162696 50.333523  L 93.185826 50.425861  L 93.199793 50.520022  L 93.204464 50.615099  L 93.199793 50.710176  L 93.185826 50.804337  L 93.162696 50.896675  L 93.130627 50.986302  L 93.089928 51.072354  L 93.040990 51.154002  L 92.984284 51.230460  L 92.920358 51.300993  L 92.849826 51.364919  L 92.773367 51.421625  L 92.691719 51.470563  L 92.605667 51.511262  L 92.516040 51.543331  L 92.423702 51.566461  L 92.329541 51.580428  L 92.234464 51.585099  L 92.139387 51.580428  L 92.045226 51.566461  L 91.952888 51.543331  L 91.863261 51.511262  L 91.777209 51.470563  L 91.695561 51.421625  L 91.619103 51.364919  L 91.548571 51.300993  L 91.484644 51.230460  L 91.427939 51.154002  L 91.379000 51.072354  L 91.338301 50.986302  L 91.306232 50.896675  L 91.283102 50.804337  L 91.269135 50.710176  L 91.264464 50.615099  L 91.269135 50.520022  L 91.283102 50.425861  L 91.306232 50.333523  L 91.338301 50.243896  L 91.379000 50.157844  L 91.427939 50.076196  L 91.484644 49.999738  L 91.548571 49.929205  L 91.619103 49.865279  L 91.695561 49.808573  L 91.777209 49.759635  L 91.863261 49.718936  L 91.952888 49.686867  L 92.045226 49.663737  L 92.139387 49.649770  L 92.234464 49.645099" 
                    stroke-width="1" 
                    stroke="black" 
                    fill="none" 
                    stroke-linecap="round"
                    stroke-linejoin="round"
                    style="transform: scale(1, 1);"
                    />
<path 
                    d="M 85.783211 92.863924  L 85.878287 92.868595  L 85.972448 92.882562  L 86.064787 92.905692  L 86.154414 92.937761  L 86.240466 92.978461  L 86.322114 93.027399  L 86.398572 93.084104  L 86.469104 93.148031  L 86.533031 93.218563  L 86.589736 93.295021  L 86.638674 93.376669  L 86.679374 93.462721  L 86.711443 93.552348  L 86.734572 93.644687  L 86.748540 93.738848  L 86.753211 93.833924  L 86.748540 93.929001  L 86.734572 94.023162  L 86.711443 94.115500  L 86.679374 94.205127  L 86.638674 94.291179  L 86.589736 94.372827  L 86.533031 94.449286  L 86.469104 94.519818  L 86.398572 94.583744  L 86.322114 94.640450  L 86.240466 94.689388  L 86.154414 94.730087  L 86.064787 94.762156  L 85.972448 94.785286  L 85.878287 94.799253  L 85.783211 94.803924  L 85.688134 94.799253  L 85.593973 94.785286  L 85.501635 94.762156  L 85.412008 94.730087  L 85.325956 94.689388  L 85.244308 94.640450  L 85.167849 94.583744  L 85.097317 94.519818  L 85.033391 94.449286  L 84.976685 94.372827  L 84.927747 94.291179  L 84.887048 94.205127  L 84.854979 94.115500  L 84.831849 94.023162  L 84.817882 93.929001  L 84.813211 93.833924  L 84.817882 93.738848  L 84.831849 93.644687  L 84.854979 93.552348  L 84.887048 93.462721  L 84.927747 93.376669  L 84.976685 93.295021  L 85.033391 93.218563  L 85.097317 93.148031  L 85.167849 93.084104  L 85.244308 93.027399  L 85.325956 92.978461  L 85.412008 92.937761  L 85.501635 92.905692  L 85.593973 92.882562  L 85.688134 92.868595  L 85.783211 92.863924" 
                    stroke-width="1" 
                    stroke="black" 
                    fill="none" 
                    stroke-linecap="round"
                    stroke-linejoin="round"
                    style="transform: scale(1, 1);"
                    />
<path 
                    d="M 45.471876 79.285830  L 45.566953 79.290501  L 45.661114 79.304468  L 45.753452 79.327598  L 45.843079 79.359667  L 45.929131 79.400366  L 46.010779 79.449305  L 46.087238 79.506010  L 46.157770 79.569937  L 46.221696 79.640469  L 46.278402 79.716927  L 46.327340 79.798575  L 46.368039 79.884627  L 46.400108 79.974254  L 46.423238 80.066592  L 46.437205 80.160753  L 46.441876 80.255830  L 46.437205 80.350907  L 46.423238 80.445068  L 46.400108 80.537406  L 46.368039 80.627033  L 46.327340 80.713085  L 46.278402 80.794733  L 46.221696 80.871192  L 46.157770 80.941724  L 46.087238 81.005650  L 46.010779 81.062356  L 45.929131 81.111294  L 45.843079 81.151993  L 45.753452 81.184062  L 45.661114 81.207192  L 45.566953 81.221159  L 45.471876 81.225830  L 45.376800 81.221159  L 45.282639 81.207192  L 45.190300 81.184062  L 45.100673 81.151993  L 45.014621 81.111294  L 44.932973 81.062356  L 44.856515 81.005650  L 44.785983 80.941724  L 44.722056 80.871192  L 44.665351 80.794733  L 44.616413 80.713085  L 44.575713 80.627033  L 44.543644 80.537406  L 44.520515 80.445068  L 44.506547 80.350907  L 44.501876 80.255830  L 44.506547 80.160753  L 44.520515 80.066592  L 44.543644 79.974254  L 44.575713 79.884627  L 44.616413 79.798575  L 44.665351 79.716927  L 44.722056 79.640469  L 44.785983 79.569937  L 44.856515 79.506010  L 44.932973 79.449305  L 45.014621 79.400366  L 45.100673 79.359667  L 45.190300 79.327598  L 45.282639 79.304468  L 45.376800 79.290501  L 45.471876 79.285830" 
                    stroke-width="1" 
                    stroke="black" 
                    fill="none" 
                    stroke-linecap="round"
                    stroke-linejoin="round"
                    style="transform: scale(1, 1);"
                    />
<path 
                    d="M 92.234464 49.645099  L 92.329541 49.649770  L 92.423702 49.663737  L 92.516040 49.686867  L 92.605667 49.718936  L 92.691719 49.759635  L 92.773367 49.808573  L 92.849826 49.865279  L 92.920358 49.929205  L 92.984284 49.999738  L 93.040990 50.076196  L 93.089928 50.157844  L 93.130627 50.243896  L 93.162696 50.333523  L 93.185826 50.425861  L 93.199793 50.520022  L 93.204464 50.615099  L 93.199793 50.710176  L 93.185826 50.804337  L 93.162696 50.896675  L 93.130627 50.986302  L 93.089928 51.072354  L 93.040990 51.154002  L 92.984284 51.230460  L 92.920358 51.300993  L 92.849826 51.364919  L 92.773367 51.421625  L 92.691719 51.470563  L 92.605667 51.511262  L 92.516040 51.543331  L 92.423702 51.566461  L 92.329541 51.580428  L 92.234464 51.585099  L 92.139387 51.580428  L 92.045226 51.566461  L 91.952888 51.543331  L 91.863261 51.511262  L 91.777209 51.470563  L 91.695561 51.421625  L 91.619103 51.364919  L 91.548571 51.300993  L 91.484644 51.230460  L 91.427939 51.154002  L 91.379000 51.072354  L 91.338301 50.986302  L 91.306232 50.896675  L 91.283102 50.804337  L 91.269135 50.710176  L 91.264464 50.615099  L 91.269135 50.520022  L 91.283102 50.425861  L 91.306232 50.333523  L 91.338301 50.243896  L 91.379000 50.157844  L 91.427939 50.076196  L 91.484644 49.999738  L 91.548571 49.929205  L 91.619103 49.865279  L 91.695561 49.808573  L 91.777209 49.759635  L 91.863261 49.718936  L 91.952888 49.686867  L 92.045226 49.663737  L 92.139387 49.649770  L 92.234464 49.645099" 
                    stroke-width="1" 
                    stroke="black" 
                    fill="none" 
                    stroke-linecap="round"
                    stroke-linejoin="round"
                    style="transform: scale(1, 1);"
                    />
                </svg>
            