
                <svg 
                  xmlns="http://www.w3.org/2000/svg" 
                  viewBox="0 0 240 160" 
                  width="240mm" 
                  height="160mm"
                  style="transform: scale(1, -1)">
                    <path 
                    d="M 0 0L 120 0L 120 80L 0 80" 
                    stroke-width="1" 
                    stroke="black" 
                    fill="none" 
                    stroke-linecap="round"
                    stroke-linejoin="round"
                    style="transform: scale(1, 1);"
                    />
<path 
                    d="M 120 80L 120 85.33333333333333L 128 85.33333333333333L 128 80L 136 80L 144 80L 144 85.33333333333333L 136 85.33333333333333L 136 90.66666666666667L 144 90.66666666666667L 144 96L 136 96L 128 96L 128 90.66666666666667L 120 90.66666666666667L 120 96L 120 101.33333333333333L 128 101.33333333333333L 128 106.66666666666666L 120 106.66666666666666L 120 112L 120 117.33333333333333L 128 117.33333333333333L 128 112L 136 112L 136 117.33333333333333L 144 117.33333333333333L 144 112L 144 106.66666666666666L 136 106.66666666666666L 136 101.33333333333333L 144 101.33333333333333L 152 101.33333333333333L 160 101.33333333333333L 160 106.66666666666666L 152 106.66666666666666L 152 112L 152 117.33333333333333L 160 117.33333333333333L 160 112L 168 112L 168 117.33333333333333L 176 117.33333333333333L 176 112L 176 106.66666666666666L 168 106.66666666666666L 168 101.33333333333333L 176 101.33333333333333L 176 96L 176 90.66666666666667L 168 90.66666666666667L 168 96L 160 96L 152 96L 152 90.66666666666667L 160 90.66666666666667L 160 85.33333333333333L 152 85.33333333333333L 152 80L 160 80L 168 80L 168 85.33333333333333L 176 85.33333333333333L 176 80L 184 80L 192 80L 192 85.33333333333333L 184 85.33333333333333L 184 90.66666666666667L 184 96L 192 96L 192 90.66666666666667L 200 90.66666666666667L 200 96L 208 96L 208 90.66666666666667L 208 85.33333333333333L 200 85.33333333333333L 200 80L 208 80L 216 80L 216 85.33333333333333L 224 85.33333333333333L 224 80L 232 80L 240 80L 240 85.33333333333333L 232 85.33333333333333L 232 90.66666666666667L 240 90.66666666666667L 240 96L 232 96L 224 96L 224 90.66666666666667L 216 90.66666666666667L 216 96L 216 101.33333333333333L 216 106.66666666666666L 224 106.66666666666666L 224 101.33333333333333L 232 101.33333333333333L 240 101.33333333333333L 240 106.66666666666666L 232 106.66666666666666L 232 112L 240 112L 240 117.33333333333333L 232 117.33333333333333L 224 117.33333333333333L 224 112L 216 112L 216 117.33333333333333L 208 117.33333333333333L 200 117.33333333333333L 200 112L 208 112L 208 106.66666666666666L 208 101.33333333333333L 200 101.33333333333333L 200 106.66666666666666L 192 106.66666666666666L 192 101.33333333333333L 184 101.33333333333333L 184 106.66666666666666L 184 112L 192 112L 192 117.33333333333333L 184 117.33333333333333L 184 122.66666666666666L 192 122.66666666666666L 192 128L 184 128L 184 133.33333333333331L 184 138.66666666666666L 192 138.66666666666666L 192 133.33333333333331L 200 133.33333333333331L 200 138.66666666666666L 208 138.66666666666666L 208 133.33333333333331L 208 128L 200 128L 200 122.66666666666666L 208 122.66666666666666L 216 122.66666666666666L 216 128L 224 128L 224 122.66666666666666L 232 122.66666666666666L 240 122.66666666666666L 240 128L 232 128L 232 133.33333333333331L 240 133.33333333333331L 240 138.66666666666666L 232 138.66666666666666L 224 138.66666666666666L 224 133.33333333333331L 216 133.33333333333331L 216 138.66666666666666L 216 144L 216 149.33333333333331L 224 149.33333333333331L 224 144L 232 144L 240 144L 240 149.33333333333331L 232 149.33333333333331L 232 154.66666666666666L 240 154.66666666666666L 240 160L 232 160L 224 160L 224 154.66666666666666L 216 154.66666666666666L 216 160L 208 160L 200 160L 200 154.66666666666666L 208 154.66666666666666L 208 149.33333333333331L 208 144L 200 144L 200 149.33333333333331L 192 149.33333333333331L 192 144L 184 144L 184 149.33333333333331L 184 154.66666666666666L 192 154.66666666666666L 192 160L 184 160L 176 160L 176 154.66666666666666L 168 154.66666666666666L 168 160L 160 160L 152 160L 152 154.66666666666666L 160 154.66666666666666L 160 149.33333333333331L 152 149.33333333333331L 152 144L 160 144L 168 144L 168 149.33333333333331L 176 149.33333333333331L 176 144L 176 138.66666666666666L 168 138.66666666666666L 168 133.33333333333331L 176 133.33333333333331L 176 128L 176 122.66666666666666L 168 122.66666666666666L 168 128L 160 128L 160 122.66666666666666L 152 122.66666666666666L 152 128L 152 133.33333333333331L 160 133.33333333333331L 160 138.66666666666666L 152 138.66666666666666L 144 138.66666666666666L 136 138.66666666666666L 136 133.33333333333331L 144 133.33333333333331L 144 128L 144 122.66666666666666L 136 122.66666666666666L 136 128L 128 128L 128 122.66666666666666L 120 122.66666666666666L 120 128L 120 133.33333333333331L 128 133.33333333333331L 128 138.66666666666666L 120 138.66666666666666L 120 144L 120 149.33333333333331L 128 149.33333333333331L 128 144L 136 144L 144 144L 144 149.33333333333331L 136 149.33333333333331L 136 154.66666666666666L 144 154.66666666666666L 144 160L 136 160L 128 160L 128 154.66666666666666L 120 154.66666666666666L 120 160" 
                    stroke-width="1" 
                    stroke="black" 
                    fill="none" 
                    stroke-linecap="round"
                    stroke-linejoin="round"
                    style="transform: scale(1, 1);"
                    />
<path 
                    d="M 0 80L 240 80" 
                    stroke-width="5" 
                    stroke="black" 
                    fill="none" 
                    stroke-linecap="round"
                    stroke-linejoin="round"
                    style="transform: scale(1, 1);"
                    />
<path 
                    d="M 80 0L 80 160" 
                    stroke-width="5" 
                    stroke="black" 
                    fill="none" 
                    stroke-linecap="round"
                    stroke-linejoin="round"
                    style="transform: scale(1, 1);"
                    />
<path 
                    d="M 0 0L 7.741935483870968 0L 7.741935483870968 1.7204301075268817L 0 1.7204301075268817L 0 3.4408602150537635L 0 5.161290322580645L 7.741935483870968 5.161290322580645L 7.741935483870968 3.4408602150537635L 15.483870967741936 3.4408602150537635L 15.483870967741936 5.161290322580645L 23.225806451612904 5.161290322580645L 23.225806451612904 3.4408602150537635L 23.225806451612904 1.7204301075268817L 15.483870967741936 1.7204301075268817L 15.483870967741936 0L 23.225806451612904 0L 30.967741935483872 0L 30.967741935483872 1.7204301075268817L 38.70967741935484 1.7204301075268817L 38.70967741935484 0L 46.45161290322581 0L 54.193548387096776 0L 54.193548387096776 1.7204301075268817L 46.45161290322581 1.7204301075268817L 46.45161290322581 3.4408602150537635L 54.193548387096776 3.4408602150537635L 54.193548387096776 5.161290322580645L 46.45161290322581 5.161290322580645L 38.70967741935484 5.161290322580645L 38.70967741935484 3.4408602150537635L 30.967741935483872 3.4408602150537635L 30.967741935483872 5.161290322580645L 30.967741935483872 6.881720430107527L 30.967741935483872 8.602150537634408L 38.70967741935484 8.602150537634408L 38.70967741935484 6.881720430107527L 46.45161290322581 6.881720430107527L 54.193548387096776 6.881720430107527L 54.193548387096776 8.602150537634408L 46.45161290322581 8.602150537634408L 46.45161290322581 10.32258064516129L 54.193548387096776 10.32258064516129L 54.193548387096776 12.043010752688172L 46.45161290322581 12.043010752688172L 38.70967741935484 12.043010752688172L 38.70967741935484 10.32258064516129L 30.967741935483872 10.32258064516129L 30.967741935483872 12.043010752688172L 23.225806451612904 12.043010752688172L 15.483870967741936 12.043010752688172L 15.483870967741936 10.32258064516129L 23.225806451612904 10.32258064516129L 23.225806451612904 8.602150537634408L 23.225806451612904 6.881720430107527L 15.483870967741936 6.881720430107527L 15.483870967741936 8.602150537634408L 7.741935483870968 8.602150537634408L 7.741935483870968 6.881720430107527L 0 6.881720430107527L 0 8.602150537634408L 0 10.32258064516129L 7.741935483870968 10.32258064516129L 7.741935483870968 12.043010752688172L 0 12.043010752688172L 0 13.763440860215054L 0 15.483870967741936L 7.741935483870968 15.483870967741936L 7.741935483870968 13.763440860215054L 15.483870967741936 13.763440860215054L 23.225806451612904 13.763440860215054L 23.225806451612904 15.483870967741936L 15.483870967741936 15.483870967741936L 15.483870967741936 17.204301075268816L 23.225806451612904 17.204301075268816L 23.225806451612904 18.9247311827957L 15.483870967741936 18.9247311827957L 7.741935483870968 18.9247311827957L 7.741935483870968 17.204301075268816L 0 17.204301075268816L 0 18.9247311827957L 0 20.64516129032258L 7.741935483870968 20.64516129032258L 7.741935483870968 22.365591397849464L 0 22.365591397849464L 0 24.086021505376344L 0 25.806451612903228L 7.741935483870968 25.806451612903228L 7.741935483870968 24.086021505376344L 15.483870967741936 24.086021505376344L 15.483870967741936 25.806451612903228L 23.225806451612904 25.806451612903228L 23.225806451612904 24.086021505376344L 23.225806451612904 22.365591397849464L 15.483870967741936 22.365591397849464L 15.483870967741936 20.64516129032258L 23.225806451612904 20.64516129032258L 30.967741935483872 20.64516129032258L 38.70967741935484 20.64516129032258L 38.70967741935484 22.365591397849464L 30.967741935483872 22.365591397849464L 30.967741935483872 24.086021505376344L 30.967741935483872 25.806451612903228L 38.70967741935484 25.806451612903228L 38.70967741935484 24.086021505376344L 46.45161290322581 24.086021505376344L 46.45161290322581 25.806451612903228L 54.193548387096776 25.806451612903228L 54.193548387096776 24.086021505376344L 54.193548387096776 22.365591397849464L 46.45161290322581 22.365591397849464L 46.45161290322581 20.64516129032258L 54.193548387096776 20.64516129032258L 54.193548387096776 18.9247311827957L 54.193548387096776 17.204301075268816L 46.45161290322581 17.204301075268816L 46.45161290322581 18.9247311827957L 38.70967741935484 18.9247311827957L 30.967741935483872 18.9247311827957L 30.967741935483872 17.204301075268816L 38.70967741935484 17.204301075268816L 38.70967741935484 15.483870967741936L 30.967741935483872 15.483870967741936L 30.967741935483872 13.763440860215054L 38.70967741935484 13.763440860215054L 46.45161290322581 13.763440860215054L 46.45161290322581 15.483870967741936L 54.193548387096776 15.483870967741936L 54.193548387096776 13.763440860215054L 61.935483870967744 13.763440860215054L 61.935483870967744 15.483870967741936L 69.67741935483872 15.483870967741936L 69.67741935483872 13.763440860215054L 77.41935483870968 13.763440860215054L 85.16129032258064 13.763440860215054L 85.16129032258064 15.483870967741936L 77.41935483870968 15.483870967741936L 77.41935483870968 17.204301075268816L 85.16129032258064 17.204301075268816L 85.16129032258064 18.9247311827957L 77.41935483870968 18.9247311827957L 69.67741935483872 18.9247311827957L 69.67741935483872 17.204301075268816L 61.935483870967744 17.204301075268816L 61.935483870967744 18.9247311827957L 61.935483870967744 20.64516129032258L 69.67741935483872 20.64516129032258L 69.67741935483872 22.365591397849464L 61.935483870967744 22.365591397849464L 61.935483870967744 24.086021505376344L 61.935483870967744 25.806451612903228L 69.67741935483872 25.806451612903228L 69.67741935483872 24.086021505376344L 77.41935483870968 24.086021505376344L 77.41935483870968 25.806451612903228L 85.16129032258064 25.806451612903228L 85.16129032258064 24.086021505376344L 85.16129032258064 22.365591397849464L 77.41935483870968 22.365591397849464L 77.41935483870968 20.64516129032258L 85.16129032258064 20.64516129032258L 92.90322580645162 20.64516129032258L 100.64516129032259 20.64516129032258L 100.64516129032259 22.365591397849464L 92.90322580645162 22.365591397849464L 92.90322580645162 24.086021505376344L 92.90322580645162 25.806451612903228L 100.64516129032259 25.806451612903228L 100.64516129032259 24.086021505376344L 108.38709677419355 24.086021505376344L 108.38709677419355 25.806451612903228L 116.12903225806451 25.806451612903228L 116.12903225806451 24.086021505376344L 116.12903225806451 22.365591397849464L 108.38709677419355 22.365591397849464L 108.38709677419355 20.64516129032258L 116.12903225806451 20.64516129032258L 116.12903225806451 18.9247311827957L 116.12903225806451 17.204301075268816L 108.38709677419355 17.204301075268816L 108.38709677419355 18.9247311827957L 100.64516129032259 18.9247311827957L 92.90322580645162 18.9247311827957L 92.90322580645162 17.204301075268816L 100.64516129032259 17.204301075268816L 100.64516129032259 15.483870967741936L 92.90322580645162 15.483870967741936L 92.90322580645162 13.763440860215054L 100.64516129032259 13.763440860215054L 108.38709677419355 13.763440860215054L 108.38709677419355 15.483870967741936L 116.12903225806451 15.483870967741936L 116.12903225806451 13.763440860215054L 116.12903225806451 12.043010752688172L 108.38709677419355 12.043010752688172L 108.38709677419355 10.32258064516129L 116.12903225806451 10.32258064516129L 116.12903225806451 8.602150537634408L 116.12903225806451 6.881720430107527L 108.38709677419355 6.881720430107527L 108.38709677419355 8.602150537634408L 100.64516129032259 8.602150537634408L 100.64516129032259 6.881720430107527L 92.90322580645162 6.881720430107527L 92.90322580645162 8.602150537634408L 92.90322580645162 10.32258064516129L 100.64516129032259 10.32258064516129L 100.64516129032259 12.043010752688172L 92.90322580645162 12.043010752688172L 85.16129032258064 12.043010752688172L 85.16129032258064 10.32258064516129L 77.41935483870968 10.32258064516129L 77.41935483870968 12.043010752688172L 69.67741935483872 12.043010752688172L 61.935483870967744 12.043010752688172L 61.935483870967744 10.32258064516129L 69.67741935483872 10.32258064516129L 69.67741935483872 8.602150537634408L 61.935483870967744 8.602150537634408L 61.935483870967744 6.881720430107527L 69.67741935483872 6.881720430107527L 77.41935483870968 6.881720430107527L 77.41935483870968 8.602150537634408L 85.16129032258064 8.602150537634408L 85.16129032258064 6.881720430107527L 85.16129032258064 5.161290322580645L 85.16129032258064 3.4408602150537635L 77.41935483870968 3.4408602150537635L 77.41935483870968 5.161290322580645L 69.67741935483872 5.161290322580645L 61.935483870967744 5.161290322580645L 61.935483870967744 3.4408602150537635L 69.67741935483872 3.4408602150537635L 69.67741935483872 1.7204301075268817L 61.935483870967744 1.7204301075268817L 61.935483870967744 0L 69.67741935483872 0L 77.41935483870968 0L 77.41935483870968 1.7204301075268817L 85.16129032258064 1.7204301075268817L 85.16129032258064 0L 92.90322580645162 0L 100.64516129032259 0L 100.64516129032259 1.7204301075268817L 92.90322580645162 1.7204301075268817L 92.90322580645162 3.4408602150537635L 92.90322580645162 5.161290322580645L 100.64516129032259 5.161290322580645L 100.64516129032259 3.4408602150537635L 108.38709677419355 3.4408602150537635L 108.38709677419355 5.161290322580645L 116.12903225806451 5.161290322580645L 116.12903225806451 3.4408602150537635L 116.12903225806451 1.7204301075268817L 108.38709677419355 1.7204301075268817L 108.38709677419355 0L 116.12903225806451 0L 123.87096774193549 0L 123.87096774193549 1.7204301075268817L 131.61290322580646 1.7204301075268817L 131.61290322580646 0L 139.35483870967744 0L 147.09677419354838 0L 147.09677419354838 1.7204301075268817L 139.35483870967744 1.7204301075268817L 139.35483870967744 3.4408602150537635L 147.09677419354838 3.4408602150537635L 147.09677419354838 5.161290322580645L 139.35483870967744 5.161290322580645L 131.61290322580646 5.161290322580645L 131.61290322580646 3.4408602150537635L 123.87096774193549 3.4408602150537635L 123.87096774193549 5.161290322580645L 123.87096774193549 6.881720430107527L 131.61290322580646 6.881720430107527L 131.61290322580646 8.602150537634408L 123.87096774193549 8.602150537634408L 123.87096774193549 10.32258064516129L 123.87096774193549 12.043010752688172L 131.61290322580646 12.043010752688172L 131.61290322580646 10.32258064516129L 139.35483870967744 10.32258064516129L 139.35483870967744 12.043010752688172L 147.09677419354838 12.043010752688172L 147.09677419354838 10.32258064516129L 147.09677419354838 8.602150537634408L 139.35483870967744 8.602150537634408L 139.35483870967744 6.881720430107527L 147.09677419354838 6.881720430107527L 154.83870967741936 6.881720430107527L 162.58064516129033 6.881720430107527L 162.58064516129033 8.602150537634408L 154.83870967741936 8.602150537634408L 154.83870967741936 10.32258064516129L 154.83870967741936 12.043010752688172L 162.58064516129033 12.043010752688172L 162.58064516129033 10.32258064516129L 170.32258064516128 10.32258064516129L 170.32258064516128 12.043010752688172L 178.06451612903226 12.043010752688172L 178.06451612903226 10.32258064516129L 178.06451612903226 8.602150537634408L 170.32258064516128 8.602150537634408L 170.32258064516128 6.881720430107527L 178.06451612903226 6.881720430107527L 178.06451612903226 5.161290322580645L 178.06451612903226 3.4408602150537635L 170.32258064516128 3.4408602150537635L 170.32258064516128 5.161290322580645L 162.58064516129033 5.161290322580645L 154.83870967741936 5.161290322580645L 154.83870967741936 3.4408602150537635L 162.58064516129033 3.4408602150537635L 162.58064516129033 1.7204301075268817L 154.83870967741936 1.7204301075268817L 154.83870967741936 0L 162.58064516129033 0L 170.32258064516128 0L 170.32258064516128 1.7204301075268817L 178.06451612903226 1.7204301075268817L 178.06451612903226 0L 185.80645161290323 0L 193.5483870967742 0L 193.5483870967742 1.7204301075268817L 185.80645161290323 1.7204301075268817L 185.80645161290323 3.4408602150537635L 185.80645161290323 5.161290322580645L 193.5483870967742 5.161290322580645L 193.5483870967742 3.4408602150537635L 201.29032258064518 3.4408602150537635L 201.29032258064518 5.161290322580645L 209.03225806451613 5.161290322580645L 209.03225806451613 3.4408602150537635L 209.03225806451613 1.7204301075268817L 201.29032258064518 1.7204301075268817L 201.29032258064518 0L 209.03225806451613 0L 216.7741935483871 0L 216.7741935483871 1.7204301075268817L 224.51612903225808 1.7204301075268817L 224.51612903225808 0L 232.25806451612902 0L 240 0L 240 1.7204301075268817L 232.25806451612902 1.7204301075268817L 232.25806451612902 3.4408602150537635L 240 3.4408602150537635L 240 5.161290322580645L 232.25806451612902 5.161290322580645L 224.51612903225808 5.161290322580645L 224.51612903225808 3.4408602150537635L 216.7741935483871 3.4408602150537635L 216.7741935483871 5.161290322580645L 216.7741935483871 6.881720430107527L 216.7741935483871 8.602150537634408L 224.51612903225808 8.602150537634408L 224.51612903225808 6.881720430107527L 232.25806451612902 6.881720430107527L 240 6.881720430107527L 240 8.602150537634408L 232.25806451612902 8.602150537634408L 232.25806451612902 10.32258064516129L 240 10.32258064516129L 240 12.043010752688172L 232.25806451612902 12.043010752688172L 224.51612903225808 12.043010752688172L 224.51612903225808 10.32258064516129L 216.7741935483871 10.32258064516129L 216.7741935483871 12.043010752688172L 209.03225806451613 12.043010752688172L 201.29032258064518 12.043010752688172L 201.29032258064518 10.32258064516129L 209.03225806451613 10.32258064516129L 209.03225806451613 8.602150537634408L 209.03225806451613 6.881720430107527L 201.29032258064518 6.881720430107527L 201.29032258064518 8.602150537634408L 193.5483870967742 8.602150537634408L 193.5483870967742 6.881720430107527L 185.80645161290323 6.881720430107527L 185.80645161290323 8.602150537634408L 185.80645161290323 10.32258064516129L 193.5483870967742 10.32258064516129L 193.5483870967742 12.043010752688172L 185.80645161290323 12.043010752688172L 185.80645161290323 13.763440860215054L 193.5483870967742 13.763440860215054L 193.5483870967742 15.483870967741936L 185.80645161290323 15.483870967741936L 185.80645161290323 17.204301075268816L 185.80645161290323 18.9247311827957L 193.5483870967742 18.9247311827957L 193.5483870967742 17.204301075268816L 201.29032258064518 17.204301075268816L 201.29032258064518 18.9247311827957L 209.03225806451613 18.9247311827957L 209.03225806451613 17.204301075268816L 209.03225806451613 15.483870967741936L 201.29032258064518 15.483870967741936L 201.29032258064518 13.763440860215054L 209.03225806451613 13.763440860215054L 216.7741935483871 13.763440860215054L 216.7741935483871 15.483870967741936L 224.51612903225808 15.483870967741936L 224.51612903225808 13.763440860215054L 232.25806451612902 13.763440860215054L 240 13.763440860215054L 240 15.483870967741936L 232.25806451612902 15.483870967741936L 232.25806451612902 17.204301075268816L 240 17.204301075268816L 240 18.9247311827957L 232.25806451612902 18.9247311827957L 224.51612903225808 18.9247311827957L 224.51612903225808 17.204301075268816L 216.7741935483871 17.204301075268816L 216.7741935483871 18.9247311827957L 216.7741935483871 20.64516129032258L 216.7741935483871 22.365591397849464L 224.51612903225808 22.365591397849464L 224.51612903225808 20.64516129032258L 232.25806451612902 20.64516129032258L 240 20.64516129032258L 240 22.365591397849464L 232.25806451612902 22.365591397849464L 232.25806451612902 24.086021505376344L 240 24.086021505376344L 240 25.806451612903228L 232.25806451612902 25.806451612903228L 224.51612903225808 25.806451612903228L 224.51612903225808 24.086021505376344L 216.7741935483871 24.086021505376344L 216.7741935483871 25.806451612903228L 209.03225806451613 25.806451612903228L 201.29032258064518 25.806451612903228L 201.29032258064518 24.086021505376344L 209.03225806451613 24.086021505376344L 209.03225806451613 22.365591397849464L 209.03225806451613 20.64516129032258L 201.29032258064518 20.64516129032258L 201.29032258064518 22.365591397849464L 193.5483870967742 22.365591397849464L 193.5483870967742 20.64516129032258L 185.80645161290323 20.64516129032258L 185.80645161290323 22.365591397849464L 185.80645161290323 24.086021505376344L 193.5483870967742 24.086021505376344L 193.5483870967742 25.806451612903228L 185.80645161290323 25.806451612903228L 178.06451612903226 25.806451612903228L 178.06451612903226 24.086021505376344L 170.32258064516128 24.086021505376344L 170.32258064516128 25.806451612903228L 162.58064516129033 25.806451612903228L 154.83870967741936 25.806451612903228L 154.83870967741936 24.086021505376344L 162.58064516129033 24.086021505376344L 162.58064516129033 22.365591397849464L 154.83870967741936 22.365591397849464L 154.83870967741936 20.64516129032258L 162.58064516129033 20.64516129032258L 170.32258064516128 20.64516129032258L 170.32258064516128 22.365591397849464L 178.06451612903226 22.365591397849464L 178.06451612903226 20.64516129032258L 178.06451612903226 18.9247311827957L 170.32258064516128 18.9247311827957L 170.32258064516128 17.204301075268816L 178.06451612903226 17.204301075268816L 178.06451612903226 15.483870967741936L 178.06451612903226 13.763440860215054L 170.32258064516128 13.763440860215054L 170.32258064516128 15.483870967741936L 162.58064516129033 15.483870967741936L 162.58064516129033 13.763440860215054L 154.83870967741936 13.763440860215054L 154.83870967741936 15.483870967741936L 154.83870967741936 17.204301075268816L 162.58064516129033 17.204301075268816L 162.58064516129033 18.9247311827957L 154.83870967741936 18.9247311827957L 147.09677419354838 18.9247311827957L 139.35483870967744 18.9247311827957L 139.35483870967744 17.204301075268816L 147.09677419354838 17.204301075268816L 147.09677419354838 15.483870967741936L 147.09677419354838 13.763440860215054L 139.35483870967744 13.763440860215054L 139.35483870967744 15.483870967741936L 131.61290322580646 15.483870967741936L 131.61290322580646 13.763440860215054L 123.87096774193549 13.763440860215054L 123.87096774193549 15.483870967741936L 123.87096774193549 17.204301075268816L 131.61290322580646 17.204301075268816L 131.61290322580646 18.9247311827957L 123.87096774193549 18.9247311827957L 123.87096774193549 20.64516129032258L 123.87096774193549 22.365591397849464L 131.61290322580646 22.365591397849464L 131.61290322580646 20.64516129032258L 139.35483870967744 20.64516129032258L 147.09677419354838 20.64516129032258L 147.09677419354838 22.365591397849464L 139.35483870967744 22.365591397849464L 139.35483870967744 24.086021505376344L 147.09677419354838 24.086021505376344L 147.09677419354838 25.806451612903228L 139.35483870967744 25.806451612903228L 131.61290322580646 25.806451612903228L 131.61290322580646 24.086021505376344L 123.87096774193549 24.086021505376344L 123.87096774193549 25.806451612903228L 123.87096774193549 27.526881720430108L 123.87096774193549 29.247311827956988L 131.61290322580646 29.247311827956988L 131.61290322580646 27.526881720430108L 139.35483870967744 27.526881720430108L 147.09677419354838 27.526881720430108L 147.09677419354838 29.247311827956988L 139.35483870967744 29.247311827956988L 139.35483870967744 30.967741935483872L 147.09677419354838 30.967741935483872L 147.09677419354838 32.68817204301075L 139.35483870967744 32.68817204301075L 131.61290322580646 32.68817204301075L 131.61290322580646 30.967741935483872L 123.87096774193549 30.967741935483872L 123.87096774193549 32.68817204301075L 123.87096774193549 34.40860215053763L 131.61290322580646 34.40860215053763L 131.61290322580646 36.12903225806452L 123.87096774193549 36.12903225806452L 123.87096774193549 37.8494623655914L 123.87096774193549 39.56989247311828L 131.61290322580646 39.56989247311828L 131.61290322580646 37.8494623655914L 139.35483870967744 37.8494623655914L 139.35483870967744 39.56989247311828L 147.09677419354838 39.56989247311828L 147.09677419354838 37.8494623655914L 147.09677419354838 36.12903225806452L 139.35483870967744 36.12903225806452L 139.35483870967744 34.40860215053763L 147.09677419354838 34.40860215053763L 154.83870967741936 34.40860215053763L 162.58064516129033 34.40860215053763L 162.58064516129033 36.12903225806452L 154.83870967741936 36.12903225806452L 154.83870967741936 37.8494623655914L 154.83870967741936 39.56989247311828L 162.58064516129033 39.56989247311828L 162.58064516129033 37.8494623655914L 170.32258064516128 37.8494623655914L 170.32258064516128 39.56989247311828L 178.06451612903226 39.56989247311828L 178.06451612903226 37.8494623655914L 178.06451612903226 36.12903225806452L 170.32258064516128 36.12903225806452L 170.32258064516128 34.40860215053763L 178.06451612903226 34.40860215053763L 178.06451612903226 32.68817204301075L 178.06451612903226 30.967741935483872L 170.32258064516128 30.967741935483872L 170.32258064516128 32.68817204301075L 162.58064516129033 32.68817204301075L 154.83870967741936 32.68817204301075L 154.83870967741936 30.967741935483872L 162.58064516129033 30.967741935483872L 162.58064516129033 29.247311827956988L 154.83870967741936 29.247311827956988L 154.83870967741936 27.526881720430108L 162.58064516129033 27.526881720430108L 170.32258064516128 27.526881720430108L 170.32258064516128 29.247311827956988L 178.06451612903226 29.247311827956988L 178.06451612903226 27.526881720430108L 185.80645161290323 27.526881720430108L 193.5483870967742 27.526881720430108L 193.5483870967742 29.247311827956988L 185.80645161290323 29.247311827956988L 185.80645161290323 30.967741935483872L 185.80645161290323 32.68817204301075L 193.5483870967742 32.68817204301075L 193.5483870967742 30.967741935483872L 201.29032258064518 30.967741935483872L 201.29032258064518 32.68817204301075L 209.03225806451613 32.68817204301075L 209.03225806451613 30.967741935483872L 209.03225806451613 29.247311827956988L 201.29032258064518 29.247311827956988L 201.29032258064518 27.526881720430108L 209.03225806451613 27.526881720430108L 216.7741935483871 27.526881720430108L 216.7741935483871 29.247311827956988L 224.51612903225808 29.247311827956988L 224.51612903225808 27.526881720430108L 232.25806451612902 27.526881720430108L 240 27.526881720430108L 240 29.247311827956988L 232.25806451612902 29.247311827956988L 232.25806451612902 30.967741935483872L 240 30.967741935483872L 240 32.68817204301075L 232.25806451612902 32.68817204301075L 224.51612903225808 32.68817204301075L 224.51612903225808 30.967741935483872L 216.7741935483871 30.967741935483872L 216.7741935483871 32.68817204301075L 216.7741935483871 34.40860215053763L 216.7741935483871 36.12903225806452L 224.51612903225808 36.12903225806452L 224.51612903225808 34.40860215053763L 232.25806451612902 34.40860215053763L 240 34.40860215053763L 240 36.12903225806452L 232.25806451612902 36.12903225806452L 232.25806451612902 37.8494623655914L 240 37.8494623655914L 240 39.56989247311828L 232.25806451612902 39.56989247311828L 224.51612903225808 39.56989247311828L 224.51612903225808 37.8494623655914L 216.7741935483871 37.8494623655914L 216.7741935483871 39.56989247311828L 209.03225806451613 39.56989247311828L 201.29032258064518 39.56989247311828L 201.29032258064518 37.8494623655914L 209.03225806451613 37.8494623655914L 209.03225806451613 36.12903225806452L 209.03225806451613 34.40860215053763L 201.29032258064518 34.40860215053763L 201.29032258064518 36.12903225806452L 193.5483870967742 36.12903225806452L 193.5483870967742 34.40860215053763L 185.80645161290323 34.40860215053763L 185.80645161290323 36.12903225806452L 185.80645161290323 37.8494623655914L 193.5483870967742 37.8494623655914L 193.5483870967742 39.56989247311828L 185.80645161290323 39.56989247311828L 185.80645161290323 41.29032258064516L 193.5483870967742 41.29032258064516L 193.5483870967742 43.01075268817204L 185.80645161290323 43.01075268817204L 185.80645161290323 44.73118279569893L 185.80645161290323 46.45161290322581L 193.5483870967742 46.45161290322581L 193.5483870967742 44.73118279569893L 201.29032258064518 44.73118279569893L 201.29032258064518 46.45161290322581L 209.03225806451613 46.45161290322581L 209.03225806451613 44.73118279569893L 209.03225806451613 43.01075268817204L 201.29032258064518 43.01075268817204L 201.29032258064518 41.29032258064516L 209.03225806451613 41.29032258064516L 216.7741935483871 41.29032258064516L 216.7741935483871 43.01075268817204L 224.51612903225808 43.01075268817204L 224.51612903225808 41.29032258064516L 232.25806451612902 41.29032258064516L 240 41.29032258064516L 240 43.01075268817204L 232.25806451612902 43.01075268817204L 232.25806451612902 44.73118279569893L 240 44.73118279569893L 240 46.45161290322581L 232.25806451612902 46.45161290322581L 224.51612903225808 46.45161290322581L 224.51612903225808 44.73118279569893L 216.7741935483871 44.73118279569893L 216.7741935483871 46.45161290322581L 216.7741935483871 48.17204301075269L 216.7741935483871 49.89247311827957L 224.51612903225808 49.89247311827957L 224.51612903225808 48.17204301075269L 232.25806451612902 48.17204301075269L 240 48.17204301075269L 240 49.89247311827957L 232.25806451612902 49.89247311827957L 232.25806451612902 51.612903225806456L 240 51.612903225806456L 240 53.333333333333336L 232.25806451612902 53.333333333333336L 224.51612903225808 53.333333333333336L 224.51612903225808 51.612903225806456L 216.7741935483871 51.612903225806456L 216.7741935483871 53.333333333333336L 209.03225806451613 53.333333333333336L 201.29032258064518 53.333333333333336L 201.29032258064518 51.612903225806456L 209.03225806451613 51.612903225806456L 209.03225806451613 49.89247311827957L 209.03225806451613 48.17204301075269L 201.29032258064518 48.17204301075269L 201.29032258064518 49.89247311827957L 193.5483870967742 49.89247311827957L 193.5483870967742 48.17204301075269L 185.80645161290323 48.17204301075269L 185.80645161290323 49.89247311827957L 185.80645161290323 51.612903225806456L 193.5483870967742 51.612903225806456L 193.5483870967742 53.333333333333336L 185.80645161290323 53.333333333333336L 178.06451612903226 53.333333333333336L 178.06451612903226 51.612903225806456L 170.32258064516128 51.612903225806456L 170.32258064516128 53.333333333333336L 162.58064516129033 53.333333333333336L 154.83870967741936 53.333333333333336L 154.83870967741936 51.612903225806456L 162.58064516129033 51.612903225806456L 162.58064516129033 49.89247311827957L 154.83870967741936 49.89247311827957L 154.83870967741936 48.17204301075269L 162.58064516129033 48.17204301075269L 170.32258064516128 48.17204301075269L 170.32258064516128 49.89247311827957L 178.06451612903226 49.89247311827957L 178.06451612903226 48.17204301075269L 178.06451612903226 46.45161290322581L 170.32258064516128 46.45161290322581L 170.32258064516128 44.73118279569893L 178.06451612903226 44.73118279569893L 178.06451612903226 43.01075268817204L 178.06451612903226 41.29032258064516L 170.32258064516128 41.29032258064516L 170.32258064516128 43.01075268817204L 162.58064516129033 43.01075268817204L 162.58064516129033 41.29032258064516L 154.83870967741936 41.29032258064516L 154.83870967741936 43.01075268817204L 154.83870967741936 44.73118279569893L 162.58064516129033 44.73118279569893L 162.58064516129033 46.45161290322581L 154.83870967741936 46.45161290322581L 147.09677419354838 46.45161290322581L 139.35483870967744 46.45161290322581L 139.35483870967744 44.73118279569893L 147.09677419354838 44.73118279569893L 147.09677419354838 43.01075268817204L 147.09677419354838 41.29032258064516L 139.35483870967744 41.29032258064516L 139.35483870967744 43.01075268817204L 131.61290322580646 43.01075268817204L 131.61290322580646 41.29032258064516L 123.87096774193549 41.29032258064516L 123.87096774193549 43.01075268817204L 123.87096774193549 44.73118279569893L 131.61290322580646 44.73118279569893L 131.61290322580646 46.45161290322581L 123.87096774193549 46.45161290322581L 123.87096774193549 48.17204301075269L 123.87096774193549 49.89247311827957L 131.61290322580646 49.89247311827957L 131.61290322580646 48.17204301075269L 139.35483870967744 48.17204301075269L 147.09677419354838 48.17204301075269L 147.09677419354838 49.89247311827957L 139.35483870967744 49.89247311827957L 139.35483870967744 51.612903225806456L 147.09677419354838 51.612903225806456L 147.09677419354838 53.333333333333336L 139.35483870967744 53.333333333333336L 131.61290322580646 53.333333333333336L 131.61290322580646 51.612903225806456L 123.87096774193549 51.612903225806456L 123.87096774193549 53.333333333333336L 116.12903225806451 53.333333333333336L 108.38709677419355 53.333333333333336L 108.38709677419355 51.612903225806456L 116.12903225806451 51.612903225806456L 116.12903225806451 49.89247311827957L 116.12903225806451 48.17204301075269L 108.38709677419355 48.17204301075269L 108.38709677419355 49.89247311827957L 100.64516129032259 49.89247311827957L 100.64516129032259 48.17204301075269L 92.90322580645162 48.17204301075269L 92.90322580645162 49.89247311827957L 92.90322580645162 51.612903225806456L 100.64516129032259 51.612903225806456L 100.64516129032259 53.333333333333336L 92.90322580645162 53.333333333333336L 85.16129032258064 53.333333333333336L 85.16129032258064 51.612903225806456L 77.41935483870968 51.612903225806456L 77.41935483870968 53.333333333333336L 69.67741935483872 53.333333333333336L 61.935483870967744 53.333333333333336L 61.935483870967744 51.612903225806456L 69.67741935483872 51.612903225806456L 69.67741935483872 49.89247311827957L 61.935483870967744 49.89247311827957L 61.935483870967744 48.17204301075269L 69.67741935483872 48.17204301075269L 77.41935483870968 48.17204301075269L 77.41935483870968 49.89247311827957L 85.16129032258064 49.89247311827957L 85.16129032258064 48.17204301075269L 85.16129032258064 46.45161290322581L 85.16129032258064 44.73118279569893L 77.41935483870968 44.73118279569893L 77.41935483870968 46.45161290322581L 69.67741935483872 46.45161290322581L 61.935483870967744 46.45161290322581L 61.935483870967744 44.73118279569893L 69.67741935483872 44.73118279569893L 69.67741935483872 43.01075268817204L 61.935483870967744 43.01075268817204L 61.935483870967744 41.29032258064516L 69.67741935483872 41.29032258064516L 77.41935483870968 41.29032258064516L 77.41935483870968 43.01075268817204L 85.16129032258064 43.01075268817204L 85.16129032258064 41.29032258064516L 92.90322580645162 41.29032258064516L 100.64516129032259 41.29032258064516L 100.64516129032259 43.01075268817204L 92.90322580645162 43.01075268817204L 92.90322580645162 44.73118279569893L 92.90322580645162 46.45161290322581L 100.64516129032259 46.45161290322581L 100.64516129032259 44.73118279569893L 108.38709677419355 44.73118279569893L 108.38709677419355 46.45161290322581L 116.12903225806451 46.45161290322581L 116.12903225806451 44.73118279569893L 116.12903225806451 43.01075268817204L 108.38709677419355 43.01075268817204L 108.38709677419355 41.29032258064516L 116.12903225806451 41.29032258064516L 116.12903225806451 39.56989247311828L 116.12903225806451 37.8494623655914L 108.38709677419355 37.8494623655914L 108.38709677419355 39.56989247311828L 100.64516129032259 39.56989247311828L 92.90322580645162 39.56989247311828L 92.90322580645162 37.8494623655914L 100.64516129032259 37.8494623655914L 100.64516129032259 36.12903225806452L 92.90322580645162 36.12903225806452L 92.90322580645162 34.40860215053763L 100.64516129032259 34.40860215053763L 108.38709677419355 34.40860215053763L 108.38709677419355 36.12903225806452L 116.12903225806451 36.12903225806452L 116.12903225806451 34.40860215053763L 116.12903225806451 32.68817204301075L 108.38709677419355 32.68817204301075L 108.38709677419355 30.967741935483872L 116.12903225806451 30.967741935483872L 116.12903225806451 29.247311827956988L 116.12903225806451 27.526881720430108L 108.38709677419355 27.526881720430108L 108.38709677419355 29.247311827956988L 100.64516129032259 29.247311827956988L 100.64516129032259 27.526881720430108L 92.90322580645162 27.526881720430108L 92.90322580645162 29.247311827956988L 92.90322580645162 30.967741935483872L 100.64516129032259 30.967741935483872L 100.64516129032259 32.68817204301075L 92.90322580645162 32.68817204301075L 85.16129032258064 32.68817204301075L 77.41935483870968 32.68817204301075L 77.41935483870968 30.967741935483872L 85.16129032258064 30.967741935483872L 85.16129032258064 29.247311827956988L 85.16129032258064 27.526881720430108L 77.41935483870968 27.526881720430108L 77.41935483870968 29.247311827956988L 69.67741935483872 29.247311827956988L 69.67741935483872 27.526881720430108L 61.935483870967744 27.526881720430108L 61.935483870967744 29.247311827956988L 61.935483870967744 30.967741935483872L 69.67741935483872 30.967741935483872L 69.67741935483872 32.68817204301075L 61.935483870967744 32.68817204301075L 61.935483870967744 34.40860215053763L 61.935483870967744 36.12903225806452L 69.67741935483872 36.12903225806452L 69.67741935483872 34.40860215053763L 77.41935483870968 34.40860215053763L 85.16129032258064 34.40860215053763L 85.16129032258064 36.12903225806452L 77.41935483870968 36.12903225806452L 77.41935483870968 37.8494623655914L 85.16129032258064 37.8494623655914L 85.16129032258064 39.56989247311828L 77.41935483870968 39.56989247311828L 69.67741935483872 39.56989247311828L 69.67741935483872 37.8494623655914L 61.935483870967744 37.8494623655914L 61.935483870967744 39.56989247311828L 54.193548387096776 39.56989247311828L 54.193548387096776 37.8494623655914L 46.45161290322581 37.8494623655914L 46.45161290322581 39.56989247311828L 38.70967741935484 39.56989247311828L 30.967741935483872 39.56989247311828L 30.967741935483872 37.8494623655914L 38.70967741935484 37.8494623655914L 38.70967741935484 36.12903225806452L 30.967741935483872 36.12903225806452L 30.967741935483872 34.40860215053763L 38.70967741935484 34.40860215053763L 46.45161290322581 34.40860215053763L 46.45161290322581 36.12903225806452L 54.193548387096776 36.12903225806452L 54.193548387096776 34.40860215053763L 54.193548387096776 32.68817204301075L 46.45161290322581 32.68817204301075L 46.45161290322581 30.967741935483872L 54.193548387096776 30.967741935483872L 54.193548387096776 29.247311827956988L 54.193548387096776 27.526881720430108L 46.45161290322581 27.526881720430108L 46.45161290322581 29.247311827956988L 38.70967741935484 29.247311827956988L 38.70967741935484 27.526881720430108L 30.967741935483872 27.526881720430108L 30.967741935483872 29.247311827956988L 30.967741935483872 30.967741935483872L 38.70967741935484 30.967741935483872L 38.70967741935484 32.68817204301075L 30.967741935483872 32.68817204301075L 23.225806451612904 32.68817204301075L 15.483870967741936 32.68817204301075L 15.483870967741936 30.967741935483872L 23.225806451612904 30.967741935483872L 23.225806451612904 29.247311827956988L 23.225806451612904 27.526881720430108L 15.483870967741936 27.526881720430108L 15.483870967741936 29.247311827956988L 7.741935483870968 29.247311827956988L 7.741935483870968 27.526881720430108L 0 27.526881720430108L 0 29.247311827956988L 0 30.967741935483872L 7.741935483870968 30.967741935483872L 7.741935483870968 32.68817204301075L 0 32.68817204301075L 0 34.40860215053763L 0 36.12903225806452L 7.741935483870968 36.12903225806452L 7.741935483870968 34.40860215053763L 15.483870967741936 34.40860215053763L 23.225806451612904 34.40860215053763L 23.225806451612904 36.12903225806452L 15.483870967741936 36.12903225806452L 15.483870967741936 37.8494623655914L 23.225806451612904 37.8494623655914L 23.225806451612904 39.56989247311828L 15.483870967741936 39.56989247311828L 7.741935483870968 39.56989247311828L 7.741935483870968 37.8494623655914L 0 37.8494623655914L 0 39.56989247311828L 0 41.29032258064516L 7.741935483870968 41.29032258064516L 7.741935483870968 43.01075268817204L 0 43.01075268817204L 0 44.73118279569893L 0 46.45161290322581L 7.741935483870968 46.45161290322581L 7.741935483870968 44.73118279569893L 15.483870967741936 44.73118279569893L 15.483870967741936 46.45161290322581L 23.225806451612904 46.45161290322581L 23.225806451612904 44.73118279569893L 23.225806451612904 43.01075268817204L 15.483870967741936 43.01075268817204L 15.483870967741936 41.29032258064516L 23.225806451612904 41.29032258064516L 30.967741935483872 41.29032258064516L 30.967741935483872 43.01075268817204L 38.70967741935484 43.01075268817204L 38.70967741935484 41.29032258064516L 46.45161290322581 41.29032258064516L 54.193548387096776 41.29032258064516L 54.193548387096776 43.01075268817204L 46.45161290322581 43.01075268817204L 46.45161290322581 44.73118279569893L 54.193548387096776 44.73118279569893L 54.193548387096776 46.45161290322581L 46.45161290322581 46.45161290322581L 38.70967741935484 46.45161290322581L 38.70967741935484 44.73118279569893L 30.967741935483872 44.73118279569893L 30.967741935483872 46.45161290322581L 30.967741935483872 48.17204301075269L 30.967741935483872 49.89247311827957L 38.70967741935484 49.89247311827957L 38.70967741935484 48.17204301075269L 46.45161290322581 48.17204301075269L 54.193548387096776 48.17204301075269L 54.193548387096776 49.89247311827957L 46.45161290322581 49.89247311827957L 46.45161290322581 51.612903225806456L 54.193548387096776 51.612903225806456L 54.193548387096776 53.333333333333336L 46.45161290322581 53.333333333333336L 38.70967741935484 53.333333333333336L 38.70967741935484 51.612903225806456L 30.967741935483872 51.612903225806456L 30.967741935483872 53.333333333333336L 23.225806451612904 53.333333333333336L 15.483870967741936 53.333333333333336L 15.483870967741936 51.612903225806456L 23.225806451612904 51.612903225806456L 23.225806451612904 49.89247311827957L 23.225806451612904 48.17204301075269L 15.483870967741936 48.17204301075269L 15.483870967741936 49.89247311827957L 7.741935483870968 49.89247311827957L 7.741935483870968 48.17204301075269L 0 48.17204301075269L 0 49.89247311827957L 0 51.612903225806456L 7.741935483870968 51.612903225806456L 7.741935483870968 53.333333333333336L 0 53.333333333333336" 
                    stroke-width="1" 
                    stroke="black" 
                    fill="none" 
                    stroke-linecap="round"
                    stroke-linejoin="round"
                    style="transform: scale(1, 1);"
                    />
<path 
                    d="M 0 106.66666666666667L 240 106.66666666666667L 240 160L 0 160" 
                    stroke-width="1" 
                    stroke="black" 
                    fill="none" 
                    stroke-linecap="round"
                    stroke-linejoin="round"
                    style="transform: scale(1, 1);"
                    />
<path 
                    d="M 0 53.333333333333336L 240 53.333333333333336" 
                    stroke-width="5" 
                    stroke="black" 
                    fill="none" 
                    stroke-linecap="round"
                    stroke-linejoin="round"
                    style="transform: scale(1, 1);"
                    />
<path 
                    d="M 0 106.66666666666667L 240 106.66666666666667" 
                    stroke-width="5" 
                    stroke="black" 
                    fill="none" 
                    stroke-linecap="round"
                    stroke-linejoin="round"
                    style="transform: scale(1, 1);"
                    />
                </svg>
            