
                <svg 
                  xmlns="http://www.w3.org/2000/svg" 
                  viewBox="0 0 240 160" 
                  width="240mm" 
                  height="160mm"
                  style="transform: scale(1, -1)">
                    <path 
                    d="M 0 0L 120 0L 120 80L 0 80" 
                    stroke-width="1" 
                    stroke="black" 
                    fill="none" 
                    stroke-linecap="round"
                    stroke-linejoin="round"
                    style="transform: scale(1, 1);"
                    />
<path 
                    d="M 120 80L 120 85.33333333333333L 128 85.33333333333333L 128 80L 136 80L 144 80L 144 85.33333333333333L 136 85.33333333333333L 136 90.66666666666667L 144 90.66666666666667L 144 96L 136 96L 128 96L 128 90.66666666666667L 120 90.66666666666667L 120 96L 120 101.33333333333333L 128 101.33333333333333L 128 106.66666666666666L 120 106.66666666666666L 120 112L 120 117.33333333333333L 128 117.33333333333333L 128 112L 136 112L 136 117.33333333333333L 144 117.33333333333333L 144 112L 144 106.66666666666666L 136 106.66666666666666L 136 101.33333333333333L 144 101.33333333333333L 152 101.33333333333333L 160 101.33333333333333L 160 106.66666666666666L 152 106.66666666666666L 152 112L 152 117.33333333333333L 160 117.33333333333333L 160 112L 168 112L 168 117.33333333333333L 176 117.33333333333333L 176 112L 176 106.66666666666666L 168 106.66666666666666L 168 101.33333333333333L 176 101.33333333333333L 176 96L 176 90.66666666666667L 168 90.66666666666667L 168 96L 160 96L 152 96L 152 90.66666666666667L 160 90.66666666666667L 160 85.33333333333333L 152 85.33333333333333L 152 80L 160 80L 168 80L 168 85.33333333333333L 176 85.33333333333333L 176 80L 184 80L 192 80L 192 85.33333333333333L 184 85.33333333333333L 184 90.66666666666667L 184 96L 192 96L 192 90.66666666666667L 200 90.66666666666667L 200 96L 208 96L 208 90.66666666666667L 208 85.33333333333333L 200 85.33333333333333L 200 80L 208 80L 216 80L 216 85.33333333333333L 224 85.33333333333333L 224 80L 232 80L 240 80L 240 85.33333333333333L 232 85.33333333333333L 232 90.66666666666667L 240 90.66666666666667L 240 96L 232 96L 224 96L 224 90.66666666666667L 216 90.66666666666667L 216 96L 216 101.33333333333333L 216 106.66666666666666L 224 106.66666666666666L 224 101.33333333333333L 232 101.33333333333333L 240 101.33333333333333L 240 106.66666666666666L 232 106.66666666666666L 232 112L 240 112L 240 117.33333333333333L 232 117.33333333333333L 224 117.33333333333333L 224 112L 216 112L 216 117.33333333333333L 208 117.33333333333333L 200 117.33333333333333L 200 112L 208 112L 208 106.66666666666666L 208 101.33333333333333L 200 101.33333333333333L 200 106.66666666666666L 192 106.66666666666666L 192 101.33333333333333L 184 101.33333333333333L 184 106.66666666666666L 184 112L 192 112L 192 117.33333333333333L 184 117.33333333333333L 184 122.66666666666666L 192 122.66666666666666L 192 128L 184 128L 184 133.33333333333331L 184 138.66666666666666L 192 138.66666666666666L 192 133.33333333333331L 200 133.33333333333331L 200 138.66666666666666L 208 138.66666666666666L 208 133.33333333333331L 208 128L 200 128L 200 122.66666666666666L 208 122.66666666666666L 216 122.66666666666666L 216 128L 224 128L 224 122.66666666666666L 232 122.66666666666666L 240 122.66666666666666L 240 128L 232 128L 232 133.33333333333331L 240 133.33333333333331L 240 138.66666666666666L 232 138.66666666666666L 224 138.66666666666666L 224 133.33333333333331L 216 133.33333333333331L 216 138.66666666666666L 216 144L 216 149.33333333333331L 224 149.33333333333331L 224 144L 232 144L 240 144L 240 149.33333333333331L 232 149.33333333333331L 232 154.66666666666666L 240 154.66666666666666L 240 160L 232 160L 224 160L 224 154.66666666666666L 216 154.66666666666666L 216 160L 208 160L 200 160L 200 154.66666666666666L 208 154.66666666666666L 208 149.33333333333331L 208 144L 200 144L 200 149.33333333333331L 192 149.33333333333331L 192 144L 184 144L 184 149.33333333333331L 184 154.66666666666666L 192 154.66666666666666L 192 160L 184 160L 176 160L 176 154.66666666666666L 168 154.66666666666666L 168 160L 160 160L 152 160L 152 154.66666666666666L 160 154.66666666666666L 160 149.33333333333331L 152 149.33333333333331L 152 144L 160 144L 168 144L 168 149.33333333333331L 176 149.33333333333331L 176 144L 176 138.66666666666666L 168 138.66666666666666L 168 133.33333333333331L 176 133.33333333333331L 176 128L 176 122.66666666666666L 168 122.66666666666666L 168 128L 160 128L 160 122.66666666666666L 152 122.66666666666666L 152 128L 152 133.33333333333331L 160 133.33333333333331L 160 138.66666666666666L 152 138.66666666666666L 144 138.66666666666666L 136 138.66666666666666L 136 133.33333333333331L 144 133.33333333333331L 144 128L 144 122.66666666666666L 136 122.66666666666666L 136 128L 128 128L 128 122.66666666666666L 120 122.66666666666666L 120 128L 120 133.33333333333331L 128 133.33333333333331L 128 138.66666666666666L 120 138.66666666666666L 120 144L 120 149.33333333333331L 128 149.33333333333331L 128 144L 136 144L 144 144L 144 149.33333333333331L 136 149.33333333333331L 136 154.66666666666666L 144 154.66666666666666L 144 160L 136 160L 128 160L 128 154.66666666666666L 120 154.66666666666666L 120 160" 
                    stroke-width="1" 
                    stroke="black" 
                    fill="none" 
                    stroke-linecap="round"
                    stroke-linejoin="round"
                    style="transform: scale(1, 1);"
                    />
<path 
                    d="M 0 80L 240 80" 
                    stroke-width="5" 
                    stroke="black" 
                    fill="none" 
                    stroke-linecap="round"
                    stroke-linejoin="round"
                    style="transform: scale(1, 1);"
                    />
<path 
                    d="M 80 0L 80 160" 
                    stroke-width="5" 
                    stroke="black" 
                    fill="none" 
                    stroke-linecap="round"
                    stroke-linejoin="round"
                    style="transform: scale(1, 1);"
                    />
<path 
                    d="M 0 80L 240 80" 
                    stroke-width="5" 
                    stroke="black" 
                    fill="none" 
                    stroke-linecap="round"
                    stroke-linejoin="round"
                    style="transform: scale(1, 1);"
                    />
<path 
                    d="M 80 0L 80 160" 
                    stroke-width="5" 
                    stroke="black" 
                    fill="none" 
                    stroke-linecap="round"
                    stroke-linejoin="round"
                    style="transform: scale(1, 1);"
                    />
                </svg>
            