
                <svg 
                  xmlns="http://www.w3.org/2000/svg" 
                  viewBox="0 0 240 160" 
                  width="240mm" 
                  height="160mm"
                  style="transform: scale(1, -1)">
                    <path 
                    d="M 0 0L 17.142857142857142 0L 17.142857142857142 11.428571428571429L 0 11.428571428571429L 0 22.857142857142858L 0 34.285714285714285L 17.142857142857142 34.285714285714285L 17.142857142857142 22.857142857142858L 34.285714285714285 22.857142857142858L 34.285714285714285 34.285714285714285L 51.42857142857143 34.285714285714285L 51.42857142857143 22.857142857142858L 51.42857142857143 11.428571428571429L 34.285714285714285 11.428571428571429L 34.285714285714285 0L 51.42857142857143 0L 68.57142857142857 0L 68.57142857142857 11.428571428571429L 85.71428571428571 11.428571428571429L 85.71428571428571 0L 102.85714285714286 0L 120 0L 120 11.428571428571429L 102.85714285714286 11.428571428571429L 102.85714285714286 22.857142857142858L 120 22.857142857142858L 120 34.285714285714285L 102.85714285714286 34.285714285714285L 85.71428571428571 34.285714285714285L 85.71428571428571 22.857142857142858L 68.57142857142857 22.857142857142858L 68.57142857142857 34.285714285714285L 68.57142857142857 45.714285714285715L 68.57142857142857 57.142857142857146L 85.71428571428571 57.142857142857146L 85.71428571428571 45.714285714285715L 102.85714285714286 45.714285714285715L 120 45.714285714285715L 120 57.142857142857146L 102.85714285714286 57.142857142857146L 102.85714285714286 68.57142857142857L 120 68.57142857142857L 120 80L 102.85714285714286 80L 85.71428571428571 80L 85.71428571428571 68.57142857142857L 68.57142857142857 68.57142857142857L 68.57142857142857 80L 51.42857142857143 80L 34.285714285714285 80L 34.285714285714285 68.57142857142857L 51.42857142857143 68.57142857142857L 51.42857142857143 57.142857142857146L 51.42857142857143 45.714285714285715L 34.285714285714285 45.714285714285715L 34.285714285714285 57.142857142857146L 17.142857142857142 57.142857142857146L 17.142857142857142 45.714285714285715L 0 45.714285714285715L 0 57.142857142857146L 0 68.57142857142857L 17.142857142857142 68.57142857142857L 17.142857142857142 80L 0 80" 
                    stroke-width="1" 
                    stroke="black" 
                    fill="none" 
                    stroke-linecap="round"
                    stroke-linejoin="round"
                    style="transform: scale(1, 1);"
                    />
<path 
                    d="M 120 80L 137.14285714285714 80L 137.14285714285714 91.42857142857143L 120 91.42857142857143L 120 102.85714285714286L 120 114.28571428571428L 137.14285714285714 114.28571428571428L 137.14285714285714 102.85714285714286L 154.28571428571428 102.85714285714286L 154.28571428571428 114.28571428571428L 171.42857142857144 114.28571428571428L 171.42857142857144 102.85714285714286L 171.42857142857144 91.42857142857143L 154.28571428571428 91.42857142857143L 154.28571428571428 80L 171.42857142857144 80L 188.57142857142856 80L 188.57142857142856 91.42857142857143L 205.71428571428572 91.42857142857143L 205.71428571428572 80L 222.85714285714286 80L 240 80L 240 91.42857142857143L 222.85714285714286 91.42857142857143L 222.85714285714286 102.85714285714286L 240 102.85714285714286L 240 114.28571428571428L 222.85714285714286 114.28571428571428L 205.71428571428572 114.28571428571428L 205.71428571428572 102.85714285714286L 188.57142857142856 102.85714285714286L 188.57142857142856 114.28571428571428L 188.57142857142856 125.71428571428572L 188.57142857142856 137.14285714285714L 205.71428571428572 137.14285714285714L 205.71428571428572 125.71428571428572L 222.85714285714286 125.71428571428572L 240 125.71428571428572L 240 137.14285714285714L 222.85714285714286 137.14285714285714L 222.85714285714286 148.57142857142856L 240 148.57142857142856L 240 160L 222.85714285714286 160L 205.71428571428572 160L 205.71428571428572 148.57142857142856L 188.57142857142856 148.57142857142856L 188.57142857142856 160L 171.42857142857144 160L 154.28571428571428 160L 154.28571428571428 148.57142857142856L 171.42857142857144 148.57142857142856L 171.42857142857144 137.14285714285714L 171.42857142857144 125.71428571428572L 154.28571428571428 125.71428571428572L 154.28571428571428 137.14285714285714L 137.14285714285714 137.14285714285714L 137.14285714285714 125.71428571428572L 120 125.71428571428572L 120 137.14285714285714L 120 148.57142857142856L 137.14285714285714 148.57142857142856L 137.14285714285714 160L 120 160" 
                    stroke-width="1" 
                    stroke="black" 
                    fill="none" 
                    stroke-linecap="round"
                    stroke-linejoin="round"
                    style="transform: scale(1, 1);"
                    />
<path 
                    d="M 0 80L 240 80" 
                    stroke-width="5" 
                    stroke="black" 
                    fill="none" 
                    stroke-linecap="round"
                    stroke-linejoin="round"
                    style="transform: scale(1, 1);"
                    />
<path 
                    d="M 120 0L 120 160" 
                    stroke-width="5" 
                    stroke="black" 
                    fill="none" 
                    stroke-linecap="round"
                    stroke-linejoin="round"
                    style="transform: scale(1, 1);"
                    />
<path 
                    d="M 0 80L 240 80" 
                    stroke-width="5" 
                    stroke="black" 
                    fill="none" 
                    stroke-linecap="round"
                    stroke-linejoin="round"
                    style="transform: scale(1, 1);"
                    />
<path 
                    d="M 120 0L 120 160" 
                    stroke-width="5" 
                    stroke="black" 
                    fill="none" 
                    stroke-linecap="round"
                    stroke-linejoin="round"
                    style="transform: scale(1, 1);"
                    />
                </svg>
            