
                <svg 
                  xmlns="http://www.w3.org/2000/svg" 
                  viewBox="0 0 125 125" 
                  width="125mm" 
                  height="125mm"
                  style="transform: scale(1, -1)">
                    <path 
                    d="M 14.085973 22.699227  L 92.822632 21.508202  M 83.819777 35.785749  L 57.955730 14.964941  M 101.825486 7.230655  L 48.952875 29.242488" 
                    stroke-width="1" 
                    stroke="black" 
                    fill="none" 
                    stroke-linecap="round"
                    stroke-linejoin="round"
                    style="transform: scale(1, 1);"
                    />
<path 
                    d="M 83.819777 35.785749  L 101.825486 7.230655  L 14.085973 22.699227  L 83.819777 35.785749" 
                    stroke-width="1" 
                    stroke="black" 
                    fill="none" 
                    stroke-linecap="round"
                    stroke-linejoin="round"
                    style="transform: scale(1, 1);"
                    />
<path 
                    d="M 83.819777 35.785749  L 79.480026 11.170184  M 101.825486 7.230655  L 96.036480 38.078383  M 14.085973 22.699227  L 69.885410 57.884138  M 83.819777 35.785749  L 89.945834 70.533445  M 101.825486 7.230655  L 89.945834 70.533445  M 14.085973 22.699227  L 89.945834 70.533445" 
                    stroke-width="1" 
                    stroke="black" 
                    fill="none" 
                    stroke-linecap="round"
                    stroke-linejoin="round"
                    style="transform: scale(1, 1);"
                    />
<path 
                    d="M 72.419268 10.106020  L 74.767391 10.221376  L 77.092900 10.566332  L 79.373400 11.137568  L 81.586927 11.929581  L 83.712165 12.934743  L 85.728647 14.143376  L 87.616951 15.543838  L 89.358894 17.122643  L 90.937699 18.864585  L 92.338161 20.752890  L 93.546793 22.769371  L 94.551956 24.894609  L 95.343969 27.108137  L 95.915204 29.388637  L 96.260161 31.714146  L 96.375517 34.062269  L 96.260161 36.410392  L 95.915204 38.735901  L 95.343969 41.016401  L 94.551956 43.229929  L 93.546793 45.355167  L 92.338161 47.371648  L 90.937699 49.259953  L 89.358894 51.001895  L 87.616951 52.580700  L 85.728647 53.981162  L 83.712165 55.189795  L 81.586927 56.194957  L 79.373400 56.986970  L 77.092900 57.558206  L 74.767391 57.903162  L 72.419268 58.018518  L 70.071145 57.903162  L 67.745635 57.558206  L 65.465136 56.986970  L 63.251608 56.194957  L 61.126370 55.189795  L 59.109889 53.981162  L 57.221584 52.580700  L 55.479642 51.001895  L 53.900837 49.259953  L 52.500375 47.371648  L 51.291742 45.355167  L 50.286580 43.229929  L 49.494567 41.016401  L 48.923331 38.735901  L 48.578375 36.410392  L 48.463019 34.062269  L 48.578375 31.714146  L 48.923331 29.388637  L 49.494567 27.108137  L 50.286580 24.894609  L 51.291742 22.769371  L 52.500375 20.752890  L 53.900837 18.864585  L 55.479642 17.122643  L 57.221584 15.543838  L 59.109889 14.143376  L 61.126370 12.934743  L 63.251608 11.929581  L 65.465136 11.137568  L 67.745635 10.566332  L 70.071145 10.221376  L 72.419268 10.106020" 
                    stroke-width="1" 
                    stroke="black" 
                    fill="none" 
                    stroke-linecap="round"
                    stroke-linejoin="round"
                    style="transform: scale(1, 1);"
                    />
<path 
                    d="M 92.822632 20.538202  L 92.917709 20.542873  L 93.011870 20.556840  L 93.104208 20.579970  L 93.193835 20.612039  L 93.279887 20.652738  L 93.361535 20.701676  L 93.437993 20.758382  L 93.508525 20.822308  L 93.572452 20.892840  L 93.629157 20.969299  L 93.678096 21.050947  L 93.718795 21.136999  L 93.750864 21.226626  L 93.773994 21.318964  L 93.787961 21.413125  L 93.792632 21.508202  L 93.787961 21.603278  L 93.773994 21.697439  L 93.750864 21.789778  L 93.718795 21.879405  L 93.678096 21.965457  L 93.629157 22.047105  L 93.572452 22.123563  L 93.508525 22.194095  L 93.437993 22.258022  L 93.361535 22.314727  L 93.279887 22.363665  L 93.193835 22.404365  L 93.104208 22.436434  L 93.011870 22.459563  L 92.917709 22.473531  L 92.822632 22.478202  L 92.727555 22.473531  L 92.633394 22.459563  L 92.541056 22.436434  L 92.451429 22.404365  L 92.365377 22.363665  L 92.283729 22.314727  L 92.207270 22.258022  L 92.136738 22.194095  L 92.072812 22.123563  L 92.016106 22.047105  L 91.967168 21.965457  L 91.926469 21.879405  L 91.894400 21.789778  L 91.871270 21.697439  L 91.857303 21.603278  L 91.852632 21.508202  L 91.857303 21.413125  L 91.871270 21.318964  L 91.894400 21.226626  L 91.926469 21.136999  L 91.967168 21.050947  L 92.016106 20.969299  L 92.072812 20.892840  L 92.136738 20.822308  L 92.207270 20.758382  L 92.283729 20.701676  L 92.365377 20.652738  L 92.451429 20.612039  L 92.541056 20.579970  L 92.633394 20.556840  L 92.727555 20.542873  L 92.822632 20.538202" 
                    stroke-width="1" 
                    stroke="black" 
                    fill="none" 
                    stroke-linecap="round"
                    stroke-linejoin="round"
                    style="transform: scale(1, 1);"
                    />
<path 
                    d="M 57.955730 13.994941  L 58.050806 13.999612  L 58.144967 14.013579  L 58.237306 14.036709  L 58.326933 14.068778  L 58.412984 14.109477  L 58.494633 14.158416  L 58.571091 14.215121  L 58.641623 14.279047  L 58.705550 14.349580  L 58.762255 14.426038  L 58.811193 14.507686  L 58.851893 14.593738  L 58.883962 14.683365  L 58.907091 14.775703  L 58.921059 14.869864  L 58.925730 14.964941  L 58.921059 15.060018  L 58.907091 15.154179  L 58.883962 15.246517  L 58.851893 15.336144  L 58.811193 15.422196  L 58.762255 15.503844  L 58.705550 15.580303  L 58.641623 15.650835  L 58.571091 15.714761  L 58.494633 15.771467  L 58.412984 15.820405  L 58.326933 15.861104  L 58.237306 15.893173  L 58.144967 15.916303  L 58.050806 15.930270  L 57.955730 15.934941  L 57.860653 15.930270  L 57.766492 15.916303  L 57.674153 15.893173  L 57.584527 15.861104  L 57.498475 15.820405  L 57.416826 15.771467  L 57.340368 15.714761  L 57.269836 15.650835  L 57.205909 15.580303  L 57.149204 15.503844  L 57.100266 15.422196  L 57.059566 15.336144  L 57.027497 15.246517  L 57.004368 15.154179  L 56.990400 15.060018  L 56.985730 14.964941  L 56.990400 14.869864  L 57.004368 14.775703  L 57.027497 14.683365  L 57.059566 14.593738  L 57.100266 14.507686  L 57.149204 14.426038  L 57.205909 14.349580  L 57.269836 14.279047  L 57.340368 14.215121  L 57.416826 14.158416  L 57.498475 14.109477  L 57.584527 14.068778  L 57.674153 14.036709  L 57.766492 14.013579  L 57.860653 13.999612  L 57.955730 13.994941" 
                    stroke-width="1" 
                    stroke="black" 
                    fill="none" 
                    stroke-linecap="round"
                    stroke-linejoin="round"
                    style="transform: scale(1, 1);"
                    />
<path 
                    d="M 48.952875 28.272488  L 49.047952 28.277159  L 49.142113 28.291126  L 49.234451 28.314256  L 49.324078 28.346325  L 49.410130 28.387024  L 49.491778 28.435962  L 49.568237 28.492668  L 49.638769 28.556594  L 49.702695 28.627126  L 49.759401 28.703585  L 49.808339 28.785233  L 49.849038 28.871285  L 49.881107 28.960912  L 49.904237 29.053250  L 49.918204 29.147411  L 49.922875 29.242488  L 49.918204 29.337565  L 49.904237 29.431726  L 49.881107 29.524064  L 49.849038 29.613691  L 49.808339 29.699743  L 49.759401 29.781391  L 49.702695 29.857849  L 49.638769 29.928382  L 49.568237 29.992308  L 49.491778 30.049013  L 49.410130 30.097952  L 49.324078 30.138651  L 49.234451 30.170720  L 49.142113 30.193850  L 49.047952 30.207817  L 48.952875 30.212488  L 48.857799 30.207817  L 48.763638 30.193850  L 48.671299 30.170720  L 48.581672 30.138651  L 48.495620 30.097952  L 48.413972 30.049013  L 48.337514 29.992308  L 48.266982 29.928382  L 48.203055 29.857849  L 48.146350 29.781391  L 48.097412 29.699743  L 48.056712 29.613691  L 48.024643 29.524064  L 48.001513 29.431726  L 47.987546 29.337565  L 47.982875 29.242488  L 47.987546 29.147411  L 48.001513 29.053250  L 48.024643 28.960912  L 48.056712 28.871285  L 48.097412 28.785233  L 48.146350 28.703585  L 48.203055 28.627126  L 48.266982 28.556594  L 48.337514 28.492668  L 48.413972 28.435962  L 48.495620 28.387024  L 48.581672 28.346325  L 48.671299 28.314256  L 48.763638 28.291126  L 48.857799 28.277159  L 48.952875 28.272488" 
                    stroke-width="1" 
                    stroke="black" 
                    fill="none" 
                    stroke-linecap="round"
                    stroke-linejoin="round"
                    style="transform: scale(1, 1);"
                    />
<path 
                    d="M 79.480026 10.200184  L 79.575103 10.204855  L 79.669264 10.218822  L 79.761603 10.241952  L 79.851229 10.274021  L 79.937281 10.314720  L 80.018930 10.363658  L 80.095388 10.420364  L 80.165920 10.484290  L 80.229847 10.554822  L 80.286552 10.631281  L 80.335490 10.712929  L 80.376190 10.798981  L 80.408259 10.888608  L 80.431388 10.980946  L 80.445356 11.075107  L 80.450026 11.170184  L 80.445356 11.265261  L 80.431388 11.359422  L 80.408259 11.451760  L 80.376190 11.541387  L 80.335490 11.627439  L 80.286552 11.709087  L 80.229847 11.785545  L 80.165920 11.856078  L 80.095388 11.920004  L 80.018930 11.976709  L 79.937281 12.025648  L 79.851229 12.066347  L 79.761603 12.098416  L 79.669264 12.121546  L 79.575103 12.135513  L 79.480026 12.140184  L 79.384950 12.135513  L 79.290789 12.121546  L 79.198450 12.098416  L 79.108824 12.066347  L 79.022772 12.025648  L 78.941123 11.976709  L 78.864665 11.920004  L 78.794133 11.856078  L 78.730206 11.785545  L 78.673501 11.709087  L 78.624563 11.627439  L 78.583863 11.541387  L 78.551794 11.451760  L 78.528665 11.359422  L 78.514697 11.265261  L 78.510026 11.170184  L 78.514697 11.075107  L 78.528665 10.980946  L 78.551794 10.888608  L 78.583863 10.798981  L 78.624563 10.712929  L 78.673501 10.631281  L 78.730206 10.554822  L 78.794133 10.484290  L 78.864665 10.420364  L 78.941123 10.363658  L 79.022772 10.314720  L 79.108824 10.274021  L 79.198450 10.241952  L 79.290789 10.218822  L 79.384950 10.204855  L 79.480026 10.200184" 
                    stroke-width="1" 
                    stroke="black" 
                    fill="none" 
                    stroke-linecap="round"
                    stroke-linejoin="round"
                    style="transform: scale(1, 1);"
                    />
<path 
                    d="M 96.036480 37.108383  L 96.131556 37.113054  L 96.225717 37.127022  L 96.318056 37.150151  L 96.407683 37.182220  L 96.493735 37.222920  L 96.575383 37.271858  L 96.651841 37.328563  L 96.722373 37.392490  L 96.786300 37.463022  L 96.843005 37.539480  L 96.891943 37.621128  L 96.932643 37.707180  L 96.964712 37.796807  L 96.987841 37.889146  L 97.001809 37.983307  L 97.006480 38.078383  L 97.001809 38.173460  L 96.987841 38.267621  L 96.964712 38.359959  L 96.932643 38.449586  L 96.891943 38.535638  L 96.843005 38.617286  L 96.786300 38.693745  L 96.722373 38.764277  L 96.651841 38.828203  L 96.575383 38.884909  L 96.493735 38.933847  L 96.407683 38.974546  L 96.318056 39.006615  L 96.225717 39.029745  L 96.131556 39.043712  L 96.036480 39.048383  L 95.941403 39.043712  L 95.847242 39.029745  L 95.754904 39.006615  L 95.665277 38.974546  L 95.579225 38.933847  L 95.497577 38.884909  L 95.421118 38.828203  L 95.350586 38.764277  L 95.286660 38.693745  L 95.229954 38.617286  L 95.181016 38.535638  L 95.140317 38.449586  L 95.108248 38.359959  L 95.085118 38.267621  L 95.071151 38.173460  L 95.066480 38.078383  L 95.071151 37.983307  L 95.085118 37.889146  L 95.108248 37.796807  L 95.140317 37.707180  L 95.181016 37.621128  L 95.229954 37.539480  L 95.286660 37.463022  L 95.350586 37.392490  L 95.421118 37.328563  L 95.497577 37.271858  L 95.579225 37.222920  L 95.665277 37.182220  L 95.754904 37.150151  L 95.847242 37.127022  L 95.941403 37.113054  L 96.036480 37.108383" 
                    stroke-width="1" 
                    stroke="black" 
                    fill="none" 
                    stroke-linecap="round"
                    stroke-linejoin="round"
                    style="transform: scale(1, 1);"
                    />
<path 
                    d="M 69.885410 56.914138  L 69.980487 56.918809  L 70.074648 56.932776  L 70.166986 56.955906  L 70.256613 56.987975  L 70.342665 57.028674  L 70.424313 57.077612  L 70.500772 57.134318  L 70.571304 57.198244  L 70.635230 57.268776  L 70.691936 57.345235  L 70.740874 57.426883  L 70.781573 57.512935  L 70.813642 57.602562  L 70.836772 57.694900  L 70.850739 57.789061  L 70.855410 57.884138  L 70.850739 57.979215  L 70.836772 58.073376  L 70.813642 58.165714  L 70.781573 58.255341  L 70.740874 58.341393  L 70.691936 58.423041  L 70.635230 58.499499  L 70.571304 58.570032  L 70.500772 58.633958  L 70.424313 58.690663  L 70.342665 58.739602  L 70.256613 58.780301  L 70.166986 58.812370  L 70.074648 58.835500  L 69.980487 58.849467  L 69.885410 58.854138  L 69.790334 58.849467  L 69.696173 58.835500  L 69.603834 58.812370  L 69.514207 58.780301  L 69.428155 58.739602  L 69.346507 58.690663  L 69.270049 58.633958  L 69.199517 58.570032  L 69.135590 58.499499  L 69.078885 58.423041  L 69.029947 58.341393  L 68.989247 58.255341  L 68.957178 58.165714  L 68.934048 58.073376  L 68.920081 57.979215  L 68.915410 57.884138  L 68.920081 57.789061  L 68.934048 57.694900  L 68.957178 57.602562  L 68.989247 57.512935  L 69.029947 57.426883  L 69.078885 57.345235  L 69.135590 57.268776  L 69.199517 57.198244  L 69.270049 57.134318  L 69.346507 57.077612  L 69.428155 57.028674  L 69.514207 56.987975  L 69.603834 56.955906  L 69.696173 56.932776  L 69.790334 56.918809  L 69.885410 56.914138" 
                    stroke-width="1" 
                    stroke="black" 
                    fill="none" 
                    stroke-linecap="round"
                    stroke-linejoin="round"
                    style="transform: scale(1, 1);"
                    />
<path 
                    d="M 89.945834 69.563445  L 90.040911 69.568116  L 90.135072 69.582084  L 90.227411 69.605213  L 90.317037 69.637282  L 90.403089 69.677982  L 90.484738 69.726920  L 90.561196 69.783625  L 90.631728 69.847552  L 90.695655 69.918084  L 90.752360 69.994542  L 90.801298 70.076191  L 90.841998 70.162242  L 90.874067 70.251869  L 90.897196 70.344208  L 90.911164 70.438369  L 90.915834 70.533445  L 90.911164 70.628522  L 90.897196 70.722683  L 90.874067 70.815021  L 90.841998 70.904648  L 90.801298 70.990700  L 90.752360 71.072348  L 90.695655 71.148807  L 90.631728 71.219339  L 90.561196 71.283265  L 90.484738 71.339971  L 90.403089 71.388909  L 90.317037 71.429608  L 90.227411 71.461677  L 90.135072 71.484807  L 90.040911 71.498775  L 89.945834 71.503445  L 89.850758 71.498775  L 89.756597 71.484807  L 89.664258 71.461677  L 89.574632 71.429608  L 89.488580 71.388909  L 89.406931 71.339971  L 89.330473 71.283265  L 89.259941 71.219339  L 89.196014 71.148807  L 89.139309 71.072348  L 89.090371 70.990700  L 89.049671 70.904648  L 89.017602 70.815021  L 88.994473 70.722683  L 88.980505 70.628522  L 88.975834 70.533445  L 88.980505 70.438369  L 88.994473 70.344208  L 89.017602 70.251869  L 89.049671 70.162242  L 89.090371 70.076191  L 89.139309 69.994542  L 89.196014 69.918084  L 89.259941 69.847552  L 89.330473 69.783625  L 89.406931 69.726920  L 89.488580 69.677982  L 89.574632 69.637282  L 89.664258 69.605213  L 89.756597 69.582084  L 89.850758 69.568116  L 89.945834 69.563445" 
                    stroke-width="1" 
                    stroke="black" 
                    fill="none" 
                    stroke-linecap="round"
                    stroke-linejoin="round"
                    style="transform: scale(1, 1);"
                    />
<path 
                    d="M 89.945834 69.563445  L 90.040911 69.568116  L 90.135072 69.582084  L 90.227411 69.605213  L 90.317037 69.637282  L 90.403089 69.677982  L 90.484738 69.726920  L 90.561196 69.783625  L 90.631728 69.847552  L 90.695655 69.918084  L 90.752360 69.994542  L 90.801298 70.076191  L 90.841998 70.162242  L 90.874067 70.251869  L 90.897196 70.344208  L 90.911164 70.438369  L 90.915834 70.533445  L 90.911164 70.628522  L 90.897196 70.722683  L 90.874067 70.815021  L 90.841998 70.904648  L 90.801298 70.990700  L 90.752360 71.072348  L 90.695655 71.148807  L 90.631728 71.219339  L 90.561196 71.283265  L 90.484738 71.339971  L 90.403089 71.388909  L 90.317037 71.429608  L 90.227411 71.461677  L 90.135072 71.484807  L 90.040911 71.498775  L 89.945834 71.503445  L 89.850758 71.498775  L 89.756597 71.484807  L 89.664258 71.461677  L 89.574632 71.429608  L 89.488580 71.388909  L 89.406931 71.339971  L 89.330473 71.283265  L 89.259941 71.219339  L 89.196014 71.148807  L 89.139309 71.072348  L 89.090371 70.990700  L 89.049671 70.904648  L 89.017602 70.815021  L 88.994473 70.722683  L 88.980505 70.628522  L 88.975834 70.533445  L 88.980505 70.438369  L 88.994473 70.344208  L 89.017602 70.251869  L 89.049671 70.162242  L 89.090371 70.076191  L 89.139309 69.994542  L 89.196014 69.918084  L 89.259941 69.847552  L 89.330473 69.783625  L 89.406931 69.726920  L 89.488580 69.677982  L 89.574632 69.637282  L 89.664258 69.605213  L 89.756597 69.582084  L 89.850758 69.568116  L 89.945834 69.563445" 
                    stroke-width="1" 
                    stroke="black" 
                    fill="none" 
                    stroke-linecap="round"
                    stroke-linejoin="round"
                    style="transform: scale(1, 1);"
                    />
<path 
                    d="M 89.945834 69.563445  L 90.040911 69.568116  L 90.135072 69.582084  L 90.227411 69.605213  L 90.317037 69.637282  L 90.403089 69.677982  L 90.484738 69.726920  L 90.561196 69.783625  L 90.631728 69.847552  L 90.695655 69.918084  L 90.752360 69.994542  L 90.801298 70.076191  L 90.841998 70.162242  L 90.874067 70.251869  L 90.897196 70.344208  L 90.911164 70.438369  L 90.915834 70.533445  L 90.911164 70.628522  L 90.897196 70.722683  L 90.874067 70.815021  L 90.841998 70.904648  L 90.801298 70.990700  L 90.752360 71.072348  L 90.695655 71.148807  L 90.631728 71.219339  L 90.561196 71.283265  L 90.484738 71.339971  L 90.403089 71.388909  L 90.317037 71.429608  L 90.227411 71.461677  L 90.135072 71.484807  L 90.040911 71.498775  L 89.945834 71.503445  L 89.850758 71.498775  L 89.756597 71.484807  L 89.664258 71.461677  L 89.574632 71.429608  L 89.488580 71.388909  L 89.406931 71.339971  L 89.330473 71.283265  L 89.259941 71.219339  L 89.196014 71.148807  L 89.139309 71.072348  L 89.090371 70.990700  L 89.049671 70.904648  L 89.017602 70.815021  L 88.994473 70.722683  L 88.980505 70.628522  L 88.975834 70.533445  L 88.980505 70.438369  L 88.994473 70.344208  L 89.017602 70.251869  L 89.049671 70.162242  L 89.090371 70.076191  L 89.139309 69.994542  L 89.196014 69.918084  L 89.259941 69.847552  L 89.330473 69.783625  L 89.406931 69.726920  L 89.488580 69.677982  L 89.574632 69.637282  L 89.664258 69.605213  L 89.756597 69.582084  L 89.850758 69.568116  L 89.945834 69.563445" 
                    stroke-width="1" 
                    stroke="black" 
                    fill="none" 
                    stroke-linecap="round"
                    stroke-linejoin="round"
                    style="transform: scale(1, 1);"
                    />
<path 
                    d="M 86.882806 52.189597  L 86.977883 52.194268  L 87.072044 52.208235  L 87.164382 52.231365  L 87.254009 52.263434  L 87.340061 52.304133  L 87.421709 52.353071  L 87.498167 52.409777  L 87.568700 52.473703  L 87.632626 52.544236  L 87.689331 52.620694  L 87.738270 52.702342  L 87.778969 52.788394  L 87.811038 52.878021  L 87.834168 52.970359  L 87.848135 53.064520  L 87.852806 53.159597  L 87.848135 53.254674  L 87.834168 53.348835  L 87.811038 53.441173  L 87.778969 53.530800  L 87.738270 53.616852  L 87.689331 53.698500  L 87.632626 53.774958  L 87.568700 53.845491  L 87.498167 53.909417  L 87.421709 53.966123  L 87.340061 54.015061  L 87.254009 54.055760  L 87.164382 54.087829  L 87.072044 54.110959  L 86.977883 54.124926  L 86.882806 54.129597  L 86.787729 54.124926  L 86.693568 54.110959  L 86.601230 54.087829  L 86.511603 54.055760  L 86.425551 54.015061  L 86.343903 53.966123  L 86.267444 53.909417  L 86.196912 53.845491  L 86.132986 53.774958  L 86.076280 53.698500  L 86.027342 53.616852  L 85.986643 53.530800  L 85.954574 53.441173  L 85.931444 53.348835  L 85.917477 53.254674  L 85.912806 53.159597  L 85.917477 53.064520  L 85.931444 52.970359  L 85.954574 52.878021  L 85.986643 52.788394  L 86.027342 52.702342  L 86.076280 52.620694  L 86.132986 52.544236  L 86.196912 52.473703  L 86.267444 52.409777  L 86.343903 52.353071  L 86.425551 52.304133  L 86.511603 52.263434  L 86.601230 52.231365  L 86.693568 52.208235  L 86.787729 52.194268  L 86.882806 52.189597" 
                    stroke-width="1" 
                    stroke="black" 
                    fill="none" 
                    stroke-linecap="round"
                    stroke-linejoin="round"
                    style="transform: scale(1, 1);"
                    />
<path 
                    d="M 95.885660 37.912050  L 95.980737 37.916721  L 96.074898 37.930688  L 96.167237 37.953818  L 96.256863 37.985887  L 96.342915 38.026586  L 96.424564 38.075525  L 96.501022 38.132230  L 96.571554 38.196157  L 96.635481 38.266689  L 96.692186 38.343147  L 96.741124 38.424795  L 96.781824 38.510847  L 96.813893 38.600474  L 96.837022 38.692813  L 96.850990 38.786973  L 96.855660 38.882050  L 96.850990 38.977127  L 96.837022 39.071288  L 96.813893 39.163626  L 96.781824 39.253253  L 96.741124 39.339305  L 96.692186 39.420953  L 96.635481 39.497412  L 96.571554 39.567944  L 96.501022 39.631870  L 96.424564 39.688576  L 96.342915 39.737514  L 96.256863 39.778213  L 96.167237 39.810282  L 96.074898 39.833412  L 95.980737 39.847379  L 95.885660 39.852050  L 95.790584 39.847379  L 95.696423 39.833412  L 95.604084 39.810282  L 95.514457 39.778213  L 95.428406 39.737514  L 95.346757 39.688576  L 95.270299 39.631870  L 95.199767 39.567944  L 95.135840 39.497412  L 95.079135 39.420953  L 95.030197 39.339305  L 94.989497 39.253253  L 94.957428 39.163626  L 94.934299 39.071288  L 94.920331 38.977127  L 94.915660 38.882050  L 94.920331 38.786973  L 94.934299 38.692813  L 94.957428 38.600474  L 94.989497 38.510847  L 95.030197 38.424795  L 95.079135 38.343147  L 95.135840 38.266689  L 95.199767 38.196157  L 95.270299 38.132230  L 95.346757 38.075525  L 95.428406 38.026586  L 95.514457 37.985887  L 95.604084 37.953818  L 95.696423 37.930688  L 95.790584 37.916721  L 95.885660 37.912050" 
                    stroke-width="1" 
                    stroke="black" 
                    fill="none" 
                    stroke-linecap="round"
                    stroke-linejoin="round"
                    style="transform: scale(1, 1);"
                    />
<path 
                    d="M 52.015904 45.646336  L 52.110980 45.651007  L 52.205141 45.664975  L 52.297480 45.688104  L 52.387107 45.720173  L 52.473158 45.760873  L 52.554807 45.809811  L 52.631265 45.866516  L 52.701797 45.930443  L 52.765724 46.000975  L 52.822429 46.077433  L 52.871367 46.159081  L 52.912067 46.245133  L 52.944136 46.334760  L 52.967265 46.427099  L 52.981233 46.521260  L 52.985904 46.616336  L 52.981233 46.711413  L 52.967265 46.805574  L 52.944136 46.897912  L 52.912067 46.987539  L 52.871367 47.073591  L 52.822429 47.155239  L 52.765724 47.231698  L 52.701797 47.302230  L 52.631265 47.366156  L 52.554807 47.422862  L 52.473158 47.471800  L 52.387107 47.512499  L 52.297480 47.544568  L 52.205141 47.567698  L 52.110980 47.581665  L 52.015904 47.586336  L 51.920827 47.581665  L 51.826666 47.567698  L 51.734327 47.544568  L 51.644701 47.512499  L 51.558649 47.471800  L 51.477001 47.422862  L 51.400542 47.366156  L 51.330010 47.302230  L 51.266083 47.231698  L 51.209378 47.155239  L 51.160440 47.073591  L 51.119740 46.987539  L 51.087672 46.897912  L 51.064542 46.805574  L 51.050574 46.711413  L 51.045904 46.616336  L 51.050574 46.521260  L 51.064542 46.427099  L 51.087672 46.334760  L 51.119740 46.245133  L 51.160440 46.159081  L 51.209378 46.077433  L 51.266083 46.000975  L 51.330010 45.930443  L 51.400542 45.866516  L 51.477001 45.809811  L 51.558649 45.760873  L 51.644701 45.720173  L 51.734327 45.688104  L 51.826666 45.664975  L 51.920827 45.651007  L 52.015904 45.646336" 
                    stroke-width="1" 
                    stroke="black" 
                    fill="none" 
                    stroke-linecap="round"
                    stroke-linejoin="round"
                    style="transform: scale(1, 1);"
                    />
<path 
                    d="M 86.882806 52.189597  L 86.977883 52.194268  L 87.072044 52.208235  L 87.164382 52.231365  L 87.254009 52.263434  L 87.340061 52.304133  L 87.421709 52.353071  L 87.498167 52.409777  L 87.568700 52.473703  L 87.632626 52.544236  L 87.689331 52.620694  L 87.738270 52.702342  L 87.778969 52.788394  L 87.811038 52.878021  L 87.834168 52.970359  L 87.848135 53.064520  L 87.852806 53.159597  L 87.848135 53.254674  L 87.834168 53.348835  L 87.811038 53.441173  L 87.778969 53.530800  L 87.738270 53.616852  L 87.689331 53.698500  L 87.632626 53.774958  L 87.568700 53.845491  L 87.498167 53.909417  L 87.421709 53.966123  L 87.340061 54.015061  L 87.254009 54.055760  L 87.164382 54.087829  L 87.072044 54.110959  L 86.977883 54.124926  L 86.882806 54.129597  L 86.787729 54.124926  L 86.693568 54.110959  L 86.601230 54.087829  L 86.511603 54.055760  L 86.425551 54.015061  L 86.343903 53.966123  L 86.267444 53.909417  L 86.196912 53.845491  L 86.132986 53.774958  L 86.076280 53.698500  L 86.027342 53.616852  L 85.986643 53.530800  L 85.954574 53.441173  L 85.931444 53.348835  L 85.917477 53.254674  L 85.912806 53.159597  L 85.917477 53.064520  L 85.931444 52.970359  L 85.954574 52.878021  L 85.986643 52.788394  L 86.027342 52.702342  L 86.076280 52.620694  L 86.132986 52.544236  L 86.196912 52.473703  L 86.267444 52.409777  L 86.343903 52.353071  L 86.425551 52.304133  L 86.511603 52.263434  L 86.601230 52.231365  L 86.693568 52.208235  L 86.787729 52.194268  L 86.882806 52.189597" 
                    stroke-width="1" 
                    stroke="black" 
                    fill="none" 
                    stroke-linecap="round"
                    stroke-linejoin="round"
                    style="transform: scale(1, 1);"
                    />
<path 
                    d="M 95.885660 37.912050  L 95.980737 37.916721  L 96.074898 37.930688  L 96.167237 37.953818  L 96.256863 37.985887  L 96.342915 38.026586  L 96.424564 38.075525  L 96.501022 38.132230  L 96.571554 38.196157  L 96.635481 38.266689  L 96.692186 38.343147  L 96.741124 38.424795  L 96.781824 38.510847  L 96.813893 38.600474  L 96.837022 38.692813  L 96.850990 38.786973  L 96.855660 38.882050  L 96.850990 38.977127  L 96.837022 39.071288  L 96.813893 39.163626  L 96.781824 39.253253  L 96.741124 39.339305  L 96.692186 39.420953  L 96.635481 39.497412  L 96.571554 39.567944  L 96.501022 39.631870  L 96.424564 39.688576  L 96.342915 39.737514  L 96.256863 39.778213  L 96.167237 39.810282  L 96.074898 39.833412  L 95.980737 39.847379  L 95.885660 39.852050  L 95.790584 39.847379  L 95.696423 39.833412  L 95.604084 39.810282  L 95.514457 39.778213  L 95.428406 39.737514  L 95.346757 39.688576  L 95.270299 39.631870  L 95.199767 39.567944  L 95.135840 39.497412  L 95.079135 39.420953  L 95.030197 39.339305  L 94.989497 39.253253  L 94.957428 39.163626  L 94.934299 39.071288  L 94.920331 38.977127  L 94.915660 38.882050  L 94.920331 38.786973  L 94.934299 38.692813  L 94.957428 38.600474  L 94.989497 38.510847  L 95.030197 38.424795  L 95.079135 38.343147  L 95.135840 38.266689  L 95.199767 38.196157  L 95.270299 38.132230  L 95.346757 38.075525  L 95.428406 38.026586  L 95.514457 37.985887  L 95.604084 37.953818  L 95.696423 37.930688  L 95.790584 37.916721  L 95.885660 37.912050" 
                    stroke-width="1" 
                    stroke="black" 
                    fill="none" 
                    stroke-linecap="round"
                    stroke-linejoin="round"
                    style="transform: scale(1, 1);"
                    />
<path 
                    d="M 52.015904 45.646336  L 52.110980 45.651007  L 52.205141 45.664975  L 52.297480 45.688104  L 52.387107 45.720173  L 52.473158 45.760873  L 52.554807 45.809811  L 52.631265 45.866516  L 52.701797 45.930443  L 52.765724 46.000975  L 52.822429 46.077433  L 52.871367 46.159081  L 52.912067 46.245133  L 52.944136 46.334760  L 52.967265 46.427099  L 52.981233 46.521260  L 52.985904 46.616336  L 52.981233 46.711413  L 52.967265 46.805574  L 52.944136 46.897912  L 52.912067 46.987539  L 52.871367 47.073591  L 52.822429 47.155239  L 52.765724 47.231698  L 52.701797 47.302230  L 52.631265 47.366156  L 52.554807 47.422862  L 52.473158 47.471800  L 52.387107 47.512499  L 52.297480 47.544568  L 52.205141 47.567698  L 52.110980 47.581665  L 52.015904 47.586336  L 51.920827 47.581665  L 51.826666 47.567698  L 51.734327 47.544568  L 51.644701 47.512499  L 51.558649 47.471800  L 51.477001 47.422862  L 51.400542 47.366156  L 51.330010 47.302230  L 51.266083 47.231698  L 51.209378 47.155239  L 51.160440 47.073591  L 51.119740 46.987539  L 51.087672 46.897912  L 51.064542 46.805574  L 51.050574 46.711413  L 51.045904 46.616336  L 51.050574 46.521260  L 51.064542 46.427099  L 51.087672 46.334760  L 51.119740 46.245133  L 51.160440 46.159081  L 51.209378 46.077433  L 51.266083 46.000975  L 51.330010 45.930443  L 51.400542 45.866516  L 51.477001 45.809811  L 51.558649 45.760873  L 51.644701 45.720173  L 51.734327 45.688104  L 51.826666 45.664975  L 51.920827 45.651007  L 52.015904 45.646336" 
                    stroke-width="1" 
                    stroke="black" 
                    fill="none" 
                    stroke-linecap="round"
                    stroke-linejoin="round"
                    style="transform: scale(1, 1);"
                    />
                </svg>
            