
                <svg 
                  xmlns="http://www.w3.org/2000/svg" 
                  viewBox="0 0 125 125" 
                  width="125mm" 
                  height="125mm"
                  style="transform: scale(1, -1)">
                    <path 
                    d="M 23.010582 26.935496  L 97.172507 87.203299  L 8.682266 84.262293  L 23.010582 26.935496" 
                    stroke-width="1" 
                    stroke="black" 
                    fill="beige" 
                    stroke-linecap="round"
                    stroke-linejoin="round"
                    style="transform: scale(1, 1);"
                    />
<path 
                    d="M 8.682266 84.262293  L 60.091545 57.069397  M 23.010582 26.935496  L 52.927386 85.732796  M 97.172507 87.203299  L 15.846424 55.598894" 
                    stroke-width="1" 
                    stroke="red" 
                    fill="none" 
                    stroke-linecap="round"
                    stroke-linejoin="round"
                    style="transform: scale(1, 1);"
                    />
<path 
                    d="M 23.010582 26.935496  L 21.091597 84.674721  M 97.172507 87.203299  L 13.193404 66.213478  M 8.682266 84.262293  L 42.438638 42.723736  M 23.010582 26.935496  L 21.635040 68.323389  M 97.172507 87.203299  L 21.635040 68.323389  M 8.682266 84.262293  L 21.635040 68.323389" 
                    stroke-width="1" 
                    stroke="green" 
                    fill="none" 
                    stroke-linecap="round"
                    stroke-linejoin="round"
                    style="transform: scale(1, 1);"
                    />
<path 
                    d="M 37.625099 42.244949  L 40.020262 42.362616  L 42.392359 42.714484  L 44.718544 43.297163  L 46.976416 44.105042  L 49.144229 45.130341  L 51.201107 46.363187  L 53.127241 47.791705  L 54.904080 49.402138  L 56.514513 51.178977  L 57.943031 53.105111  L 59.175876 55.161988  L 60.201176 57.329802  L 61.009055 59.587673  L 61.591734 61.913859  L 61.943602 64.285956  L 62.061268 66.681119  L 61.943602 69.076283  L 61.591734 71.448379  L 61.009055 73.774565  L 60.201176 76.032436  L 59.175876 78.200250  L 57.943031 80.257128  L 56.514513 82.183261  L 54.904080 83.960100  L 53.127241 85.570534  L 51.201107 86.999052  L 49.144229 88.231897  L 46.976416 89.257196  L 44.718544 90.065076  L 42.392359 90.647755  L 40.020262 90.999622  L 37.625099 91.117289  L 35.229935 90.999622  L 32.857839 90.647755  L 30.531653 90.065076  L 28.273781 89.257196  L 26.105968 88.231897  L 24.049090 86.999052  L 22.122957 85.570534  L 20.346117 83.960100  L 18.735684 82.183261  L 17.307166 80.257128  L 16.074321 78.200250  L 15.049022 76.032436  L 14.241142 73.774565  L 13.658463 71.448379  L 13.306596 69.076283  L 13.188929 66.681119  L 13.306596 64.285956  L 13.658463 61.913859  L 14.241142 59.587673  L 15.049022 57.329802  L 16.074321 55.161988  L 17.307166 53.105111  L 18.735684 51.178977  L 20.346117 49.402138  L 22.122957 47.791705  L 24.049090 46.363187  L 26.105968 45.130341  L 28.273781 44.105042  L 30.531653 43.297163  L 32.857839 42.714484  L 35.229935 42.362616  L 37.625099 42.244949" 
                    stroke-width="1" 
                    stroke="black" 
                    fill="none" 
                    stroke-linecap="round"
                    stroke-linejoin="round"
                    style="transform: scale(1, 1);"
                    />
<path 
                    d="M 60.091545 56.099397  L 60.186621 56.104068  L 60.280782 56.118036  L 60.373121 56.141165  L 60.462748 56.173234  L 60.548799 56.213934  L 60.630448 56.262872  L 60.706906 56.319577  L 60.777438 56.383504  L 60.841365 56.454036  L 60.898070 56.530494  L 60.947008 56.612142  L 60.987708 56.698194  L 61.019777 56.787821  L 61.042906 56.880160  L 61.056874 56.974321  L 61.061545 57.069397  L 61.056874 57.164474  L 61.042906 57.258635  L 61.019777 57.350973  L 60.987708 57.440600  L 60.947008 57.526652  L 60.898070 57.608300  L 60.841365 57.684759  L 60.777438 57.755291  L 60.706906 57.819217  L 60.630448 57.875923  L 60.548799 57.924861  L 60.462748 57.965560  L 60.373121 57.997629  L 60.280782 58.020759  L 60.186621 58.034726  L 60.091545 58.039397  L 59.996468 58.034726  L 59.902307 58.020759  L 59.809969 57.997629  L 59.720342 57.965560  L 59.634290 57.924861  L 59.552642 57.875923  L 59.476183 57.819217  L 59.405651 57.755291  L 59.341725 57.684759  L 59.285019 57.608300  L 59.236081 57.526652  L 59.195382 57.440600  L 59.163313 57.350973  L 59.140183 57.258635  L 59.126215 57.164474  L 59.121545 57.069397  L 59.126215 56.974321  L 59.140183 56.880160  L 59.163313 56.787821  L 59.195382 56.698194  L 59.236081 56.612142  L 59.285019 56.530494  L 59.341725 56.454036  L 59.405651 56.383504  L 59.476183 56.319577  L 59.552642 56.262872  L 59.634290 56.213934  L 59.720342 56.173234  L 59.809969 56.141165  L 59.902307 56.118036  L 59.996468 56.104068  L 60.091545 56.099397" 
                    stroke-width="1" 
                    stroke="black" 
                    fill="beige" 
                    stroke-linecap="round"
                    stroke-linejoin="round"
                    style="transform: scale(1, 1);"
                    />
<path 
                    d="M 52.927386 84.762796  L 53.022463 84.767467  L 53.116624 84.781434  L 53.208962 84.804564  L 53.298589 84.836633  L 53.384641 84.877332  L 53.466289 84.926270  L 53.542748 84.982976  L 53.613280 85.046902  L 53.677206 85.117434  L 53.733912 85.193893  L 53.782850 85.275541  L 53.823549 85.361593  L 53.855618 85.451220  L 53.878748 85.543558  L 53.892716 85.637719  L 53.897386 85.732796  L 53.892716 85.827872  L 53.878748 85.922033  L 53.855618 86.014372  L 53.823549 86.103999  L 53.782850 86.190051  L 53.733912 86.271699  L 53.677206 86.348157  L 53.613280 86.418689  L 53.542748 86.482616  L 53.466289 86.539321  L 53.384641 86.588259  L 53.298589 86.628959  L 53.208962 86.661028  L 53.116624 86.684157  L 53.022463 86.698125  L 52.927386 86.702796  L 52.832310 86.698125  L 52.738149 86.684157  L 52.645810 86.661028  L 52.556183 86.628959  L 52.470131 86.588259  L 52.388483 86.539321  L 52.312025 86.482616  L 52.241493 86.418689  L 52.177566 86.348157  L 52.120861 86.271699  L 52.071923 86.190051  L 52.031223 86.103999  L 51.999154 86.014372  L 51.976025 85.922033  L 51.962057 85.827872  L 51.957386 85.732796  L 51.962057 85.637719  L 51.976025 85.543558  L 51.999154 85.451220  L 52.031223 85.361593  L 52.071923 85.275541  L 52.120861 85.193893  L 52.177566 85.117434  L 52.241493 85.046902  L 52.312025 84.982976  L 52.388483 84.926270  L 52.470131 84.877332  L 52.556183 84.836633  L 52.645810 84.804564  L 52.738149 84.781434  L 52.832310 84.767467  L 52.927386 84.762796" 
                    stroke-width="1" 
                    stroke="black" 
                    fill="beige" 
                    stroke-linecap="round"
                    stroke-linejoin="round"
                    style="transform: scale(1, 1);"
                    />
<path 
                    d="M 15.846424 54.628894  L 15.941501 54.633565  L 16.035662 54.647532  L 16.128000 54.670662  L 16.217627 54.702731  L 16.303679 54.743430  L 16.385327 54.792369  L 16.461785 54.849074  L 16.532318 54.913001  L 16.596244 54.983533  L 16.652949 55.059991  L 16.701888 55.141639  L 16.742587 55.227691  L 16.774656 55.317318  L 16.797786 55.409656  L 16.811753 55.503817  L 16.816424 55.598894  L 16.811753 55.693971  L 16.797786 55.788132  L 16.774656 55.880470  L 16.742587 55.970097  L 16.701888 56.056149  L 16.652949 56.137797  L 16.596244 56.214256  L 16.532318 56.284788  L 16.461785 56.348714  L 16.385327 56.405420  L 16.303679 56.454358  L 16.217627 56.495057  L 16.128000 56.527126  L 16.035662 56.550256  L 15.941501 56.564223  L 15.846424 56.568894  L 15.751347 56.564223  L 15.657186 56.550256  L 15.564848 56.527126  L 15.475221 56.495057  L 15.389169 56.454358  L 15.307521 56.405420  L 15.231062 56.348714  L 15.160530 56.284788  L 15.096604 56.214256  L 15.039898 56.137797  L 14.990960 56.056149  L 14.950261 55.970097  L 14.918192 55.880470  L 14.895062 55.788132  L 14.881095 55.693971  L 14.876424 55.598894  L 14.881095 55.503817  L 14.895062 55.409656  L 14.918192 55.317318  L 14.950261 55.227691  L 14.990960 55.141639  L 15.039898 55.059991  L 15.096604 54.983533  L 15.160530 54.913001  L 15.231062 54.849074  L 15.307521 54.792369  L 15.389169 54.743430  L 15.475221 54.702731  L 15.564848 54.670662  L 15.657186 54.647532  L 15.751347 54.633565  L 15.846424 54.628894" 
                    stroke-width="1" 
                    stroke="black" 
                    fill="beige" 
                    stroke-linecap="round"
                    stroke-linejoin="round"
                    style="transform: scale(1, 1);"
                    />
<path 
                    d="M 21.091597 83.704721  L 21.186674 83.709392  L 21.280835 83.723360  L 21.373174 83.746489  L 21.462800 83.778558  L 21.548852 83.819258  L 21.630501 83.868196  L 21.706959 83.924901  L 21.777491 83.988828  L 21.841418 84.059360  L 21.898123 84.135818  L 21.947061 84.217467  L 21.987761 84.303518  L 22.019830 84.393145  L 22.042959 84.485484  L 22.056927 84.579645  L 22.061597 84.674721  L 22.056927 84.769798  L 22.042959 84.863959  L 22.019830 84.956298  L 21.987761 85.045924  L 21.947061 85.131976  L 21.898123 85.213625  L 21.841418 85.290083  L 21.777491 85.360615  L 21.706959 85.424542  L 21.630501 85.481247  L 21.548852 85.530185  L 21.462800 85.570885  L 21.373174 85.602954  L 21.280835 85.626083  L 21.186674 85.640051  L 21.091597 85.644721  L 20.996521 85.640051  L 20.902360 85.626083  L 20.810021 85.602954  L 20.720395 85.570885  L 20.634343 85.530185  L 20.552694 85.481247  L 20.476236 85.424542  L 20.405704 85.360615  L 20.341777 85.290083  L 20.285072 85.213625  L 20.236134 85.131976  L 20.195434 85.045924  L 20.163365 84.956298  L 20.140236 84.863959  L 20.126268 84.769798  L 20.121597 84.674721  L 20.126268 84.579645  L 20.140236 84.485484  L 20.163365 84.393145  L 20.195434 84.303518  L 20.236134 84.217467  L 20.285072 84.135818  L 20.341777 84.059360  L 20.405704 83.988828  L 20.476236 83.924901  L 20.552694 83.868196  L 20.634343 83.819258  L 20.720395 83.778558  L 20.810021 83.746489  L 20.902360 83.723360  L 20.996521 83.709392  L 21.091597 83.704721" 
                    stroke-width="1" 
                    stroke="black" 
                    fill="beige" 
                    stroke-linecap="round"
                    stroke-linejoin="round"
                    style="transform: scale(1, 1);"
                    />
<path 
                    d="M 13.193404 65.243478  L 13.288481 65.248149  L 13.382642 65.262117  L 13.474980 65.285246  L 13.564607 65.317315  L 13.650659 65.358015  L 13.732307 65.406953  L 13.808766 65.463658  L 13.879298 65.527585  L 13.943224 65.598117  L 13.999930 65.674575  L 14.048868 65.756224  L 14.089567 65.842276  L 14.121636 65.931902  L 14.144766 66.024241  L 14.158733 66.118402  L 14.163404 66.213478  L 14.158733 66.308555  L 14.144766 66.402716  L 14.121636 66.495055  L 14.089567 66.584681  L 14.048868 66.670733  L 13.999930 66.752382  L 13.943224 66.828840  L 13.879298 66.899372  L 13.808766 66.963299  L 13.732307 67.020004  L 13.650659 67.068942  L 13.564607 67.109642  L 13.474980 67.141711  L 13.382642 67.164840  L 13.288481 67.178808  L 13.193404 67.183478  L 13.098328 67.178808  L 13.004167 67.164840  L 12.911828 67.141711  L 12.822201 67.109642  L 12.736149 67.068942  L 12.654501 67.020004  L 12.578043 66.963299  L 12.507511 66.899372  L 12.443584 66.828840  L 12.386879 66.752382  L 12.337941 66.670733  L 12.297241 66.584681  L 12.265172 66.495055  L 12.242042 66.402716  L 12.228075 66.308555  L 12.223404 66.213478  L 12.228075 66.118402  L 12.242042 66.024241  L 12.265172 65.931902  L 12.297241 65.842276  L 12.337941 65.756224  L 12.386879 65.674575  L 12.443584 65.598117  L 12.507511 65.527585  L 12.578043 65.463658  L 12.654501 65.406953  L 12.736149 65.358015  L 12.822201 65.317315  L 12.911828 65.285246  L 13.004167 65.262117  L 13.098328 65.248149  L 13.193404 65.243478" 
                    stroke-width="1" 
                    stroke="black" 
                    fill="beige" 
                    stroke-linecap="round"
                    stroke-linejoin="round"
                    style="transform: scale(1, 1);"
                    />
<path 
                    d="M 42.438638 41.753736  L 42.533715 41.758406  L 42.627876 41.772374  L 42.720215 41.795503  L 42.809841 41.827572  L 42.895893 41.868272  L 42.977542 41.917210  L 43.054000 41.973915  L 43.124532 42.037842  L 43.188459 42.108374  L 43.245164 42.184832  L 43.294102 42.266481  L 43.334802 42.352533  L 43.366871 42.442159  L 43.390000 42.534498  L 43.403968 42.628659  L 43.408638 42.723736  L 43.403968 42.818812  L 43.390000 42.912973  L 43.366871 43.005312  L 43.334802 43.094939  L 43.294102 43.180990  L 43.245164 43.262639  L 43.188459 43.339097  L 43.124532 43.409629  L 43.054000 43.473556  L 42.977542 43.530261  L 42.895893 43.579199  L 42.809841 43.619899  L 42.720215 43.651968  L 42.627876 43.675097  L 42.533715 43.689065  L 42.438638 43.693736  L 42.343562 43.689065  L 42.249401 43.675097  L 42.157062 43.651968  L 42.067436 43.619899  L 41.981384 43.579199  L 41.899735 43.530261  L 41.823277 43.473556  L 41.752745 43.409629  L 41.688818 43.339097  L 41.632113 43.262639  L 41.583175 43.180990  L 41.542475 43.094939  L 41.510406 43.005312  L 41.487277 42.912973  L 41.473309 42.818812  L 41.468638 42.723736  L 41.473309 42.628659  L 41.487277 42.534498  L 41.510406 42.442159  L 41.542475 42.352533  L 41.583175 42.266481  L 41.632113 42.184832  L 41.688818 42.108374  L 41.752745 42.037842  L 41.823277 41.973915  L 41.899735 41.917210  L 41.981384 41.868272  L 42.067436 41.827572  L 42.157062 41.795503  L 42.249401 41.772374  L 42.343562 41.758406  L 42.438638 41.753736" 
                    stroke-width="1" 
                    stroke="black" 
                    fill="beige" 
                    stroke-linecap="round"
                    stroke-linejoin="round"
                    style="transform: scale(1, 1);"
                    />
<path 
                    d="M 21.635040 67.353389  L 21.730117 67.358060  L 21.824278 67.372028  L 21.916616 67.395157  L 22.006243 67.427226  L 22.092295 67.467926  L 22.173943 67.516864  L 22.250402 67.573569  L 22.320934 67.637496  L 22.384860 67.708028  L 22.441566 67.784486  L 22.490504 67.866135  L 22.531203 67.952186  L 22.563272 68.041813  L 22.586402 68.134152  L 22.600369 68.228313  L 22.605040 68.323389  L 22.600369 68.418466  L 22.586402 68.512627  L 22.563272 68.604965  L 22.531203 68.694592  L 22.490504 68.780644  L 22.441566 68.862292  L 22.384860 68.938751  L 22.320934 69.009283  L 22.250402 69.073209  L 22.173943 69.129915  L 22.092295 69.178853  L 22.006243 69.219552  L 21.916616 69.251621  L 21.824278 69.274751  L 21.730117 69.288719  L 21.635040 69.293389  L 21.539963 69.288719  L 21.445803 69.274751  L 21.353464 69.251621  L 21.263837 69.219552  L 21.177785 69.178853  L 21.096137 69.129915  L 21.019679 69.073209  L 20.949147 69.009283  L 20.885220 68.938751  L 20.828515 68.862292  L 20.779576 68.780644  L 20.738877 68.694592  L 20.706808 68.604965  L 20.683678 68.512627  L 20.669711 68.418466  L 20.665040 68.323389  L 20.669711 68.228313  L 20.683678 68.134152  L 20.706808 68.041813  L 20.738877 67.952186  L 20.779576 67.866135  L 20.828515 67.784486  L 20.885220 67.708028  L 20.949147 67.637496  L 21.019679 67.573569  L 21.096137 67.516864  L 21.177785 67.467926  L 21.263837 67.427226  L 21.353464 67.395157  L 21.445803 67.372028  L 21.539963 67.358060  L 21.635040 67.353389" 
                    stroke-width="1" 
                    stroke="black" 
                    fill="beige" 
                    stroke-linecap="round"
                    stroke-linejoin="round"
                    style="transform: scale(1, 1);"
                    />
<path 
                    d="M 21.635040 67.353389  L 21.730117 67.358060  L 21.824278 67.372028  L 21.916616 67.395157  L 22.006243 67.427226  L 22.092295 67.467926  L 22.173943 67.516864  L 22.250402 67.573569  L 22.320934 67.637496  L 22.384860 67.708028  L 22.441566 67.784486  L 22.490504 67.866135  L 22.531203 67.952186  L 22.563272 68.041813  L 22.586402 68.134152  L 22.600369 68.228313  L 22.605040 68.323389  L 22.600369 68.418466  L 22.586402 68.512627  L 22.563272 68.604965  L 22.531203 68.694592  L 22.490504 68.780644  L 22.441566 68.862292  L 22.384860 68.938751  L 22.320934 69.009283  L 22.250402 69.073209  L 22.173943 69.129915  L 22.092295 69.178853  L 22.006243 69.219552  L 21.916616 69.251621  L 21.824278 69.274751  L 21.730117 69.288719  L 21.635040 69.293389  L 21.539963 69.288719  L 21.445803 69.274751  L 21.353464 69.251621  L 21.263837 69.219552  L 21.177785 69.178853  L 21.096137 69.129915  L 21.019679 69.073209  L 20.949147 69.009283  L 20.885220 68.938751  L 20.828515 68.862292  L 20.779576 68.780644  L 20.738877 68.694592  L 20.706808 68.604965  L 20.683678 68.512627  L 20.669711 68.418466  L 20.665040 68.323389  L 20.669711 68.228313  L 20.683678 68.134152  L 20.706808 68.041813  L 20.738877 67.952186  L 20.779576 67.866135  L 20.828515 67.784486  L 20.885220 67.708028  L 20.949147 67.637496  L 21.019679 67.573569  L 21.096137 67.516864  L 21.177785 67.467926  L 21.263837 67.427226  L 21.353464 67.395157  L 21.445803 67.372028  L 21.539963 67.358060  L 21.635040 67.353389" 
                    stroke-width="1" 
                    stroke="black" 
                    fill="beige" 
                    stroke-linecap="round"
                    stroke-linejoin="round"
                    style="transform: scale(1, 1);"
                    />
<path 
                    d="M 21.635040 67.353389  L 21.730117 67.358060  L 21.824278 67.372028  L 21.916616 67.395157  L 22.006243 67.427226  L 22.092295 67.467926  L 22.173943 67.516864  L 22.250402 67.573569  L 22.320934 67.637496  L 22.384860 67.708028  L 22.441566 67.784486  L 22.490504 67.866135  L 22.531203 67.952186  L 22.563272 68.041813  L 22.586402 68.134152  L 22.600369 68.228313  L 22.605040 68.323389  L 22.600369 68.418466  L 22.586402 68.512627  L 22.563272 68.604965  L 22.531203 68.694592  L 22.490504 68.780644  L 22.441566 68.862292  L 22.384860 68.938751  L 22.320934 69.009283  L 22.250402 69.073209  L 22.173943 69.129915  L 22.092295 69.178853  L 22.006243 69.219552  L 21.916616 69.251621  L 21.824278 69.274751  L 21.730117 69.288719  L 21.635040 69.293389  L 21.539963 69.288719  L 21.445803 69.274751  L 21.353464 69.251621  L 21.263837 69.219552  L 21.177785 69.178853  L 21.096137 69.129915  L 21.019679 69.073209  L 20.949147 69.009283  L 20.885220 68.938751  L 20.828515 68.862292  L 20.779576 68.780644  L 20.738877 68.694592  L 20.706808 68.604965  L 20.683678 68.512627  L 20.669711 68.418466  L 20.665040 68.323389  L 20.669711 68.228313  L 20.683678 68.134152  L 20.706808 68.041813  L 20.738877 67.952186  L 20.779576 67.866135  L 20.828515 67.784486  L 20.885220 67.708028  L 20.949147 67.637496  L 21.019679 67.573569  L 21.096137 67.516864  L 21.177785 67.467926  L 21.263837 67.427226  L 21.353464 67.395157  L 21.445803 67.372028  L 21.539963 67.358060  L 21.635040 67.353389" 
                    stroke-width="1" 
                    stroke="black" 
                    fill="beige" 
                    stroke-linecap="round"
                    stroke-linejoin="round"
                    style="transform: scale(1, 1);"
                    />
<path 
                    d="M 22.322811 46.659442  L 22.417888 46.664113  L 22.512049 46.678081  L 22.604387 46.701210  L 22.694014 46.733279  L 22.780066 46.773979  L 22.861714 46.822917  L 22.938173 46.879622  L 23.008705 46.943549  L 23.072631 47.014081  L 23.129337 47.090539  L 23.178275 47.172188  L 23.218974 47.258240  L 23.251043 47.347866  L 23.274173 47.440205  L 23.288140 47.534366  L 23.292811 47.629442  L 23.288140 47.724519  L 23.274173 47.818680  L 23.251043 47.911019  L 23.218974 48.000645  L 23.178275 48.086697  L 23.129337 48.168346  L 23.072631 48.244804  L 23.008705 48.315336  L 22.938173 48.379263  L 22.861714 48.435968  L 22.780066 48.484906  L 22.694014 48.525606  L 22.604387 48.557675  L 22.512049 48.580804  L 22.417888 48.594772  L 22.322811 48.599442  L 22.227735 48.594772  L 22.133574 48.580804  L 22.041235 48.557675  L 21.951608 48.525606  L 21.865556 48.484906  L 21.783908 48.435968  L 21.707450 48.379263  L 21.636918 48.315336  L 21.572991 48.244804  L 21.516286 48.168346  L 21.467348 48.086697  L 21.426648 48.000645  L 21.394579 47.911019  L 21.371449 47.818680  L 21.357482 47.724519  L 21.352811 47.629442  L 21.357482 47.534366  L 21.371449 47.440205  L 21.394579 47.347866  L 21.426648 47.258240  L 21.467348 47.172188  L 21.516286 47.090539  L 21.572991 47.014081  L 21.636918 46.943549  L 21.707450 46.879622  L 21.783908 46.822917  L 21.865556 46.773979  L 21.951608 46.733279  L 22.041235 46.701210  L 22.133574 46.678081  L 22.227735 46.664113  L 22.322811 46.659442" 
                    stroke-width="1" 
                    stroke="black" 
                    fill="beige" 
                    stroke-linecap="round"
                    stroke-linejoin="round"
                    style="transform: scale(1, 1);"
                    />
<path 
                    d="M 59.403774 76.793344  L 59.498850 76.798015  L 59.593011 76.811982  L 59.685350 76.835112  L 59.774977 76.867181  L 59.861028 76.907881  L 59.942677 76.956819  L 60.019135 77.013524  L 60.089667 77.077451  L 60.153594 77.147983  L 60.210299 77.224441  L 60.259237 77.306089  L 60.299937 77.392141  L 60.332006 77.481768  L 60.355135 77.574107  L 60.369103 77.668268  L 60.373774 77.763344  L 60.369103 77.858421  L 60.355135 77.952582  L 60.332006 78.044920  L 60.299937 78.134547  L 60.259237 78.220599  L 60.210299 78.302247  L 60.153594 78.378706  L 60.089667 78.449238  L 60.019135 78.513164  L 59.942677 78.569870  L 59.861028 78.618808  L 59.774977 78.659507  L 59.685350 78.691576  L 59.593011 78.714706  L 59.498850 78.728673  L 59.403774 78.733344  L 59.308697 78.728673  L 59.214536 78.714706  L 59.122197 78.691576  L 59.032571 78.659507  L 58.946519 78.618808  L 58.864870 78.569870  L 58.788412 78.513164  L 58.717880 78.449238  L 58.653953 78.378706  L 58.597248 78.302247  L 58.548310 78.220599  L 58.507610 78.134547  L 58.475541 78.044920  L 58.452412 77.952582  L 58.438444 77.858421  L 58.433774 77.763344  L 58.438444 77.668268  L 58.452412 77.574107  L 58.475541 77.481768  L 58.507610 77.392141  L 58.548310 77.306089  L 58.597248 77.224441  L 58.653953 77.147983  L 58.717880 77.077451  L 58.788412 77.013524  L 58.864870 76.956819  L 58.946519 76.907881  L 59.032571 76.867181  L 59.122197 76.835112  L 59.214536 76.811982  L 59.308697 76.798015  L 59.403774 76.793344" 
                    stroke-width="1" 
                    stroke="black" 
                    fill="beige" 
                    stroke-linecap="round"
                    stroke-linejoin="round"
                    style="transform: scale(1, 1);"
                    />
<path 
                    d="M 15.158653 75.322841  L 15.253729 75.327512  L 15.347890 75.341479  L 15.440229 75.364609  L 15.529856 75.396678  L 15.615908 75.437377  L 15.697556 75.486315  L 15.774014 75.543021  L 15.844546 75.606947  L 15.908473 75.677480  L 15.965178 75.753938  L 16.014116 75.835586  L 16.054816 75.921638  L 16.086885 76.011265  L 16.110015 76.103603  L 16.123982 76.197764  L 16.128653 76.292841  L 16.123982 76.387918  L 16.110015 76.482079  L 16.086885 76.574417  L 16.054816 76.664044  L 16.014116 76.750096  L 15.965178 76.831744  L 15.908473 76.908202  L 15.844546 76.978735  L 15.774014 77.042661  L 15.697556 77.099367  L 15.615908 77.148305  L 15.529856 77.189004  L 15.440229 77.221073  L 15.347890 77.244203  L 15.253729 77.258170  L 15.158653 77.262841  L 15.063576 77.258170  L 14.969415 77.244203  L 14.877077 77.221073  L 14.787450 77.189004  L 14.701398 77.148305  L 14.619750 77.099367  L 14.543291 77.042661  L 14.472759 76.978735  L 14.408833 76.908202  L 14.352127 76.831744  L 14.303189 76.750096  L 14.262490 76.664044  L 14.230421 76.574417  L 14.207291 76.482079  L 14.193324 76.387918  L 14.188653 76.292841  L 14.193324 76.197764  L 14.207291 76.103603  L 14.230421 76.011265  L 14.262490 75.921638  L 14.303189 75.835586  L 14.352127 75.753938  L 14.408833 75.677480  L 14.472759 75.606947  L 14.543291 75.543021  L 14.619750 75.486315  L 14.701398 75.437377  L 14.787450 75.396678  L 14.877077 75.364609  L 14.969415 75.341479  L 15.063576 75.327512  L 15.158653 75.322841" 
                    stroke-width="1" 
                    stroke="black" 
                    fill="beige" 
                    stroke-linecap="round"
                    stroke-linejoin="round"
                    style="transform: scale(1, 1);"
                    />
<path 
                    d="M 22.322811 46.659442  L 22.417888 46.664113  L 22.512049 46.678081  L 22.604387 46.701210  L 22.694014 46.733279  L 22.780066 46.773979  L 22.861714 46.822917  L 22.938173 46.879622  L 23.008705 46.943549  L 23.072631 47.014081  L 23.129337 47.090539  L 23.178275 47.172188  L 23.218974 47.258240  L 23.251043 47.347866  L 23.274173 47.440205  L 23.288140 47.534366  L 23.292811 47.629442  L 23.288140 47.724519  L 23.274173 47.818680  L 23.251043 47.911019  L 23.218974 48.000645  L 23.178275 48.086697  L 23.129337 48.168346  L 23.072631 48.244804  L 23.008705 48.315336  L 22.938173 48.379263  L 22.861714 48.435968  L 22.780066 48.484906  L 22.694014 48.525606  L 22.604387 48.557675  L 22.512049 48.580804  L 22.417888 48.594772  L 22.322811 48.599442  L 22.227735 48.594772  L 22.133574 48.580804  L 22.041235 48.557675  L 21.951608 48.525606  L 21.865556 48.484906  L 21.783908 48.435968  L 21.707450 48.379263  L 21.636918 48.315336  L 21.572991 48.244804  L 21.516286 48.168346  L 21.467348 48.086697  L 21.426648 48.000645  L 21.394579 47.911019  L 21.371449 47.818680  L 21.357482 47.724519  L 21.352811 47.629442  L 21.357482 47.534366  L 21.371449 47.440205  L 21.394579 47.347866  L 21.426648 47.258240  L 21.467348 47.172188  L 21.516286 47.090539  L 21.572991 47.014081  L 21.636918 46.943549  L 21.707450 46.879622  L 21.783908 46.822917  L 21.865556 46.773979  L 21.951608 46.733279  L 22.041235 46.701210  L 22.133574 46.678081  L 22.227735 46.664113  L 22.322811 46.659442" 
                    stroke-width="1" 
                    stroke="black" 
                    fill="beige" 
                    stroke-linecap="round"
                    stroke-linejoin="round"
                    style="transform: scale(1, 1);"
                    />
<path 
                    d="M 59.403774 76.793344  L 59.498850 76.798015  L 59.593011 76.811982  L 59.685350 76.835112  L 59.774977 76.867181  L 59.861028 76.907881  L 59.942677 76.956819  L 60.019135 77.013524  L 60.089667 77.077451  L 60.153594 77.147983  L 60.210299 77.224441  L 60.259237 77.306089  L 60.299937 77.392141  L 60.332006 77.481768  L 60.355135 77.574107  L 60.369103 77.668268  L 60.373774 77.763344  L 60.369103 77.858421  L 60.355135 77.952582  L 60.332006 78.044920  L 60.299937 78.134547  L 60.259237 78.220599  L 60.210299 78.302247  L 60.153594 78.378706  L 60.089667 78.449238  L 60.019135 78.513164  L 59.942677 78.569870  L 59.861028 78.618808  L 59.774977 78.659507  L 59.685350 78.691576  L 59.593011 78.714706  L 59.498850 78.728673  L 59.403774 78.733344  L 59.308697 78.728673  L 59.214536 78.714706  L 59.122197 78.691576  L 59.032571 78.659507  L 58.946519 78.618808  L 58.864870 78.569870  L 58.788412 78.513164  L 58.717880 78.449238  L 58.653953 78.378706  L 58.597248 78.302247  L 58.548310 78.220599  L 58.507610 78.134547  L 58.475541 78.044920  L 58.452412 77.952582  L 58.438444 77.858421  L 58.433774 77.763344  L 58.438444 77.668268  L 58.452412 77.574107  L 58.475541 77.481768  L 58.507610 77.392141  L 58.548310 77.306089  L 58.597248 77.224441  L 58.653953 77.147983  L 58.717880 77.077451  L 58.788412 77.013524  L 58.864870 76.956819  L 58.946519 76.907881  L 59.032571 76.867181  L 59.122197 76.835112  L 59.214536 76.811982  L 59.308697 76.798015  L 59.403774 76.793344" 
                    stroke-width="1" 
                    stroke="black" 
                    fill="beige" 
                    stroke-linecap="round"
                    stroke-linejoin="round"
                    style="transform: scale(1, 1);"
                    />
<path 
                    d="M 15.158653 75.322841  L 15.253729 75.327512  L 15.347890 75.341479  L 15.440229 75.364609  L 15.529856 75.396678  L 15.615908 75.437377  L 15.697556 75.486315  L 15.774014 75.543021  L 15.844546 75.606947  L 15.908473 75.677480  L 15.965178 75.753938  L 16.014116 75.835586  L 16.054816 75.921638  L 16.086885 76.011265  L 16.110015 76.103603  L 16.123982 76.197764  L 16.128653 76.292841  L 16.123982 76.387918  L 16.110015 76.482079  L 16.086885 76.574417  L 16.054816 76.664044  L 16.014116 76.750096  L 15.965178 76.831744  L 15.908473 76.908202  L 15.844546 76.978735  L 15.774014 77.042661  L 15.697556 77.099367  L 15.615908 77.148305  L 15.529856 77.189004  L 15.440229 77.221073  L 15.347890 77.244203  L 15.253729 77.258170  L 15.158653 77.262841  L 15.063576 77.258170  L 14.969415 77.244203  L 14.877077 77.221073  L 14.787450 77.189004  L 14.701398 77.148305  L 14.619750 77.099367  L 14.543291 77.042661  L 14.472759 76.978735  L 14.408833 76.908202  L 14.352127 76.831744  L 14.303189 76.750096  L 14.262490 76.664044  L 14.230421 76.574417  L 14.207291 76.482079  L 14.193324 76.387918  L 14.188653 76.292841  L 14.193324 76.197764  L 14.207291 76.103603  L 14.230421 76.011265  L 14.262490 75.921638  L 14.303189 75.835586  L 14.352127 75.753938  L 14.408833 75.677480  L 14.472759 75.606947  L 14.543291 75.543021  L 14.619750 75.486315  L 14.701398 75.437377  L 14.787450 75.396678  L 14.877077 75.364609  L 14.969415 75.341479  L 15.063576 75.327512  L 15.158653 75.322841" 
                    stroke-width="1" 
                    stroke="black" 
                    fill="beige" 
                    stroke-linecap="round"
                    stroke-linejoin="round"
                    style="transform: scale(1, 1);"
                    />
                </svg>
            