
                <svg 
                  xmlns="http://www.w3.org/2000/svg" 
                  viewBox="0 0 125 125" 
                  width="125mm" 
                  height="125mm"
                  style="transform: scale(1, -1)">
                    <path 
                    d="M 75.861708 92.050170  L 16.569648 80.219996  M 26.435132 73.141948  L 41.282935 89.674107  M 6.704163 87.298045  L 51.148420 82.596059" 
                    stroke-width="1" 
                    stroke="black" 
                    fill="none" 
                    stroke-linecap="round"
                    stroke-linejoin="round"
                    style="transform: scale(1, 1);"
                    />
<path 
                    d="M 26.435132 73.141948  L 6.704163 87.298045  L 75.861708 92.050170  L 26.435132 73.141948" 
                    stroke-width="1" 
                    stroke="black" 
                    fill="none" 
                    stroke-linecap="round"
                    stroke-linejoin="round"
                    style="transform: scale(1, 1);"
                    />
<path 
                    d="M 26.435132 73.141948  L 25.374249 88.580950  M 6.704163 87.298045  L 13.947164 68.364654  M 75.861708 92.050170  L 50.109623 56.156548  M 26.435132 73.141948  L 29.569509 27.527447  M 6.704163 87.298045  L 29.569509 27.527447  M 75.861708 92.050170  L 29.569509 27.527447" 
                    stroke-width="1" 
                    stroke="black" 
                    fill="none" 
                    stroke-linecap="round"
                    stroke-linejoin="round"
                    style="transform: scale(1, 1);"
                    />
<path 
                    d="M 34.642628 49.244080  L 36.677495 49.344047  L 38.692766 49.642984  L 40.669031 50.138013  L 42.587259 50.824366  L 44.428976 51.695433  L 46.176445 52.742825  L 47.812837 53.956456  L 49.322393 55.324638  L 50.690574 56.834193  L 51.904205 58.470585  L 52.951598 60.218054  L 53.822665 62.059771  L 54.509018 63.977999  L 55.004046 65.954264  L 55.302984 67.969535  L 55.402950 70.004402  L 55.302984 72.039270  L 55.004046 74.054540  L 54.509018 76.030806  L 53.822665 77.949034  L 52.951598 79.790750  L 51.904205 81.538219  L 50.690574 83.174611  L 49.322393 84.684167  L 47.812837 86.052348  L 46.176445 87.265979  L 44.428976 88.313372  L 42.587259 89.184439  L 40.669031 89.870792  L 38.692766 90.365821  L 36.677495 90.664758  L 34.642628 90.764725  L 32.607760 90.664758  L 30.592490 90.365821  L 28.616224 89.870792  L 26.697997 89.184439  L 24.856280 88.313372  L 23.108811 87.265979  L 21.472419 86.052348  L 19.962863 84.684167  L 18.594682 83.174611  L 17.381051 81.538219  L 16.333658 79.790750  L 15.462591 77.949034  L 14.776238 76.030806  L 14.281209 74.054540  L 13.982272 72.039270  L 13.882306 70.004402  L 13.982272 67.969535  L 14.281209 65.954264  L 14.776238 63.977999  L 15.462591 62.059771  L 16.333658 60.218054  L 17.381051 58.470585  L 18.594682 56.834193  L 19.962863 55.324638  L 21.472419 53.956456  L 23.108811 52.742825  L 24.856280 51.695433  L 26.697997 50.824366  L 28.616224 50.138013  L 30.592490 49.642984  L 32.607760 49.344047  L 34.642628 49.244080" 
                    stroke-width="1" 
                    stroke="black" 
                    fill="none" 
                    stroke-linecap="round"
                    stroke-linejoin="round"
                    style="transform: scale(1, 1);"
                    />
<path 
                    d="M 16.569648 79.249996  L 16.664724 79.254667  L 16.758885 79.268635  L 16.851224 79.291764  L 16.940851 79.323833  L 17.026902 79.364533  L 17.108551 79.413471  L 17.185009 79.470176  L 17.255541 79.534103  L 17.319468 79.604635  L 17.376173 79.681093  L 17.425111 79.762742  L 17.465811 79.848793  L 17.497880 79.938420  L 17.521009 80.030759  L 17.534977 80.124920  L 17.539648 80.219996  L 17.534977 80.315073  L 17.521009 80.409234  L 17.497880 80.501572  L 17.465811 80.591199  L 17.425111 80.677251  L 17.376173 80.758899  L 17.319468 80.835358  L 17.255541 80.905890  L 17.185009 80.969817  L 17.108551 81.026522  L 17.026902 81.075460  L 16.940851 81.116160  L 16.851224 81.148228  L 16.758885 81.171358  L 16.664724 81.185326  L 16.569648 81.189996  L 16.474571 81.185326  L 16.380410 81.171358  L 16.288071 81.148228  L 16.198445 81.116160  L 16.112393 81.075460  L 16.030744 81.026522  L 15.954286 80.969817  L 15.883754 80.905890  L 15.819827 80.835358  L 15.763122 80.758899  L 15.714184 80.677251  L 15.673484 80.591199  L 15.641415 80.501572  L 15.618286 80.409234  L 15.604318 80.315073  L 15.599648 80.219996  L 15.604318 80.124920  L 15.618286 80.030759  L 15.641415 79.938420  L 15.673484 79.848793  L 15.714184 79.762742  L 15.763122 79.681093  L 15.819827 79.604635  L 15.883754 79.534103  L 15.954286 79.470176  L 16.030744 79.413471  L 16.112393 79.364533  L 16.198445 79.323833  L 16.288071 79.291764  L 16.380410 79.268635  L 16.474571 79.254667  L 16.569648 79.249996" 
                    stroke-width="1" 
                    stroke="black" 
                    fill="none" 
                    stroke-linecap="round"
                    stroke-linejoin="round"
                    style="transform: scale(1, 1);"
                    />
<path 
                    d="M 41.282935 88.704107  L 41.378012 88.708778  L 41.472173 88.722746  L 41.564512 88.745875  L 41.654138 88.777944  L 41.740190 88.818644  L 41.821839 88.867582  L 41.898297 88.924287  L 41.968829 88.988214  L 42.032756 89.058746  L 42.089461 89.135204  L 42.138399 89.216852  L 42.179099 89.302904  L 42.211168 89.392531  L 42.234297 89.484870  L 42.248265 89.579031  L 42.252935 89.674107  L 42.248265 89.769184  L 42.234297 89.863345  L 42.211168 89.955683  L 42.179099 90.045310  L 42.138399 90.131362  L 42.089461 90.213010  L 42.032756 90.289469  L 41.968829 90.360001  L 41.898297 90.423927  L 41.821839 90.480633  L 41.740190 90.529571  L 41.654138 90.570270  L 41.564512 90.602339  L 41.472173 90.625469  L 41.378012 90.639437  L 41.282935 90.644107  L 41.187859 90.639437  L 41.093698 90.625469  L 41.001359 90.602339  L 40.911732 90.570270  L 40.825681 90.529571  L 40.744032 90.480633  L 40.667574 90.423927  L 40.597042 90.360001  L 40.533115 90.289469  L 40.476410 90.213010  L 40.427472 90.131362  L 40.386772 90.045310  L 40.354703 89.955683  L 40.331574 89.863345  L 40.317606 89.769184  L 40.312935 89.674107  L 40.317606 89.579031  L 40.331574 89.484870  L 40.354703 89.392531  L 40.386772 89.302904  L 40.427472 89.216852  L 40.476410 89.135204  L 40.533115 89.058746  L 40.597042 88.988214  L 40.667574 88.924287  L 40.744032 88.867582  L 40.825681 88.818644  L 40.911732 88.777944  L 41.001359 88.745875  L 41.093698 88.722746  L 41.187859 88.708778  L 41.282935 88.704107" 
                    stroke-width="1" 
                    stroke="black" 
                    fill="none" 
                    stroke-linecap="round"
                    stroke-linejoin="round"
                    style="transform: scale(1, 1);"
                    />
<path 
                    d="M 51.148420 81.626059  L 51.243496 81.630730  L 51.337657 81.644697  L 51.429996 81.667827  L 51.519623 81.699896  L 51.605675 81.740595  L 51.687323 81.789533  L 51.763781 81.846239  L 51.834313 81.910165  L 51.898240 81.980697  L 51.954945 82.057156  L 52.003883 82.138804  L 52.044583 82.224856  L 52.076652 82.314483  L 52.099781 82.406821  L 52.113749 82.500982  L 52.118420 82.596059  L 52.113749 82.691135  L 52.099781 82.785296  L 52.076652 82.877635  L 52.044583 82.967262  L 52.003883 83.053314  L 51.954945 83.134962  L 51.898240 83.211420  L 51.834313 83.281952  L 51.763781 83.345879  L 51.687323 83.402584  L 51.605675 83.451522  L 51.519623 83.492222  L 51.429996 83.524291  L 51.337657 83.547421  L 51.243496 83.561388  L 51.148420 83.566059  L 51.053343 83.561388  L 50.959182 83.547421  L 50.866844 83.524291  L 50.777217 83.492222  L 50.691165 83.451522  L 50.609517 83.402584  L 50.533058 83.345879  L 50.462526 83.281952  L 50.398600 83.211420  L 50.341894 83.134962  L 50.292956 83.053314  L 50.252257 82.967262  L 50.220188 82.877635  L 50.197058 82.785296  L 50.183091 82.691135  L 50.178420 82.596059  L 50.183091 82.500982  L 50.197058 82.406821  L 50.220188 82.314483  L 50.252257 82.224856  L 50.292956 82.138804  L 50.341894 82.057156  L 50.398600 81.980697  L 50.462526 81.910165  L 50.533058 81.846239  L 50.609517 81.789533  L 50.691165 81.740595  L 50.777217 81.699896  L 50.866844 81.667827  L 50.959182 81.644697  L 51.053343 81.630730  L 51.148420 81.626059" 
                    stroke-width="1" 
                    stroke="black" 
                    fill="none" 
                    stroke-linecap="round"
                    stroke-linejoin="round"
                    style="transform: scale(1, 1);"
                    />
<path 
                    d="M 25.374249 87.610950  L 25.469325 87.615621  L 25.563486 87.629588  L 25.655825 87.652718  L 25.745452 87.684787  L 25.831504 87.725487  L 25.913152 87.774425  L 25.989610 87.831130  L 26.060142 87.895057  L 26.124069 87.965589  L 26.180774 88.042047  L 26.229712 88.123695  L 26.270412 88.209747  L 26.302481 88.299374  L 26.325611 88.391713  L 26.339578 88.485874  L 26.344249 88.580950  L 26.339578 88.676027  L 26.325611 88.770188  L 26.302481 88.862526  L 26.270412 88.952153  L 26.229712 89.038205  L 26.180774 89.119853  L 26.124069 89.196312  L 26.060142 89.266844  L 25.989610 89.330770  L 25.913152 89.387476  L 25.831504 89.436414  L 25.745452 89.477113  L 25.655825 89.509182  L 25.563486 89.532312  L 25.469325 89.546279  L 25.374249 89.550950  L 25.279172 89.546279  L 25.185011 89.532312  L 25.092673 89.509182  L 25.003046 89.477113  L 24.916994 89.436414  L 24.835346 89.387476  L 24.758887 89.330770  L 24.688355 89.266844  L 24.624429 89.196312  L 24.567723 89.119853  L 24.518785 89.038205  L 24.478086 88.952153  L 24.446017 88.862526  L 24.422887 88.770188  L 24.408920 88.676027  L 24.404249 88.580950  L 24.408920 88.485874  L 24.422887 88.391713  L 24.446017 88.299374  L 24.478086 88.209747  L 24.518785 88.123695  L 24.567723 88.042047  L 24.624429 87.965589  L 24.688355 87.895057  L 24.758887 87.831130  L 24.835346 87.774425  L 24.916994 87.725487  L 25.003046 87.684787  L 25.092673 87.652718  L 25.185011 87.629588  L 25.279172 87.615621  L 25.374249 87.610950" 
                    stroke-width="1" 
                    stroke="black" 
                    fill="none" 
                    stroke-linecap="round"
                    stroke-linejoin="round"
                    style="transform: scale(1, 1);"
                    />
<path 
                    d="M 13.947164 67.394654  L 14.042241 67.399325  L 14.136402 67.413293  L 14.228741 67.436422  L 14.318367 67.468491  L 14.404419 67.509191  L 14.486068 67.558129  L 14.562526 67.614834  L 14.633058 67.678761  L 14.696985 67.749293  L 14.753690 67.825751  L 14.802628 67.907400  L 14.843328 67.993451  L 14.875397 68.083078  L 14.898526 68.175417  L 14.912494 68.269578  L 14.917164 68.364654  L 14.912494 68.459731  L 14.898526 68.553892  L 14.875397 68.646231  L 14.843328 68.735857  L 14.802628 68.821909  L 14.753690 68.903557  L 14.696985 68.980016  L 14.633058 69.050548  L 14.562526 69.114475  L 14.486068 69.171180  L 14.404419 69.220118  L 14.318367 69.260818  L 14.228741 69.292886  L 14.136402 69.316016  L 14.042241 69.329984  L 13.947164 69.334654  L 13.852088 69.329984  L 13.757927 69.316016  L 13.665588 69.292886  L 13.575962 69.260818  L 13.489910 69.220118  L 13.408261 69.171180  L 13.331803 69.114475  L 13.261271 69.050548  L 13.197344 68.980016  L 13.140639 68.903557  L 13.091701 68.821909  L 13.051001 68.735857  L 13.018932 68.646231  L 12.995803 68.553892  L 12.981835 68.459731  L 12.977164 68.364654  L 12.981835 68.269578  L 12.995803 68.175417  L 13.018932 68.083078  L 13.051001 67.993451  L 13.091701 67.907400  L 13.140639 67.825751  L 13.197344 67.749293  L 13.261271 67.678761  L 13.331803 67.614834  L 13.408261 67.558129  L 13.489910 67.509191  L 13.575962 67.468491  L 13.665588 67.436422  L 13.757927 67.413293  L 13.852088 67.399325  L 13.947164 67.394654" 
                    stroke-width="1" 
                    stroke="black" 
                    fill="none" 
                    stroke-linecap="round"
                    stroke-linejoin="round"
                    style="transform: scale(1, 1);"
                    />
<path 
                    d="M 50.109623 55.186548  L 50.204699 55.191219  L 50.298860 55.205187  L 50.391199 55.228316  L 50.480825 55.260385  L 50.566877 55.301085  L 50.648526 55.350023  L 50.724984 55.406728  L 50.795516 55.470655  L 50.859443 55.541187  L 50.916148 55.617645  L 50.965086 55.699294  L 51.005786 55.785346  L 51.037855 55.874972  L 51.060984 55.967311  L 51.074952 56.061472  L 51.079623 56.156548  L 51.074952 56.251625  L 51.060984 56.345786  L 51.037855 56.438125  L 51.005786 56.527751  L 50.965086 56.613803  L 50.916148 56.695452  L 50.859443 56.771910  L 50.795516 56.842442  L 50.724984 56.906369  L 50.648526 56.963074  L 50.566877 57.012012  L 50.480825 57.052712  L 50.391199 57.084781  L 50.298860 57.107910  L 50.204699 57.121878  L 50.109623 57.126548  L 50.014546 57.121878  L 49.920385 57.107910  L 49.828046 57.084781  L 49.738420 57.052712  L 49.652368 57.012012  L 49.570719 56.963074  L 49.494261 56.906369  L 49.423729 56.842442  L 49.359802 56.771910  L 49.303097 56.695452  L 49.254159 56.613803  L 49.213459 56.527751  L 49.181390 56.438125  L 49.158261 56.345786  L 49.144293 56.251625  L 49.139623 56.156548  L 49.144293 56.061472  L 49.158261 55.967311  L 49.181390 55.874972  L 49.213459 55.785346  L 49.254159 55.699294  L 49.303097 55.617645  L 49.359802 55.541187  L 49.423729 55.470655  L 49.494261 55.406728  L 49.570719 55.350023  L 49.652368 55.301085  L 49.738420 55.260385  L 49.828046 55.228316  L 49.920385 55.205187  L 50.014546 55.191219  L 50.109623 55.186548" 
                    stroke-width="1" 
                    stroke="black" 
                    fill="none" 
                    stroke-linecap="round"
                    stroke-linejoin="round"
                    style="transform: scale(1, 1);"
                    />
<path 
                    d="M 29.569509 26.557447  L 29.664585 26.562118  L 29.758746 26.576085  L 29.851085 26.599215  L 29.940712 26.631284  L 30.026764 26.671983  L 30.108412 26.720921  L 30.184870 26.777627  L 30.255402 26.841553  L 30.319329 26.912085  L 30.376034 26.988544  L 30.424972 27.070192  L 30.465672 27.156244  L 30.497741 27.245871  L 30.520871 27.338209  L 30.534838 27.432370  L 30.539509 27.527447  L 30.534838 27.622523  L 30.520871 27.716684  L 30.497741 27.809023  L 30.465672 27.898650  L 30.424972 27.984702  L 30.376034 28.066350  L 30.319329 28.142808  L 30.255402 28.213340  L 30.184870 28.277267  L 30.108412 28.333972  L 30.026764 28.382910  L 29.940712 28.423610  L 29.851085 28.455679  L 29.758746 28.478808  L 29.664585 28.492776  L 29.569509 28.497447  L 29.474432 28.492776  L 29.380271 28.478808  L 29.287933 28.455679  L 29.198306 28.423610  L 29.112254 28.382910  L 29.030606 28.333972  L 28.954147 28.277267  L 28.883615 28.213340  L 28.819689 28.142808  L 28.762983 28.066350  L 28.714045 27.984702  L 28.673346 27.898650  L 28.641277 27.809023  L 28.618147 27.716684  L 28.604180 27.622523  L 28.599509 27.527447  L 28.604180 27.432370  L 28.618147 27.338209  L 28.641277 27.245871  L 28.673346 27.156244  L 28.714045 27.070192  L 28.762983 26.988544  L 28.819689 26.912085  L 28.883615 26.841553  L 28.954147 26.777627  L 29.030606 26.720921  L 29.112254 26.671983  L 29.198306 26.631284  L 29.287933 26.599215  L 29.380271 26.576085  L 29.474432 26.562118  L 29.569509 26.557447" 
                    stroke-width="1" 
                    stroke="black" 
                    fill="none" 
                    stroke-linecap="round"
                    stroke-linejoin="round"
                    style="transform: scale(1, 1);"
                    />
<path 
                    d="M 29.569509 26.557447  L 29.664585 26.562118  L 29.758746 26.576085  L 29.851085 26.599215  L 29.940712 26.631284  L 30.026764 26.671983  L 30.108412 26.720921  L 30.184870 26.777627  L 30.255402 26.841553  L 30.319329 26.912085  L 30.376034 26.988544  L 30.424972 27.070192  L 30.465672 27.156244  L 30.497741 27.245871  L 30.520871 27.338209  L 30.534838 27.432370  L 30.539509 27.527447  L 30.534838 27.622523  L 30.520871 27.716684  L 30.497741 27.809023  L 30.465672 27.898650  L 30.424972 27.984702  L 30.376034 28.066350  L 30.319329 28.142808  L 30.255402 28.213340  L 30.184870 28.277267  L 30.108412 28.333972  L 30.026764 28.382910  L 29.940712 28.423610  L 29.851085 28.455679  L 29.758746 28.478808  L 29.664585 28.492776  L 29.569509 28.497447  L 29.474432 28.492776  L 29.380271 28.478808  L 29.287933 28.455679  L 29.198306 28.423610  L 29.112254 28.382910  L 29.030606 28.333972  L 28.954147 28.277267  L 28.883615 28.213340  L 28.819689 28.142808  L 28.762983 28.066350  L 28.714045 27.984702  L 28.673346 27.898650  L 28.641277 27.809023  L 28.618147 27.716684  L 28.604180 27.622523  L 28.599509 27.527447  L 28.604180 27.432370  L 28.618147 27.338209  L 28.641277 27.245871  L 28.673346 27.156244  L 28.714045 27.070192  L 28.762983 26.988544  L 28.819689 26.912085  L 28.883615 26.841553  L 28.954147 26.777627  L 29.030606 26.720921  L 29.112254 26.671983  L 29.198306 26.631284  L 29.287933 26.599215  L 29.380271 26.576085  L 29.474432 26.562118  L 29.569509 26.557447" 
                    stroke-width="1" 
                    stroke="black" 
                    fill="none" 
                    stroke-linecap="round"
                    stroke-linejoin="round"
                    style="transform: scale(1, 1);"
                    />
<path 
                    d="M 29.569509 26.557447  L 29.664585 26.562118  L 29.758746 26.576085  L 29.851085 26.599215  L 29.940712 26.631284  L 30.026764 26.671983  L 30.108412 26.720921  L 30.184870 26.777627  L 30.255402 26.841553  L 30.319329 26.912085  L 30.376034 26.988544  L 30.424972 27.070192  L 30.465672 27.156244  L 30.497741 27.245871  L 30.520871 27.338209  L 30.534838 27.432370  L 30.539509 27.527447  L 30.534838 27.622523  L 30.520871 27.716684  L 30.497741 27.809023  L 30.465672 27.898650  L 30.424972 27.984702  L 30.376034 28.066350  L 30.319329 28.142808  L 30.255402 28.213340  L 30.184870 28.277267  L 30.108412 28.333972  L 30.026764 28.382910  L 29.940712 28.423610  L 29.851085 28.455679  L 29.758746 28.478808  L 29.664585 28.492776  L 29.569509 28.497447  L 29.474432 28.492776  L 29.380271 28.478808  L 29.287933 28.455679  L 29.198306 28.423610  L 29.112254 28.382910  L 29.030606 28.333972  L 28.954147 28.277267  L 28.883615 28.213340  L 28.819689 28.142808  L 28.762983 28.066350  L 28.714045 27.984702  L 28.673346 27.898650  L 28.641277 27.809023  L 28.618147 27.716684  L 28.604180 27.622523  L 28.599509 27.527447  L 28.604180 27.432370  L 28.618147 27.338209  L 28.641277 27.245871  L 28.673346 27.156244  L 28.714045 27.070192  L 28.762983 26.988544  L 28.819689 26.912085  L 28.883615 26.841553  L 28.954147 26.777627  L 29.030606 26.720921  L 29.112254 26.671983  L 29.198306 26.631284  L 29.287933 26.599215  L 29.380271 26.576085  L 29.474432 26.562118  L 29.569509 26.557447" 
                    stroke-width="1" 
                    stroke="black" 
                    fill="none" 
                    stroke-linecap="round"
                    stroke-linejoin="round"
                    style="transform: scale(1, 1);"
                    />
<path 
                    d="M 28.002320 49.364697  L 28.097397 49.369368  L 28.191558 49.383336  L 28.283897 49.406465  L 28.373523 49.438534  L 28.459575 49.479234  L 28.541224 49.528172  L 28.617682 49.584877  L 28.688214 49.648804  L 28.752141 49.719336  L 28.808846 49.795794  L 28.857784 49.877442  L 28.898484 49.963494  L 28.930553 50.053121  L 28.953682 50.145460  L 28.967650 50.239621  L 28.972320 50.334697  L 28.967650 50.429774  L 28.953682 50.523935  L 28.930553 50.616273  L 28.898484 50.705900  L 28.857784 50.791952  L 28.808846 50.873600  L 28.752141 50.950059  L 28.688214 51.020591  L 28.617682 51.084517  L 28.541224 51.141223  L 28.459575 51.190161  L 28.373523 51.230860  L 28.283897 51.262929  L 28.191558 51.286059  L 28.097397 51.300026  L 28.002320 51.304697  L 27.907244 51.300026  L 27.813083 51.286059  L 27.720744 51.262929  L 27.631117 51.230860  L 27.545066 51.190161  L 27.463417 51.141223  L 27.386959 51.084517  L 27.316427 51.020591  L 27.252500 50.950059  L 27.195795 50.873600  L 27.146857 50.791952  L 27.106157 50.705900  L 27.074088 50.616273  L 27.050959 50.523935  L 27.036991 50.429774  L 27.032320 50.334697  L 27.036991 50.239621  L 27.050959 50.145460  L 27.074088 50.053121  L 27.106157 49.963494  L 27.146857 49.877442  L 27.195795 49.795794  L 27.252500 49.719336  L 27.316427 49.648804  L 27.386959 49.584877  L 27.463417 49.528172  L 27.545066 49.479234  L 27.631117 49.438534  L 27.720744 49.406465  L 27.813083 49.383336  L 27.907244 49.369368  L 28.002320 49.364697" 
                    stroke-width="1" 
                    stroke="black" 
                    fill="none" 
                    stroke-linecap="round"
                    stroke-linejoin="round"
                    style="transform: scale(1, 1);"
                    />
<path 
                    d="M 18.136836 56.442746  L 18.231913 56.447417  L 18.326074 56.461384  L 18.418412 56.484514  L 18.508039 56.516583  L 18.594091 56.557282  L 18.675739 56.606220  L 18.752198 56.662926  L 18.822730 56.726852  L 18.886656 56.797384  L 18.943362 56.873843  L 18.992300 56.955491  L 19.032999 57.041543  L 19.065068 57.131170  L 19.088198 57.223508  L 19.102165 57.317669  L 19.106836 57.412746  L 19.102165 57.507822  L 19.088198 57.601983  L 19.065068 57.694322  L 19.032999 57.783949  L 18.992300 57.870001  L 18.943362 57.951649  L 18.886656 58.028107  L 18.822730 58.098639  L 18.752198 58.162566  L 18.675739 58.219271  L 18.594091 58.268209  L 18.508039 58.308909  L 18.418412 58.340978  L 18.326074 58.364108  L 18.231913 58.378075  L 18.136836 58.382746  L 18.041759 58.378075  L 17.947598 58.364108  L 17.855260 58.340978  L 17.765633 58.308909  L 17.679581 58.268209  L 17.597933 58.219271  L 17.521475 58.162566  L 17.450942 58.098639  L 17.387016 58.028107  L 17.330311 57.951649  L 17.281372 57.870001  L 17.240673 57.783949  L 17.208604 57.694322  L 17.185474 57.601983  L 17.171507 57.507822  L 17.166836 57.412746  L 17.171507 57.317669  L 17.185474 57.223508  L 17.208604 57.131170  L 17.240673 57.041543  L 17.281372 56.955491  L 17.330311 56.873843  L 17.387016 56.797384  L 17.450942 56.726852  L 17.521475 56.662926  L 17.597933 56.606220  L 17.679581 56.557282  L 17.765633 56.516583  L 17.855260 56.484514  L 17.947598 56.461384  L 18.041759 56.447417  L 18.136836 56.442746" 
                    stroke-width="1" 
                    stroke="black" 
                    fill="none" 
                    stroke-linecap="round"
                    stroke-linejoin="round"
                    style="transform: scale(1, 1);"
                    />
<path 
                    d="M 52.715608 58.818808  L 52.810685 58.823479  L 52.904846 58.837447  L 52.997184 58.860576  L 53.086811 58.892645  L 53.172863 58.933345  L 53.254511 58.982283  L 53.330970 59.038988  L 53.401502 59.102915  L 53.465428 59.173447  L 53.522134 59.249905  L 53.571072 59.331553  L 53.611771 59.417605  L 53.643840 59.507232  L 53.666970 59.599571  L 53.680937 59.693732  L 53.685608 59.788808  L 53.680937 59.883885  L 53.666970 59.978046  L 53.643840 60.070384  L 53.611771 60.160011  L 53.571072 60.246063  L 53.522134 60.327711  L 53.465428 60.404170  L 53.401502 60.474702  L 53.330970 60.538628  L 53.254511 60.595334  L 53.172863 60.644272  L 53.086811 60.684971  L 52.997184 60.717040  L 52.904846 60.740170  L 52.810685 60.754137  L 52.715608 60.758808  L 52.620532 60.754137  L 52.526371 60.740170  L 52.434032 60.717040  L 52.344405 60.684971  L 52.258353 60.644272  L 52.176705 60.595334  L 52.100247 60.538628  L 52.029715 60.474702  L 51.965788 60.404170  L 51.909083 60.327711  L 51.860145 60.246063  L 51.819445 60.160011  L 51.787376 60.070384  L 51.764246 59.978046  L 51.750279 59.883885  L 51.745608 59.788808  L 51.750279 59.693732  L 51.764246 59.599571  L 51.787376 59.507232  L 51.819445 59.417605  L 51.860145 59.331553  L 51.909083 59.249905  L 51.965788 59.173447  L 52.029715 59.102915  L 52.100247 59.038988  L 52.176705 58.982283  L 52.258353 58.933345  L 52.344405 58.892645  L 52.434032 58.860576  L 52.526371 58.837447  L 52.620532 58.823479  L 52.715608 58.818808" 
                    stroke-width="1" 
                    stroke="black" 
                    fill="none" 
                    stroke-linecap="round"
                    stroke-linejoin="round"
                    style="transform: scale(1, 1);"
                    />
<path 
                    d="M 28.002320 49.364697  L 28.097397 49.369368  L 28.191558 49.383336  L 28.283897 49.406465  L 28.373523 49.438534  L 28.459575 49.479234  L 28.541224 49.528172  L 28.617682 49.584877  L 28.688214 49.648804  L 28.752141 49.719336  L 28.808846 49.795794  L 28.857784 49.877442  L 28.898484 49.963494  L 28.930553 50.053121  L 28.953682 50.145460  L 28.967650 50.239621  L 28.972320 50.334697  L 28.967650 50.429774  L 28.953682 50.523935  L 28.930553 50.616273  L 28.898484 50.705900  L 28.857784 50.791952  L 28.808846 50.873600  L 28.752141 50.950059  L 28.688214 51.020591  L 28.617682 51.084517  L 28.541224 51.141223  L 28.459575 51.190161  L 28.373523 51.230860  L 28.283897 51.262929  L 28.191558 51.286059  L 28.097397 51.300026  L 28.002320 51.304697  L 27.907244 51.300026  L 27.813083 51.286059  L 27.720744 51.262929  L 27.631117 51.230860  L 27.545066 51.190161  L 27.463417 51.141223  L 27.386959 51.084517  L 27.316427 51.020591  L 27.252500 50.950059  L 27.195795 50.873600  L 27.146857 50.791952  L 27.106157 50.705900  L 27.074088 50.616273  L 27.050959 50.523935  L 27.036991 50.429774  L 27.032320 50.334697  L 27.036991 50.239621  L 27.050959 50.145460  L 27.074088 50.053121  L 27.106157 49.963494  L 27.146857 49.877442  L 27.195795 49.795794  L 27.252500 49.719336  L 27.316427 49.648804  L 27.386959 49.584877  L 27.463417 49.528172  L 27.545066 49.479234  L 27.631117 49.438534  L 27.720744 49.406465  L 27.813083 49.383336  L 27.907244 49.369368  L 28.002320 49.364697" 
                    stroke-width="1" 
                    stroke="black" 
                    fill="none" 
                    stroke-linecap="round"
                    stroke-linejoin="round"
                    style="transform: scale(1, 1);"
                    />
<path 
                    d="M 18.136836 56.442746  L 18.231913 56.447417  L 18.326074 56.461384  L 18.418412 56.484514  L 18.508039 56.516583  L 18.594091 56.557282  L 18.675739 56.606220  L 18.752198 56.662926  L 18.822730 56.726852  L 18.886656 56.797384  L 18.943362 56.873843  L 18.992300 56.955491  L 19.032999 57.041543  L 19.065068 57.131170  L 19.088198 57.223508  L 19.102165 57.317669  L 19.106836 57.412746  L 19.102165 57.507822  L 19.088198 57.601983  L 19.065068 57.694322  L 19.032999 57.783949  L 18.992300 57.870001  L 18.943362 57.951649  L 18.886656 58.028107  L 18.822730 58.098639  L 18.752198 58.162566  L 18.675739 58.219271  L 18.594091 58.268209  L 18.508039 58.308909  L 18.418412 58.340978  L 18.326074 58.364108  L 18.231913 58.378075  L 18.136836 58.382746  L 18.041759 58.378075  L 17.947598 58.364108  L 17.855260 58.340978  L 17.765633 58.308909  L 17.679581 58.268209  L 17.597933 58.219271  L 17.521475 58.162566  L 17.450942 58.098639  L 17.387016 58.028107  L 17.330311 57.951649  L 17.281372 57.870001  L 17.240673 57.783949  L 17.208604 57.694322  L 17.185474 57.601983  L 17.171507 57.507822  L 17.166836 57.412746  L 17.171507 57.317669  L 17.185474 57.223508  L 17.208604 57.131170  L 17.240673 57.041543  L 17.281372 56.955491  L 17.330311 56.873843  L 17.387016 56.797384  L 17.450942 56.726852  L 17.521475 56.662926  L 17.597933 56.606220  L 17.679581 56.557282  L 17.765633 56.516583  L 17.855260 56.484514  L 17.947598 56.461384  L 18.041759 56.447417  L 18.136836 56.442746" 
                    stroke-width="1" 
                    stroke="black" 
                    fill="none" 
                    stroke-linecap="round"
                    stroke-linejoin="round"
                    style="transform: scale(1, 1);"
                    />
<path 
                    d="M 52.715608 58.818808  L 52.810685 58.823479  L 52.904846 58.837447  L 52.997184 58.860576  L 53.086811 58.892645  L 53.172863 58.933345  L 53.254511 58.982283  L 53.330970 59.038988  L 53.401502 59.102915  L 53.465428 59.173447  L 53.522134 59.249905  L 53.571072 59.331553  L 53.611771 59.417605  L 53.643840 59.507232  L 53.666970 59.599571  L 53.680937 59.693732  L 53.685608 59.788808  L 53.680937 59.883885  L 53.666970 59.978046  L 53.643840 60.070384  L 53.611771 60.160011  L 53.571072 60.246063  L 53.522134 60.327711  L 53.465428 60.404170  L 53.401502 60.474702  L 53.330970 60.538628  L 53.254511 60.595334  L 53.172863 60.644272  L 53.086811 60.684971  L 52.997184 60.717040  L 52.904846 60.740170  L 52.810685 60.754137  L 52.715608 60.758808  L 52.620532 60.754137  L 52.526371 60.740170  L 52.434032 60.717040  L 52.344405 60.684971  L 52.258353 60.644272  L 52.176705 60.595334  L 52.100247 60.538628  L 52.029715 60.474702  L 51.965788 60.404170  L 51.909083 60.327711  L 51.860145 60.246063  L 51.819445 60.160011  L 51.787376 60.070384  L 51.764246 59.978046  L 51.750279 59.883885  L 51.745608 59.788808  L 51.750279 59.693732  L 51.764246 59.599571  L 51.787376 59.507232  L 51.819445 59.417605  L 51.860145 59.331553  L 51.909083 59.249905  L 51.965788 59.173447  L 52.029715 59.102915  L 52.100247 59.038988  L 52.176705 58.982283  L 52.258353 58.933345  L 52.344405 58.892645  L 52.434032 58.860576  L 52.526371 58.837447  L 52.620532 58.823479  L 52.715608 58.818808" 
                    stroke-width="1" 
                    stroke="black" 
                    fill="none" 
                    stroke-linecap="round"
                    stroke-linejoin="round"
                    style="transform: scale(1, 1);"
                    />
                </svg>
            