
                <svg 
                  xmlns="http://www.w3.org/2000/svg" 
                  viewBox="0 0 125 125" 
                  width="125mm" 
                  height="125mm"
                  style="transform: scale(1, -1)">
                    <path 
                    d="M 109.659549 58.757049  L 19.927505 79.676294  L 115.822774 69.341253  L 109.659549 58.757049" 
                    stroke-width="1" 
                    stroke="black" 
                    fill="beige" 
                    stroke-linecap="round"
                    stroke-linejoin="round"
                    style="transform: scale(1, 1);"
                    />
<path 
                    d="M 115.822774 69.341253  L 64.793527 69.216671  M 109.659549 58.757049  L 67.875140 74.508773  M 19.927505 79.676294  L 112.741161 64.049151" 
                    stroke-width="1" 
                    stroke="red" 
                    fill="none" 
                    stroke-linecap="round"
                    stroke-linejoin="round"
                    style="transform: scale(1, 1);"
                    />
<path 
                    d="M 109.659549 58.757049  L 110.857922 69.876336  M 19.927505 79.676294  L 96.034648 35.358792  M 115.822774 69.341253  L 113.164769 57.939877  M 109.659549 58.757049  L 106.482160 29.275163  M 19.927505 79.676294  L 106.482160 29.275163  M 115.822774 69.341253  L 106.482160 29.275163" 
                    stroke-width="1" 
                    stroke="green" 
                    fill="none" 
                    stroke-linecap="round"
                    stroke-linejoin="round"
                    style="transform: scale(1, 1);"
                    />
<path 
                    d="M 87.972997 34.035974  L 90.445623 34.157446  L 92.894436 34.520694  L 95.295854 35.122217  L 97.626748 35.956224  L 99.864671 37.014683  L 101.988070 38.287400  L 103.976497 39.762118  L 105.810802 41.424635  L 107.473319 43.258939  L 108.948037 45.247366  L 110.220753 47.370766  L 111.279212 49.608689  L 112.113219 51.939583  L 112.714743 54.341000  L 113.077990 56.789814  L 113.199463 59.262440  L 113.077990 61.735066  L 112.714743 64.183879  L 112.113219 66.585296  L 111.279212 68.916190  L 110.220753 71.154113  L 108.948037 73.277513  L 107.473319 75.265940  L 105.810802 77.100244  L 103.976497 78.762761  L 101.988070 80.237479  L 99.864671 81.510196  L 97.626748 82.568655  L 95.295854 83.402662  L 92.894436 84.004186  L 90.445623 84.367433  L 87.972997 84.488905  L 85.500371 84.367433  L 83.051558 84.004186  L 80.650141 83.402662  L 78.319247 82.568655  L 76.081324 81.510196  L 73.957924 80.237479  L 71.969497 78.762761  L 70.135192 77.100244  L 68.472676 75.265940  L 66.997958 73.277513  L 65.725241 71.154113  L 64.666782 68.916190  L 63.832775 66.585296  L 63.231251 64.183879  L 62.868004 61.735066  L 62.746532 59.262440  L 62.868004 56.789814  L 63.231251 54.341000  L 63.832775 51.939583  L 64.666782 49.608689  L 65.725241 47.370766  L 66.997958 45.247366  L 68.472676 43.258939  L 70.135192 41.424635  L 71.969497 39.762118  L 73.957924 38.287400  L 76.081324 37.014683  L 78.319247 35.956224  L 80.650141 35.122217  L 83.051558 34.520694  L 85.500371 34.157446  L 87.972997 34.035974" 
                    stroke-width="1" 
                    stroke="black" 
                    fill="none" 
                    stroke-linecap="round"
                    stroke-linejoin="round"
                    style="transform: scale(1, 1);"
                    />
<path 
                    d="M 64.793527 68.246671  L 64.888604 68.251342  L 64.982765 68.265310  L 65.075103 68.288439  L 65.164730 68.320508  L 65.250782 68.361208  L 65.332430 68.410146  L 65.408889 68.466851  L 65.479421 68.530778  L 65.543347 68.601310  L 65.600053 68.677768  L 65.648991 68.759417  L 65.689690 68.845469  L 65.721759 68.935095  L 65.744889 69.027434  L 65.758856 69.121595  L 65.763527 69.216671  L 65.758856 69.311748  L 65.744889 69.405909  L 65.721759 69.498248  L 65.689690 69.587874  L 65.648991 69.673926  L 65.600053 69.755575  L 65.543347 69.832033  L 65.479421 69.902565  L 65.408889 69.966492  L 65.332430 70.023197  L 65.250782 70.072135  L 65.164730 70.112835  L 65.075103 70.144904  L 64.982765 70.168033  L 64.888604 70.182001  L 64.793527 70.186671  L 64.698450 70.182001  L 64.604290 70.168033  L 64.511951 70.144904  L 64.422324 70.112835  L 64.336272 70.072135  L 64.254624 70.023197  L 64.178166 69.966492  L 64.107634 69.902565  L 64.043707 69.832033  L 63.987002 69.755575  L 63.938063 69.673926  L 63.897364 69.587874  L 63.865295 69.498248  L 63.842165 69.405909  L 63.828198 69.311748  L 63.823527 69.216671  L 63.828198 69.121595  L 63.842165 69.027434  L 63.865295 68.935095  L 63.897364 68.845469  L 63.938063 68.759417  L 63.987002 68.677768  L 64.043707 68.601310  L 64.107634 68.530778  L 64.178166 68.466851  L 64.254624 68.410146  L 64.336272 68.361208  L 64.422324 68.320508  L 64.511951 68.288439  L 64.604290 68.265310  L 64.698450 68.251342  L 64.793527 68.246671" 
                    stroke-width="1" 
                    stroke="black" 
                    fill="beige" 
                    stroke-linecap="round"
                    stroke-linejoin="round"
                    style="transform: scale(1, 1);"
                    />
<path 
                    d="M 67.875140 73.538773  L 67.970216 73.543444  L 68.064377 73.557411  L 68.156716 73.580541  L 68.246343 73.612610  L 68.332394 73.653309  L 68.414043 73.702248  L 68.490501 73.758953  L 68.561033 73.822880  L 68.624960 73.893412  L 68.681665 73.969870  L 68.730603 74.051518  L 68.771303 74.137570  L 68.803372 74.227197  L 68.826501 74.319535  L 68.840469 74.413696  L 68.845140 74.508773  L 68.840469 74.603850  L 68.826501 74.698011  L 68.803372 74.790349  L 68.771303 74.879976  L 68.730603 74.966028  L 68.681665 75.047676  L 68.624960 75.124135  L 68.561033 75.194667  L 68.490501 75.258593  L 68.414043 75.315299  L 68.332394 75.364237  L 68.246343 75.404936  L 68.156716 75.437005  L 68.064377 75.460135  L 67.970216 75.474102  L 67.875140 75.478773  L 67.780063 75.474102  L 67.685902 75.460135  L 67.593563 75.437005  L 67.503937 75.404936  L 67.417885 75.364237  L 67.336236 75.315299  L 67.259778 75.258593  L 67.189246 75.194667  L 67.125319 75.124135  L 67.068614 75.047676  L 67.019676 74.966028  L 66.978976 74.879976  L 66.946907 74.790349  L 66.923778 74.698011  L 66.909810 74.603850  L 66.905140 74.508773  L 66.909810 74.413696  L 66.923778 74.319535  L 66.946907 74.227197  L 66.978976 74.137570  L 67.019676 74.051518  L 67.068614 73.969870  L 67.125319 73.893412  L 67.189246 73.822880  L 67.259778 73.758953  L 67.336236 73.702248  L 67.417885 73.653309  L 67.503937 73.612610  L 67.593563 73.580541  L 67.685902 73.557411  L 67.780063 73.543444  L 67.875140 73.538773" 
                    stroke-width="1" 
                    stroke="black" 
                    fill="beige" 
                    stroke-linecap="round"
                    stroke-linejoin="round"
                    style="transform: scale(1, 1);"
                    />
<path 
                    d="M 112.741161 63.079151  L 112.836238 63.083822  L 112.930399 63.097789  L 113.022737 63.120919  L 113.112364 63.152988  L 113.198416 63.193687  L 113.280064 63.242625  L 113.356523 63.299331  L 113.427055 63.363257  L 113.490981 63.433789  L 113.547687 63.510248  L 113.596625 63.591896  L 113.637324 63.677948  L 113.669393 63.767575  L 113.692523 63.859913  L 113.706490 63.954074  L 113.711161 64.049151  L 113.706490 64.144228  L 113.692523 64.238389  L 113.669393 64.330727  L 113.637324 64.420354  L 113.596625 64.506406  L 113.547687 64.588054  L 113.490981 64.664512  L 113.427055 64.735045  L 113.356523 64.798971  L 113.280064 64.855676  L 113.198416 64.904615  L 113.112364 64.945314  L 113.022737 64.977383  L 112.930399 65.000513  L 112.836238 65.014480  L 112.741161 65.019151  L 112.646085 65.014480  L 112.551924 65.000513  L 112.459585 64.977383  L 112.369958 64.945314  L 112.283906 64.904615  L 112.202258 64.855676  L 112.125800 64.798971  L 112.055268 64.735045  L 111.991341 64.664512  L 111.934636 64.588054  L 111.885698 64.506406  L 111.844998 64.420354  L 111.812929 64.330727  L 111.789800 64.238389  L 111.775832 64.144228  L 111.771161 64.049151  L 111.775832 63.954074  L 111.789800 63.859913  L 111.812929 63.767575  L 111.844998 63.677948  L 111.885698 63.591896  L 111.934636 63.510248  L 111.991341 63.433789  L 112.055268 63.363257  L 112.125800 63.299331  L 112.202258 63.242625  L 112.283906 63.193687  L 112.369958 63.152988  L 112.459585 63.120919  L 112.551924 63.097789  L 112.646085 63.083822  L 112.741161 63.079151" 
                    stroke-width="1" 
                    stroke="black" 
                    fill="beige" 
                    stroke-linecap="round"
                    stroke-linejoin="round"
                    style="transform: scale(1, 1);"
                    />
<path 
                    d="M 110.857922 68.906336  L 110.952998 68.911007  L 111.047159 68.924974  L 111.139498 68.948104  L 111.229125 68.980173  L 111.315176 69.020872  L 111.396825 69.069810  L 111.473283 69.126516  L 111.543815 69.190442  L 111.607742 69.260974  L 111.664447 69.337433  L 111.713385 69.419081  L 111.754085 69.505133  L 111.786154 69.594760  L 111.809283 69.687098  L 111.823251 69.781259  L 111.827922 69.876336  L 111.823251 69.971412  L 111.809283 70.065573  L 111.786154 70.157912  L 111.754085 70.247539  L 111.713385 70.333591  L 111.664447 70.415239  L 111.607742 70.491697  L 111.543815 70.562229  L 111.473283 70.626156  L 111.396825 70.682861  L 111.315176 70.731799  L 111.229125 70.772499  L 111.139498 70.804568  L 111.047159 70.827698  L 110.952998 70.841665  L 110.857922 70.846336  L 110.762845 70.841665  L 110.668684 70.827698  L 110.576345 70.804568  L 110.486719 70.772499  L 110.400667 70.731799  L 110.319018 70.682861  L 110.242560 70.626156  L 110.172028 70.562229  L 110.108101 70.491697  L 110.051396 70.415239  L 110.002458 70.333591  L 109.961758 70.247539  L 109.929689 70.157912  L 109.906560 70.065573  L 109.892592 69.971412  L 109.887922 69.876336  L 109.892592 69.781259  L 109.906560 69.687098  L 109.929689 69.594760  L 109.961758 69.505133  L 110.002458 69.419081  L 110.051396 69.337433  L 110.108101 69.260974  L 110.172028 69.190442  L 110.242560 69.126516  L 110.319018 69.069810  L 110.400667 69.020872  L 110.486719 68.980173  L 110.576345 68.948104  L 110.668684 68.924974  L 110.762845 68.911007  L 110.857922 68.906336" 
                    stroke-width="1" 
                    stroke="black" 
                    fill="beige" 
                    stroke-linecap="round"
                    stroke-linejoin="round"
                    style="transform: scale(1, 1);"
                    />
<path 
                    d="M 96.034648 34.388792  L 96.129724 34.393463  L 96.223885 34.407431  L 96.316224 34.430560  L 96.405851 34.462629  L 96.491903 34.503329  L 96.573551 34.552267  L 96.650009 34.608972  L 96.720541 34.672899  L 96.784468 34.743431  L 96.841173 34.819889  L 96.890111 34.901538  L 96.930811 34.987590  L 96.962880 35.077216  L 96.986010 35.169555  L 96.999977 35.263716  L 97.004648 35.358792  L 96.999977 35.453869  L 96.986010 35.548030  L 96.962880 35.640369  L 96.930811 35.729995  L 96.890111 35.816047  L 96.841173 35.897696  L 96.784468 35.974154  L 96.720541 36.044686  L 96.650009 36.108613  L 96.573551 36.165318  L 96.491903 36.214256  L 96.405851 36.254956  L 96.316224 36.287025  L 96.223885 36.310154  L 96.129724 36.324122  L 96.034648 36.328792  L 95.939571 36.324122  L 95.845410 36.310154  L 95.753072 36.287025  L 95.663445 36.254956  L 95.577393 36.214256  L 95.495745 36.165318  L 95.419286 36.108613  L 95.348754 36.044686  L 95.284828 35.974154  L 95.228122 35.897696  L 95.179184 35.816047  L 95.138485 35.729995  L 95.106416 35.640369  L 95.083286 35.548030  L 95.069319 35.453869  L 95.064648 35.358792  L 95.069319 35.263716  L 95.083286 35.169555  L 95.106416 35.077216  L 95.138485 34.987590  L 95.179184 34.901538  L 95.228122 34.819889  L 95.284828 34.743431  L 95.348754 34.672899  L 95.419286 34.608972  L 95.495745 34.552267  L 95.577393 34.503329  L 95.663445 34.462629  L 95.753072 34.430560  L 95.845410 34.407431  L 95.939571 34.393463  L 96.034648 34.388792" 
                    stroke-width="1" 
                    stroke="black" 
                    fill="beige" 
                    stroke-linecap="round"
                    stroke-linejoin="round"
                    style="transform: scale(1, 1);"
                    />
<path 
                    d="M 113.164769 56.969877  L 113.259846 56.974547  L 113.354007 56.988515  L 113.446345 57.011645  L 113.535972 57.043714  L 113.622024 57.084413  L 113.703672 57.133351  L 113.780131 57.190057  L 113.850663 57.253983  L 113.914590 57.324515  L 113.971295 57.400974  L 114.020233 57.482622  L 114.060933 57.568674  L 114.093001 57.658301  L 114.116131 57.750639  L 114.130099 57.844800  L 114.134769 57.939877  L 114.130099 58.034953  L 114.116131 58.129114  L 114.093001 58.221453  L 114.060933 58.311080  L 114.020233 58.397132  L 113.971295 58.478780  L 113.914590 58.555238  L 113.850663 58.625770  L 113.780131 58.689697  L 113.703672 58.746402  L 113.622024 58.795340  L 113.535972 58.836040  L 113.446345 58.868109  L 113.354007 58.891238  L 113.259846 58.905206  L 113.164769 58.909877  L 113.069693 58.905206  L 112.975532 58.891238  L 112.883193 58.868109  L 112.793566 58.836040  L 112.707515 58.795340  L 112.625866 58.746402  L 112.549408 58.689697  L 112.478876 58.625770  L 112.414949 58.555238  L 112.358244 58.478780  L 112.309306 58.397132  L 112.268606 58.311080  L 112.236537 58.221453  L 112.213408 58.129114  L 112.199440 58.034953  L 112.194769 57.939877  L 112.199440 57.844800  L 112.213408 57.750639  L 112.236537 57.658301  L 112.268606 57.568674  L 112.309306 57.482622  L 112.358244 57.400974  L 112.414949 57.324515  L 112.478876 57.253983  L 112.549408 57.190057  L 112.625866 57.133351  L 112.707515 57.084413  L 112.793566 57.043714  L 112.883193 57.011645  L 112.975532 56.988515  L 113.069693 56.974547  L 113.164769 56.969877" 
                    stroke-width="1" 
                    stroke="black" 
                    fill="beige" 
                    stroke-linecap="round"
                    stroke-linejoin="round"
                    style="transform: scale(1, 1);"
                    />
<path 
                    d="M 106.482160 28.305163  L 106.577237 28.309834  L 106.671398 28.323801  L 106.763737 28.346931  L 106.853363 28.379000  L 106.939415 28.419699  L 107.021064 28.468637  L 107.097522 28.525343  L 107.168054 28.589269  L 107.231981 28.659802  L 107.288686 28.736260  L 107.337624 28.817908  L 107.378324 28.903960  L 107.410393 28.993587  L 107.433522 29.085925  L 107.447490 29.180086  L 107.452160 29.275163  L 107.447490 29.370240  L 107.433522 29.464401  L 107.410393 29.556739  L 107.378324 29.646366  L 107.337624 29.732418  L 107.288686 29.814066  L 107.231981 29.890524  L 107.168054 29.961057  L 107.097522 30.024983  L 107.021064 30.081689  L 106.939415 30.130627  L 106.853363 30.171326  L 106.763737 30.203395  L 106.671398 30.226525  L 106.577237 30.240492  L 106.482160 30.245163  L 106.387084 30.240492  L 106.292923 30.226525  L 106.200584 30.203395  L 106.110958 30.171326  L 106.024906 30.130627  L 105.943257 30.081689  L 105.866799 30.024983  L 105.796267 29.961057  L 105.732340 29.890524  L 105.675635 29.814066  L 105.626697 29.732418  L 105.585997 29.646366  L 105.553928 29.556739  L 105.530799 29.464401  L 105.516831 29.370240  L 105.512160 29.275163  L 105.516831 29.180086  L 105.530799 29.085925  L 105.553928 28.993587  L 105.585997 28.903960  L 105.626697 28.817908  L 105.675635 28.736260  L 105.732340 28.659802  L 105.796267 28.589269  L 105.866799 28.525343  L 105.943257 28.468637  L 106.024906 28.419699  L 106.110958 28.379000  L 106.200584 28.346931  L 106.292923 28.323801  L 106.387084 28.309834  L 106.482160 28.305163" 
                    stroke-width="1" 
                    stroke="black" 
                    fill="beige" 
                    stroke-linecap="round"
                    stroke-linejoin="round"
                    style="transform: scale(1, 1);"
                    />
<path 
                    d="M 106.482160 28.305163  L 106.577237 28.309834  L 106.671398 28.323801  L 106.763737 28.346931  L 106.853363 28.379000  L 106.939415 28.419699  L 107.021064 28.468637  L 107.097522 28.525343  L 107.168054 28.589269  L 107.231981 28.659802  L 107.288686 28.736260  L 107.337624 28.817908  L 107.378324 28.903960  L 107.410393 28.993587  L 107.433522 29.085925  L 107.447490 29.180086  L 107.452160 29.275163  L 107.447490 29.370240  L 107.433522 29.464401  L 107.410393 29.556739  L 107.378324 29.646366  L 107.337624 29.732418  L 107.288686 29.814066  L 107.231981 29.890524  L 107.168054 29.961057  L 107.097522 30.024983  L 107.021064 30.081689  L 106.939415 30.130627  L 106.853363 30.171326  L 106.763737 30.203395  L 106.671398 30.226525  L 106.577237 30.240492  L 106.482160 30.245163  L 106.387084 30.240492  L 106.292923 30.226525  L 106.200584 30.203395  L 106.110958 30.171326  L 106.024906 30.130627  L 105.943257 30.081689  L 105.866799 30.024983  L 105.796267 29.961057  L 105.732340 29.890524  L 105.675635 29.814066  L 105.626697 29.732418  L 105.585997 29.646366  L 105.553928 29.556739  L 105.530799 29.464401  L 105.516831 29.370240  L 105.512160 29.275163  L 105.516831 29.180086  L 105.530799 29.085925  L 105.553928 28.993587  L 105.585997 28.903960  L 105.626697 28.817908  L 105.675635 28.736260  L 105.732340 28.659802  L 105.796267 28.589269  L 105.866799 28.525343  L 105.943257 28.468637  L 106.024906 28.419699  L 106.110958 28.379000  L 106.200584 28.346931  L 106.292923 28.323801  L 106.387084 28.309834  L 106.482160 28.305163" 
                    stroke-width="1" 
                    stroke="black" 
                    fill="beige" 
                    stroke-linecap="round"
                    stroke-linejoin="round"
                    style="transform: scale(1, 1);"
                    />
<path 
                    d="M 106.482160 28.305163  L 106.577237 28.309834  L 106.671398 28.323801  L 106.763737 28.346931  L 106.853363 28.379000  L 106.939415 28.419699  L 107.021064 28.468637  L 107.097522 28.525343  L 107.168054 28.589269  L 107.231981 28.659802  L 107.288686 28.736260  L 107.337624 28.817908  L 107.378324 28.903960  L 107.410393 28.993587  L 107.433522 29.085925  L 107.447490 29.180086  L 107.452160 29.275163  L 107.447490 29.370240  L 107.433522 29.464401  L 107.410393 29.556739  L 107.378324 29.646366  L 107.337624 29.732418  L 107.288686 29.814066  L 107.231981 29.890524  L 107.168054 29.961057  L 107.097522 30.024983  L 107.021064 30.081689  L 106.939415 30.130627  L 106.853363 30.171326  L 106.763737 30.203395  L 106.671398 30.226525  L 106.577237 30.240492  L 106.482160 30.245163  L 106.387084 30.240492  L 106.292923 30.226525  L 106.200584 30.203395  L 106.110958 30.171326  L 106.024906 30.130627  L 105.943257 30.081689  L 105.866799 30.024983  L 105.796267 29.961057  L 105.732340 29.890524  L 105.675635 29.814066  L 105.626697 29.732418  L 105.585997 29.646366  L 105.553928 29.556739  L 105.530799 29.464401  L 105.516831 29.370240  L 105.512160 29.275163  L 105.516831 29.180086  L 105.530799 29.085925  L 105.553928 28.993587  L 105.585997 28.903960  L 105.626697 28.817908  L 105.675635 28.736260  L 105.732340 28.659802  L 105.796267 28.589269  L 105.866799 28.525343  L 105.943257 28.468637  L 106.024906 28.419699  L 106.110958 28.379000  L 106.200584 28.346931  L 106.292923 28.323801  L 106.387084 28.309834  L 106.482160 28.305163" 
                    stroke-width="1" 
                    stroke="black" 
                    fill="beige" 
                    stroke-linecap="round"
                    stroke-linejoin="round"
                    style="transform: scale(1, 1);"
                    />
<path 
                    d="M 108.070855 43.046106  L 108.165931 43.050777  L 108.260092 43.064744  L 108.352431 43.087874  L 108.442058 43.119943  L 108.528109 43.160643  L 108.609758 43.209581  L 108.686216 43.266286  L 108.756748 43.330213  L 108.820675 43.400745  L 108.877380 43.477203  L 108.926318 43.558851  L 108.967018 43.644903  L 108.999087 43.734530  L 109.022216 43.826869  L 109.036184 43.921030  L 109.040855 44.016106  L 109.036184 44.111183  L 109.022216 44.205344  L 108.999087 44.297682  L 108.967018 44.387309  L 108.926318 44.473361  L 108.877380 44.555009  L 108.820675 44.631468  L 108.756748 44.702000  L 108.686216 44.765926  L 108.609758 44.822632  L 108.528109 44.871570  L 108.442058 44.912269  L 108.352431 44.944338  L 108.260092 44.967468  L 108.165931 44.981435  L 108.070855 44.986106  L 107.975778 44.981435  L 107.881617 44.967468  L 107.789278 44.944338  L 107.699652 44.912269  L 107.613600 44.871570  L 107.531952 44.822632  L 107.455493 44.765926  L 107.384961 44.702000  L 107.321034 44.631468  L 107.264329 44.555009  L 107.215391 44.473361  L 107.174691 44.387309  L 107.142623 44.297682  L 107.119493 44.205344  L 107.105525 44.111183  L 107.100855 44.016106  L 107.105525 43.921030  L 107.119493 43.826869  L 107.142623 43.734530  L 107.174691 43.644903  L 107.215391 43.558851  L 107.264329 43.477203  L 107.321034 43.400745  L 107.384961 43.330213  L 107.455493 43.266286  L 107.531952 43.209581  L 107.613600 43.160643  L 107.699652 43.119943  L 107.789278 43.087874  L 107.881617 43.064744  L 107.975778 43.050777  L 108.070855 43.046106" 
                    stroke-width="1" 
                    stroke="black" 
                    fill="beige" 
                    stroke-linecap="round"
                    stroke-linejoin="round"
                    style="transform: scale(1, 1);"
                    />
<path 
                    d="M 63.204833 53.505728  L 63.299910 53.510399  L 63.394071 53.524367  L 63.486409 53.547496  L 63.576036 53.579565  L 63.662088 53.620265  L 63.743736 53.669203  L 63.820194 53.725908  L 63.890727 53.789835  L 63.954653 53.860367  L 64.011358 53.936825  L 64.060297 54.018473  L 64.100996 54.104525  L 64.133065 54.194152  L 64.156195 54.286491  L 64.170162 54.380652  L 64.174833 54.475728  L 64.170162 54.570805  L 64.156195 54.664966  L 64.133065 54.757304  L 64.100996 54.846931  L 64.060297 54.932983  L 64.011358 55.014631  L 63.954653 55.091090  L 63.890727 55.161622  L 63.820194 55.225548  L 63.743736 55.282254  L 63.662088 55.331192  L 63.576036 55.371891  L 63.486409 55.403960  L 63.394071 55.427090  L 63.299910 55.441057  L 63.204833 55.445728  L 63.109756 55.441057  L 63.015595 55.427090  L 62.923257 55.403960  L 62.833630 55.371891  L 62.747578 55.331192  L 62.665930 55.282254  L 62.589471 55.225548  L 62.518939 55.161622  L 62.455013 55.091090  L 62.398307 55.014631  L 62.349369 54.932983  L 62.308670 54.846931  L 62.276601 54.757304  L 62.253471 54.664966  L 62.239504 54.570805  L 62.234833 54.475728  L 62.239504 54.380652  L 62.253471 54.286491  L 62.276601 54.194152  L 62.308670 54.104525  L 62.349369 54.018473  L 62.398307 53.936825  L 62.455013 53.860367  L 62.518939 53.789835  L 62.589471 53.725908  L 62.665930 53.669203  L 62.747578 53.620265  L 62.833630 53.579565  L 62.923257 53.547496  L 63.015595 53.524367  L 63.109756 53.510399  L 63.204833 53.505728" 
                    stroke-width="1" 
                    stroke="black" 
                    fill="beige" 
                    stroke-linecap="round"
                    stroke-linejoin="round"
                    style="transform: scale(1, 1);"
                    />
<path 
                    d="M 111.152467 48.338208  L 111.247544 48.342879  L 111.341705 48.356846  L 111.434043 48.379976  L 111.523670 48.412045  L 111.609722 48.452744  L 111.691370 48.501682  L 111.767829 48.558388  L 111.838361 48.622314  L 111.902287 48.692846  L 111.958993 48.769305  L 112.007931 48.850953  L 112.048630 48.937005  L 112.080699 49.026632  L 112.103829 49.118970  L 112.117796 49.213131  L 112.122467 49.308208  L 112.117796 49.403284  L 112.103829 49.497445  L 112.080699 49.589784  L 112.048630 49.679411  L 112.007931 49.765463  L 111.958993 49.847111  L 111.902287 49.923569  L 111.838361 49.994101  L 111.767829 50.058028  L 111.691370 50.114733  L 111.609722 50.163671  L 111.523670 50.204371  L 111.434043 50.236440  L 111.341705 50.259570  L 111.247544 50.273537  L 111.152467 50.278208  L 111.057391 50.273537  L 110.963230 50.259570  L 110.870891 50.236440  L 110.781264 50.204371  L 110.695212 50.163671  L 110.613564 50.114733  L 110.537106 50.058028  L 110.466574 49.994101  L 110.402647 49.923569  L 110.345942 49.847111  L 110.297004 49.765463  L 110.256304 49.679411  L 110.224235 49.589784  L 110.201105 49.497445  L 110.187138 49.403284  L 110.182467 49.308208  L 110.187138 49.213131  L 110.201105 49.118970  L 110.224235 49.026632  L 110.256304 48.937005  L 110.297004 48.850953  L 110.345942 48.769305  L 110.402647 48.692846  L 110.466574 48.622314  L 110.537106 48.558388  L 110.613564 48.501682  L 110.695212 48.452744  L 110.781264 48.412045  L 110.870891 48.379976  L 110.963230 48.356846  L 111.057391 48.342879  L 111.152467 48.338208" 
                    stroke-width="1" 
                    stroke="black" 
                    fill="beige" 
                    stroke-linecap="round"
                    stroke-linejoin="round"
                    style="transform: scale(1, 1);"
                    />
<path 
                    d="M 108.070855 43.046106  L 108.165931 43.050777  L 108.260092 43.064744  L 108.352431 43.087874  L 108.442058 43.119943  L 108.528109 43.160643  L 108.609758 43.209581  L 108.686216 43.266286  L 108.756748 43.330213  L 108.820675 43.400745  L 108.877380 43.477203  L 108.926318 43.558851  L 108.967018 43.644903  L 108.999087 43.734530  L 109.022216 43.826869  L 109.036184 43.921030  L 109.040855 44.016106  L 109.036184 44.111183  L 109.022216 44.205344  L 108.999087 44.297682  L 108.967018 44.387309  L 108.926318 44.473361  L 108.877380 44.555009  L 108.820675 44.631468  L 108.756748 44.702000  L 108.686216 44.765926  L 108.609758 44.822632  L 108.528109 44.871570  L 108.442058 44.912269  L 108.352431 44.944338  L 108.260092 44.967468  L 108.165931 44.981435  L 108.070855 44.986106  L 107.975778 44.981435  L 107.881617 44.967468  L 107.789278 44.944338  L 107.699652 44.912269  L 107.613600 44.871570  L 107.531952 44.822632  L 107.455493 44.765926  L 107.384961 44.702000  L 107.321034 44.631468  L 107.264329 44.555009  L 107.215391 44.473361  L 107.174691 44.387309  L 107.142623 44.297682  L 107.119493 44.205344  L 107.105525 44.111183  L 107.100855 44.016106  L 107.105525 43.921030  L 107.119493 43.826869  L 107.142623 43.734530  L 107.174691 43.644903  L 107.215391 43.558851  L 107.264329 43.477203  L 107.321034 43.400745  L 107.384961 43.330213  L 107.455493 43.266286  L 107.531952 43.209581  L 107.613600 43.160643  L 107.699652 43.119943  L 107.789278 43.087874  L 107.881617 43.064744  L 107.975778 43.050777  L 108.070855 43.046106" 
                    stroke-width="1" 
                    stroke="black" 
                    fill="beige" 
                    stroke-linecap="round"
                    stroke-linejoin="round"
                    style="transform: scale(1, 1);"
                    />
<path 
                    d="M 63.204833 53.505728  L 63.299910 53.510399  L 63.394071 53.524367  L 63.486409 53.547496  L 63.576036 53.579565  L 63.662088 53.620265  L 63.743736 53.669203  L 63.820194 53.725908  L 63.890727 53.789835  L 63.954653 53.860367  L 64.011358 53.936825  L 64.060297 54.018473  L 64.100996 54.104525  L 64.133065 54.194152  L 64.156195 54.286491  L 64.170162 54.380652  L 64.174833 54.475728  L 64.170162 54.570805  L 64.156195 54.664966  L 64.133065 54.757304  L 64.100996 54.846931  L 64.060297 54.932983  L 64.011358 55.014631  L 63.954653 55.091090  L 63.890727 55.161622  L 63.820194 55.225548  L 63.743736 55.282254  L 63.662088 55.331192  L 63.576036 55.371891  L 63.486409 55.403960  L 63.394071 55.427090  L 63.299910 55.441057  L 63.204833 55.445728  L 63.109756 55.441057  L 63.015595 55.427090  L 62.923257 55.403960  L 62.833630 55.371891  L 62.747578 55.331192  L 62.665930 55.282254  L 62.589471 55.225548  L 62.518939 55.161622  L 62.455013 55.091090  L 62.398307 55.014631  L 62.349369 54.932983  L 62.308670 54.846931  L 62.276601 54.757304  L 62.253471 54.664966  L 62.239504 54.570805  L 62.234833 54.475728  L 62.239504 54.380652  L 62.253471 54.286491  L 62.276601 54.194152  L 62.308670 54.104525  L 62.349369 54.018473  L 62.398307 53.936825  L 62.455013 53.860367  L 62.518939 53.789835  L 62.589471 53.725908  L 62.665930 53.669203  L 62.747578 53.620265  L 62.833630 53.579565  L 62.923257 53.547496  L 63.015595 53.524367  L 63.109756 53.510399  L 63.204833 53.505728" 
                    stroke-width="1" 
                    stroke="black" 
                    fill="beige" 
                    stroke-linecap="round"
                    stroke-linejoin="round"
                    style="transform: scale(1, 1);"
                    />
<path 
                    d="M 111.152467 48.338208  L 111.247544 48.342879  L 111.341705 48.356846  L 111.434043 48.379976  L 111.523670 48.412045  L 111.609722 48.452744  L 111.691370 48.501682  L 111.767829 48.558388  L 111.838361 48.622314  L 111.902287 48.692846  L 111.958993 48.769305  L 112.007931 48.850953  L 112.048630 48.937005  L 112.080699 49.026632  L 112.103829 49.118970  L 112.117796 49.213131  L 112.122467 49.308208  L 112.117796 49.403284  L 112.103829 49.497445  L 112.080699 49.589784  L 112.048630 49.679411  L 112.007931 49.765463  L 111.958993 49.847111  L 111.902287 49.923569  L 111.838361 49.994101  L 111.767829 50.058028  L 111.691370 50.114733  L 111.609722 50.163671  L 111.523670 50.204371  L 111.434043 50.236440  L 111.341705 50.259570  L 111.247544 50.273537  L 111.152467 50.278208  L 111.057391 50.273537  L 110.963230 50.259570  L 110.870891 50.236440  L 110.781264 50.204371  L 110.695212 50.163671  L 110.613564 50.114733  L 110.537106 50.058028  L 110.466574 49.994101  L 110.402647 49.923569  L 110.345942 49.847111  L 110.297004 49.765463  L 110.256304 49.679411  L 110.224235 49.589784  L 110.201105 49.497445  L 110.187138 49.403284  L 110.182467 49.308208  L 110.187138 49.213131  L 110.201105 49.118970  L 110.224235 49.026632  L 110.256304 48.937005  L 110.297004 48.850953  L 110.345942 48.769305  L 110.402647 48.692846  L 110.466574 48.622314  L 110.537106 48.558388  L 110.613564 48.501682  L 110.695212 48.452744  L 110.781264 48.412045  L 110.870891 48.379976  L 110.963230 48.356846  L 111.057391 48.342879  L 111.152467 48.338208" 
                    stroke-width="1" 
                    stroke="black" 
                    fill="beige" 
                    stroke-linecap="round"
                    stroke-linejoin="round"
                    style="transform: scale(1, 1);"
                    />
                </svg>
            