
                <svg 
                  xmlns="http://www.w3.org/2000/svg" 
                  viewBox="0 0 125 125" 
                  width="125mm" 
                  height="125mm"
                  style="transform: scale(1, -1)">
                    <path 
                    d="M 54.142730 72.540959  L 69.970722 116.248366  L 71.134015 93.353497  L 54.142730 72.540959" 
                    stroke-width="1" 
                    stroke="black" 
                    fill="beige" 
                    stroke-linecap="round"
                    stroke-linejoin="round"
                    style="transform: scale(1, 1);"
                    />
<path 
                    d="M 71.134015 93.353497  L 62.056726 94.394662  M 54.142730 72.540959  L 70.552369 104.800931  M 69.970722 116.248366  L 62.638373 82.947228" 
                    stroke-width="1" 
                    stroke="red" 
                    fill="none" 
                    stroke-linecap="round"
                    stroke-linejoin="round"
                    style="transform: scale(1, 1);"
                    />
<path 
                    d="M 54.142730 72.540959  L 72.145029 73.455659  M 69.970722 116.248366  L 81.884641 106.521883  M 71.134015 93.353497  L 62.775797 96.380303  M 54.142730 72.540959  L 119.443563 75.858908  M 69.970722 116.248366  L 119.443563 75.858908  M 71.134015 93.353497  L 119.443563 75.858908" 
                    stroke-width="1" 
                    stroke="green" 
                    fill="none" 
                    stroke-linecap="round"
                    stroke-linejoin="round"
                    style="transform: scale(1, 1);"
                    />
<path 
                    d="M 78.672758 72.178597  L 80.370594 72.262006  L 82.052080 72.511431  L 83.701021 72.924469  L 85.301537 73.497143  L 86.838214 74.223937  L 88.296254 75.097853  L 89.661614 76.110472  L 90.921145 77.252045  L 92.062717 78.511576  L 93.075337 79.876936  L 93.949253 81.334976  L 94.676047 82.871653  L 95.248721 84.472169  L 95.661759 86.121110  L 95.911184 87.802596  L 95.994593 89.500432  L 95.911184 91.198269  L 95.661759 92.879755  L 95.248721 94.528696  L 94.676047 96.129212  L 93.949253 97.665889  L 93.075337 99.123929  L 92.062717 100.489289  L 90.921145 101.748820  L 89.661614 102.890392  L 88.296254 103.903012  L 86.838214 104.776927  L 85.301537 105.503722  L 83.701021 106.076395  L 82.052080 106.489434  L 80.370594 106.738859  L 78.672758 106.822268  L 76.974921 106.738859  L 75.293435 106.489434  L 73.644494 106.076395  L 72.043978 105.503722  L 70.507301 104.776927  L 69.049261 103.903012  L 67.683901 102.890392  L 66.424370 101.748820  L 65.282798 100.489289  L 64.270178 99.123929  L 63.396263 97.665889  L 62.669468 96.129212  L 62.096795 94.528696  L 61.683756 92.879755  L 61.434331 91.198269  L 61.350922 89.500432  L 61.434331 87.802596  L 61.683756 86.121110  L 62.096795 84.472169  L 62.669468 82.871653  L 63.396263 81.334976  L 64.270178 79.876936  L 65.282798 78.511576  L 66.424370 77.252045  L 67.683901 76.110472  L 69.049261 75.097853  L 70.507301 74.223937  L 72.043978 73.497143  L 73.644494 72.924469  L 75.293435 72.511431  L 76.974921 72.262006  L 78.672758 72.178597" 
                    stroke-width="1" 
                    stroke="black" 
                    fill="none" 
                    stroke-linecap="round"
                    stroke-linejoin="round"
                    style="transform: scale(1, 1);"
                    />
<path 
                    d="M 62.056726 93.424662  L 62.151803 93.429333  L 62.245964 93.443301  L 62.338302 93.466430  L 62.427929 93.498499  L 62.513981 93.539199  L 62.595629 93.588137  L 62.672088 93.644842  L 62.742620 93.708769  L 62.806546 93.779301  L 62.863252 93.855759  L 62.912190 93.937407  L 62.952889 94.023459  L 62.984958 94.113086  L 63.008088 94.205425  L 63.022055 94.299586  L 63.026726 94.394662  L 63.022055 94.489739  L 63.008088 94.583900  L 62.984958 94.676238  L 62.952889 94.765865  L 62.912190 94.851917  L 62.863252 94.933565  L 62.806546 95.010024  L 62.742620 95.080556  L 62.672088 95.144482  L 62.595629 95.201188  L 62.513981 95.250126  L 62.427929 95.290825  L 62.338302 95.322894  L 62.245964 95.346024  L 62.151803 95.359991  L 62.056726 95.364662  L 61.961650 95.359991  L 61.867489 95.346024  L 61.775150 95.322894  L 61.685523 95.290825  L 61.599471 95.250126  L 61.517823 95.201188  L 61.441365 95.144482  L 61.370833 95.080556  L 61.306906 95.010024  L 61.250201 94.933565  L 61.201263 94.851917  L 61.160563 94.765865  L 61.128494 94.676238  L 61.105364 94.583900  L 61.091397 94.489739  L 61.086726 94.394662  L 61.091397 94.299586  L 61.105364 94.205425  L 61.128494 94.113086  L 61.160563 94.023459  L 61.201263 93.937407  L 61.250201 93.855759  L 61.306906 93.779301  L 61.370833 93.708769  L 61.441365 93.644842  L 61.517823 93.588137  L 61.599471 93.539199  L 61.685523 93.498499  L 61.775150 93.466430  L 61.867489 93.443301  L 61.961650 93.429333  L 62.056726 93.424662" 
                    stroke-width="1" 
                    stroke="black" 
                    fill="beige" 
                    stroke-linecap="round"
                    stroke-linejoin="round"
                    style="transform: scale(1, 1);"
                    />
<path 
                    d="M 70.552369 103.830931  L 70.647445 103.835602  L 70.741606 103.849570  L 70.833945 103.872699  L 70.923572 103.904768  L 71.009624 103.945468  L 71.091272 103.994406  L 71.167730 104.051111  L 71.238262 104.115038  L 71.302189 104.185570  L 71.358894 104.262028  L 71.407832 104.343677  L 71.448532 104.429729  L 71.480601 104.519355  L 71.503731 104.611694  L 71.517698 104.705855  L 71.522369 104.800931  L 71.517698 104.896008  L 71.503731 104.990169  L 71.480601 105.082508  L 71.448532 105.172134  L 71.407832 105.258186  L 71.358894 105.339835  L 71.302189 105.416293  L 71.238262 105.486825  L 71.167730 105.550752  L 71.091272 105.607457  L 71.009624 105.656395  L 70.923572 105.697095  L 70.833945 105.729164  L 70.741606 105.752293  L 70.647445 105.766261  L 70.552369 105.770931  L 70.457292 105.766261  L 70.363131 105.752293  L 70.270793 105.729164  L 70.181166 105.697095  L 70.095114 105.656395  L 70.013466 105.607457  L 69.937007 105.550752  L 69.866475 105.486825  L 69.802549 105.416293  L 69.745843 105.339835  L 69.696905 105.258186  L 69.656206 105.172134  L 69.624137 105.082508  L 69.601007 104.990169  L 69.587040 104.896008  L 69.582369 104.800931  L 69.587040 104.705855  L 69.601007 104.611694  L 69.624137 104.519355  L 69.656206 104.429729  L 69.696905 104.343677  L 69.745843 104.262028  L 69.802549 104.185570  L 69.866475 104.115038  L 69.937007 104.051111  L 70.013466 103.994406  L 70.095114 103.945468  L 70.181166 103.904768  L 70.270793 103.872699  L 70.363131 103.849570  L 70.457292 103.835602  L 70.552369 103.830931" 
                    stroke-width="1" 
                    stroke="black" 
                    fill="beige" 
                    stroke-linecap="round"
                    stroke-linejoin="round"
                    style="transform: scale(1, 1);"
                    />
<path 
                    d="M 62.638373 81.977228  L 62.733449 81.981899  L 62.827610 81.995866  L 62.919949 82.018996  L 63.009576 82.051065  L 63.095628 82.091764  L 63.177276 82.140703  L 63.253734 82.197408  L 63.324266 82.261334  L 63.388193 82.331867  L 63.444898 82.408325  L 63.493836 82.489973  L 63.534536 82.576025  L 63.566605 82.665652  L 63.589734 82.757990  L 63.603702 82.852151  L 63.608373 82.947228  L 63.603702 83.042305  L 63.589734 83.136466  L 63.566605 83.228804  L 63.534536 83.318431  L 63.493836 83.404483  L 63.444898 83.486131  L 63.388193 83.562590  L 63.324266 83.633122  L 63.253734 83.697048  L 63.177276 83.753754  L 63.095628 83.802692  L 63.009576 83.843391  L 62.919949 83.875460  L 62.827610 83.898590  L 62.733449 83.912557  L 62.638373 83.917228  L 62.543296 83.912557  L 62.449135 83.898590  L 62.356797 83.875460  L 62.267170 83.843391  L 62.181118 83.802692  L 62.099470 83.753754  L 62.023011 83.697048  L 61.952479 83.633122  L 61.888553 83.562590  L 61.831847 83.486131  L 61.782909 83.404483  L 61.742210 83.318431  L 61.710141 83.228804  L 61.687011 83.136466  L 61.673044 83.042305  L 61.668373 82.947228  L 61.673044 82.852151  L 61.687011 82.757990  L 61.710141 82.665652  L 61.742210 82.576025  L 61.782909 82.489973  L 61.831847 82.408325  L 61.888553 82.331867  L 61.952479 82.261334  L 62.023011 82.197408  L 62.099470 82.140703  L 62.181118 82.091764  L 62.267170 82.051065  L 62.356797 82.018996  L 62.449135 81.995866  L 62.543296 81.981899  L 62.638373 81.977228" 
                    stroke-width="1" 
                    stroke="black" 
                    fill="beige" 
                    stroke-linecap="round"
                    stroke-linejoin="round"
                    style="transform: scale(1, 1);"
                    />
<path 
                    d="M 72.145029 72.485659  L 72.240105 72.490330  L 72.334266 72.504298  L 72.426605 72.527427  L 72.516232 72.559496  L 72.602283 72.600196  L 72.683932 72.649134  L 72.760390 72.705839  L 72.830922 72.769766  L 72.894849 72.840298  L 72.951554 72.916756  L 73.000492 72.998405  L 73.041192 73.084456  L 73.073261 73.174083  L 73.096390 73.266422  L 73.110358 73.360583  L 73.115029 73.455659  L 73.110358 73.550736  L 73.096390 73.644897  L 73.073261 73.737236  L 73.041192 73.826862  L 73.000492 73.912914  L 72.951554 73.994563  L 72.894849 74.071021  L 72.830922 74.141553  L 72.760390 74.205480  L 72.683932 74.262185  L 72.602283 74.311123  L 72.516232 74.351823  L 72.426605 74.383892  L 72.334266 74.407021  L 72.240105 74.420989  L 72.145029 74.425659  L 72.049952 74.420989  L 71.955791 74.407021  L 71.863453 74.383892  L 71.773826 74.351823  L 71.687774 74.311123  L 71.606126 74.262185  L 71.529667 74.205480  L 71.459135 74.141553  L 71.395209 74.071021  L 71.338503 73.994563  L 71.289565 73.912914  L 71.248866 73.826862  L 71.216797 73.737236  L 71.193667 73.644897  L 71.179699 73.550736  L 71.175029 73.455659  L 71.179699 73.360583  L 71.193667 73.266422  L 71.216797 73.174083  L 71.248866 73.084456  L 71.289565 72.998405  L 71.338503 72.916756  L 71.395209 72.840298  L 71.459135 72.769766  L 71.529667 72.705839  L 71.606126 72.649134  L 71.687774 72.600196  L 71.773826 72.559496  L 71.863453 72.527427  L 71.955791 72.504298  L 72.049952 72.490330  L 72.145029 72.485659" 
                    stroke-width="1" 
                    stroke="black" 
                    fill="beige" 
                    stroke-linecap="round"
                    stroke-linejoin="round"
                    style="transform: scale(1, 1);"
                    />
<path 
                    d="M 81.884641 105.551883  L 81.979717 105.556554  L 82.073878 105.570522  L 82.166217 105.593651  L 82.255844 105.625720  L 82.341896 105.666420  L 82.423544 105.715358  L 82.500002 105.772063  L 82.570534 105.835990  L 82.634461 105.906522  L 82.691166 105.982980  L 82.740104 106.064628  L 82.780804 106.150680  L 82.812873 106.240307  L 82.836003 106.332646  L 82.849970 106.426807  L 82.854641 106.521883  L 82.849970 106.616960  L 82.836003 106.711121  L 82.812873 106.803459  L 82.780804 106.893086  L 82.740104 106.979138  L 82.691166 107.060786  L 82.634461 107.137245  L 82.570534 107.207777  L 82.500002 107.271703  L 82.423544 107.328409  L 82.341896 107.377347  L 82.255844 107.418046  L 82.166217 107.450115  L 82.073878 107.473245  L 81.979717 107.487213  L 81.884641 107.491883  L 81.789564 107.487213  L 81.695403 107.473245  L 81.603065 107.450115  L 81.513438 107.418046  L 81.427386 107.377347  L 81.345738 107.328409  L 81.269279 107.271703  L 81.198747 107.207777  L 81.134821 107.137245  L 81.078115 107.060786  L 81.029177 106.979138  L 80.988478 106.893086  L 80.956409 106.803459  L 80.933279 106.711121  L 80.919312 106.616960  L 80.914641 106.521883  L 80.919312 106.426807  L 80.933279 106.332646  L 80.956409 106.240307  L 80.988478 106.150680  L 81.029177 106.064628  L 81.078115 105.982980  L 81.134821 105.906522  L 81.198747 105.835990  L 81.269279 105.772063  L 81.345738 105.715358  L 81.427386 105.666420  L 81.513438 105.625720  L 81.603065 105.593651  L 81.695403 105.570522  L 81.789564 105.556554  L 81.884641 105.551883" 
                    stroke-width="1" 
                    stroke="black" 
                    fill="beige" 
                    stroke-linecap="round"
                    stroke-linejoin="round"
                    style="transform: scale(1, 1);"
                    />
<path 
                    d="M 62.775797 95.410303  L 62.870873 95.414974  L 62.965034 95.428941  L 63.057373 95.452071  L 63.147000 95.484140  L 63.233051 95.524839  L 63.314700 95.573777  L 63.391158 95.630483  L 63.461690 95.694409  L 63.525617 95.764941  L 63.582322 95.841400  L 63.631260 95.923048  L 63.671960 96.009100  L 63.704029 96.098727  L 63.727158 96.191065  L 63.741126 96.285226  L 63.745797 96.380303  L 63.741126 96.475379  L 63.727158 96.569540  L 63.704029 96.661879  L 63.671960 96.751506  L 63.631260 96.837558  L 63.582322 96.919206  L 63.525617 96.995664  L 63.461690 97.066196  L 63.391158 97.130123  L 63.314700 97.186828  L 63.233051 97.235766  L 63.147000 97.276466  L 63.057373 97.308535  L 62.965034 97.331665  L 62.870873 97.345632  L 62.775797 97.350303  L 62.680720 97.345632  L 62.586559 97.331665  L 62.494220 97.308535  L 62.404594 97.276466  L 62.318542 97.235766  L 62.236893 97.186828  L 62.160435 97.130123  L 62.089903 97.066196  L 62.025976 96.995664  L 61.969271 96.919206  L 61.920333 96.837558  L 61.879633 96.751506  L 61.847564 96.661879  L 61.824435 96.569540  L 61.810467 96.475379  L 61.805797 96.380303  L 61.810467 96.285226  L 61.824435 96.191065  L 61.847564 96.098727  L 61.879633 96.009100  L 61.920333 95.923048  L 61.969271 95.841400  L 62.025976 95.764941  L 62.089903 95.694409  L 62.160435 95.630483  L 62.236893 95.573777  L 62.318542 95.524839  L 62.404594 95.484140  L 62.494220 95.452071  L 62.586559 95.428941  L 62.680720 95.414974  L 62.775797 95.410303" 
                    stroke-width="1" 
                    stroke="black" 
                    fill="beige" 
                    stroke-linecap="round"
                    stroke-linejoin="round"
                    style="transform: scale(1, 1);"
                    />
<path 
                    d="M 119.443563 74.888908  L 119.538639 74.893579  L 119.632800 74.907546  L 119.725139 74.930676  L 119.814765 74.962745  L 119.900817 75.003444  L 119.982466 75.052382  L 120.058924 75.109088  L 120.129456 75.173014  L 120.193383 75.243546  L 120.250088 75.320005  L 120.299026 75.401653  L 120.339726 75.487705  L 120.371795 75.577332  L 120.394924 75.669670  L 120.408892 75.763831  L 120.413563 75.858908  L 120.408892 75.953984  L 120.394924 76.048145  L 120.371795 76.140484  L 120.339726 76.230111  L 120.299026 76.316163  L 120.250088 76.397811  L 120.193383 76.474269  L 120.129456 76.544801  L 120.058924 76.608728  L 119.982466 76.665433  L 119.900817 76.714371  L 119.814765 76.755071  L 119.725139 76.787140  L 119.632800 76.810269  L 119.538639 76.824237  L 119.443563 76.828908  L 119.348486 76.824237  L 119.254325 76.810269  L 119.161986 76.787140  L 119.072360 76.755071  L 118.986308 76.714371  L 118.904659 76.665433  L 118.828201 76.608728  L 118.757669 76.544801  L 118.693742 76.474269  L 118.637037 76.397811  L 118.588099 76.316163  L 118.547399 76.230111  L 118.515330 76.140484  L 118.492201 76.048145  L 118.478233 75.953984  L 118.473563 75.858908  L 118.478233 75.763831  L 118.492201 75.669670  L 118.515330 75.577332  L 118.547399 75.487705  L 118.588099 75.401653  L 118.637037 75.320005  L 118.693742 75.243546  L 118.757669 75.173014  L 118.828201 75.109088  L 118.904659 75.052382  L 118.986308 75.003444  L 119.072360 74.962745  L 119.161986 74.930676  L 119.254325 74.907546  L 119.348486 74.893579  L 119.443563 74.888908" 
                    stroke-width="1" 
                    stroke="black" 
                    fill="beige" 
                    stroke-linecap="round"
                    stroke-linejoin="round"
                    style="transform: scale(1, 1);"
                    />
<path 
                    d="M 119.443563 74.888908  L 119.538639 74.893579  L 119.632800 74.907546  L 119.725139 74.930676  L 119.814765 74.962745  L 119.900817 75.003444  L 119.982466 75.052382  L 120.058924 75.109088  L 120.129456 75.173014  L 120.193383 75.243546  L 120.250088 75.320005  L 120.299026 75.401653  L 120.339726 75.487705  L 120.371795 75.577332  L 120.394924 75.669670  L 120.408892 75.763831  L 120.413563 75.858908  L 120.408892 75.953984  L 120.394924 76.048145  L 120.371795 76.140484  L 120.339726 76.230111  L 120.299026 76.316163  L 120.250088 76.397811  L 120.193383 76.474269  L 120.129456 76.544801  L 120.058924 76.608728  L 119.982466 76.665433  L 119.900817 76.714371  L 119.814765 76.755071  L 119.725139 76.787140  L 119.632800 76.810269  L 119.538639 76.824237  L 119.443563 76.828908  L 119.348486 76.824237  L 119.254325 76.810269  L 119.161986 76.787140  L 119.072360 76.755071  L 118.986308 76.714371  L 118.904659 76.665433  L 118.828201 76.608728  L 118.757669 76.544801  L 118.693742 76.474269  L 118.637037 76.397811  L 118.588099 76.316163  L 118.547399 76.230111  L 118.515330 76.140484  L 118.492201 76.048145  L 118.478233 75.953984  L 118.473563 75.858908  L 118.478233 75.763831  L 118.492201 75.669670  L 118.515330 75.577332  L 118.547399 75.487705  L 118.588099 75.401653  L 118.637037 75.320005  L 118.693742 75.243546  L 118.757669 75.173014  L 118.828201 75.109088  L 118.904659 75.052382  L 118.986308 75.003444  L 119.072360 74.962745  L 119.161986 74.930676  L 119.254325 74.907546  L 119.348486 74.893579  L 119.443563 74.888908" 
                    stroke-width="1" 
                    stroke="black" 
                    fill="beige" 
                    stroke-linecap="round"
                    stroke-linejoin="round"
                    style="transform: scale(1, 1);"
                    />
<path 
                    d="M 119.443563 74.888908  L 119.538639 74.893579  L 119.632800 74.907546  L 119.725139 74.930676  L 119.814765 74.962745  L 119.900817 75.003444  L 119.982466 75.052382  L 120.058924 75.109088  L 120.129456 75.173014  L 120.193383 75.243546  L 120.250088 75.320005  L 120.299026 75.401653  L 120.339726 75.487705  L 120.371795 75.577332  L 120.394924 75.669670  L 120.408892 75.763831  L 120.413563 75.858908  L 120.408892 75.953984  L 120.394924 76.048145  L 120.371795 76.140484  L 120.339726 76.230111  L 120.299026 76.316163  L 120.250088 76.397811  L 120.193383 76.474269  L 120.129456 76.544801  L 120.058924 76.608728  L 119.982466 76.665433  L 119.900817 76.714371  L 119.814765 76.755071  L 119.725139 76.787140  L 119.632800 76.810269  L 119.538639 76.824237  L 119.443563 76.828908  L 119.348486 76.824237  L 119.254325 76.810269  L 119.161986 76.787140  L 119.072360 76.755071  L 118.986308 76.714371  L 118.904659 76.665433  L 118.828201 76.608728  L 118.757669 76.544801  L 118.693742 76.474269  L 118.637037 76.397811  L 118.588099 76.316163  L 118.547399 76.230111  L 118.515330 76.140484  L 118.492201 76.048145  L 118.478233 75.953984  L 118.473563 75.858908  L 118.478233 75.763831  L 118.492201 75.669670  L 118.515330 75.577332  L 118.547399 75.487705  L 118.588099 75.401653  L 118.637037 75.320005  L 118.693742 75.243546  L 118.757669 75.173014  L 118.828201 75.109088  L 118.904659 75.052382  L 118.986308 75.003444  L 119.072360 74.962745  L 119.161986 74.930676  L 119.254325 74.907546  L 119.348486 74.893579  L 119.443563 74.888908" 
                    stroke-width="1" 
                    stroke="black" 
                    fill="beige" 
                    stroke-linecap="round"
                    stroke-linejoin="round"
                    style="transform: scale(1, 1);"
                    />
<path 
                    d="M 86.793146 73.229933  L 86.888223 73.234604  L 86.982384 73.248572  L 87.074722 73.271701  L 87.164349 73.303770  L 87.250401 73.344470  L 87.332049 73.393408  L 87.408508 73.450113  L 87.479040 73.514040  L 87.542966 73.584572  L 87.599672 73.661030  L 87.648610 73.742678  L 87.689309 73.828730  L 87.721378 73.918357  L 87.744508 74.010696  L 87.758475 74.104857  L 87.763146 74.199933  L 87.758475 74.295010  L 87.744508 74.389171  L 87.721378 74.481509  L 87.689309 74.571136  L 87.648610 74.657188  L 87.599672 74.738836  L 87.542966 74.815295  L 87.479040 74.885827  L 87.408508 74.949753  L 87.332049 75.006459  L 87.250401 75.055397  L 87.164349 75.096096  L 87.074722 75.128165  L 86.982384 75.151295  L 86.888223 75.165263  L 86.793146 75.169933  L 86.698070 75.165263  L 86.603909 75.151295  L 86.511570 75.128165  L 86.421943 75.096096  L 86.335891 75.055397  L 86.254243 75.006459  L 86.177785 74.949753  L 86.107253 74.885827  L 86.043326 74.815295  L 85.986621 74.738836  L 85.937683 74.657188  L 85.896983 74.571136  L 85.864914 74.481509  L 85.841785 74.389171  L 85.827817 74.295010  L 85.823146 74.199933  L 85.827817 74.104857  L 85.841785 74.010696  L 85.864914 73.918357  L 85.896983 73.828730  L 85.937683 73.742678  L 85.986621 73.661030  L 86.043326 73.584572  L 86.107253 73.514040  L 86.177785 73.450113  L 86.254243 73.393408  L 86.335891 73.344470  L 86.421943 73.303770  L 86.511570 73.271701  L 86.603909 73.248572  L 86.698070 73.234604  L 86.793146 73.229933" 
                    stroke-width="1" 
                    stroke="black" 
                    fill="beige" 
                    stroke-linecap="round"
                    stroke-linejoin="round"
                    style="transform: scale(1, 1);"
                    />
<path 
                    d="M 94.707142 95.083637  L 94.802219 95.088308  L 94.896380 95.102275  L 94.988719 95.125405  L 95.078345 95.157474  L 95.164397 95.198173  L 95.246046 95.247111  L 95.322504 95.303817  L 95.393036 95.367743  L 95.456963 95.438275  L 95.513668 95.514734  L 95.562606 95.596382  L 95.603306 95.682434  L 95.635375 95.772061  L 95.658504 95.864399  L 95.672472 95.958560  L 95.677142 96.053637  L 95.672472 96.148713  L 95.658504 96.242874  L 95.635375 96.335213  L 95.603306 96.424840  L 95.562606 96.510892  L 95.513668 96.592540  L 95.456963 96.668998  L 95.393036 96.739530  L 95.322504 96.803457  L 95.246046 96.860162  L 95.164397 96.909100  L 95.078345 96.949800  L 94.988719 96.981869  L 94.896380 97.004998  L 94.802219 97.018966  L 94.707142 97.023637  L 94.612066 97.018966  L 94.517905 97.004998  L 94.425566 96.981869  L 94.335940 96.949800  L 94.249888 96.909100  L 94.168239 96.860162  L 94.091781 96.803457  L 94.021249 96.739530  L 93.957322 96.668998  L 93.900617 96.592540  L 93.851679 96.510892  L 93.810979 96.424840  L 93.778910 96.335213  L 93.755781 96.242874  L 93.741813 96.148713  L 93.737142 96.053637  L 93.741813 95.958560  L 93.755781 95.864399  L 93.778910 95.772061  L 93.810979 95.682434  L 93.851679 95.596382  L 93.900617 95.514734  L 93.957322 95.438275  L 94.021249 95.367743  L 94.091781 95.303817  L 94.168239 95.247111  L 94.249888 95.198173  L 94.335940 95.157474  L 94.425566 95.125405  L 94.517905 95.102275  L 94.612066 95.088308  L 94.707142 95.083637" 
                    stroke-width="1" 
                    stroke="black" 
                    fill="beige" 
                    stroke-linecap="round"
                    stroke-linejoin="round"
                    style="transform: scale(1, 1);"
                    />
<path 
                    d="M 95.288789 83.636203  L 95.383866 83.640873  L 95.478027 83.654841  L 95.570365 83.677970  L 95.659992 83.710039  L 95.746044 83.750739  L 95.827692 83.799677  L 95.904150 83.856382  L 95.974683 83.920309  L 96.038609 83.990841  L 96.095314 84.067299  L 96.144253 84.148948  L 96.184952 84.235000  L 96.217021 84.324626  L 96.240151 84.416965  L 96.254118 84.511126  L 96.258789 84.606203  L 96.254118 84.701279  L 96.240151 84.795440  L 96.217021 84.887779  L 96.184952 84.977405  L 96.144253 85.063457  L 96.095314 85.145106  L 96.038609 85.221564  L 95.974683 85.292096  L 95.904150 85.356023  L 95.827692 85.412728  L 95.746044 85.461666  L 95.659992 85.502366  L 95.570365 85.534435  L 95.478027 85.557564  L 95.383866 85.571532  L 95.288789 85.576203  L 95.193712 85.571532  L 95.099551 85.557564  L 95.007213 85.534435  L 94.917586 85.502366  L 94.831534 85.461666  L 94.749886 85.412728  L 94.673427 85.356023  L 94.602895 85.292096  L 94.538969 85.221564  L 94.482263 85.145106  L 94.433325 85.063457  L 94.392626 84.977405  L 94.360557 84.887779  L 94.337427 84.795440  L 94.323460 84.701279  L 94.318789 84.606203  L 94.323460 84.511126  L 94.337427 84.416965  L 94.360557 84.324626  L 94.392626 84.235000  L 94.433325 84.148948  L 94.482263 84.067299  L 94.538969 83.990841  L 94.602895 83.920309  L 94.673427 83.856382  L 94.749886 83.799677  L 94.831534 83.750739  L 94.917586 83.710039  L 95.007213 83.677970  L 95.099551 83.654841  L 95.193712 83.640873  L 95.288789 83.636203" 
                    stroke-width="1" 
                    stroke="black" 
                    fill="beige" 
                    stroke-linecap="round"
                    stroke-linejoin="round"
                    style="transform: scale(1, 1);"
                    />
<path 
                    d="M 86.793146 73.229933  L 86.888223 73.234604  L 86.982384 73.248572  L 87.074722 73.271701  L 87.164349 73.303770  L 87.250401 73.344470  L 87.332049 73.393408  L 87.408508 73.450113  L 87.479040 73.514040  L 87.542966 73.584572  L 87.599672 73.661030  L 87.648610 73.742678  L 87.689309 73.828730  L 87.721378 73.918357  L 87.744508 74.010696  L 87.758475 74.104857  L 87.763146 74.199933  L 87.758475 74.295010  L 87.744508 74.389171  L 87.721378 74.481509  L 87.689309 74.571136  L 87.648610 74.657188  L 87.599672 74.738836  L 87.542966 74.815295  L 87.479040 74.885827  L 87.408508 74.949753  L 87.332049 75.006459  L 87.250401 75.055397  L 87.164349 75.096096  L 87.074722 75.128165  L 86.982384 75.151295  L 86.888223 75.165263  L 86.793146 75.169933  L 86.698070 75.165263  L 86.603909 75.151295  L 86.511570 75.128165  L 86.421943 75.096096  L 86.335891 75.055397  L 86.254243 75.006459  L 86.177785 74.949753  L 86.107253 74.885827  L 86.043326 74.815295  L 85.986621 74.738836  L 85.937683 74.657188  L 85.896983 74.571136  L 85.864914 74.481509  L 85.841785 74.389171  L 85.827817 74.295010  L 85.823146 74.199933  L 85.827817 74.104857  L 85.841785 74.010696  L 85.864914 73.918357  L 85.896983 73.828730  L 85.937683 73.742678  L 85.986621 73.661030  L 86.043326 73.584572  L 86.107253 73.514040  L 86.177785 73.450113  L 86.254243 73.393408  L 86.335891 73.344470  L 86.421943 73.303770  L 86.511570 73.271701  L 86.603909 73.248572  L 86.698070 73.234604  L 86.793146 73.229933" 
                    stroke-width="1" 
                    stroke="black" 
                    fill="beige" 
                    stroke-linecap="round"
                    stroke-linejoin="round"
                    style="transform: scale(1, 1);"
                    />
<path 
                    d="M 94.707142 95.083637  L 94.802219 95.088308  L 94.896380 95.102275  L 94.988719 95.125405  L 95.078345 95.157474  L 95.164397 95.198173  L 95.246046 95.247111  L 95.322504 95.303817  L 95.393036 95.367743  L 95.456963 95.438275  L 95.513668 95.514734  L 95.562606 95.596382  L 95.603306 95.682434  L 95.635375 95.772061  L 95.658504 95.864399  L 95.672472 95.958560  L 95.677142 96.053637  L 95.672472 96.148713  L 95.658504 96.242874  L 95.635375 96.335213  L 95.603306 96.424840  L 95.562606 96.510892  L 95.513668 96.592540  L 95.456963 96.668998  L 95.393036 96.739530  L 95.322504 96.803457  L 95.246046 96.860162  L 95.164397 96.909100  L 95.078345 96.949800  L 94.988719 96.981869  L 94.896380 97.004998  L 94.802219 97.018966  L 94.707142 97.023637  L 94.612066 97.018966  L 94.517905 97.004998  L 94.425566 96.981869  L 94.335940 96.949800  L 94.249888 96.909100  L 94.168239 96.860162  L 94.091781 96.803457  L 94.021249 96.739530  L 93.957322 96.668998  L 93.900617 96.592540  L 93.851679 96.510892  L 93.810979 96.424840  L 93.778910 96.335213  L 93.755781 96.242874  L 93.741813 96.148713  L 93.737142 96.053637  L 93.741813 95.958560  L 93.755781 95.864399  L 93.778910 95.772061  L 93.810979 95.682434  L 93.851679 95.596382  L 93.900617 95.514734  L 93.957322 95.438275  L 94.021249 95.367743  L 94.091781 95.303817  L 94.168239 95.247111  L 94.249888 95.198173  L 94.335940 95.157474  L 94.425566 95.125405  L 94.517905 95.102275  L 94.612066 95.088308  L 94.707142 95.083637" 
                    stroke-width="1" 
                    stroke="black" 
                    fill="beige" 
                    stroke-linecap="round"
                    stroke-linejoin="round"
                    style="transform: scale(1, 1);"
                    />
<path 
                    d="M 95.288789 83.636203  L 95.383866 83.640873  L 95.478027 83.654841  L 95.570365 83.677970  L 95.659992 83.710039  L 95.746044 83.750739  L 95.827692 83.799677  L 95.904150 83.856382  L 95.974683 83.920309  L 96.038609 83.990841  L 96.095314 84.067299  L 96.144253 84.148948  L 96.184952 84.235000  L 96.217021 84.324626  L 96.240151 84.416965  L 96.254118 84.511126  L 96.258789 84.606203  L 96.254118 84.701279  L 96.240151 84.795440  L 96.217021 84.887779  L 96.184952 84.977405  L 96.144253 85.063457  L 96.095314 85.145106  L 96.038609 85.221564  L 95.974683 85.292096  L 95.904150 85.356023  L 95.827692 85.412728  L 95.746044 85.461666  L 95.659992 85.502366  L 95.570365 85.534435  L 95.478027 85.557564  L 95.383866 85.571532  L 95.288789 85.576203  L 95.193712 85.571532  L 95.099551 85.557564  L 95.007213 85.534435  L 94.917586 85.502366  L 94.831534 85.461666  L 94.749886 85.412728  L 94.673427 85.356023  L 94.602895 85.292096  L 94.538969 85.221564  L 94.482263 85.145106  L 94.433325 85.063457  L 94.392626 84.977405  L 94.360557 84.887779  L 94.337427 84.795440  L 94.323460 84.701279  L 94.318789 84.606203  L 94.323460 84.511126  L 94.337427 84.416965  L 94.360557 84.324626  L 94.392626 84.235000  L 94.433325 84.148948  L 94.482263 84.067299  L 94.538969 83.990841  L 94.602895 83.920309  L 94.673427 83.856382  L 94.749886 83.799677  L 94.831534 83.750739  L 94.917586 83.710039  L 95.007213 83.677970  L 95.099551 83.654841  L 95.193712 83.640873  L 95.288789 83.636203" 
                    stroke-width="1" 
                    stroke="black" 
                    fill="beige" 
                    stroke-linecap="round"
                    stroke-linejoin="round"
                    style="transform: scale(1, 1);"
                    />
                </svg>
            