
                <svg 
                  xmlns="http://www.w3.org/2000/svg" 
                  viewBox="0 0 125 125" 
                  width="125mm" 
                  height="125mm"
                  style="transform: scale(1, -1)">
                    <path 
                    d="M 73.874171 47.008272  L 25.418674 59.606304  M 9.252323 16.922380  L 57.729598 74.649249  M 41.585024 102.290227  L 41.563247 31.965326" 
                    stroke-width="1" 
                    stroke="black" 
                    fill="none" 
                    stroke-linecap="round"
                    stroke-linejoin="round"
                    style="transform: scale(1, 1);"
                    />
<path 
                    d="M 9.252323 16.922380  L 41.585024 102.290227  L 73.874171 47.008272  L 9.252323 16.922380" 
                    stroke-width="1" 
                    stroke="black" 
                    fill="none" 
                    stroke-linecap="round"
                    stroke-linejoin="round"
                    style="transform: scale(1, 1);"
                    />
<path 
                    d="M 9.252323 16.922380  L 70.538833 52.718674  M 41.585024 102.290227  L 68.489669 44.501418  M 73.874171 47.008272  L 27.324669 64.638693  M 9.252323 16.922380  L 65.919978 50.020888  M 41.585024 102.290227  L 65.919978 50.020888  M 73.874171 47.008272  L 65.919978 50.020888" 
                    stroke-width="1" 
                    stroke="black" 
                    fill="none" 
                    stroke-linecap="round"
                    stroke-linejoin="round"
                    style="transform: scale(1, 1);"
                    />
<path 
                    d="M 47.657874 31.140175  L 49.904453 31.250542  L 52.129396 31.580582  L 54.311276 32.127114  L 56.429081 32.884876  L 58.462413 33.846571  L 60.391692 35.002936  L 62.198337 36.342836  L 63.864950 37.853366  L 65.375480 39.519978  L 66.715379 41.326624  L 67.871745 43.255903  L 68.833439 45.289235  L 69.591202 47.407039  L 70.137734 49.588919  L 70.467774 51.813863  L 70.578141 54.060442  L 70.467774 56.307021  L 70.137734 58.531964  L 69.591202 60.713844  L 68.833439 62.831648  L 67.871745 64.864981  L 66.715379 66.794260  L 65.375480 68.600905  L 63.864950 70.267518  L 62.198337 71.778047  L 60.391692 73.117947  L 58.462413 74.274312  L 56.429081 75.236007  L 54.311276 75.993769  L 52.129396 76.540302  L 49.904453 76.870341  L 47.657874 76.980708  L 45.411295 76.870341  L 43.186352 76.540302  L 41.004472 75.993769  L 38.886668 75.236007  L 36.853335 74.274312  L 34.924056 73.117947  L 33.117411 71.778047  L 31.450798 70.267518  L 29.940269 68.600905  L 28.600369 66.794260  L 27.444004 64.864981  L 26.482309 62.831648  L 25.724547 60.713844  L 25.178014 58.531964  L 24.847975 56.307021  L 24.737608 54.060442  L 24.847975 51.813863  L 25.178014 49.588919  L 25.724547 47.407039  L 26.482309 45.289235  L 27.444004 43.255903  L 28.600369 41.326624  L 29.940269 39.519978  L 31.450798 37.853366  L 33.117411 36.342836  L 34.924056 35.002936  L 36.853335 33.846571  L 38.886668 32.884876  L 41.004472 32.127114  L 43.186352 31.580582  L 45.411295 31.250542  L 47.657874 31.140175" 
                    stroke-width="1" 
                    stroke="black" 
                    fill="none" 
                    stroke-linecap="round"
                    stroke-linejoin="round"
                    style="transform: scale(1, 1);"
                    />
<path 
                    d="M 25.418674 58.636304  L 25.513750 58.640974  L 25.607911 58.654942  L 25.700250 58.678071  L 25.789877 58.710140  L 25.875929 58.750840  L 25.957577 58.799778  L 26.034035 58.856483  L 26.104567 58.920410  L 26.168494 58.990942  L 26.225199 59.067400  L 26.274137 59.149049  L 26.314837 59.235101  L 26.346906 59.324727  L 26.370035 59.417066  L 26.384003 59.511227  L 26.388674 59.606304  L 26.384003 59.701380  L 26.370035 59.795541  L 26.346906 59.887880  L 26.314837 59.977506  L 26.274137 60.063558  L 26.225199 60.145207  L 26.168494 60.221665  L 26.104567 60.292197  L 26.034035 60.356124  L 25.957577 60.412829  L 25.875929 60.461767  L 25.789877 60.502467  L 25.700250 60.534536  L 25.607911 60.557665  L 25.513750 60.571633  L 25.418674 60.576304  L 25.323597 60.571633  L 25.229436 60.557665  L 25.137098 60.534536  L 25.047471 60.502467  L 24.961419 60.461767  L 24.879771 60.412829  L 24.803312 60.356124  L 24.732780 60.292197  L 24.668854 60.221665  L 24.612148 60.145207  L 24.563210 60.063558  L 24.522511 59.977506  L 24.490442 59.887880  L 24.467312 59.795541  L 24.453345 59.701380  L 24.448674 59.606304  L 24.453345 59.511227  L 24.467312 59.417066  L 24.490442 59.324727  L 24.522511 59.235101  L 24.563210 59.149049  L 24.612148 59.067400  L 24.668854 58.990942  L 24.732780 58.920410  L 24.803312 58.856483  L 24.879771 58.799778  L 24.961419 58.750840  L 25.047471 58.710140  L 25.137098 58.678071  L 25.229436 58.654942  L 25.323597 58.640974  L 25.418674 58.636304" 
                    stroke-width="1" 
                    stroke="black" 
                    fill="none" 
                    stroke-linecap="round"
                    stroke-linejoin="round"
                    style="transform: scale(1, 1);"
                    />
<path 
                    d="M 57.729598 73.679249  L 57.824674 73.683920  L 57.918835 73.697888  L 58.011174 73.721017  L 58.100801 73.753086  L 58.186853 73.793786  L 58.268501 73.842724  L 58.344959 73.899429  L 58.415491 73.963356  L 58.479418 74.033888  L 58.536123 74.110346  L 58.585061 74.191995  L 58.625761 74.278047  L 58.657830 74.367673  L 58.680960 74.460012  L 58.694927 74.554173  L 58.699598 74.649249  L 58.694927 74.744326  L 58.680960 74.838487  L 58.657830 74.930826  L 58.625761 75.020452  L 58.585061 75.106504  L 58.536123 75.188153  L 58.479418 75.264611  L 58.415491 75.335143  L 58.344959 75.399070  L 58.268501 75.455775  L 58.186853 75.504713  L 58.100801 75.545413  L 58.011174 75.577482  L 57.918835 75.600611  L 57.824674 75.614579  L 57.729598 75.619249  L 57.634521 75.614579  L 57.540360 75.600611  L 57.448022 75.577482  L 57.358395 75.545413  L 57.272343 75.504713  L 57.190695 75.455775  L 57.114236 75.399070  L 57.043704 75.335143  L 56.979778 75.264611  L 56.923072 75.188153  L 56.874134 75.106504  L 56.833435 75.020452  L 56.801366 74.930826  L 56.778236 74.838487  L 56.764269 74.744326  L 56.759598 74.649249  L 56.764269 74.554173  L 56.778236 74.460012  L 56.801366 74.367673  L 56.833435 74.278047  L 56.874134 74.191995  L 56.923072 74.110346  L 56.979778 74.033888  L 57.043704 73.963356  L 57.114236 73.899429  L 57.190695 73.842724  L 57.272343 73.793786  L 57.358395 73.753086  L 57.448022 73.721017  L 57.540360 73.697888  L 57.634521 73.683920  L 57.729598 73.679249" 
                    stroke-width="1" 
                    stroke="black" 
                    fill="none" 
                    stroke-linecap="round"
                    stroke-linejoin="round"
                    style="transform: scale(1, 1);"
                    />
<path 
                    d="M 41.563247 30.995326  L 41.658324 30.999997  L 41.752485 31.013964  L 41.844824 31.037094  L 41.934450 31.069163  L 42.020502 31.109862  L 42.102151 31.158800  L 42.178609 31.215506  L 42.249141 31.279432  L 42.313068 31.349964  L 42.369773 31.426423  L 42.418711 31.508071  L 42.459411 31.594123  L 42.491480 31.683750  L 42.514609 31.776088  L 42.528577 31.870249  L 42.533247 31.965326  L 42.528577 32.060402  L 42.514609 32.154563  L 42.491480 32.246902  L 42.459411 32.336529  L 42.418711 32.422581  L 42.369773 32.504229  L 42.313068 32.580687  L 42.249141 32.651219  L 42.178609 32.715146  L 42.102151 32.771851  L 42.020502 32.820789  L 41.934450 32.861489  L 41.844824 32.893558  L 41.752485 32.916687  L 41.658324 32.930655  L 41.563247 32.935326  L 41.468171 32.930655  L 41.374010 32.916687  L 41.281671 32.893558  L 41.192045 32.861489  L 41.105993 32.820789  L 41.024344 32.771851  L 40.947886 32.715146  L 40.877354 32.651219  L 40.813427 32.580687  L 40.756722 32.504229  L 40.707784 32.422581  L 40.667084 32.336529  L 40.635015 32.246902  L 40.611886 32.154563  L 40.597918 32.060402  L 40.593247 31.965326  L 40.597918 31.870249  L 40.611886 31.776088  L 40.635015 31.683750  L 40.667084 31.594123  L 40.707784 31.508071  L 40.756722 31.426423  L 40.813427 31.349964  L 40.877354 31.279432  L 40.947886 31.215506  L 41.024344 31.158800  L 41.105993 31.109862  L 41.192045 31.069163  L 41.281671 31.037094  L 41.374010 31.013964  L 41.468171 30.999997  L 41.563247 30.995326" 
                    stroke-width="1" 
                    stroke="black" 
                    fill="none" 
                    stroke-linecap="round"
                    stroke-linejoin="round"
                    style="transform: scale(1, 1);"
                    />
<path 
                    d="M 70.538833 51.748674  L 70.633910 51.753345  L 70.728071 51.767312  L 70.820409 51.790442  L 70.910036 51.822511  L 70.996088 51.863210  L 71.077736 51.912148  L 71.154195 51.968854  L 71.224727 52.032780  L 71.288653 52.103313  L 71.345359 52.179771  L 71.394297 52.261419  L 71.434996 52.347471  L 71.467065 52.437098  L 71.490195 52.529436  L 71.504162 52.623597  L 71.508833 52.718674  L 71.504162 52.813751  L 71.490195 52.907912  L 71.467065 53.000250  L 71.434996 53.089877  L 71.394297 53.175929  L 71.345359 53.257577  L 71.288653 53.334036  L 71.224727 53.404568  L 71.154195 53.468494  L 71.077736 53.525200  L 70.996088 53.574138  L 70.910036 53.614837  L 70.820409 53.646906  L 70.728071 53.670036  L 70.633910 53.684003  L 70.538833 53.688674  L 70.443757 53.684003  L 70.349596 53.670036  L 70.257257 53.646906  L 70.167630 53.614837  L 70.081578 53.574138  L 69.999930 53.525200  L 69.923472 53.468494  L 69.852940 53.404568  L 69.789013 53.334036  L 69.732308 53.257577  L 69.683370 53.175929  L 69.642670 53.089877  L 69.610601 53.000250  L 69.587471 52.907912  L 69.573504 52.813751  L 69.568833 52.718674  L 69.573504 52.623597  L 69.587471 52.529436  L 69.610601 52.437098  L 69.642670 52.347471  L 69.683370 52.261419  L 69.732308 52.179771  L 69.789013 52.103313  L 69.852940 52.032780  L 69.923472 51.968854  L 69.999930 51.912148  L 70.081578 51.863210  L 70.167630 51.822511  L 70.257257 51.790442  L 70.349596 51.767312  L 70.443757 51.753345  L 70.538833 51.748674" 
                    stroke-width="1" 
                    stroke="black" 
                    fill="none" 
                    stroke-linecap="round"
                    stroke-linejoin="round"
                    style="transform: scale(1, 1);"
                    />
<path 
                    d="M 68.489669 43.531418  L 68.584746 43.536088  L 68.678907 43.550056  L 68.771245 43.573185  L 68.860872 43.605254  L 68.946924 43.645954  L 69.028572 43.694892  L 69.105031 43.751597  L 69.175563 43.815524  L 69.239489 43.886056  L 69.296195 43.962514  L 69.345133 44.044163  L 69.385832 44.130215  L 69.417901 44.219841  L 69.441031 44.312180  L 69.454998 44.406341  L 69.459669 44.501418  L 69.454998 44.596494  L 69.441031 44.690655  L 69.417901 44.782994  L 69.385832 44.872620  L 69.345133 44.958672  L 69.296195 45.040321  L 69.239489 45.116779  L 69.175563 45.187311  L 69.105031 45.251238  L 69.028572 45.307943  L 68.946924 45.356881  L 68.860872 45.397581  L 68.771245 45.429650  L 68.678907 45.452779  L 68.584746 45.466747  L 68.489669 45.471418  L 68.394593 45.466747  L 68.300432 45.452779  L 68.208093 45.429650  L 68.118466 45.397581  L 68.032414 45.356881  L 67.950766 45.307943  L 67.874308 45.251238  L 67.803776 45.187311  L 67.739849 45.116779  L 67.683144 45.040321  L 67.634206 44.958672  L 67.593506 44.872620  L 67.561437 44.782994  L 67.538307 44.690655  L 67.524340 44.596494  L 67.519669 44.501418  L 67.524340 44.406341  L 67.538307 44.312180  L 67.561437 44.219841  L 67.593506 44.130215  L 67.634206 44.044163  L 67.683144 43.962514  L 67.739849 43.886056  L 67.803776 43.815524  L 67.874308 43.751597  L 67.950766 43.694892  L 68.032414 43.645954  L 68.118466 43.605254  L 68.208093 43.573185  L 68.300432 43.550056  L 68.394593 43.536088  L 68.489669 43.531418" 
                    stroke-width="1" 
                    stroke="black" 
                    fill="none" 
                    stroke-linecap="round"
                    stroke-linejoin="round"
                    style="transform: scale(1, 1);"
                    />
<path 
                    d="M 27.324669 63.668693  L 27.419746 63.673364  L 27.513907 63.687331  L 27.606246 63.710461  L 27.695872 63.742530  L 27.781924 63.783229  L 27.863573 63.832168  L 27.940031 63.888873  L 28.010563 63.952799  L 28.074490 64.023332  L 28.131195 64.099790  L 28.180133 64.181438  L 28.220833 64.267490  L 28.252902 64.357117  L 28.276031 64.449455  L 28.289999 64.543616  L 28.294669 64.638693  L 28.289999 64.733770  L 28.276031 64.827931  L 28.252902 64.920269  L 28.220833 65.009896  L 28.180133 65.095948  L 28.131195 65.177596  L 28.074490 65.254055  L 28.010563 65.324587  L 27.940031 65.388513  L 27.863573 65.445219  L 27.781924 65.494157  L 27.695872 65.534856  L 27.606246 65.566925  L 27.513907 65.590055  L 27.419746 65.604022  L 27.324669 65.608693  L 27.229593 65.604022  L 27.135432 65.590055  L 27.043093 65.566925  L 26.953466 65.534856  L 26.867415 65.494157  L 26.785766 65.445219  L 26.709308 65.388513  L 26.638776 65.324587  L 26.574849 65.254055  L 26.518144 65.177596  L 26.469206 65.095948  L 26.428506 65.009896  L 26.396437 64.920269  L 26.373308 64.827931  L 26.359340 64.733770  L 26.354669 64.638693  L 26.359340 64.543616  L 26.373308 64.449455  L 26.396437 64.357117  L 26.428506 64.267490  L 26.469206 64.181438  L 26.518144 64.099790  L 26.574849 64.023332  L 26.638776 63.952799  L 26.709308 63.888873  L 26.785766 63.832168  L 26.867415 63.783229  L 26.953466 63.742530  L 27.043093 63.710461  L 27.135432 63.687331  L 27.229593 63.673364  L 27.324669 63.668693" 
                    stroke-width="1" 
                    stroke="black" 
                    fill="none" 
                    stroke-linecap="round"
                    stroke-linejoin="round"
                    style="transform: scale(1, 1);"
                    />
<path 
                    d="M 65.919978 49.050888  L 66.015055 49.055559  L 66.109216 49.069526  L 66.201554 49.092656  L 66.291181 49.124725  L 66.377233 49.165424  L 66.458881 49.214362  L 66.535340 49.271068  L 66.605872 49.334994  L 66.669798 49.405526  L 66.726504 49.481985  L 66.775442 49.563633  L 66.816141 49.649685  L 66.848210 49.739312  L 66.871340 49.831650  L 66.885307 49.925811  L 66.889978 50.020888  L 66.885307 50.115965  L 66.871340 50.210125  L 66.848210 50.302464  L 66.816141 50.392091  L 66.775442 50.478143  L 66.726504 50.559791  L 66.669798 50.636249  L 66.605872 50.706781  L 66.535340 50.770708  L 66.458881 50.827413  L 66.377233 50.876352  L 66.291181 50.917051  L 66.201554 50.949120  L 66.109216 50.972250  L 66.015055 50.986217  L 65.919978 50.990888  L 65.824901 50.986217  L 65.730740 50.972250  L 65.638402 50.949120  L 65.548775 50.917051  L 65.462723 50.876352  L 65.381075 50.827413  L 65.304617 50.770708  L 65.234085 50.706781  L 65.170158 50.636249  L 65.113453 50.559791  L 65.064514 50.478143  L 65.023815 50.392091  L 64.991746 50.302464  L 64.968616 50.210125  L 64.954649 50.115965  L 64.949978 50.020888  L 64.954649 49.925811  L 64.968616 49.831650  L 64.991746 49.739312  L 65.023815 49.649685  L 65.064514 49.563633  L 65.113453 49.481985  L 65.170158 49.405526  L 65.234085 49.334994  L 65.304617 49.271068  L 65.381075 49.214362  L 65.462723 49.165424  L 65.548775 49.124725  L 65.638402 49.092656  L 65.730740 49.069526  L 65.824901 49.055559  L 65.919978 49.050888" 
                    stroke-width="1" 
                    stroke="black" 
                    fill="none" 
                    stroke-linecap="round"
                    stroke-linejoin="round"
                    style="transform: scale(1, 1);"
                    />
<path 
                    d="M 65.919978 49.050888  L 66.015055 49.055559  L 66.109216 49.069526  L 66.201554 49.092656  L 66.291181 49.124725  L 66.377233 49.165424  L 66.458881 49.214362  L 66.535340 49.271068  L 66.605872 49.334994  L 66.669798 49.405526  L 66.726504 49.481985  L 66.775442 49.563633  L 66.816141 49.649685  L 66.848210 49.739312  L 66.871340 49.831650  L 66.885307 49.925811  L 66.889978 50.020888  L 66.885307 50.115965  L 66.871340 50.210125  L 66.848210 50.302464  L 66.816141 50.392091  L 66.775442 50.478143  L 66.726504 50.559791  L 66.669798 50.636249  L 66.605872 50.706781  L 66.535340 50.770708  L 66.458881 50.827413  L 66.377233 50.876352  L 66.291181 50.917051  L 66.201554 50.949120  L 66.109216 50.972250  L 66.015055 50.986217  L 65.919978 50.990888  L 65.824901 50.986217  L 65.730740 50.972250  L 65.638402 50.949120  L 65.548775 50.917051  L 65.462723 50.876352  L 65.381075 50.827413  L 65.304617 50.770708  L 65.234085 50.706781  L 65.170158 50.636249  L 65.113453 50.559791  L 65.064514 50.478143  L 65.023815 50.392091  L 64.991746 50.302464  L 64.968616 50.210125  L 64.954649 50.115965  L 64.949978 50.020888  L 64.954649 49.925811  L 64.968616 49.831650  L 64.991746 49.739312  L 65.023815 49.649685  L 65.064514 49.563633  L 65.113453 49.481985  L 65.170158 49.405526  L 65.234085 49.334994  L 65.304617 49.271068  L 65.381075 49.214362  L 65.462723 49.165424  L 65.548775 49.124725  L 65.638402 49.092656  L 65.730740 49.069526  L 65.824901 49.055559  L 65.919978 49.050888" 
                    stroke-width="1" 
                    stroke="black" 
                    fill="none" 
                    stroke-linecap="round"
                    stroke-linejoin="round"
                    style="transform: scale(1, 1);"
                    />
<path 
                    d="M 65.919978 49.050888  L 66.015055 49.055559  L 66.109216 49.069526  L 66.201554 49.092656  L 66.291181 49.124725  L 66.377233 49.165424  L 66.458881 49.214362  L 66.535340 49.271068  L 66.605872 49.334994  L 66.669798 49.405526  L 66.726504 49.481985  L 66.775442 49.563633  L 66.816141 49.649685  L 66.848210 49.739312  L 66.871340 49.831650  L 66.885307 49.925811  L 66.889978 50.020888  L 66.885307 50.115965  L 66.871340 50.210125  L 66.848210 50.302464  L 66.816141 50.392091  L 66.775442 50.478143  L 66.726504 50.559791  L 66.669798 50.636249  L 66.605872 50.706781  L 66.535340 50.770708  L 66.458881 50.827413  L 66.377233 50.876352  L 66.291181 50.917051  L 66.201554 50.949120  L 66.109216 50.972250  L 66.015055 50.986217  L 65.919978 50.990888  L 65.824901 50.986217  L 65.730740 50.972250  L 65.638402 50.949120  L 65.548775 50.917051  L 65.462723 50.876352  L 65.381075 50.827413  L 65.304617 50.770708  L 65.234085 50.706781  L 65.170158 50.636249  L 65.113453 50.559791  L 65.064514 50.478143  L 65.023815 50.392091  L 64.991746 50.302464  L 64.968616 50.210125  L 64.954649 50.115965  L 64.949978 50.020888  L 64.954649 49.925811  L 64.968616 49.831650  L 64.991746 49.739312  L 65.023815 49.649685  L 65.064514 49.563633  L 65.113453 49.481985  L 65.170158 49.405526  L 65.234085 49.334994  L 65.304617 49.271068  L 65.381075 49.214362  L 65.462723 49.165424  L 65.548775 49.124725  L 65.638402 49.092656  L 65.730740 49.069526  L 65.824901 49.055559  L 65.919978 49.050888" 
                    stroke-width="1" 
                    stroke="black" 
                    fill="none" 
                    stroke-linecap="round"
                    stroke-linejoin="round"
                    style="transform: scale(1, 1);"
                    />
<path 
                    d="M 37.586151 32.501634  L 37.681227 32.506305  L 37.775388 32.520272  L 37.867727 32.543402  L 37.957354 32.575471  L 38.043406 32.616170  L 38.125054 32.665108  L 38.201512 32.721814  L 38.272044 32.785740  L 38.335971 32.856272  L 38.392676 32.932731  L 38.441614 33.014379  L 38.482314 33.100431  L 38.514383 33.190058  L 38.537512 33.282396  L 38.551480 33.376557  L 38.556151 33.471634  L 38.551480 33.566710  L 38.537512 33.660871  L 38.514383 33.753210  L 38.482314 33.842837  L 38.441614 33.928889  L 38.392676 34.010537  L 38.335971 34.086995  L 38.272044 34.157527  L 38.201512 34.221454  L 38.125054 34.278159  L 38.043406 34.327097  L 37.957354 34.367797  L 37.867727 34.399866  L 37.775388 34.422996  L 37.681227 34.436963  L 37.586151 34.441634  L 37.491074 34.436963  L 37.396913 34.422996  L 37.304575 34.399866  L 37.214948 34.367797  L 37.128896 34.327097  L 37.047248 34.278159  L 36.970789 34.221454  L 36.900257 34.157527  L 36.836331 34.086995  L 36.779625 34.010537  L 36.730687 33.928889  L 36.689988 33.842837  L 36.657919 33.753210  L 36.634789 33.660871  L 36.620822 33.566710  L 36.616151 33.471634  L 36.620822 33.376557  L 36.634789 33.282396  L 36.657919 33.190058  L 36.689988 33.100431  L 36.730687 33.014379  L 36.779625 32.932731  L 36.836331 32.856272  L 36.900257 32.785740  L 36.970789 32.721814  L 37.047248 32.665108  L 37.128896 32.616170  L 37.214948 32.575471  L 37.304575 32.543402  L 37.396913 32.520272  L 37.491074 32.506305  L 37.586151 32.501634" 
                    stroke-width="1" 
                    stroke="black" 
                    fill="none" 
                    stroke-linecap="round"
                    stroke-linejoin="round"
                    style="transform: scale(1, 1);"
                    />
<path 
                    d="M 53.752501 75.185558  L 53.847578 75.190228  L 53.941739 75.204196  L 54.034077 75.227325  L 54.123704 75.259394  L 54.209756 75.300094  L 54.291404 75.349032  L 54.367863 75.405737  L 54.438395 75.469664  L 54.502321 75.540196  L 54.559027 75.616654  L 54.607965 75.698303  L 54.648664 75.784355  L 54.680733 75.873981  L 54.703863 75.966320  L 54.717830 76.060481  L 54.722501 76.155558  L 54.717830 76.250634  L 54.703863 76.344795  L 54.680733 76.437134  L 54.648664 76.526760  L 54.607965 76.612812  L 54.559027 76.694461  L 54.502321 76.770919  L 54.438395 76.841451  L 54.367863 76.905378  L 54.291404 76.962083  L 54.209756 77.011021  L 54.123704 77.051721  L 54.034077 77.083790  L 53.941739 77.106919  L 53.847578 77.120887  L 53.752501 77.125558  L 53.657424 77.120887  L 53.563263 77.106919  L 53.470925 77.083790  L 53.381298 77.051721  L 53.295246 77.011021  L 53.213598 76.962083  L 53.137140 76.905378  L 53.066608 76.841451  L 53.002681 76.770919  L 52.945976 76.694461  L 52.897037 76.612812  L 52.856338 76.526760  L 52.824269 76.437134  L 52.801139 76.344795  L 52.787172 76.250634  L 52.782501 76.155558  L 52.787172 76.060481  L 52.801139 75.966320  L 52.824269 75.873981  L 52.856338 75.784355  L 52.897037 75.698303  L 52.945976 75.616654  L 53.002681 75.540196  L 53.066608 75.469664  L 53.137140 75.405737  L 53.213598 75.349032  L 53.295246 75.300094  L 53.381298 75.259394  L 53.470925 75.227325  L 53.563263 75.204196  L 53.657424 75.190228  L 53.752501 75.185558" 
                    stroke-width="1" 
                    stroke="black" 
                    fill="none" 
                    stroke-linecap="round"
                    stroke-linejoin="round"
                    style="transform: scale(1, 1);"
                    />
<path 
                    d="M 69.897075 47.544580  L 69.992151 47.549251  L 70.086312 47.563218  L 70.178651 47.586348  L 70.268278 47.618417  L 70.354330 47.659116  L 70.435978 47.708054  L 70.512436 47.764760  L 70.582968 47.828686  L 70.646895 47.899218  L 70.703600 47.975677  L 70.752538 48.057325  L 70.793238 48.143377  L 70.825307 48.233004  L 70.848436 48.325342  L 70.862404 48.419503  L 70.867075 48.514580  L 70.862404 48.609656  L 70.848436 48.703817  L 70.825307 48.796156  L 70.793238 48.885783  L 70.752538 48.971835  L 70.703600 49.053483  L 70.646895 49.129941  L 70.582968 49.200473  L 70.512436 49.264400  L 70.435978 49.321105  L 70.354330 49.370043  L 70.268278 49.410743  L 70.178651 49.442812  L 70.086312 49.465942  L 69.992151 49.479909  L 69.897075 49.484580  L 69.801998 49.479909  L 69.707837 49.465942  L 69.615499 49.442812  L 69.525872 49.410743  L 69.439820 49.370043  L 69.358172 49.321105  L 69.281713 49.264400  L 69.211181 49.200473  L 69.147255 49.129941  L 69.090549 49.053483  L 69.041611 48.971835  L 69.000912 48.885783  L 68.968843 48.796156  L 68.945713 48.703817  L 68.931746 48.609656  L 68.927075 48.514580  L 68.931746 48.419503  L 68.945713 48.325342  L 68.968843 48.233004  L 69.000912 48.143377  L 69.041611 48.057325  L 69.090549 47.975677  L 69.147255 47.899218  L 69.211181 47.828686  L 69.281713 47.764760  L 69.358172 47.708054  L 69.439820 47.659116  L 69.525872 47.618417  L 69.615499 47.586348  L 69.707837 47.563218  L 69.801998 47.549251  L 69.897075 47.544580" 
                    stroke-width="1" 
                    stroke="black" 
                    fill="none" 
                    stroke-linecap="round"
                    stroke-linejoin="round"
                    style="transform: scale(1, 1);"
                    />
<path 
                    d="M 37.586151 32.501634  L 37.681227 32.506305  L 37.775388 32.520272  L 37.867727 32.543402  L 37.957354 32.575471  L 38.043406 32.616170  L 38.125054 32.665108  L 38.201512 32.721814  L 38.272044 32.785740  L 38.335971 32.856272  L 38.392676 32.932731  L 38.441614 33.014379  L 38.482314 33.100431  L 38.514383 33.190058  L 38.537512 33.282396  L 38.551480 33.376557  L 38.556151 33.471634  L 38.551480 33.566710  L 38.537512 33.660871  L 38.514383 33.753210  L 38.482314 33.842837  L 38.441614 33.928889  L 38.392676 34.010537  L 38.335971 34.086995  L 38.272044 34.157527  L 38.201512 34.221454  L 38.125054 34.278159  L 38.043406 34.327097  L 37.957354 34.367797  L 37.867727 34.399866  L 37.775388 34.422996  L 37.681227 34.436963  L 37.586151 34.441634  L 37.491074 34.436963  L 37.396913 34.422996  L 37.304575 34.399866  L 37.214948 34.367797  L 37.128896 34.327097  L 37.047248 34.278159  L 36.970789 34.221454  L 36.900257 34.157527  L 36.836331 34.086995  L 36.779625 34.010537  L 36.730687 33.928889  L 36.689988 33.842837  L 36.657919 33.753210  L 36.634789 33.660871  L 36.620822 33.566710  L 36.616151 33.471634  L 36.620822 33.376557  L 36.634789 33.282396  L 36.657919 33.190058  L 36.689988 33.100431  L 36.730687 33.014379  L 36.779625 32.932731  L 36.836331 32.856272  L 36.900257 32.785740  L 36.970789 32.721814  L 37.047248 32.665108  L 37.128896 32.616170  L 37.214948 32.575471  L 37.304575 32.543402  L 37.396913 32.520272  L 37.491074 32.506305  L 37.586151 32.501634" 
                    stroke-width="1" 
                    stroke="black" 
                    fill="none" 
                    stroke-linecap="round"
                    stroke-linejoin="round"
                    style="transform: scale(1, 1);"
                    />
<path 
                    d="M 53.752501 75.185558  L 53.847578 75.190228  L 53.941739 75.204196  L 54.034077 75.227325  L 54.123704 75.259394  L 54.209756 75.300094  L 54.291404 75.349032  L 54.367863 75.405737  L 54.438395 75.469664  L 54.502321 75.540196  L 54.559027 75.616654  L 54.607965 75.698303  L 54.648664 75.784355  L 54.680733 75.873981  L 54.703863 75.966320  L 54.717830 76.060481  L 54.722501 76.155558  L 54.717830 76.250634  L 54.703863 76.344795  L 54.680733 76.437134  L 54.648664 76.526760  L 54.607965 76.612812  L 54.559027 76.694461  L 54.502321 76.770919  L 54.438395 76.841451  L 54.367863 76.905378  L 54.291404 76.962083  L 54.209756 77.011021  L 54.123704 77.051721  L 54.034077 77.083790  L 53.941739 77.106919  L 53.847578 77.120887  L 53.752501 77.125558  L 53.657424 77.120887  L 53.563263 77.106919  L 53.470925 77.083790  L 53.381298 77.051721  L 53.295246 77.011021  L 53.213598 76.962083  L 53.137140 76.905378  L 53.066608 76.841451  L 53.002681 76.770919  L 52.945976 76.694461  L 52.897037 76.612812  L 52.856338 76.526760  L 52.824269 76.437134  L 52.801139 76.344795  L 52.787172 76.250634  L 52.782501 76.155558  L 52.787172 76.060481  L 52.801139 75.966320  L 52.824269 75.873981  L 52.856338 75.784355  L 52.897037 75.698303  L 52.945976 75.616654  L 53.002681 75.540196  L 53.066608 75.469664  L 53.137140 75.405737  L 53.213598 75.349032  L 53.295246 75.300094  L 53.381298 75.259394  L 53.470925 75.227325  L 53.563263 75.204196  L 53.657424 75.190228  L 53.752501 75.185558" 
                    stroke-width="1" 
                    stroke="black" 
                    fill="none" 
                    stroke-linecap="round"
                    stroke-linejoin="round"
                    style="transform: scale(1, 1);"
                    />
<path 
                    d="M 69.897075 47.544580  L 69.992151 47.549251  L 70.086312 47.563218  L 70.178651 47.586348  L 70.268278 47.618417  L 70.354330 47.659116  L 70.435978 47.708054  L 70.512436 47.764760  L 70.582968 47.828686  L 70.646895 47.899218  L 70.703600 47.975677  L 70.752538 48.057325  L 70.793238 48.143377  L 70.825307 48.233004  L 70.848436 48.325342  L 70.862404 48.419503  L 70.867075 48.514580  L 70.862404 48.609656  L 70.848436 48.703817  L 70.825307 48.796156  L 70.793238 48.885783  L 70.752538 48.971835  L 70.703600 49.053483  L 70.646895 49.129941  L 70.582968 49.200473  L 70.512436 49.264400  L 70.435978 49.321105  L 70.354330 49.370043  L 70.268278 49.410743  L 70.178651 49.442812  L 70.086312 49.465942  L 69.992151 49.479909  L 69.897075 49.484580  L 69.801998 49.479909  L 69.707837 49.465942  L 69.615499 49.442812  L 69.525872 49.410743  L 69.439820 49.370043  L 69.358172 49.321105  L 69.281713 49.264400  L 69.211181 49.200473  L 69.147255 49.129941  L 69.090549 49.053483  L 69.041611 48.971835  L 69.000912 48.885783  L 68.968843 48.796156  L 68.945713 48.703817  L 68.931746 48.609656  L 68.927075 48.514580  L 68.931746 48.419503  L 68.945713 48.325342  L 68.968843 48.233004  L 69.000912 48.143377  L 69.041611 48.057325  L 69.090549 47.975677  L 69.147255 47.899218  L 69.211181 47.828686  L 69.281713 47.764760  L 69.358172 47.708054  L 69.439820 47.659116  L 69.525872 47.618417  L 69.615499 47.586348  L 69.707837 47.563218  L 69.801998 47.549251  L 69.897075 47.544580" 
                    stroke-width="1" 
                    stroke="black" 
                    fill="none" 
                    stroke-linecap="round"
                    stroke-linejoin="round"
                    style="transform: scale(1, 1);"
                    />
                </svg>
            