
                <svg 
                  xmlns="http://www.w3.org/2000/svg" 
                  viewBox="0 0 125 125" 
                  width="125mm" 
                  height="125mm"
                  style="transform: scale(1, -1)">
                    <path 
                    d="M 17.376023 25.168794  L 37.150304 81.800383  L 103.993007 22.280956  L 17.376023 25.168794" 
                    stroke-width="1" 
                    stroke="black" 
                    fill="beige" 
                    stroke-linecap="round"
                    stroke-linejoin="round"
                    style="transform: scale(1, 1);"
                    />
<path 
                    d="M 103.993007 22.280956  L 27.263163 53.484588  M 17.376023 25.168794  L 70.571656 52.040669  M 37.150304 81.800383  L 60.684515 23.724875" 
                    stroke-width="1" 
                    stroke="red" 
                    fill="none" 
                    stroke-linecap="round"
                    stroke-linejoin="round"
                    style="transform: scale(1, 1);"
                    />
<path 
                    d="M 17.376023 25.168794  L 54.247208 66.576613  M 37.150304 81.800383  L 35.242329 24.573125  M 103.993007 22.280956  L 25.890161 49.552444  M 17.376023 25.168794  L 35.957943 46.037035  M 37.150304 81.800383  L 35.957943 46.037035  M 103.993007 22.280956  L 35.957943 46.037035" 
                    stroke-width="1" 
                    stroke="green" 
                    fill="none" 
                    stroke-linecap="round"
                    stroke-linejoin="round"
                    style="transform: scale(1, 1);"
                    />
<path 
                    d="M 48.619319 20.381335  L 50.916886 20.494207  L 53.192326 20.831737  L 55.423725 21.390673  L 57.589594 22.165634  L 59.669074 23.149155  L 61.642139 24.331764  L 63.489788 25.702074  L 65.194225 27.246886  L 66.739037 28.951324  L 68.109347 30.798972  L 69.291957 32.772037  L 70.275478 34.851517  L 71.050438 37.017386  L 71.609374 39.248786  L 71.946904 41.524225  L 72.059776 43.821792  L 71.946904 46.119359  L 71.609374 48.394798  L 71.050438 50.626197  L 70.275478 52.792066  L 69.291957 54.871547  L 68.109347 56.844612  L 66.739037 58.692260  L 65.194225 60.396698  L 63.489788 61.941510  L 61.642139 63.311820  L 59.669074 64.494429  L 57.589594 65.477950  L 55.423725 66.252911  L 53.192326 66.811847  L 50.916886 67.149377  L 48.619319 67.262249  L 46.321753 67.149377  L 44.046313 66.811847  L 41.814914 66.252911  L 39.649045 65.477950  L 37.569564 64.494429  L 35.596499 63.311820  L 33.748851 61.941510  L 32.044413 60.396698  L 30.499601 58.692260  L 29.129292 56.844612  L 27.946682 54.871547  L 26.963161 52.792066  L 26.188201 50.626197  L 25.629264 48.394798  L 25.291735 46.119359  L 25.178862 43.821792  L 25.291735 41.524225  L 25.629264 39.248786  L 26.188201 37.017386  L 26.963161 34.851517  L 27.946682 32.772037  L 29.129292 30.798972  L 30.499601 28.951324  L 32.044413 27.246886  L 33.748851 25.702074  L 35.596499 24.331764  L 37.569564 23.149155  L 39.649045 22.165634  L 41.814914 21.390673  L 44.046313 20.831737  L 46.321753 20.494207  L 48.619319 20.381335" 
                    stroke-width="1" 
                    stroke="black" 
                    fill="none" 
                    stroke-linecap="round"
                    stroke-linejoin="round"
                    style="transform: scale(1, 1);"
                    />
<path 
                    d="M 27.263163 52.514588  L 27.358240 52.519259  L 27.452401 52.533226  L 27.544740 52.556356  L 27.634366 52.588425  L 27.720418 52.629125  L 27.802067 52.678063  L 27.878525 52.734768  L 27.949057 52.798695  L 28.012984 52.869227  L 28.069689 52.945685  L 28.118627 53.027333  L 28.159327 53.113385  L 28.191396 53.203012  L 28.214525 53.295351  L 28.228493 53.389512  L 28.233163 53.484588  L 28.228493 53.579665  L 28.214525 53.673826  L 28.191396 53.766164  L 28.159327 53.855791  L 28.118627 53.941843  L 28.069689 54.023491  L 28.012984 54.099950  L 27.949057 54.170482  L 27.878525 54.234408  L 27.802067 54.291114  L 27.720418 54.340052  L 27.634366 54.380751  L 27.544740 54.412820  L 27.452401 54.435950  L 27.358240 54.449917  L 27.263163 54.454588  L 27.168087 54.449917  L 27.073926 54.435950  L 26.981587 54.412820  L 26.891961 54.380751  L 26.805909 54.340052  L 26.724260 54.291114  L 26.647802 54.234408  L 26.577270 54.170482  L 26.513343 54.099950  L 26.456638 54.023491  L 26.407700 53.941843  L 26.367000 53.855791  L 26.334931 53.766164  L 26.311802 53.673826  L 26.297834 53.579665  L 26.293163 53.484588  L 26.297834 53.389512  L 26.311802 53.295351  L 26.334931 53.203012  L 26.367000 53.113385  L 26.407700 53.027333  L 26.456638 52.945685  L 26.513343 52.869227  L 26.577270 52.798695  L 26.647802 52.734768  L 26.724260 52.678063  L 26.805909 52.629125  L 26.891961 52.588425  L 26.981587 52.556356  L 27.073926 52.533226  L 27.168087 52.519259  L 27.263163 52.514588" 
                    stroke-width="1" 
                    stroke="black" 
                    fill="beige" 
                    stroke-linecap="round"
                    stroke-linejoin="round"
                    style="transform: scale(1, 1);"
                    />
<path 
                    d="M 70.571656 51.070669  L 70.666732 51.075340  L 70.760893 51.089308  L 70.853232 51.112437  L 70.942859 51.144506  L 71.028911 51.185206  L 71.110559 51.234144  L 71.187017 51.290849  L 71.257549 51.354776  L 71.321476 51.425308  L 71.378181 51.501766  L 71.427119 51.583414  L 71.467819 51.669466  L 71.499888 51.759093  L 71.523017 51.851432  L 71.536985 51.945593  L 71.541656 52.040669  L 71.536985 52.135746  L 71.523017 52.229907  L 71.499888 52.322245  L 71.467819 52.411872  L 71.427119 52.497924  L 71.378181 52.579572  L 71.321476 52.656031  L 71.257549 52.726563  L 71.187017 52.790489  L 71.110559 52.847195  L 71.028911 52.896133  L 70.942859 52.936832  L 70.853232 52.968901  L 70.760893 52.992031  L 70.666732 53.005998  L 70.571656 53.010669  L 70.476579 53.005998  L 70.382418 52.992031  L 70.290080 52.968901  L 70.200453 52.936832  L 70.114401 52.896133  L 70.032753 52.847195  L 69.956294 52.790489  L 69.885762 52.726563  L 69.821836 52.656031  L 69.765130 52.579572  L 69.716192 52.497924  L 69.675493 52.411872  L 69.643424 52.322245  L 69.620294 52.229907  L 69.606327 52.135746  L 69.601656 52.040669  L 69.606327 51.945593  L 69.620294 51.851432  L 69.643424 51.759093  L 69.675493 51.669466  L 69.716192 51.583414  L 69.765130 51.501766  L 69.821836 51.425308  L 69.885762 51.354776  L 69.956294 51.290849  L 70.032753 51.234144  L 70.114401 51.185206  L 70.200453 51.144506  L 70.290080 51.112437  L 70.382418 51.089308  L 70.476579 51.075340  L 70.571656 51.070669" 
                    stroke-width="1" 
                    stroke="black" 
                    fill="beige" 
                    stroke-linecap="round"
                    stroke-linejoin="round"
                    style="transform: scale(1, 1);"
                    />
<path 
                    d="M 60.684515 22.754875  L 60.779591 22.759546  L 60.873752 22.773513  L 60.966091 22.796643  L 61.055718 22.828712  L 61.141770 22.869411  L 61.223418 22.918349  L 61.299876 22.975055  L 61.370408 23.038981  L 61.434335 23.109513  L 61.491040 23.185972  L 61.539978 23.267620  L 61.580678 23.353672  L 61.612747 23.443299  L 61.635877 23.535637  L 61.649844 23.629798  L 61.654515 23.724875  L 61.649844 23.819952  L 61.635877 23.914113  L 61.612747 24.006451  L 61.580678 24.096078  L 61.539978 24.182130  L 61.491040 24.263778  L 61.434335 24.340236  L 61.370408 24.410768  L 61.299876 24.474695  L 61.223418 24.531400  L 61.141770 24.580339  L 61.055718 24.621038  L 60.966091 24.653107  L 60.873752 24.676237  L 60.779591 24.690204  L 60.684515 24.694875  L 60.589438 24.690204  L 60.495277 24.676237  L 60.402939 24.653107  L 60.313312 24.621038  L 60.227260 24.580339  L 60.145612 24.531400  L 60.069153 24.474695  L 59.998621 24.410768  L 59.934695 24.340236  L 59.877989 24.263778  L 59.829051 24.182130  L 59.788352 24.096078  L 59.756283 24.006451  L 59.733153 23.914113  L 59.719186 23.819952  L 59.714515 23.724875  L 59.719186 23.629798  L 59.733153 23.535637  L 59.756283 23.443299  L 59.788352 23.353672  L 59.829051 23.267620  L 59.877989 23.185972  L 59.934695 23.109513  L 59.998621 23.038981  L 60.069153 22.975055  L 60.145612 22.918349  L 60.227260 22.869411  L 60.313312 22.828712  L 60.402939 22.796643  L 60.495277 22.773513  L 60.589438 22.759546  L 60.684515 22.754875" 
                    stroke-width="1" 
                    stroke="black" 
                    fill="beige" 
                    stroke-linecap="round"
                    stroke-linejoin="round"
                    style="transform: scale(1, 1);"
                    />
<path 
                    d="M 54.247208 65.606613  L 54.342284 65.611284  L 54.436445 65.625252  L 54.528784 65.648381  L 54.618411 65.680450  L 54.704463 65.721150  L 54.786111 65.770088  L 54.862569 65.826793  L 54.933101 65.890720  L 54.997028 65.961252  L 55.053733 66.037710  L 55.102671 66.119358  L 55.143371 66.205410  L 55.175440 66.295037  L 55.198569 66.387376  L 55.212537 66.481537  L 55.217208 66.576613  L 55.212537 66.671690  L 55.198569 66.765851  L 55.175440 66.858189  L 55.143371 66.947816  L 55.102671 67.033868  L 55.053733 67.115516  L 54.997028 67.191975  L 54.933101 67.262507  L 54.862569 67.326433  L 54.786111 67.383139  L 54.704463 67.432077  L 54.618411 67.472776  L 54.528784 67.504845  L 54.436445 67.527975  L 54.342284 67.541942  L 54.247208 67.546613  L 54.152131 67.541942  L 54.057970 67.527975  L 53.965632 67.504845  L 53.876005 67.472776  L 53.789953 67.432077  L 53.708305 67.383139  L 53.631846 67.326433  L 53.561314 67.262507  L 53.497388 67.191975  L 53.440682 67.115516  L 53.391744 67.033868  L 53.351045 66.947816  L 53.318976 66.858189  L 53.295846 66.765851  L 53.281879 66.671690  L 53.277208 66.576613  L 53.281879 66.481537  L 53.295846 66.387376  L 53.318976 66.295037  L 53.351045 66.205410  L 53.391744 66.119358  L 53.440682 66.037710  L 53.497388 65.961252  L 53.561314 65.890720  L 53.631846 65.826793  L 53.708305 65.770088  L 53.789953 65.721150  L 53.876005 65.680450  L 53.965632 65.648381  L 54.057970 65.625252  L 54.152131 65.611284  L 54.247208 65.606613" 
                    stroke-width="1" 
                    stroke="black" 
                    fill="beige" 
                    stroke-linecap="round"
                    stroke-linejoin="round"
                    style="transform: scale(1, 1);"
                    />
<path 
                    d="M 35.242329 23.603125  L 35.337406 23.607796  L 35.431567 23.621764  L 35.523905 23.644893  L 35.613532 23.676962  L 35.699584 23.717662  L 35.781232 23.766600  L 35.857691 23.823305  L 35.928223 23.887232  L 35.992149 23.957764  L 36.048855 24.034222  L 36.097793 24.115871  L 36.138492 24.201923  L 36.170561 24.291549  L 36.193691 24.383888  L 36.207659 24.478049  L 36.212329 24.573125  L 36.207659 24.668202  L 36.193691 24.762363  L 36.170561 24.854702  L 36.138492 24.944328  L 36.097793 25.030380  L 36.048855 25.112029  L 35.992149 25.188487  L 35.928223 25.259019  L 35.857691 25.322946  L 35.781232 25.379651  L 35.699584 25.428589  L 35.613532 25.469289  L 35.523905 25.501358  L 35.431567 25.524487  L 35.337406 25.538455  L 35.242329 25.543125  L 35.147253 25.538455  L 35.053092 25.524487  L 34.960753 25.501358  L 34.871126 25.469289  L 34.785075 25.428589  L 34.703426 25.379651  L 34.626968 25.322946  L 34.556436 25.259019  L 34.492509 25.188487  L 34.435804 25.112029  L 34.386866 25.030380  L 34.346166 24.944328  L 34.314097 24.854702  L 34.290968 24.762363  L 34.277000 24.668202  L 34.272329 24.573125  L 34.277000 24.478049  L 34.290968 24.383888  L 34.314097 24.291549  L 34.346166 24.201923  L 34.386866 24.115871  L 34.435804 24.034222  L 34.492509 23.957764  L 34.556436 23.887232  L 34.626968 23.823305  L 34.703426 23.766600  L 34.785075 23.717662  L 34.871126 23.676962  L 34.960753 23.644893  L 35.053092 23.621764  L 35.147253 23.607796  L 35.242329 23.603125" 
                    stroke-width="1" 
                    stroke="black" 
                    fill="beige" 
                    stroke-linecap="round"
                    stroke-linejoin="round"
                    style="transform: scale(1, 1);"
                    />
<path 
                    d="M 25.890161 48.582444  L 25.985237 48.587115  L 26.079398 48.601082  L 26.171737 48.624212  L 26.261364 48.656281  L 26.347415 48.696980  L 26.429064 48.745918  L 26.505522 48.802624  L 26.576054 48.866550  L 26.639981 48.937082  L 26.696686 49.013541  L 26.745624 49.095189  L 26.786324 49.181241  L 26.818393 49.270868  L 26.841522 49.363206  L 26.855490 49.457367  L 26.860161 49.552444  L 26.855490 49.647520  L 26.841522 49.741681  L 26.818393 49.834020  L 26.786324 49.923647  L 26.745624 50.009699  L 26.696686 50.091347  L 26.639981 50.167805  L 26.576054 50.238337  L 26.505522 50.302264  L 26.429064 50.358969  L 26.347415 50.407907  L 26.261364 50.448607  L 26.171737 50.480676  L 26.079398 50.503806  L 25.985237 50.517773  L 25.890161 50.522444  L 25.795084 50.517773  L 25.700923 50.503806  L 25.608585 50.480676  L 25.518958 50.448607  L 25.432906 50.407907  L 25.351258 50.358969  L 25.274799 50.302264  L 25.204267 50.238337  L 25.140341 50.167805  L 25.083635 50.091347  L 25.034697 50.009699  L 24.993997 49.923647  L 24.961929 49.834020  L 24.938799 49.741681  L 24.924831 49.647520  L 24.920161 49.552444  L 24.924831 49.457367  L 24.938799 49.363206  L 24.961929 49.270868  L 24.993997 49.181241  L 25.034697 49.095189  L 25.083635 49.013541  L 25.140341 48.937082  L 25.204267 48.866550  L 25.274799 48.802624  L 25.351258 48.745918  L 25.432906 48.696980  L 25.518958 48.656281  L 25.608585 48.624212  L 25.700923 48.601082  L 25.795084 48.587115  L 25.890161 48.582444" 
                    stroke-width="1" 
                    stroke="black" 
                    fill="beige" 
                    stroke-linecap="round"
                    stroke-linejoin="round"
                    style="transform: scale(1, 1);"
                    />
<path 
                    d="M 35.957943 45.067035  L 36.053020 45.071706  L 36.147181 45.085674  L 36.239519 45.108803  L 36.329146 45.140872  L 36.415198 45.181572  L 36.496846 45.230510  L 36.573304 45.287215  L 36.643836 45.351142  L 36.707763 45.421674  L 36.764468 45.498132  L 36.813407 45.579781  L 36.854106 45.665833  L 36.886175 45.755459  L 36.909305 45.847798  L 36.923272 45.941959  L 36.927943 46.037035  L 36.923272 46.132112  L 36.909305 46.226273  L 36.886175 46.318612  L 36.854106 46.408238  L 36.813407 46.494290  L 36.764468 46.575939  L 36.707763 46.652397  L 36.643836 46.722929  L 36.573304 46.786856  L 36.496846 46.843561  L 36.415198 46.892499  L 36.329146 46.933199  L 36.239519 46.965268  L 36.147181 46.988397  L 36.053020 47.002365  L 35.957943 47.007035  L 35.862866 47.002365  L 35.768705 46.988397  L 35.676367 46.965268  L 35.586740 46.933199  L 35.500688 46.892499  L 35.419040 46.843561  L 35.342581 46.786856  L 35.272049 46.722929  L 35.208123 46.652397  L 35.151417 46.575939  L 35.102479 46.494290  L 35.061780 46.408238  L 35.029711 46.318612  L 35.006581 46.226273  L 34.992614 46.132112  L 34.987943 46.037035  L 34.992614 45.941959  L 35.006581 45.847798  L 35.029711 45.755459  L 35.061780 45.665833  L 35.102479 45.579781  L 35.151417 45.498132  L 35.208123 45.421674  L 35.272049 45.351142  L 35.342581 45.287215  L 35.419040 45.230510  L 35.500688 45.181572  L 35.586740 45.140872  L 35.676367 45.108803  L 35.768705 45.085674  L 35.862866 45.071706  L 35.957943 45.067035" 
                    stroke-width="1" 
                    stroke="black" 
                    fill="beige" 
                    stroke-linecap="round"
                    stroke-linejoin="round"
                    style="transform: scale(1, 1);"
                    />
<path 
                    d="M 35.957943 45.067035  L 36.053020 45.071706  L 36.147181 45.085674  L 36.239519 45.108803  L 36.329146 45.140872  L 36.415198 45.181572  L 36.496846 45.230510  L 36.573304 45.287215  L 36.643836 45.351142  L 36.707763 45.421674  L 36.764468 45.498132  L 36.813407 45.579781  L 36.854106 45.665833  L 36.886175 45.755459  L 36.909305 45.847798  L 36.923272 45.941959  L 36.927943 46.037035  L 36.923272 46.132112  L 36.909305 46.226273  L 36.886175 46.318612  L 36.854106 46.408238  L 36.813407 46.494290  L 36.764468 46.575939  L 36.707763 46.652397  L 36.643836 46.722929  L 36.573304 46.786856  L 36.496846 46.843561  L 36.415198 46.892499  L 36.329146 46.933199  L 36.239519 46.965268  L 36.147181 46.988397  L 36.053020 47.002365  L 35.957943 47.007035  L 35.862866 47.002365  L 35.768705 46.988397  L 35.676367 46.965268  L 35.586740 46.933199  L 35.500688 46.892499  L 35.419040 46.843561  L 35.342581 46.786856  L 35.272049 46.722929  L 35.208123 46.652397  L 35.151417 46.575939  L 35.102479 46.494290  L 35.061780 46.408238  L 35.029711 46.318612  L 35.006581 46.226273  L 34.992614 46.132112  L 34.987943 46.037035  L 34.992614 45.941959  L 35.006581 45.847798  L 35.029711 45.755459  L 35.061780 45.665833  L 35.102479 45.579781  L 35.151417 45.498132  L 35.208123 45.421674  L 35.272049 45.351142  L 35.342581 45.287215  L 35.419040 45.230510  L 35.500688 45.181572  L 35.586740 45.140872  L 35.676367 45.108803  L 35.768705 45.085674  L 35.862866 45.071706  L 35.957943 45.067035" 
                    stroke-width="1" 
                    stroke="black" 
                    fill="beige" 
                    stroke-linecap="round"
                    stroke-linejoin="round"
                    style="transform: scale(1, 1);"
                    />
<path 
                    d="M 35.957943 45.067035  L 36.053020 45.071706  L 36.147181 45.085674  L 36.239519 45.108803  L 36.329146 45.140872  L 36.415198 45.181572  L 36.496846 45.230510  L 36.573304 45.287215  L 36.643836 45.351142  L 36.707763 45.421674  L 36.764468 45.498132  L 36.813407 45.579781  L 36.854106 45.665833  L 36.886175 45.755459  L 36.909305 45.847798  L 36.923272 45.941959  L 36.927943 46.037035  L 36.923272 46.132112  L 36.909305 46.226273  L 36.886175 46.318612  L 36.854106 46.408238  L 36.813407 46.494290  L 36.764468 46.575939  L 36.707763 46.652397  L 36.643836 46.722929  L 36.573304 46.786856  L 36.496846 46.843561  L 36.415198 46.892499  L 36.329146 46.933199  L 36.239519 46.965268  L 36.147181 46.988397  L 36.053020 47.002365  L 35.957943 47.007035  L 35.862866 47.002365  L 35.768705 46.988397  L 35.676367 46.965268  L 35.586740 46.933199  L 35.500688 46.892499  L 35.419040 46.843561  L 35.342581 46.786856  L 35.272049 46.722929  L 35.208123 46.652397  L 35.151417 46.575939  L 35.102479 46.494290  L 35.061780 46.408238  L 35.029711 46.318612  L 35.006581 46.226273  L 34.992614 46.132112  L 34.987943 46.037035  L 34.992614 45.941959  L 35.006581 45.847798  L 35.029711 45.755459  L 35.061780 45.665833  L 35.102479 45.579781  L 35.151417 45.498132  L 35.208123 45.421674  L 35.272049 45.351142  L 35.342581 45.287215  L 35.419040 45.230510  L 35.500688 45.181572  L 35.586740 45.140872  L 35.676367 45.108803  L 35.768705 45.085674  L 35.862866 45.071706  L 35.957943 45.067035" 
                    stroke-width="1" 
                    stroke="black" 
                    fill="beige" 
                    stroke-linecap="round"
                    stroke-linejoin="round"
                    style="transform: scale(1, 1);"
                    />
<path 
                    d="M 26.666983 34.632915  L 26.762059 34.637585  L 26.856220 34.651553  L 26.948559 34.674682  L 27.038186 34.706751  L 27.124238 34.747451  L 27.205886 34.796389  L 27.282344 34.853094  L 27.352876 34.917021  L 27.416803 34.987553  L 27.473508 35.064011  L 27.522446 35.145660  L 27.563146 35.231712  L 27.595215 35.321338  L 27.618344 35.413677  L 27.632312 35.507838  L 27.636983 35.602915  L 27.632312 35.697991  L 27.618344 35.792152  L 27.595215 35.884491  L 27.563146 35.974118  L 27.522446 36.060169  L 27.473508 36.141818  L 27.416803 36.218276  L 27.352876 36.288808  L 27.282344 36.352735  L 27.205886 36.409440  L 27.124238 36.458378  L 27.038186 36.499078  L 26.948559 36.531147  L 26.856220 36.554276  L 26.762059 36.568244  L 26.666983 36.572915  L 26.571906 36.568244  L 26.477745 36.554276  L 26.385407 36.531147  L 26.295780 36.499078  L 26.209728 36.458378  L 26.128080 36.409440  L 26.051621 36.352735  L 25.981089 36.288808  L 25.917163 36.218276  L 25.860457 36.141818  L 25.811519 36.060169  L 25.770820 35.974118  L 25.738751 35.884491  L 25.715621 35.792152  L 25.701654 35.697991  L 25.696983 35.602915  L 25.701654 35.507838  L 25.715621 35.413677  L 25.738751 35.321338  L 25.770820 35.231712  L 25.811519 35.145660  L 25.860457 35.064011  L 25.917163 34.987553  L 25.981089 34.917021  L 26.051621 34.853094  L 26.128080 34.796389  L 26.209728 34.747451  L 26.295780 34.706751  L 26.385407 34.674682  L 26.477745 34.651553  L 26.571906 34.637585  L 26.666983 34.632915" 
                    stroke-width="1" 
                    stroke="black" 
                    fill="beige" 
                    stroke-linecap="round"
                    stroke-linejoin="round"
                    style="transform: scale(1, 1);"
                    />
<path 
                    d="M 36.554124 62.948709  L 36.649200 62.953380  L 36.743361 62.967347  L 36.835700 62.990477  L 36.925327 63.022546  L 37.011378 63.063245  L 37.093027 63.112183  L 37.169485 63.168889  L 37.240017 63.232815  L 37.303944 63.303348  L 37.360649 63.379806  L 37.409587 63.461454  L 37.450287 63.547506  L 37.482356 63.637133  L 37.505485 63.729471  L 37.519453 63.823632  L 37.524124 63.918709  L 37.519453 64.013786  L 37.505485 64.107947  L 37.482356 64.200285  L 37.450287 64.289912  L 37.409587 64.375964  L 37.360649 64.457612  L 37.303944 64.534071  L 37.240017 64.604603  L 37.169485 64.668529  L 37.093027 64.725235  L 37.011378 64.774173  L 36.925327 64.814872  L 36.835700 64.846941  L 36.743361 64.870071  L 36.649200 64.884038  L 36.554124 64.888709  L 36.459047 64.884038  L 36.364886 64.870071  L 36.272547 64.846941  L 36.182921 64.814872  L 36.096869 64.774173  L 36.015220 64.725235  L 35.938762 64.668529  L 35.868230 64.604603  L 35.804303 64.534071  L 35.747598 64.457612  L 35.698660 64.375964  L 35.657960 64.289912  L 35.625891 64.200285  L 35.602762 64.107947  L 35.588794 64.013786  L 35.584124 63.918709  L 35.588794 63.823632  L 35.602762 63.729471  L 35.625891 63.637133  L 35.657960 63.547506  L 35.698660 63.461454  L 35.747598 63.379806  L 35.804303 63.303348  L 35.868230 63.232815  L 35.938762 63.168889  L 36.015220 63.112183  L 36.096869 63.063245  L 36.182921 63.022546  L 36.272547 62.990477  L 36.364886 62.967347  L 36.459047 62.953380  L 36.554124 62.948709" 
                    stroke-width="1" 
                    stroke="black" 
                    fill="beige" 
                    stroke-linecap="round"
                    stroke-linejoin="round"
                    style="transform: scale(1, 1);"
                    />
<path 
                    d="M 69.975475 33.188996  L 70.070552 33.193667  L 70.164713 33.207634  L 70.257051 33.230764  L 70.346678 33.262833  L 70.432730 33.303532  L 70.514378 33.352470  L 70.590837 33.409176  L 70.661369 33.473102  L 70.725295 33.543634  L 70.782001 33.620093  L 70.830939 33.701741  L 70.871638 33.787793  L 70.903707 33.877420  L 70.926837 33.969758  L 70.940804 34.063919  L 70.945475 34.158996  L 70.940804 34.254072  L 70.926837 34.348233  L 70.903707 34.440572  L 70.871638 34.530199  L 70.830939 34.616251  L 70.782001 34.697899  L 70.725295 34.774357  L 70.661369 34.844889  L 70.590837 34.908816  L 70.514378 34.965521  L 70.432730 35.014459  L 70.346678 35.055159  L 70.257051 35.087228  L 70.164713 35.110357  L 70.070552 35.124325  L 69.975475 35.128996  L 69.880398 35.124325  L 69.786237 35.110357  L 69.693899 35.087228  L 69.604272 35.055159  L 69.518220 35.014459  L 69.436572 34.965521  L 69.360114 34.908816  L 69.289581 34.844889  L 69.225655 34.774357  L 69.168949 34.697899  L 69.120011 34.616251  L 69.079312 34.530199  L 69.047243 34.440572  L 69.024113 34.348233  L 69.010146 34.254072  L 69.005475 34.158996  L 69.010146 34.063919  L 69.024113 33.969758  L 69.047243 33.877420  L 69.079312 33.787793  L 69.120011 33.701741  L 69.168949 33.620093  L 69.225655 33.543634  L 69.289581 33.473102  L 69.360114 33.409176  L 69.436572 33.352470  L 69.518220 33.303532  L 69.604272 33.262833  L 69.693899 33.230764  L 69.786237 33.207634  L 69.880398 33.193667  L 69.975475 33.188996" 
                    stroke-width="1" 
                    stroke="black" 
                    fill="beige" 
                    stroke-linecap="round"
                    stroke-linejoin="round"
                    style="transform: scale(1, 1);"
                    />
<path 
                    d="M 26.666983 34.632915  L 26.762059 34.637585  L 26.856220 34.651553  L 26.948559 34.674682  L 27.038186 34.706751  L 27.124238 34.747451  L 27.205886 34.796389  L 27.282344 34.853094  L 27.352876 34.917021  L 27.416803 34.987553  L 27.473508 35.064011  L 27.522446 35.145660  L 27.563146 35.231712  L 27.595215 35.321338  L 27.618344 35.413677  L 27.632312 35.507838  L 27.636983 35.602915  L 27.632312 35.697991  L 27.618344 35.792152  L 27.595215 35.884491  L 27.563146 35.974118  L 27.522446 36.060169  L 27.473508 36.141818  L 27.416803 36.218276  L 27.352876 36.288808  L 27.282344 36.352735  L 27.205886 36.409440  L 27.124238 36.458378  L 27.038186 36.499078  L 26.948559 36.531147  L 26.856220 36.554276  L 26.762059 36.568244  L 26.666983 36.572915  L 26.571906 36.568244  L 26.477745 36.554276  L 26.385407 36.531147  L 26.295780 36.499078  L 26.209728 36.458378  L 26.128080 36.409440  L 26.051621 36.352735  L 25.981089 36.288808  L 25.917163 36.218276  L 25.860457 36.141818  L 25.811519 36.060169  L 25.770820 35.974118  L 25.738751 35.884491  L 25.715621 35.792152  L 25.701654 35.697991  L 25.696983 35.602915  L 25.701654 35.507838  L 25.715621 35.413677  L 25.738751 35.321338  L 25.770820 35.231712  L 25.811519 35.145660  L 25.860457 35.064011  L 25.917163 34.987553  L 25.981089 34.917021  L 26.051621 34.853094  L 26.128080 34.796389  L 26.209728 34.747451  L 26.295780 34.706751  L 26.385407 34.674682  L 26.477745 34.651553  L 26.571906 34.637585  L 26.666983 34.632915" 
                    stroke-width="1" 
                    stroke="black" 
                    fill="beige" 
                    stroke-linecap="round"
                    stroke-linejoin="round"
                    style="transform: scale(1, 1);"
                    />
<path 
                    d="M 36.554124 62.948709  L 36.649200 62.953380  L 36.743361 62.967347  L 36.835700 62.990477  L 36.925327 63.022546  L 37.011378 63.063245  L 37.093027 63.112183  L 37.169485 63.168889  L 37.240017 63.232815  L 37.303944 63.303348  L 37.360649 63.379806  L 37.409587 63.461454  L 37.450287 63.547506  L 37.482356 63.637133  L 37.505485 63.729471  L 37.519453 63.823632  L 37.524124 63.918709  L 37.519453 64.013786  L 37.505485 64.107947  L 37.482356 64.200285  L 37.450287 64.289912  L 37.409587 64.375964  L 37.360649 64.457612  L 37.303944 64.534071  L 37.240017 64.604603  L 37.169485 64.668529  L 37.093027 64.725235  L 37.011378 64.774173  L 36.925327 64.814872  L 36.835700 64.846941  L 36.743361 64.870071  L 36.649200 64.884038  L 36.554124 64.888709  L 36.459047 64.884038  L 36.364886 64.870071  L 36.272547 64.846941  L 36.182921 64.814872  L 36.096869 64.774173  L 36.015220 64.725235  L 35.938762 64.668529  L 35.868230 64.604603  L 35.804303 64.534071  L 35.747598 64.457612  L 35.698660 64.375964  L 35.657960 64.289912  L 35.625891 64.200285  L 35.602762 64.107947  L 35.588794 64.013786  L 35.584124 63.918709  L 35.588794 63.823632  L 35.602762 63.729471  L 35.625891 63.637133  L 35.657960 63.547506  L 35.698660 63.461454  L 35.747598 63.379806  L 35.804303 63.303348  L 35.868230 63.232815  L 35.938762 63.168889  L 36.015220 63.112183  L 36.096869 63.063245  L 36.182921 63.022546  L 36.272547 62.990477  L 36.364886 62.967347  L 36.459047 62.953380  L 36.554124 62.948709" 
                    stroke-width="1" 
                    stroke="black" 
                    fill="beige" 
                    stroke-linecap="round"
                    stroke-linejoin="round"
                    style="transform: scale(1, 1);"
                    />
<path 
                    d="M 69.975475 33.188996  L 70.070552 33.193667  L 70.164713 33.207634  L 70.257051 33.230764  L 70.346678 33.262833  L 70.432730 33.303532  L 70.514378 33.352470  L 70.590837 33.409176  L 70.661369 33.473102  L 70.725295 33.543634  L 70.782001 33.620093  L 70.830939 33.701741  L 70.871638 33.787793  L 70.903707 33.877420  L 70.926837 33.969758  L 70.940804 34.063919  L 70.945475 34.158996  L 70.940804 34.254072  L 70.926837 34.348233  L 70.903707 34.440572  L 70.871638 34.530199  L 70.830939 34.616251  L 70.782001 34.697899  L 70.725295 34.774357  L 70.661369 34.844889  L 70.590837 34.908816  L 70.514378 34.965521  L 70.432730 35.014459  L 70.346678 35.055159  L 70.257051 35.087228  L 70.164713 35.110357  L 70.070552 35.124325  L 69.975475 35.128996  L 69.880398 35.124325  L 69.786237 35.110357  L 69.693899 35.087228  L 69.604272 35.055159  L 69.518220 35.014459  L 69.436572 34.965521  L 69.360114 34.908816  L 69.289581 34.844889  L 69.225655 34.774357  L 69.168949 34.697899  L 69.120011 34.616251  L 69.079312 34.530199  L 69.047243 34.440572  L 69.024113 34.348233  L 69.010146 34.254072  L 69.005475 34.158996  L 69.010146 34.063919  L 69.024113 33.969758  L 69.047243 33.877420  L 69.079312 33.787793  L 69.120011 33.701741  L 69.168949 33.620093  L 69.225655 33.543634  L 69.289581 33.473102  L 69.360114 33.409176  L 69.436572 33.352470  L 69.518220 33.303532  L 69.604272 33.262833  L 69.693899 33.230764  L 69.786237 33.207634  L 69.880398 33.193667  L 69.975475 33.188996" 
                    stroke-width="1" 
                    stroke="black" 
                    fill="beige" 
                    stroke-linecap="round"
                    stroke-linejoin="round"
                    style="transform: scale(1, 1);"
                    />
                </svg>
            