<?xml version="1.0" encoding="UTF-8"?>
<!DOCTYPE svg PUBLIC "-//W3C//DTD SVG 1.1//EN" "http://www.w3.org/Graphics/SVG/1.1/DTD/svg11.dtd">
<svg xmlns="http://www.w3.org/2000/svg" version="1.1" width="150px" height="150px" style="shape-rendering:geometricPrecision; text-rendering:geometricPrecision; image-rendering:optimizeQuality; fill-rule:evenodd; clip-rule:evenodd" xmlns:xlink="http://www.w3.org/1999/xlink">
<g><path style="opacity:0.683" fill="#33e" d="M 29.5,2.5 C 36.2488,2.99194 38.0822,6.32528 35,12.5C 33.2691,14.6166 31.1024,16.1166 28.5,17C 29.1667,17.6667 29.8333,18.3333 30.5,19C 35.7455,20.5059 41.0788,20.8392 46.5,20C 40.9098,16.0955 39.5765,11.2621 42.5,5.5C 43.1719,8.89672 44.0052,12.2301 45,15.5C 46.2419,16.8721 47.7419,17.8721 49.5,18.5C 49.7824,16.0134 49.7824,13.3467 49.5,10.5C 50.5,10.5 51.5,10.5 52.5,10.5C 51.2918,14.913 52.9585,18.0796 57.5,20C 83.3133,20.009 108.98,20.6757 134.5,22C 100.167,22.6667 65.8333,22.6667 31.5,22C 28.9774,21.4818 26.9774,20.1485 25.5,18C 23.1902,17.5034 20.8568,17.3367 18.5,17.5C 18.3359,20.1873 18.5026,22.854 19,25.5C 21.1058,27.3766 22.4391,29.71 23,32.5C 23.8332,66.1716 23.6666,99.8383 22.5,133.5C 21.6669,109.174 21.1669,84.8402 21,60.5C 20.3201,54.1512 16.8201,50.9845 10.5,51C 13.3879,49.0363 16.2212,49.2029 19,51.5C 19.065,48.8023 17.8983,46.6356 15.5,45C 12.5564,44.0296 9.55641,43.1962 6.5,42.5C 7.17094,41.0542 8.3376,40.3875 10,40.5C 15.0001,40.8285 18.6668,43.1618 21,47.5C 21.6667,43.5 21.6667,39.5 21,35.5C 19.6726,27.0646 17.1726,26.5646 13.5,34C 4.38584,37.0544 1.71917,34.2211 5.5,25.5C 8.6124,23.8163 11.9457,23.1497 15.5,23.5C 15.7989,21.396 15.4656,19.396 14.5,17.5C 12.2906,16.8938 10.124,16.2272 8,15.5C 6.84969,12.2321 6.01636,8.89876 5.5,5.5C 13.6326,4.20073 17.6326,7.53407 17.5,15.5C 19.8333,15.5 22.1667,15.5 24.5,15.5C 22.9786,9.9062 24.6453,5.57286 29.5,2.5 Z M 28.5,5.5 C 30.1667,5.5 31.8333,5.5 33.5,5.5C 33.9442,10.0669 31.9442,13.0669 27.5,14.5C 26.1973,11.3166 26.5306,8.31664 28.5,5.5 Z M 8.5,8.5 C 12.423,7.96018 14.7564,9.62685 15.5,13.5C 10.7613,15.4441 8.42799,13.7775 8.5,8.5 Z M 9.5,25.5 C 11.1667,25.5 12.8333,25.5 14.5,25.5C 14.413,29.7622 12.2463,32.4289 8,33.5C 6.5,33.3333 5.66667,32.5 5.5,31C 6.00741,28.4547 7.34075,26.6214 9.5,25.5 Z"/></g>
<g><path style="opacity:0.439" fill="#33e" d="M 136.5,20.5 C 138.465,20.9483 138.798,21.9483 137.5,23.5C 135.481,22.8671 135.147,21.8671 136.5,20.5 Z"/></g>
<g><path style="opacity:0.388" fill="#33e" d="M 141.5,20.5 C 143.76,21.2376 143.927,22.2376 142,23.5C 140.272,22.6477 140.105,21.6477 141.5,20.5 Z"/></g>
<g><path style="opacity:0.439" fill="#33e" d="M 21.5,136.5 C 23.4646,136.948 23.7979,137.948 22.5,139.5C 20.4807,138.867 20.1474,137.867 21.5,136.5 Z"/></g>
<g><path style="opacity:0.486" fill="#33e" d="M 21.5,141.5 C 23.337,141.639 23.6704,142.306 22.5,143.5C 21.7025,143.043 21.3691,142.376 21.5,141.5 Z"/></g>
</svg>
