<svg viewBox="57.38 43.015 367.274 376.623" xmlns="http://www.w3.org/2000/svg">
  <defs></defs>
  <path d="M 229.465 49.614 C 226.882 50.82 224.204 53.196 222.465 55.823 C 220.043 59.483 219.649 61.07 219.649 67.152 C 219.649 73.606 220.065 75.046 224.399 83.611 C 228.052 90.828 229.144 94.062 229.127 97.611 C 229.084 106.564 223.113 114.605 213.2 119.058 C 206.902 121.886 193.88 121.851 185.97 118.985 C 172.01 113.925 160.999 103.433 146.35 81.234 C 140.546 72.439 133.514 62.962 130.723 60.173 C 113.693 43.156 88.517 46.893 82.578 67.32 C 81.211 72.024 81.12 73.955 82.047 78.572 C 85.033 93.438 95.277 103.296 116.42 111.651 C 136.259 119.489 144.374 125.299 149.057 135.017 C 154.371 146.045 154.049 158.374 148.103 171.486 C 144.111 180.29 140.001 185.121 133.931 188.146 C 127.552 191.325 122.402 191.441 108.149 188.725 C 95.482 186.311 89.241 186.211 82.177 188.309 C 71.286 191.544 65.229 197.542 63.058 207.242 C 62.096 211.539 62.187 213.353 63.612 218.304 C 65 223.13 66.376 225.262 71.051 229.834 C 77.874 236.508 82.417 238.267 96.587 239.726 C 113.372 241.454 118.973 243.92 122.185 250.996 C 124.783 256.719 124.631 261.366 121.648 267.35 C 118.322 274.025 112.375 280.065 100.483 288.846 C 88.013 298.055 82.053 304.181 78.486 311.457 C 71.071 326.583 78.778 342.905 93.407 343.056 C 103.867 343.163 112.523 335.935 122.983 318.357 C 133.489 300.701 140.638 293.725 148.223 293.725 C 155.585 293.725 159.517 299.533 162.101 314.225 C 163.273 320.888 165.485 324.566 169.505 326.537 C 171.673 327.601 173.557 327.619 179.418 326.634 C 185.829 325.557 187.034 325.614 189.981 327.138 C 194.852 329.657 196.149 333.737 196.149 346.545 C 196.149 356.219 196.403 357.807 198.432 360.827 C 199.88 362.984 202.219 364.749 204.834 365.66 C 208.724 367.016 209.206 366.96 213.486 364.66 C 216.195 363.205 221.179 358.611 225.877 353.241 C 235.652 342.067 241.374 338.296 248.558 338.296 C 254.804 338.296 259.012 340.893 261.776 346.455 C 263.405 349.734 263.653 352.702 263.68 369.225 C 263.713 389.171 264.016 391.384 267.737 398.832 C 272.73 408.829 280.139 414.456 289.594 415.431 C 300.059 416.512 309.208 410.528 313.134 400.036 C 317.091 389.461 315.226 380.493 305.547 363.547 C 298.201 350.684 296.149 345.034 296.149 337.665 C 296.149 331.204 297.55 327.512 301.304 324.083 C 304.907 320.792 309.174 320.39 320.415 322.282 C 329.852 323.871 330.944 323.881 334.431 322.403 C 337.207 321.227 338.704 319.705 340.057 316.681 C 342.524 311.171 341.728 308.146 334.802 296.713 C 326.66 283.271 326.132 277.042 332.603 270.77 C 335.291 268.164 337.1 267.34 340.943 266.971 C 347.362 266.354 351.934 268.431 364.282 277.575 C 376.974 286.974 382.916 289.703 390.721 289.715 C 402.979 289.735 412.344 283.677 415.707 273.551 C 419.409 262.404 414.312 251.139 402.779 244.981 C 400.284 243.649 395.694 243.2 380.149 242.767 C 361.721 242.255 360.403 242.087 356.179 239.722 C 347.807 235.034 344.916 225.243 349.148 215.916 C 350.224 213.547 354.934 207.626 359.616 202.76 C 364.297 197.893 368.582 192.715 369.138 191.253 C 372.091 183.486 369.009 178.19 358.43 172.854 C 348.808 168 346.067 165.192 345.436 159.537 C 344.518 151.323 349.099 148.175 369.838 142.77 C 385.202 138.765 391.488 135.682 394.95 130.45 C 401.765 120.152 394.683 108.265 382.859 110.155 C 376.766 111.13 371.889 114.111 361.566 123.171 C 356.303 127.79 350.501 132.279 348.672 133.147 C 341.172 136.706 332.372 133.87 329.458 126.953 C 328.594 124.903 327.257 118.95 326.487 113.725 C 323.998 96.827 320.961 90.2 314.105 86.702 C 306.951 83.053 302.807 84.33 294.649 92.695 C 284.77 102.826 274.52 106.937 264.655 104.726 C 252.742 102.056 248.723 93.353 252.649 78.725 C 254.785 70.766 254.559 63.203 252.028 57.975 C 247.952 49.556 237.713 45.761 229.465 49.614" stroke="none" fill="#fff" fill-rule="evenodd"></path>
</svg>