<svg width="48" height="63" viewBox="0 0 48 63" fill="none" xmlns="http://www.w3.org/2000/svg">
<path d="M16.505 60.853V10.853M16.505 10.853L14.795 6.155M16.505 10.853H31.505H36.505L41.124 12.767L44.66 16.302L46.573 20.921V25.921L44.66 30.541L41.124 34.076L36.505 35.99L41.124 37.903L44.66 41.439L46.573 46.058V51.058L44.66 55.678L41.124 59.213L36.505 61.127H31.505H16.505H11.505L6.885 59.213L3.35 55.678L1.436 51.058V46.058L3.35 50.678L6.885 54.213L11.505 56.127H16.505M5.228 14.957L27.781 6.749M5.228 14.957L4.229 14.914L3.323 14.491L2.647 13.754L2.305 12.814L2.349 11.815L2.772 10.909L3.509 10.233L4.449 9.891L27.001 1.683L28 1.726L28.907 2.149L29.582 2.886L29.924 3.826L29.881 4.825L29.458 5.731L28.721 6.407M5.228 14.957L3.518 10.259M27.781 6.749L28.721 6.407M27.781 6.749L26.071 2.05M28.721 6.407L27.011 1.708M4.458 9.917L6.168 14.615M7.108 14.273L5.398 9.575M6.337 9.233L8.047 13.931M8.987 13.589L7.277 8.891M8.217 8.549L9.927 13.247M10.866 12.905L9.156 8.207M10.096 7.865L11.806 12.563M12.746 12.221L11.036 7.523M11.975 7.181L13.686 11.879M14.625 11.537L12.915 6.839M13.855 6.497L15.565 11.195M13.855 6.497L9.759 3.629L11.638 2.945L15.734 5.813M13.855 6.497L15.734 5.813M15.734 5.813L17.444 10.511M18.384 10.169L16.674 5.471M17.614 5.129L19.324 9.827M20.263 9.485L18.553 4.787M19.493 4.445L21.203 9.143M22.143 8.801L20.433 4.103M21.372 3.761L23.082 8.459M24.022 8.117L22.312 3.419M23.252 3.076L24.962 7.775M25.902 7.433L24.191 2.734M25.131 2.392L26.841 7.091M29.575 5.83L28.07 1.695M2.698 10.93L4.203 15.064M12.855 5.796L14.734 5.112M13.735 4.412L11.855 5.096M10.855 4.396L12.735 3.712M26.708 28.981L26.954 28.326L26.986 27.626L26.8 26.951L26.415 26.367L25.868 25.93L25.213 25.684L24.513 25.652L23.838 25.838L23.254 26.223L22.817 26.771L22.571 27.426L22.539 28.125L22.725 28.8L23.11 29.384L23.658 29.821L24.313 30.067L25.012 30.099L25.687 29.913L26.271 29.528L26.708 28.981ZM36.796 24.595L37.438 24.315L37.962 23.852L38.317 23.248L38.469 22.565L38.402 21.868L38.122 21.226L37.659 20.702L37.056 20.347L36.372 20.195L35.675 20.262L35.033 20.542L34.509 21.005L34.154 21.608L34.002 22.292L34.069 22.989L34.349 23.631L34.812 24.155L35.416 24.51L36.099 24.662L36.796 24.595Z" stroke="#2C2727" stroke-width="2" stroke-linecap="round" stroke-linejoin="round"/>
</svg>
