<svg width="123" height="152" viewBox="0 0 123 152" fill="none" xmlns="http://www.w3.org/2000/svg">
<path d="M41.3959 150.309V24.1394M41.3959 24.1394L36.8118 12.2846M41.3959 24.1394H81.6068H95.0104L107.393 28.9692L116.872 37.8893L122 49.5448V62.1618L116.872 73.8198L107.393 82.74L95.0104 87.5697L107.393 92.3969L116.872 101.32L122 112.975V125.592L116.872 137.25L107.393 146.17L95.0104 151H81.6068H41.3959H27.9922L15.6073 146.17L6.13091 137.25L1 125.592V112.975L6.13091 124.633L15.6073 133.553L27.9922 138.383H41.3959M11.1653 34.4954L71.6238 13.7835M11.1653 34.4954L8.48727 34.3869L6.05853 33.3195L4.24636 31.4598L3.32955 29.0878L3.4475 26.5669L4.58145 24.2807L6.55715 22.5749L9.07703 21.7119L69.5328 1L72.2108 1.10851L74.6423 2.1759L76.4518 4.03563L77.3686 6.40761L77.2533 8.92847L76.1193 11.2147L74.1436 12.9205M11.1653 34.4954L6.58128 22.6405M71.6238 13.7835L74.1436 12.9205M71.6238 13.7835L67.0397 1.92608M74.1436 12.9205L69.5596 1.06308M9.10116 21.7775L13.6852 33.6324M16.2051 32.7694L11.621 20.9145M14.1382 20.0515L18.7223 31.9064M21.2422 31.0434L16.6581 19.1885M19.178 18.3255L23.7621 30.1804M26.2793 29.3174L21.6952 17.4626M24.2151 16.5996L28.7991 28.4544M31.319 27.5914L26.735 15.7366M29.2522 14.8736L33.8389 26.7284M36.3561 25.8654L31.7721 14.0106M34.292 13.1476L38.876 25.0024M34.292 13.1476L23.3117 5.9105L28.3488 4.18451L39.329 11.4216M34.292 13.1476L39.329 11.4216M39.329 11.4216L43.9131 23.2764M46.433 22.4134L41.8489 10.5586M44.3688 9.69558L48.9529 21.5504M51.4701 20.6874L46.886 8.83258M49.4059 7.96959L53.9899 19.8244M56.5098 18.9614L51.9258 7.10659M54.443 6.24359L59.027 18.0984M61.5469 17.2354L56.9629 5.38059M59.4828 4.51507L64.0668 16.3725M66.5867 15.5095L62 3.65208M64.5198 2.78908L69.1039 14.6465M76.433 11.4645L72.3985 1.03028M4.38308 24.3337L8.41757 34.7654M31.6112 11.3787L36.6483 9.65268M33.9703 7.88631L28.9305 9.61231M26.2498 7.84594L31.2895 6.11994M68.7473 69.8833L69.4068 68.2305L69.4926 66.4641L68.994 64.7609L67.9619 63.2872L66.4955 62.1845L64.7397 61.5637L62.8631 61.483L61.0537 61.9523L59.4881 62.9238L58.3166 64.3066L57.6572 65.9595L57.5714 67.7233L58.07 69.4266L59.1021 70.9002L60.5711 72.003L62.327 72.6237L64.2008 72.7045L66.0103 72.2351L67.5759 71.2636L68.7473 69.8833ZM95.7905 58.8158L97.5115 58.1092L98.9163 56.9409L99.8679 55.4168L100.275 53.6933L100.096 51.9345L99.3452 50.3145L98.104 48.9922L96.4875 48.0964L94.6539 47.7129L92.7854 47.8819L91.0644 48.5885L89.6597 49.7568L88.708 51.2784L88.3006 53.0044L88.4802 54.7632L89.2308 56.3832L90.472 57.7055L92.0911 58.6013L93.9221 58.9848L95.7905 58.8158Z" stroke="#2C2727" stroke-width="2" stroke-linecap="round" stroke-linejoin="round"/>
</svg>
