
                <svg 
                  xmlns="http://www.w3.org/2000/svg" 
                  viewBox="0 0 125 125" 
                  width="125mm" 
                  height="125mm"
                  style="transform: scale(1, -1)">
                    <path 
                    d="M 0 0M 5 5M 5 5L 15 5L 25 5L 35 5L 45 5L 55 5L 65 5L 75 5L 85 5L 95 5M 105 5M 105 15M 95 15L 85 15L 75 15M 65 15L 55 15M 45 15L 35 15M 25 15L 15 15M 5 15M 5 25M 15 25M 25 25L 35 25L 45 25L 55 25M 65 25L 75 25L 85 25L 95 25M 105 25M 105 35L 95 35M 85 35M 75 35L 65 35M 55 35M 45 35L 35 35M 25 35M 15 35M 5 35M 5 45M 15 45M 25 45L 35 45M 45 45M 55 45L 65 45L 75 45M 85 45L 95 45M 105 45M 105 55L 95 55L 85 55L 75 55M 65 55L 55 55L 45 55M 35 55M 25 55L 15 55M 5 55M 5 65L 15 65M 25 65M 35 65L 45 65L 55 65M 65 65L 75 65L 85 65L 95 65M 105 65M 105 75M 95 75M 85 75M 75 75M 65 75M 55 75L 45 75L 35 75L 25 75L 15 75M 5 75M 5 85M 15 85M 25 85L 35 85L 45 85M 55 85L 65 85M 75 85M 85 85M 95 85M 105 85M 105 95M 95 95L 85 95M 75 95L 65 95L 55 95L 45 95M 35 95M 25 95M 15 95L 5 95M 5 105M 15 105L 25 105L 35 105L 45 105L 55 105L 65 105L 75 105L 85 105L 95 105L 105 105M 5 105L 5 95L 5 85L 5 75L 5 65L 5 55L 5 45L 5 35L 5 25L 5 15L 5 5M 15 5M 15 15M 15 25L 15 35L 15 45L 15 55M 15 65M 15 75L 15 85L 15 95M 15 105M 25 105L 25 95L 25 85M 25 75L 25 65L 25 55M 25 45L 25 35L 25 25L 25 15M 25 5M 35 5L 35 15M 35 25M 35 35M 35 45L 35 55L 35 65M 35 75M 35 85L 35 95M 35 105M 45 105M 45 95M 45 85M 45 75M 45 65M 45 55L 45 45L 45 35M 45 25M 45 15M 45 5M 55 5M 55 15L 55 25L 55 35L 55 45M 55 55M 55 65M 55 75L 55 85L 55 95M 55 105M 65 105M 65 95M 65 85M 65 75L 65 65L 65 55M 65 45M 65 35M 65 25L 65 15M 65 5M 75 5L 75 15M 75 25M 75 35L 75 45L 75 55M 75 65L 75 75L 75 85L 75 95M 75 105M 85 105L 85 95L 85 85L 85 75M 85 65M 85 55M 85 45L 85 35L 85 25M 85 15M 85 5M 95 5M 95 15M 95 25M 95 35M 95 45M 95 55M 95 65L 95 75L 95 85M 95 95M 95 105M 105 105L 105 95L 105 85L 105 75L 105 65L 105 55L 105 45L 105 35L 105 25L 105 15L 105 5" 
                    stroke-width="0.25" 
                    stroke="black" 
                    fill="none" 
                    stroke-linecap="round"
                    stroke-linejoin="round"
                    style="transform: scale(1, 1);"
                    />
                </svg>
            