
                <svg 
                  xmlns="http://www.w3.org/2000/svg" 
                  viewBox="0 0 125 125" 
                  width="125mm" 
                  height="125mm"
                  style="transform: scale(1, -1)">
                    <path 
                    d="M 0 0M 5 5M 5 5L 10 5L 15 5L 20 5L 25 5L 30 5L 35 5L 40 5L 45 5L 50 5M 55 5M 55 10M 50 10M 45 10L 40 10M 35 10M 30 10L 25 10L 20 10M 15 10L 10 10M 5 10M 5 15M 10 15M 15 15M 20 15M 25 15L 30 15L 35 15L 40 15M 45 15M 50 15M 55 15M 55 20L 50 20M 45 20M 40 20M 35 20M 30 20M 25 20L 20 20L 15 20M 10 20L 5 20M 5 25M 10 25L 15 25M 20 25M 25 25M 30 25M 35 25L 40 25L 45 25M 50 25M 55 25M 55 30M 50 30L 45 30M 40 30M 35 30L 30 30M 25 30M 20 30L 15 30M 10 30M 5 30M 5 35M 10 35L 15 35M 20 35L 25 35M 30 35M 35 35L 40 35M 45 35M 50 35M 55 35M 55 40L 50 40L 45 40L 40 40L 35 40L 30 40M 25 40M 20 40L 15 40M 10 40M 5 40M 5 45M 10 45M 15 45M 20 45L 25 45M 30 45M 35 45L 40 45M 45 45M 50 45M 55 45M 55 50M 50 50L 45 50L 40 50M 35 50M 30 50M 25 50M 20 50L 15 50M 10 50M 5 50M 5 55M 10 55L 15 55M 20 55M 25 55M 30 55M 35 55L 40 55M 45 55M 50 55M 55 55M 55 60M 50 60L 45 60L 40 60M 35 60M 30 60L 25 60M 20 60L 15 60M 10 60M 5 60M 5 65M 10 65M 15 65L 20 65M 25 65M 30 65M 35 65L 40 65M 45 65L 50 65M 55 65M 55 70L 50 70M 45 70L 40 70M 35 70L 30 70M 25 70L 20 70M 15 70L 10 70M 5 70M 5 75L 10 75M 15 75L 20 75M 25 75M 30 75M 35 75L 40 75M 45 75L 50 75M 55 75M 55 80M 50 80L 45 80M 40 80L 35 80L 30 80L 25 80M 20 80M 15 80L 10 80M 5 80M 5 85L 10 85M 15 85L 20 85L 25 85M 30 85L 35 85L 40 85L 45 85M 50 85M 55 85M 55 90M 50 90L 45 90L 40 90M 35 90L 30 90L 25 90L 20 90M 15 90L 10 90M 5 90M 5 95L 10 95L 15 95L 20 95M 25 95M 30 95L 35 95L 40 95M 45 95L 50 95M 55 95M 55 100L 50 100L 45 100M 40 100L 35 100M 30 100M 25 100L 20 100M 15 100L 10 100M 5 100M 5 105M 10 105L 15 105L 20 105L 25 105L 30 105L 35 105L 40 105L 45 105L 50 105L 55 105M 5 105L 5 100L 5 95L 5 90L 5 85L 5 80L 5 75L 5 70L 5 65L 5 60L 5 55L 5 50L 5 45L 5 40L 5 35L 5 30L 5 25L 5 20L 5 15L 5 10L 5 5M 10 5M 10 10M 10 15L 10 20M 10 25L 10 30M 10 35L 10 40L 10 45L 10 50L 10 55L 10 60L 10 65L 10 70M 10 75M 10 80L 10 85M 10 90M 10 95M 10 100L 10 105M 15 105M 15 100M 15 95M 15 90L 15 85M 15 80L 15 75L 15 70M 15 65L 15 60M 15 55M 15 50L 15 45L 15 40M 15 35L 15 30M 15 25L 15 20L 15 15L 15 10M 15 5M 20 5L 20 10L 20 15M 20 20M 20 25L 20 30M 20 35L 20 40M 20 45M 20 50L 20 55L 20 60M 20 65L 20 70M 20 75M 20 80L 20 85M 20 90M 20 95L 20 100M 20 105M 25 105M 25 100L 25 95L 25 90M 25 85L 25 80L 25 75L 25 70M 25 65L 25 60M 25 55L 25 50L 25 45L 25 40L 25 35L 25 30L 25 25L 25 20L 25 15M 25 10M 25 5M 30 5M 30 10M 30 15L 30 20L 30 25M 30 30L 30 35M 30 40L 30 45L 30 50L 30 55L 30 60L 30 65L 30 70L 30 75M 30 80M 30 85M 30 90M 30 95L 30 100L 30 105M 35 105M 35 100M 35 95M 35 90L 35 85M 35 80M 35 75L 35 70M 35 65L 35 60L 35 55M 35 50L 35 45M 35 40L 35 35M 35 30L 35 25L 35 20M 35 15L 35 10M 35 5M 40 5L 40 10M 40 15L 40 20M 40 25M 40 30L 40 35M 40 40M 40 45L 40 50L 40 55M 40 60M 40 65L 40 70M 40 75L 40 80M 40 85M 40 90L 40 95L 40 100M 40 105M 45 105M 45 100M 45 95M 45 90M 45 85L 45 80M 45 75L 45 70M 45 65L 45 60L 45 55M 45 50M 45 45L 45 40M 45 35L 45 30L 45 25L 45 20L 45 15L 45 10M 45 5M 50 5M 50 10L 50 15L 50 20M 50 25L 50 30M 50 35L 50 40M 50 45L 50 50L 50 55M 50 60M 50 65L 50 70M 50 75L 50 80M 50 85L 50 90L 50 95M 50 100M 50 105M 55 105L 55 100L 55 95L 55 90L 55 85L 55 80L 55 75L 55 70L 55 65L 55 60L 55 55L 55 50L 55 45L 55 40L 55 35L 55 30L 55 25L 55 20L 55 15L 55 10L 55 5" 
                    stroke-width="0.25" 
                    stroke="black" 
                    fill="none" 
                    stroke-linecap="round"
                    stroke-linejoin="round"
                    style="transform: scale(1, 1);"
                    />
                </svg>
            