
                <svg 
                  xmlns="http://www.w3.org/2000/svg" 
                  viewBox="0 0 125 125" 
                  width="125mm" 
                  height="125mm"
                  style="transform: scale(1, -1)">
                    <path 
                    d="M 0 0M 5 5M 5 5L 10 5L 15 5L 20 5L 25 5L 30 5L 35 5L 40 5L 45 5L 50 5M 55 5M 55 15M 50 15M 45 15M 40 15L 35 15L 30 15L 25 15L 20 15L 15 15L 10 15M 5 15M 5 25M 10 25M 15 25M 20 25L 25 25L 30 25L 35 25M 40 25L 45 25L 50 25M 55 25M 55 35M 50 35M 45 35M 40 35L 35 35L 30 35M 25 35L 20 35L 15 35L 10 35M 5 35M 5 45L 10 45M 15 45M 20 45L 25 45L 30 45M 35 45M 40 45L 45 45M 50 45L 55 45M 55 55M 50 55L 45 55M 40 55L 35 55M 30 55M 25 55L 20 55L 15 55L 10 55M 5 55M 5 65M 10 65M 15 65M 20 65M 25 65M 30 65M 35 65M 40 65L 45 65M 50 65M 55 65M 55 75M 50 75L 45 75L 40 75M 35 75L 30 75L 25 75L 20 75M 15 75L 10 75M 5 75M 5 85M 10 85M 15 85L 20 85L 25 85M 30 85M 35 85M 40 85L 45 85L 50 85M 55 85M 55 95M 50 95M 45 95M 40 95M 35 95M 30 95M 25 95L 20 95L 15 95L 10 95L 5 95M 5 105M 10 105L 15 105L 20 105L 25 105L 30 105L 35 105L 40 105L 45 105L 50 105L 55 105M 5 105L 5 95L 5 85L 5 75L 5 65L 5 55L 5 45L 5 35L 5 25L 5 15L 5 5M 10 5M 10 15M 10 25L 10 35L 10 45M 10 55L 10 65M 10 75L 10 85M 10 95M 10 105M 15 105M 15 95M 15 85L 15 75L 15 65M 15 55L 15 45M 15 35M 15 25L 15 15M 15 5M 20 5M 20 15M 20 25M 20 35L 20 45M 20 55L 20 65L 20 75M 20 85M 20 95M 20 105M 25 105M 25 95L 25 85M 25 75M 25 65L 25 55M 25 45M 25 35M 25 25M 25 15M 25 5M 30 5M 30 15M 30 25M 30 35L 30 45L 30 55L 30 65M 30 75L 30 85L 30 95L 30 105M 35 105M 35 95L 35 85L 35 75L 35 65L 35 55L 35 45M 35 35L 35 25M 35 15M 35 5M 40 5M 40 15L 40 25M 40 35L 40 45M 40 55L 40 65M 40 75L 40 85L 40 95M 40 105M 45 105L 45 95M 45 85M 45 75M 45 65M 45 55L 45 45L 45 35M 45 25M 45 15L 45 5M 50 5M 50 15L 50 25L 50 35L 50 45M 50 55L 50 65L 50 75M 50 85L 50 95M 50 105M 55 105L 55 95L 55 85L 55 75L 55 65L 55 55L 55 45L 55 35L 55 25L 55 15L 55 5" 
                    stroke-width="0.25" 
                    stroke="black" 
                    fill="none" 
                    stroke-linecap="round"
                    stroke-linejoin="round"
                    style="transform: scale(1, 1);"
                    />
                </svg>
            