<svg viewBox="140.285 176.625 69.146 73.246" xmlns="http://www.w3.org/2000/svg">
  <defs></defs>
  <path stroke-width="0" d="M 172.609 179.491 C 176.706 178.918 180.903 178.935 184.965 180.13 C 189.327 181.412 194.988 184.804 197.855 187.373 C 200.016 189.31 200.808 191.252 201.902 193.445 C 203.02 195.684 203.827 196.939 204.459 200.688 C 205.592 207.409 205.816 227.914 205.737 233.711 C 205.701 236.368 205.699 236.707 205.311 238.397 C 204.861 240.356 203.537 242.636 202.968 244.789 C 202.409 246.899 164.443 249.063 164.833 247.132 C 165.354 244.543 168.081 240.605 168.881 237.758 C 169.555 235.359 169.076 232.986 169.733 231.154 C 170.303 229.561 171.599 227.964 172.289 227.213 C 172.702 226.763 173.368 226.602 173.354 226.467 C 173.344 226.358 173.149 226.363 172.609 226.361 C 170.823 226.353 161.901 228.003 157.696 227.426 C 154.177 226.942 150.782 225.231 148.747 224.017 C 147.325 223.167 146.689 222.426 145.872 221.354 C 145.002 220.213 144.175 218.845 143.741 217.306 C 143.266 215.617 142.969 214.106 143.315 211.554 C 143.851 207.605 146.449 199.285 148.428 195.149 C 149.937 191.997 151.447 189.933 153.435 188.012 C 155.343 186.17 157.302 185.051 160.039 183.751 C 163.415 182.148 168.396 180.08 172.609 179.491 Z" style="stroke-width: 2px; fill: rgb(255, 255, 255);"></path>
  <g id="Layer_2" transform="matrix(1, 0, 0, 1, 227.998352, 154.857437)"></g>
  <g id="Layer_1" transform="matrix(1, 0, 0, 1, 141.096039, 151.678314)">
    <path d="M 33.77 77.01 C 31.45 77.68 30.87 78.17 29.89 82.45 C 29.18 85.59 28.07 89.03 26.4 92.1 C 25.55 93.66 24.35 95.14 24.27 97.06 L 20.27 97.06 C 22.53 92.15 25.29 87.46 26.65 82.14 C 27.62 78.33 27.62 78.02 23.86 78.09 C 18.71 78.18 13.73 77.51 8.73 76.14 C -0.38 73.65 -0.686 58.609 2.753 51.932 C 3.54 50.405 7.69 37.46 14.04 32.83 C 18.85 29.33 24.57 27.5 30.6 27.06 C 31.26 27.01 31.93 27.06 32.6 27.06 C 36.74 26.95 45.29 27.79 48.13 28.41 C 53 29.47 56.74 32.43 59.99 36.11 C 64.1 40.76 66.06 46.26 66.25 52.35 C 66.43 58.18 66.43 63.46 66.34 69.85 C 66.22 79.23 65.36 88.24 62.29 97.05 L 59.29 97.05 C 58.87 94.96 60.09 93.21 60.58 91.33 C 62.04 85.76 63.48 80.24 63.33 74.38 C 63.15 67.73 63.45 61.07 63.24 54.42 C 63.06 48.57 61.43 43.08 57.88 38.31 C 53.67 32.66 47.3 31 40.96 30.2 C 32.48 29.13 24.23 30.52 16.62 34.97 C 13.06 37.05 11.23 40.2 9.62 43.67 C 9.25 44.48 5.616 55.301 5.116 56.501 C 2.956 61.691 4.204 70.813 9.394 72.493 C 17.354 75.073 25.26 75.85 33.54 74.37 C 39.55 73.3 44.57 70.01 49.61 66.21 C 50.05 65.88 51.98 67.52 51.86 68.42 C 51.6 70.44 51.96 67.99 51.86 68.42 C 51.38 70.5 47.9 71.67 45.86 72.49"></path>
    <g transform="matrix(1, 0, 0, 1, -45.9911, 17.069838)">
      <path d="M 89.34 18.252 C 88.831 18.828 89.037 19.136 89.72 18.818 C 90.234 18.58 90.505 17.746 90.069 17.746 C 89.913 17.746 89.585 17.973 89.34 18.252 M 85.801 19.209 C 85.51 19.45 85.199 19.803 85.105 19.998 C 84.86 20.514 85.461 21.337 86.183 21.471 C 87.25 21.669 87.617 21.432 87.617 20.539 C 87.617 19.089 86.731 18.441 85.801 19.209 M 88.846 22.595 C 88.311 22.944 88.104 23.329 87.929 24.307 C 87.779 25.149 87.518 25.708 87.148 25.982 C 86.63 26.366 86.551 26.372 85.979 26.075 C 85.204 25.672 84.735 25.923 84.497 26.864 C 84.279 27.722 83.729 27.734 83.115 26.894 C 82.783 26.441 82.64 25.796 82.637 24.761 C 82.635 23.809 82.522 23.251 82.318 23.2 C 82.1 23.146 81.962 23.612 81.874 24.683 C 81.746 26.229 81.461 27.544 81.253 27.544 C 81.193 27.544 80.79 27.251 80.355 26.894 C 79.699 26.354 79.483 26.282 79.08 26.466 C 78.683 26.647 78.588 26.973 78.564 28.227 C 78.531 30.069 78.296 30.325 76.977 29.97 C 75.902 29.682 75.566 29.78 75.208 30.475 C 74.633 31.599 75.97 32.101 77.515 31.343 C 79.213 30.508 79.756 31.047 78.726 32.545 C 77.961 33.658 76.197 34.843 74.874 35.133 C 73.526 35.429 72.798 35.866 72.798 36.379 C 72.798 36.987 73.483 37.008 74.646 36.438 C 76.458 35.547 76.819 36.166 75.489 37.887 C 74.971 38.558 73.906 39.409 72.514 40.263 C 70.881 41.265 70.366 41.697 70.427 42.016 C 70.584 42.821 71.36 42.592 72.839 41.306 C 75.226 39.225 77.266 37.742 77.741 37.742 C 78.082 37.742 78.189 37.929 78.189 38.535 C 78.189 39.494 78.823 39.857 79.945 39.54 C 80.337 39.429 80.77 39.389 80.905 39.452 C 81.244 39.608 81.216 40.42 80.848 41.016 C 80.593 41.434 80.375 41.507 79.471 41.477 C 78.082 41.43 77.59 41.891 78.189 42.673 C 78.973 43.698 79.379 43.706 80.659 42.72 C 81.3 42.224 81.951 41.654 82.104 41.453 C 82.577 40.834 83.436 41.249 84.367 42.547 C 85.211 43.72 86.002 44.113 86.002 43.356 C 86.002 43.145 85.698 42.704 85.328 42.377 C 84.522 41.667 84.502 41.507 85.154 41.068 C 85.925 40.551 86.489 40.856 86.709 41.91 C 87.08 43.68 87.806 41.923 88.126 41.684 C 88.581 41.347 88.956 41.837 88.961 42.777 C 88.966 43.664 89.587 44.185 90.546 44.102 C 91.54 44.016 91.546 43.553 90.571 42.387 C 89.608 41.24 89.613 40.711 90.583 40.542 C 91.152 40.442 91.278 40.281 91.401 39.492 C 91.482 38.978 91.604 38.529 91.671 38.493 C 93.777 37.376 94.857 37.067 97.049 36.956 C 98.309 36.893 99.49 36.767 99.676 36.679 C 99.861 36.591 100.013 36.252 100.013 35.926 C 100.013 35.033 99.055 34.777 97.43 35.238 C 96.064 35.626 95.882 35.559 95.524 34.555 C 95.384 34.166 95.523 33.959 96.198 33.541 C 97.417 32.786 97.29 32.426 95.581 31.805 C 93.978 31.22 93.886 30.943 95.3 30.943 C 96.658 30.943 97.588 30.565 97.588 30.011 C 97.588 29.434 97.327 29.424 96.413 29.956 C 95.554 30.458 94.269 30.414 94.131 29.879 C 93.938 29.124 97.639 27.145 99.768 26.865 C 100.762 26.735 100.904 26.649 102.591 25.196 C 103.935 24.037 103.559 23.351 101.948 24.016 C 101.604 24.158 101.177 24.491 100.999 24.759 C 100.577 25.391 96.539 27.432 94.695 27.944 C 93.904 28.164 92.892 28.344 92.446 28.344 C 91.665 28.344 91.642 28.318 91.814 27.644 C 91.952 27.09 91.902 26.944 91.575 26.944 C 91.184 26.944 90.238 27.677 89.946 28.204 C 89.692 28.669 89.244 27.864 89.239 26.932 C 89.237 26.29 89.513 25.6 90.178 24.599 C 91.254 22.979 91.277 22.887 90.698 22.459 C 90.12 22.031 89.659 22.064 88.846 22.595 M 93.143 44.139 C 92.822 44.526 93.655 45.441 94.329 45.441 C 95.289 45.441 95.666 44.865 95.043 44.353 C 94.516 43.921 93.426 43.799 93.143 44.139" stroke="none" fill-rule="evenodd" style="fill: rgb(0, 0, 0);"></path>
      <g style="" transform="matrix(0.746315, 0, 0, 0.773269, 22.168732, 7.871012)">
        <path stroke-width="0" d="M 79.571 28.694 C 80.093 28.698 81.284 28.963 81.717 29.41 C 82.113 29.819 82.191 30.652 82.194 31.159 C 82.197 31.583 81.837 31.915 81.876 32.272 C 81.915 32.631 81.977 33.011 82.433 33.305 C 83.27 33.846 86.442 34.564 87.68 34.418 C 88.531 34.318 89.005 34.008 89.508 33.385 C 90.169 32.567 90.229 30.126 90.939 29.489 C 91.471 29.013 92.417 29.133 92.927 29.171 C 93.301 29.199 93.539 29.225 93.801 29.489 C 94.181 29.872 94.6 30.915 94.755 31.636 C 94.903 32.32 95.072 32.936 94.755 33.703 C 94.306 34.791 92.597 36.629 91.496 37.44 C 90.604 38.096 89.755 38.364 88.793 38.553 C 87.798 38.748 86.686 38.629 85.613 38.553 C 84.514 38.474 83.334 38.449 82.274 38.076 C 81.185 37.692 79.96 37.051 79.173 36.247 C 78.415 35.473 77.828 34.291 77.583 33.385 C 77.373 32.608 77.396 31.874 77.583 31.159 C 77.778 30.415 78.374 29.393 78.776 29.012 C 79.039 28.762 79.217 28.692 79.571 28.694 Z" style="stroke-width: 2px; fill: rgb(255, 255, 255);"></path>
        <path d="M 86.061 40.402 C 84.901 40.402 83.741 40.502 82.591 40.382 C 78.671 39.972 76.781 37.742 76.781 33.652 C 76.781 29.522 78.631 27.212 82.531 26.872 C 84.991 26.662 87.501 26.672 89.961 26.872 C 93.881 27.192 95.771 29.492 95.781 33.592 C 95.781 37.722 93.921 39.972 90.031 40.382 C 88.721 40.522 87.391 40.402 86.071 40.402 L 86.061 40.402 Z M 85.991 38.432 C 87.461 38.292 88.991 38.392 90.381 37.972 C 93.521 37.022 94.531 34.882 93.571 31.652 C 93.441 31.222 93.011 30.692 92.611 30.572 C 91.461 30.202 91.841 31.342 91.821 31.762 C 91.691 34.402 90.411 36.062 87.931 36.152 C 85.081 36.262 81.861 37.152 79.991 33.652 C 79.631 32.982 80.091 31.932 79.091 31.572 C 78.991 32.412 78.861 33.252 78.791 34.102 C 78.661 35.692 79.491 36.512 80.751 37.312 C 82.431 38.382 84.181 38.302 85.981 38.422 L 85.991 38.432 Z" style=""></path>
      </g>
      <g style="" transform="matrix(0.746315, 0, 0, 0.773269, -4.497015, 6.637915)">
        <path stroke-width="0" d="M 79.571 28.694 C 80.093 28.698 81.284 28.963 81.717 29.41 C 82.113 29.819 82.191 30.652 82.194 31.159 C 82.197 31.583 81.837 31.915 81.876 32.272 C 81.915 32.631 81.977 33.011 82.433 33.305 C 83.27 33.846 86.442 34.564 87.68 34.418 C 88.531 34.318 89.005 34.008 89.508 33.385 C 90.169 32.567 90.229 30.126 90.939 29.489 C 91.471 29.013 92.417 29.133 92.927 29.171 C 93.301 29.199 93.539 29.225 93.801 29.489 C 94.181 29.872 94.6 30.915 94.755 31.636 C 94.903 32.32 95.072 32.936 94.755 33.703 C 94.306 34.791 92.597 36.629 91.496 37.44 C 90.604 38.096 89.755 38.364 88.793 38.553 C 87.798 38.748 86.686 38.629 85.613 38.553 C 84.514 38.474 83.334 38.449 82.274 38.076 C 81.185 37.692 79.96 37.051 79.173 36.247 C 78.415 35.473 77.828 34.291 77.583 33.385 C 77.373 32.608 77.396 31.874 77.583 31.159 C 77.778 30.415 78.374 29.393 78.776 29.012 C 79.039 28.762 79.217 28.692 79.571 28.694 Z" style="stroke-width: 2px; fill: rgb(255, 255, 255);"></path>
        <path d="M 86.061 40.402 C 84.901 40.402 83.741 40.502 82.591 40.382 C 78.671 39.972 76.781 37.742 76.781 33.652 C 76.781 29.522 78.631 27.212 82.531 26.872 C 84.991 26.662 87.501 26.672 89.961 26.872 C 93.881 27.192 95.771 29.492 95.781 33.592 C 95.781 37.722 93.921 39.972 90.031 40.382 C 88.721 40.522 87.391 40.402 86.071 40.402 L 86.061 40.402 Z M 85.991 38.432 C 87.461 38.292 88.991 38.392 90.381 37.972 C 93.521 37.022 94.531 34.882 93.571 31.652 C 93.441 31.222 93.011 30.692 92.611 30.572 C 91.461 30.202 91.841 31.342 91.821 31.762 C 91.691 34.402 90.411 36.062 87.931 36.152 C 85.081 36.262 81.861 37.152 79.991 33.652 C 79.631 32.982 80.091 31.932 79.091 31.572 C 78.991 32.412 78.861 33.252 78.791 34.102 C 78.661 35.692 79.491 36.512 80.751 37.312 C 82.431 38.382 84.181 38.302 85.981 38.422 L 85.991 38.432 Z" style=""></path>
      </g>
    </g>
  </g>
</svg>