
                <svg 
                  xmlns="http://www.w3.org/2000/svg" 
                  viewBox="0 0 125 125" 
                  width="125mm" 
                  height="125mm"
                  style="transform: scale(1, -1)">
                    <path 
                    d="M 12.733988296163716 105.41072192996995L 12.733988296163716 112.91072192996995M 21.483988296163716 105.41072192996995L 21.483988296163716 110.41072192996995L 23.580664716027286 111.77231951750751L 21.483988296163716 113.13391710504507L 19.387311876300146 111.77231951750751L 21.483988296163716 110.41072192996995M 29.608988296163716 105.41072192996995L 29.608988296163716 112.91072192996995M 32.733988296163716 105.41072192996995L 35.87900292595907 107.45311831127633L 35.87900292595907 112.91072192996995M 35.87900292595907 107.45311831127633L 39.02401755575439 105.41072192996995M 38.358988296163716 112.91072192996995L 42.828064268392005 109.16072192996995L 38.358988296163716 105.41072192996995M 52.108988296163716 105.41072192996995L 52.108988296163716 112.91072192996995M 55.233988296163716 105.41072192996995L 55.233988296163716 112.91072192996995L 58.65978376232348 111.38545951843571L 59.07911904629617 111.65777903594321M 66.48398829616372 112.91072192996995L 70.95306426839201 109.16072192996995L 66.48398829616372 105.41072192996995M 72.10898829616372 105.41072192996995L 72.10898829616372 112.91072192996995L 75.25400292595907 110.86832554866358L 75.25400292595907 105.41072192996995M 77.73398829616372 105.41072192996995L 77.73398829616372 112.91072192996995L 81.15978376232349 111.38545951843571L 81.57911904629617 111.65777903594321M 77.73398829616372 111.65777903594321L 81.15978376232349 110.13251662440896L 81.57911904629617 110.40483614191646M 10.233988296163716 95.41072192996995L 10.233988296163716 100.41072192996995L 12.733988296163716 102.91072192996995M 10.233988296163716 102.91072192996995L 10.233988296163716 100.41072192996995L 7.733988296163716 102.91072192996995M 14.608988296163716 95.41072192996995L 16.203162508688884 102.91072192996995L 17.79733672121405 95.41072192996995M 21.483988296163716 95.41072192996995L 21.483988296163716 102.91072192996995L 24.909783762323478 101.38545951843571L 25.32911904629617 101.65777903594321M 32.733988296163716 95.41072192996995L 32.733988296163716 102.91072192996995M 32.733988296163716 99.16072192996995L 36.15978376232348 97.63545951843571M 37.108988296163716 95.41072192996995L 38.703162508688884 102.91072192996995L 40.29733672121405 95.41072192996995M 43.983988296163716 95.41072192996995L 43.983988296163716 102.91072192996995L 46.87123510331605 101.03572192996995L 43.983988296163716 99.16072192996995L 46.87123510331605 97.28572192996995L 43.983988296163716 95.41072192996995M 49.608988296163716 95.41072192996995L 49.608988296163716 102.91072192996995M 49.608988296163716 102.41072192996998L 52.75400292595907 100.3683255486636M 52.75400292595907 102.91072192996995L 52.75400292595907 95.41072192996995M 60.858988296163716 95.41072192996995L 60.858988296163716 102.91072192996995L 64.28478376232349 101.38545951843571L 64.70411904629617 101.65777903594321M 65.23398829616372 95.41072192996995L 66.82816250868888 102.91072192996995L 68.42233672121405 95.41072192996995M 77.73398829616372 95.41072192996995L 77.73398829616372 102.91072192996995L 81.15978376232349 101.38545951843571L 81.57911904629617 101.65777903594321M 83.35898829616372 102.91072192996995L 87.82806426839201 99.16072192996995L 83.35898829616372 95.41072192996995M 91.48398829616372 95.41072192996995L 91.48398829616372 102.91072192996995M 94.60898829616372 95.41072192996995L 97.75400292595907 97.45311831127633L 97.75400292595907 102.91072192996995M 97.75400292595907 97.45311831127633L 100.8990175557544 95.41072192996995" 
                    stroke-width="1" 
                    stroke="black" 
                    fill="none" 
                    stroke-linecap="round"
                    stroke-linejoin="round"
                    style="transform: scale(1, 1);"
                    />
                </svg>
            