
                <svg 
                  xmlns="http://www.w3.org/2000/svg" 
                  viewBox="0 0 125 125" 
                  width="125mm" 
                  height="125mm"
                  style="transform: scale(1, -1)">
                    <path 
                    d="M 7.233988296163716 98.5L 7.233988296163716 106M 9.108988296163716 98.5L 10.703162508688884 106L 12.297336721214052 98.5M 15.983988296163716 98.5L 19.519522202096447 102.03553390593277L 17.7517552491301 103.80330085889908L 15.983988296163716 102.03553390593277L 19.519522202096447 98.5M 27.233988296163716 98.5L 30.37900292595907 100.54239638130638L 30.37900292595907 106M 30.37900292595907 100.54239638130638L 33.52401755575439 98.5M 32.858988296163716 106L 37.328064268392005 102.25L 32.858988296163716 98.5M 38.483988296163716 98.5L 38.483988296163716 106L 41.62900292595907 103.95760361869362L 41.62900292595907 98.5M 44.108988296163716 98.5L 44.108988296163716 106M 41.608988296163716 99.75L 46.608988296163716 104.75M 49.733988296163716 98.5L 49.733988296163716 106M 47.233988296163716 99.75L 52.233988296163716 104.75M 60.983988296163716 98.5L 60.983988296163716 103.5L 63.483988296163716 106M 60.983988296163716 106L 60.983988296163716 103.5L 58.483988296163716 106M 65.35898829616372 98.5L 66.95316250868888 106L 68.54733672121405 98.5M 72.23398829616372 98.5L 72.23398829616372 106L 75.65978376232349 104.47473758846576L 76.07911904629617 104.74705710597325M 83.48398829616372 98.5L 83.48398829616372 106L 86.62900292595907 103.95760361869362L 83.48398829616372 101.91520723738732M 89.10898829616372 98.5L 89.10898829616372 106L 92.25400292595907 103.95760361869362L 92.25400292595907 98.5M 94.73398829616372 98.5L 97.87900292595907 100.54239638130638L 97.87900292595907 106M 97.87900292595907 100.54239638130638L 101.02401755575443 98.5M 100.35898829616372 98.5L 103.50400292595907 100.54239638130638L 103.50400292595907 106M 103.50400292595907 100.54239638130638L 106.64901755575443 98.5" 
                    stroke-width="1" 
                    stroke="black" 
                    fill="none" 
                    stroke-linecap="round"
                    stroke-linejoin="round"
                    style="transform: scale(1, 1);"
                    />
                </svg>
            