
                <svg 
                  xmlns="http://www.w3.org/2000/svg" 
                  viewBox="0 0 125 125" 
                  width="125mm" 
                  height="125mm"
                  style="transform: scale(1, -1)">
                    <path 
                    d="M 10.461947699947018 105.25L 10.461947699947018 112.75M 10.461947699947018 109L 13.88774316610678 107.47473758846576M 18.586947699947018 105.25L 18.586947699947018 112.75M 21.711947699947018 105.25L 21.711947699947018 112.75L 25.13774316610678 111.22473758846576L 25.557078450079473 111.49705710597325M 21.711947699947018 112.75L 18.286152233787256 111.22473758846576L 17.866816949814563 111.49705710597325M 27.336947699947018 105.25L 27.336947699947018 112.75L 30.76274316610678 111.22473758846576L 31.182078450079473 111.49705710597325M 32.96194769994702 112.75L 37.43102367217531 109L 32.96194769994702 105.25M 44.21194769994702 105.25L 44.21194769994702 112.75L 47.63774316610678 111.22473758846576L 48.05707845007947 111.49705710597325M 49.83694769994702 105.25L 49.83694769994702 112.75L 53.26274316610678 111.22473758846576L 53.68207845007947 111.49705710597325M 49.83694769994702 112.75L 46.411152233787256 111.22473758846576L 45.99181694981456 111.49705710597325M 55.46194769994702 105.25L 55.46194769994702 112.75L 58.60696232974237 110.70760361869362L 58.60696232974237 105.25M 61.08694769994702 105.25L 61.08694769994702 110.25L 63.58694769994702 112.75M 61.08694769994702 112.75L 61.08694769994702 110.25L 58.58694769994702 112.75M 66.71194769994702 105.25L 69.85696232974237 107.29239638130638L 69.85696232974237 112.75M 69.85696232974237 107.29239638130638L 73.0019769595377 105.25M 72.33694769994702 105.25L 72.33694769994702 112.75M 69.83694769994702 106.5L 74.83694769994702 111.5M 77.96194769994702 105.25L 77.96194769994702 112.75L 81.10696232974237 110.70760361869362L 81.10696232974237 105.25M 83.58694769994702 105.25L 83.58694769994702 112.75L 87.01274316610679 111.22473758846576L 87.43207845007947 111.49705710597325M 87.96194769994702 105.25L 89.55612191247218 112.75L 91.15029612499735 105.25M 94.83694769994702 105.25L 94.83694769994702 112.75L 98.26274316610679 111.22473758846576L 98.68207845007947 111.49705710597325M 94.83694769994702 112.75L 91.41115223378725 111.22473758846576L 90.99181694981456 111.49705710597325M 9.211947699947018 95.25L 9.211947699947018 102.75L 12.356962329742373 100.70760361869362L 9.211947699947018 98.66520723738732L 12.356962329742373 96.62281085608095L 12.813735058563644 96.82617917761883M 18.586947699947018 95.25L 18.586947699947018 102.75M 27.336947699947018 95.25L 27.336947699947018 102.75L 30.224194507099355 100.875L 27.336947699947018 99L 30.224194507099355 97.125L 27.336947699947018 95.25M 35.46194769994702 95.25L 35.46194769994702 102.75M 38.58694769994702 95.25L 38.58694769994702 102.75L 42.01274316610678 101.22473758846576L 42.43207845007947 101.49705710597325M 38.58694769994702 102.75L 35.161152233787256 101.22473758846576L 34.74181694981456 101.49705710597325M 44.21194769994702 95.25L 44.21194769994702 102.75L 47.35696232974237 100.70760361869362L 47.35696232974237 95.25M 49.83694769994702 95.25L 49.83694769994702 102.75M 49.83694769994702 99L 53.26274316610678 97.47473758846576M 55.46194769994702 95.25L 55.46194769994702 102.75M 52.96194769994702 96.5L 57.96194769994702 101.5M 61.08694769994702 95.25L 61.08694769994702 102.75M 61.08694769994702 102.25000000000003L 64.23196232974237 100.20760361869365M 64.23196232974237 102.75L 64.23196232974237 95.25M 72.33694769994702 95.25L 72.33694769994702 102.75L 75.22419450709936 100.875L 72.33694769994702 99L 75.22419450709936 97.125L 72.33694769994702 95.25M 77.96194769994702 95.25L 77.96194769994702 102.75L 81.10696232974237 100.70760361869362L 81.10696232974237 95.25M 83.58694769994702 95.25L 83.58694769994702 102.75L 83.58694769994702 100.25L 79.73728529041057 102.75" 
                    stroke-width="1" 
                    stroke="black" 
                    fill="none" 
                    stroke-linecap="round"
                    stroke-linejoin="round"
                    style="transform: scale(1, 1);"
                    />
                </svg>
            