
                <svg 
                  xmlns="http://www.w3.org/2000/svg" 
                  viewBox="0 0 125 125" 
                  width="125mm" 
                  height="125mm"
                  style="transform: scale(1, -1)">
                    <path 
                    d="M 122 76.2L 122 59.4L 108 55.2L 108 59.4L 101 66.4L 94 66.4L 87 59.4L 87 55.2L 66 55.2L 38 55.2L 38 59.4L 31.000000000000004 66.4L 24 66.4L 17 59.4L 17 55.2L 3.000000000000007 55.2L 3.000000000000007 69.2L 60.4 88.8L 122 76.2M 122,76.2 122,59.4M 35 57L 35 60L 30 65L 25 65L 20 60L 20 57L 20 57L 20 54L 25 49L 30 49L 35 54L 35 57M 105 56L 105 59L 100 64L 95 64L 90 59L 90 56L 90 56L 90 53L 95 48L 100 48L 105 53L 105 56M 20 73L 60 86L 83 82L 83 76L 20 73M 35 77.6L 34.5 74M 37 78.2L 36.5 74M 65 84.9L 63 75M 67 84.6L 66.5 75.35M 38.6 71.7L 38.6 56.9L 38.6 59L 58.3 59L 58.3 72.7L 58.3 56.9M 78.3 73.65L 78.3 73L 78.3 57L 78.3 59L 86.8 59L 58.6 59M 122 76L 6 70M 38.6 56.9L 86.8 56.9M 3 68.3L 9 68.7L 9 70M 54 71L 57 71M 72 72L 76 72M 35 38L 44 18L 52 37M 74 38L 83 18L 91 37M 62.5 38L 62.5 18" 
                    stroke-width="1" 
                    stroke="black" 
                    fill="none" 
                    stroke-linecap="round"
                    stroke-linejoin="round"
                    style="transform: scale(1, 1);"
                    />
                </svg>
            