
                <svg 
                  xmlns="http://www.w3.org/2000/svg" 
                  viewBox="0 0 125 125" 
                  width="125mm" 
                  height="125mm"
                  style="transform: scale(1, -1)">
                    <path 
                    d="M 56.355307765504186 23.027197199321165L 56.2810390023536 23.025374003520085L 56.206949159158626 23.01990880835522L 56.13321672484102 23.010814779960416L 56.06001932729324 22.998113826646623L 55.987533305457326 22.981836546122846L 55.91593328450891 22.962022151783582L 55.845391755169864 22.938718378240335L 55.77607865816308 22.91198136632474L 55.70816097481036 22.881875527840386L 55.64180232475979 22.84847339038914L 55.57716257181166 22.811855422645813L 55.514397438792614 22.772109840502043L 55.45365813240566 22.72933239454652L 55.39509097896001 22.683626139393414L 55.338837071858215 22.635101185414783L 55.28503193168972 22.583874433475042L 55.233805179749986 22.530069293306553L 55.18528022577136 22.473815386204755L 55.13957397061825 22.41524823275911L 55.09679652466273 22.354508926372155L 55.057050942518956 22.291743793353106L 55.02043297477562 22.22710404040498L 54.98703083732438 22.160745390354407L 54.95692499884003 22.09282770700169L 54.93018798692443 22.023514609994905L 54.90688421338119 21.95297308065586L 54.887069819041926 21.88137305970744L 54.870792538518145 21.808887037871525L 54.85809158520435 21.735689640323752L 54.84899755680955 21.66195720600614L 54.843532361644684 21.587867362811163L 54.841709165843604 21.513598599660583L 54.843532361644684 21.43932983651L 54.84899755680955 21.365239993315026L 54.85809158520435 21.291507558997413L 54.870792538518145 21.21831016144964L 54.887069819041926 21.145824139613726L 54.90688421338119 21.074224118665303L 54.93018798692443 21.00368258932626L 54.95692499884003 20.934369492319476L 54.98703083732438 20.866451808966758L 55.02043297477562 20.800093158916184L 55.057050942518956 20.73545340596806L 55.09679652466273 20.67268827294901L 55.13957397061825 20.611948966562053L 55.18528022577136 20.55338181311641L 55.233805179749986 20.49712790601461L 55.28503193168972 20.443322765846123L 55.338837071858215 20.392096013906382L 55.39509097896001 20.34357105992775L 55.45365813240566 20.297864804774644L 55.514397438792614 20.25508735881912L 55.57716257181166 20.215341776675352L 55.64180232475979 20.17872380893202L 55.70816097481036 20.14532167148078L 55.77607865816308 20.115215832996427L 55.845391755169864 20.08847882108083L 55.91593328450891 20.065175047537583L 55.987533305457326 20.04536065319832L 56.06001932729324 20.029083372674542L 56.13321672484102 20.016382419360745L 56.206949159158626 20.007288390965947L 56.2810390023536 20.00182319580108L 56.355307765504186 20L 68.6446922344958 19.999999999999996L 68.71896099764639 20.001823195801077L 68.79305084084136 20.00728839096594L 68.86678327515898 20.016382419360745L 68.93998067270675 20.02908337267454L 69.01246669454267 20.045360653198316L 69.08406671549109 20.06517504753758L 69.15460824483013 20.088478821080827L 69.22392134183691 20.11521583299642L 69.29183902518963 20.145321671480776L 69.3581976752402 20.17872380893202L 69.42283742818833 20.21534177667535L 69.48560256120739 20.255087358819118L 69.54634186759434 20.29786480477464L 69.60490902103999 20.343571059927747L 69.66116292814178 20.392096013906382L 69.71496806831027 20.44332276584612L 69.76619482025 20.497127906014608L 69.81471977422864 20.553381813116406L 69.86042602938174 20.611948966562046L 69.90320347533726 20.672688272949003L 69.94294905748104 20.735453405968055L 69.97956702522437 20.80009315891618L 70.01296916267562 20.866451808966755L 70.04307500115996 20.934369492319476L 70.06981201307556 21.003682589326253L 70.09311578661881 21.0742241186653L 70.11293018095807 21.145824139613723L 70.12920746148185 21.218310161449633L 70.14190841479565 21.29150755899741L 70.15100244319045 21.36523999331502L 70.15646763835531 21.439329836509998L 70.15829083415639 21.51359859966058L 70.15646763835531 21.58786736281116L 70.15100244319045 21.661957206006136L 70.14190841479565 21.735689640323745L 70.12920746148185 21.80888703787152L 70.11293018095807 21.881373059707435L 70.09311578661881 21.952973080655855L 70.06981201307556 22.0235146099949L 70.04307500115996 22.092827707001682L 70.01296916267562 22.160745390354403L 69.97956702522437 22.227104040404978L 69.94294905748104 22.291743793353103L 69.90320347533726 22.35450892637215L 69.86042602938174 22.415248232759108L 69.81471977422864 22.47381538620475L 69.76619482025 22.53006929330655L 69.71496806831027 22.58387443347504L 69.66116292814178 22.635101185414776L 69.60490902103999 22.68362613939341L 69.54634186759434 22.729332394546518L 69.48560256120739 22.77210984050204L 69.42283742818833 22.81185542264581L 69.3581976752402 22.848473390389138L 69.29183902518963 22.881875527840382L 69.22392134183691 22.91198136632474L 69.15460824483013 22.93871837824033L 69.08406671549109 22.96202215178358L 69.01246669454267 22.981836546122842L 68.93998067270675 22.99811382664662L 68.86678327515898 23.010814779960413L 68.79305084084137 23.01990880835522L 68.71896099764639 23.02537400352008L 68.6446922344958 23.02719719932116M 56.355307765504186 23.027197199321165L 56.30936276550418 23.05706812725987L 56.26154776550418 23.08695697596326L 56.21189276550419 23.116881666196026L 56.16042776550419 23.146860118722852L 56.107182765504184 23.176910254308424L 56.052187765504186 23.20704999371743L 55.99547276550419 23.237297257714555L 55.93706776550419 23.26766996706449L 55.87700276550419 23.298186042531917L 55.81530776550419 23.328863404881528L 55.75201276550418 23.359719974878004L 55.687147765504186 23.390773673286034L 55.62074276550418 23.422042420870305L 55.55282776550418 23.453544138395504L 55.48343276550418 23.485296746626318L 55.412587765504185 23.517318166327435L 55.34032276550418 23.549626318263538L 55.26666776550419 23.582239123199315L 55.19165276550419 23.615174501899453L 55.115307765504184 23.648450375128643L 55.03766276550419 23.682084663651565L 54.958747765504185 23.71609528823291L 54.87859276550419 23.750500169637363L 54.79722776550419 23.785317228629612L 54.714682765504186 23.820564385974343L 54.63098776550419 23.856259562436243L 54.54617276550419 23.89242067878L 54.460267765504184 23.929065655770298L 54.373302765504185 23.966212414171824L 54.285307765504186 24.003878874749265L 54.19631276550419 24.04208295826731L 54.10634776550419 24.080842585490647L 54.01544276550418 24.12017567718396L 53.923627765504186 24.16010015411193L 53.83093276550419 24.200633937039253L 53.73738776550419 24.241794946730614L 53.643022765504185 24.283601103950698L 53.547867765504186 24.32607032946419L 53.45195276550419 24.36922054403578L 53.355307765504186 24.413069668430154L 53.25796276550419 24.457635623411996L 53.159947765504185 24.502936329745996L 53.061292765504184 24.54898970819684L 52.96202776550419 24.595813679529215L 52.86218276550419 24.643426164507805L 52.76178776550419 24.6918450838973L 52.66087276550419 24.741088358462385L 52.55946776550419 24.79117390896775L 52.457602765504184 24.842119656178077L 52.355307765504186 24.893943520858056L 52.25261276550419 24.94666342377237L 52.14954776550419 25.00029728568571L 52.046142765504186 25.054863027362764L 51.942427765504185 25.110378569568216L 51.83843276550419 25.16686183306675L 51.73418776550418 25.224330738623056L 51.629722765504184 25.28280320700182L 51.52506776550418 25.342297158967728L 51.42025276550419 25.40283051528547L 51.31530776550419 25.46442119671973L 51.21026276550419 25.527087124035194L 51.105147765504185 25.59084621799655L 50.99999276550419 25.655716399368487L 50.89482776550419 25.72171558891569L 50.78968276550419 25.78886170740284L 50.68458776550418 25.857172675594633L 50.57957276550419 25.926666414255752L 50.474667765504186 25.997360844150883L 50.369902765504186 26.069273886044712L 50.26530776550418 26.142423460701927L 50.160912765504186 26.21682748888722L 50.056747765504184 26.292503891365264L 49.95284276550419 26.36947058890076L 49.84922776550419 26.44774550225839L 49.745932765504186 26.527346552202836L 49.64298776550419 26.60829165949879L 49.54042276550418 26.690598744910936L 49.438267765504186 26.774285729203964L 49.33655276550419 26.85937053314256L 49.23530776550418 26.945871077491407L 49.134562765504185 27.033805283015194L 49.03434776550419 27.123191070478608L 48.93469276550419 27.21404636064634L 48.835627765504185 27.306389074283068L 48.73718276550419 27.400237132153485L 48.63938776550419 27.49560845502228L 48.54227276550419 27.592520963654128L 48.44586776550418 27.690992578813727L 48.350202765504186 27.791041221265765L 48.255307765504185 27.892684811774917L 48.16121276550418 27.99594127110588L 48.06794776550419 28.100828520023338L 47.97554276550418 28.207364479291975L 47.884027765504186 28.315567069676483L 47.793432765504186 28.425454211941545L 47.70378776550418 28.53704382685185L 47.61512276550419 28.650353835172083L 47.527467765504184 28.765402157666927L 47.44085276550418 28.882206715101077L 47.355307765504186 29.000785428239215L 47.355307765504186 29.000785428239215L 47.27015976550418 29.1211502442578L 47.18472376550419 29.243289215980372L 47.09901176550419 29.367184422642246L 47.013035765504185 29.492817943478737L 46.926807765504186 29.620171857725158L 46.84033976550419 29.749228244616816L 46.75364376550419 29.87996918338903L 46.66673176550419 30.012376753277117L 46.57961576550419 30.14643303351638L 46.49230776550419 30.282120103342137L 46.404819765504186 30.419420041989703L 46.31716376550418 30.558314928694394L 46.229351765504184 30.698786842691515L 46.141395765504186 30.840817863216387L 46.05330776550419 30.984390069504315L 45.965099765504185 31.129485540790622L 45.876783765504186 31.276086356310614L 45.78837176550419 31.424174595299608L 45.69987576550419 31.57373233699291L 45.611307765504186 31.724741660625845L 45.522679765504186 31.877184645433722L 45.43400376550419 32.03104337065185L 45.345291765504186 32.18629991551555L 45.25655576550418 32.34293635926012L 45.167807765504186 32.50093478112089L 45.07905976550419 32.66027726033316L 44.990323765504186 32.82094587613226L 44.901611765504185 32.98292270775348L 44.812935765504186 33.14618983443216L 44.724307765504186 33.31072933540359L 44.63573976550419 33.4765232899031L 44.547243765504184 33.64355377716599L 44.458831765504186 33.81180287642758L 44.37051576550419 33.98125266692318L 44.282307765504186 34.151885227888116L 44.19421976550419 34.323682638557685L 44.10626376550419 34.49662697816721L 44.01845176550419 34.67070032595199L 43.930795765504186 34.84588476114735L 43.843307765504186 35.02216236298861L 43.755999765504185 35.19951521071107L 43.668883765504184 35.37792538355005L 43.581971765504186 35.557374960740866L 43.49527576550418 35.73784602151883L 43.408807765504186 35.91932064511924L 43.32257976550419 36.10178091077743L 43.236603765504185 36.2852088977287L 43.150891765504184 36.46958668520837L 43.06545576550419 36.65489635245175L 42.980307765504186 36.84111997869415L 42.895459765504185 37.028239643170906L 42.810923765504185 37.2162374251173L 42.726711765504184 37.405095403768655L 42.64283576550419 37.59479565836029L 42.55930776550419 37.78532026812752L 42.476139765504186 37.97665131230565L 42.393343765504184 38.16877087012999L 42.310931765504186 38.36166102083587L 42.22891576550419 38.55530384365859L 42.14730776550419 38.74968141783347L 42.06611976550419 38.94477582259582L 41.98536376550418 39.140569137180954L 41.90505176550419 39.33704344082419L 41.82519576550418 39.53418081276082L 41.74580776550419 39.73196333222619L 41.66689976550418 39.93037307845559L 41.588483765504186 40.12939213068434L 41.51057176550419 40.32900256814774L 41.43317576550419 40.52918647008113L 41.35630776550419 40.729925915719804L 41.27997976550419 40.931202984299084L 41.20420376550418 41.132999755054286L 41.12899176550419 41.335298307220704L 41.05435576550419 41.538080720033676L 40.980307765504186 41.74132907272849L 40.90685976550419 41.945025444540484L 40.834023765504185 42.14915191470496L 40.761811765504184 42.35369056245723L 40.69023576550419 42.558623467032604L 40.61930776550418 42.7639327076664L 40.54903976550418 42.96960036359394L 40.479443765504186 43.175608514050516L 40.41053176550418 43.381939238271464L 40.34231576550419 43.58857461549208L 40.274807765504185 43.79549672494769L 40.20801976550418 44.00268764587359L 40.14196376550419 44.21012945750512L 40.07665176550419 44.41780423907757L 40.012095765504185 44.62569406982626L 39.94830776550419 44.83378102898651L 39.885299765504186 45.04204719579362L 39.82308376550419 45.25047464948291L 39.76167176550418 45.459045469289705L 39.701075765504186 45.667741734449294L 39.64130776550419 45.87654552419701L 39.582379765504186 46.08543891776816L 39.524303765504186 46.29440399439806L 39.467091765504186 46.50342283332202L 39.410755765504184 46.71247751377535L 39.355307765504186 46.921550114993366L 39.355307765504186 46.921550114993366L 39.30060726550419 47.13181146026894L 39.24650376550419 47.34440847854202L 39.19299426550419 47.559287407518546L 39.140075765504186 47.77639448490446L 39.08774526550419 47.9956759484057L 39.03599976550419 48.2170780357282L 38.984836265504185 48.44054698457791L 38.934251765504186 48.66602903266077L 38.88424326550419 48.89347041768271L 38.83480776550419 49.12281737734967L 38.78594226550418 49.3540161493676L 38.73764376550418 49.587012971442434L 38.68990926550419 49.82175408128011L 38.642735765504185 50.05818571658658L 38.59612026550419 50.29625411506776L 38.55005976550419 50.53590551442961L 38.50455126550418 50.77708615237806L 38.459591765504186 51.019742266619055L 38.41517826550419 51.26382009485853L 38.371307765504184 51.50926587480243L 38.32797726550418 51.756025844156696L 38.285183765504186 52.00404624062726L 38.242924265504186 52.25327330192006L 38.20119576550419 52.50365326574105L 38.159995265504186 52.75513236979616L 38.11931976550419 53.007656851791324L 38.079166265504185 53.26117294943249L 38.03953176550419 53.5156269004256L 38.000413265504186 53.77096494247658L 37.96180776550418 54.02713331329139L 37.923712265504186 54.28407825057596L 37.88612376550419 54.541745992036226L 37.84903926550418 54.80008277537813L 37.81245576550419 55.05903483830761L 37.77637026550419 55.31854841853061L 37.740779765504186 55.57856975375307L 37.70568126550419 55.83904508168093L 37.67107176550419 56.09992064002012L 37.63694826550419 56.361142666476596L 37.60330776550419 56.62265739875629L 37.57014726550418 56.88441107456513L 37.537463765504185 57.14634993160907L 37.505254265504185 57.40842020759405L 37.47351576550418 57.670568140226L 37.44224526550419 57.93273996721088L 37.411439765504184 58.1948819262546L 37.38109626550419 58.45694025506312L 37.35121176550418 58.71886119134238L 37.32178326550419 58.9805909727983L 37.292807765504186 59.24207583713685L 37.264282265504185 59.50326202206395L 37.236203765504186 59.76409576528554L 37.20856926550419 60.02452330450757L 37.181375765504185 60.28449087743597L 37.154620265504185 60.54394472177668L 37.12829976550419 60.802831075235645L 37.10241126550419 61.0610961755188L 37.076951765504184 61.318686260332086L 37.051918265504185 61.57554756738145L 37.02730776550418 61.83162633437283L 37.00311726550419 62.08686879901215L 36.97934376550419 62.34122119900537L 36.955984265504185 62.59462977205841L 36.93303576550419 62.84704075587723L 36.91049526550419 63.09840038816776L 36.888359765504184 63.34865490663594L 36.86662626550419 63.597750548987705L 36.845291765504186 63.84563355292901L 36.824353265504186 64.09225015616578L 36.80380776550418 64.33754659640395L 36.78365226550419 64.58146911134948L 36.76388376550418 64.82396393870829L 36.74449926550418 65.06497731618633L 36.725495765504185 65.30445548148954L 36.706870265504186 65.54234467232386L 36.688619765504185 65.77859112639523L 36.670741265504184 66.01314108140959L 36.65323176550419 66.24594077507285L 36.636088265504185 66.47693644509101L 36.61930776550418 66.70607432916997L 36.60288726550419 66.93330066501566L 36.586823765504185 67.15856169033404L 36.571114265504185 67.38180364283104L 36.55575576550419 67.60297276021262L 36.540745265504185 67.8220152801847L 36.526079765504186 68.03887744045323L 36.51175626550418 68.25350547872415L 36.49777176550419 68.46584563270338L 36.48412326550419 68.67584414009688L 36.47080776550418 68.88344723861059L 36.457822265504184 69.08860116595044L 36.445163765504184 69.29125215982236L 36.43282926550419 69.49134645793232L 36.42081576550419 69.68883029798624L 36.409120265504185 69.88364991769005L 36.39773976550419 70.07575155474971L 36.386671265504184 70.26508144687115L 36.375911765504185 70.45158583176033L 36.36545826550418 70.63521094712314L 36.355307765504186 70.81590303066558L 36.355307765504186 70.81590303066557L 36.34575526550419 70.99451331871023L 36.33708776550419 71.1719288891091L 36.32929026550419 71.34814974186217L 36.32234776550418 71.52317587696947L 36.316245265504186 71.69700729443099L 36.31096776550419 71.86964399424672L 36.30650026550419 72.04108597641667L 36.30282776550418 72.21133324094083L 36.29993526550418 72.38038578781921L 36.29780776550418 72.54824361705181L 36.296430265504185 72.71490672863862L 36.29578776550419 72.88037512257965L 36.29586526550418 73.0446487988749L 36.29664776550418 73.20772775752437L 36.29812026550419 73.36961199852804L 36.30026776550418 73.53030152188595L 36.303075265504184 73.68979632759805L 36.306527765504185 73.84809641566437L 36.31061026550419 74.00520178608492L 36.31530776550419 74.16111243885967L 36.320605265504184 74.31582837398867L 36.32648776550419 74.46934959147185L 36.332940265504185 74.62167609130927L 36.339947765504185 74.77280787350088L 36.347495265504186 74.92274493804673L 36.35556776550418 75.07148728494678L 36.364150265504186 75.21903491420107L 36.37322776550419 75.36538782580956L 36.38278526550419 75.51054601977228L 36.39280776550419 75.65450949608919L 36.403280265504186 75.79727825476033L 36.41418776550419 75.9388522957857L 36.42551526550418 76.07923161916527L 36.43724776550419 76.21841622489906L 36.449370265504186 76.35640611298706L 36.46186776550419 76.49320128342929L 36.47472526550418 76.62880173622572L 36.48792776550419 76.76320747137638L 36.501460265504186 76.89641848888127L 36.51530776550418 77.02843478874036L 36.52945526550419 77.15925637095364L 36.54388776550419 77.28888323552118L 36.558590265504186 77.41731538244292L 36.57354776550419 77.54455281171886L 36.58874526550419 77.67059552334904L 36.60416776550419 77.79544351733342L 36.61980026550419 77.91909679367203L 36.63562776550419 78.04155535236484L 36.65163526550419 78.16281919341188L 36.667807765504186 78.28288831681314L 36.68413026550419 78.4017627225686L 36.70058776550419 78.5194424106783L 36.717165265504185 78.6359273811422L 36.73384776550419 78.75121763396031L 36.75062026550419 78.86531316913265L 36.767467765504186 78.9782139866592L 36.78437526550419 79.08992008653996L 36.80132776550419 79.20043146877495L 36.81831026550419 79.30974813336415L 36.83530776550419 79.41787008030757L 36.852305265504185 79.52479730960519L 36.86928776550419 79.63052982125706L 36.886240265504185 79.73506761526312L 36.90314776550419 79.8384106916234L 36.91999526550419 79.9405590503379L 36.936767765504186 80.04151269140661L 36.95345026550419 80.14127161482955L 36.97002776550419 80.23983582060669L 36.986485265504186 80.33720530873805L 37.00280776550419 80.43338007922364L 37.01898026550419 80.52836013206343L 37.03498776550419 80.62214546725744L 37.050815265504184 80.71473608480568L 37.066447765504186 80.80613198470812L 37.081870265504186 80.89633316696478L 37.097067765504185 80.98533963157567L 37.11202526550419 81.07315137854076L 37.126727765504185 81.15976840786007L 37.14116026550419 81.2451907195336L 37.15530776550418 81.32941831356135L 37.16915526550419 81.41245118994331L 37.182687765504184 81.49428934867947L 37.19589026550418 81.57493278976987L 37.208747765504185 81.65438151321449L 37.22124526550419 81.73263551901331L 37.23336776550419 81.80969480716635L 37.245100265504185 81.88555937767362L 37.256427765504185 81.96022923053509L 37.26733526550419 82.03370436575078L 37.277807765504186 82.1059847833207L 37.28783026550419 82.17707048324482L 37.29738776550419 82.24696146552316L 37.30646526550419 82.31565773015572L 37.31504776550418 82.38315927714248L 37.32312026550419 82.44946610648347L 37.33066776550418 82.51457821817868L 37.33767526550418 82.57849561222811L 37.34412776550419 82.64121828863175L 37.35001026550419 82.7027462473896L 37.355307765504186 82.76307948850167M 68.6446922344958 23.027197199321165L 68.69063723449581 23.05706812725987L 68.73845223449581 23.08695697596326L 68.78810723449581 23.116881666196026L 68.8395722344958 23.146860118722852L 68.89281723449581 23.176910254308424L 68.94781223449581 23.20704999371743L 69.00452723449581 23.237297257714555L 69.06293223449582 23.26766996706449L 69.12299723449581 23.298186042531917L 69.18469223449581 23.328863404881528L 69.24798723449581 23.359719974878004L 69.31285223449581 23.390773673286034L 69.37925723449581 23.422042420870305L 69.44717223449581 23.453544138395504L 69.51656723449581 23.485296746626318L 69.58741223449582 23.517318166327435L 69.65967723449582 23.549626318263538L 69.7333322344958 23.582239123199315L 69.80834723449581 23.615174501899453L 69.88469223449582 23.648450375128643L 69.9623372344958 23.682084663651565L 70.04125223449581 23.71609528823291L 70.1214072344958 23.750500169637363L 70.20277223449581 23.785317228629612L 70.2853172344958 23.820564385974343L 70.36901223449581 23.856259562436243L 70.4538272344958 23.89242067878L 70.53973223449582 23.929065655770298L 70.62669723449581 23.966212414171824L 70.71469223449581 24.003878874749265L 70.80368723449581 24.04208295826731L 70.8936522344958 24.080842585490647L 70.98455723449581 24.12017567718396L 71.0763722344958 24.16010015411193L 71.16906723449581 24.200633937039253L 71.2626122344958 24.241794946730614L 71.35697723449582 24.283601103950698L 71.4521322344958 24.32607032946419L 71.54804723449581 24.36922054403578L 71.6446922344958 24.413069668430154L 71.74203723449581 24.457635623411996L 71.84005223449581 24.502936329745996L 71.93870723449581 24.54898970819684L 72.03797223449581 24.595813679529215L 72.13781723449581 24.643426164507805L 72.2382122344958 24.6918450838973L 72.3391272344958 24.741088358462385L 72.44053223449582 24.79117390896775L 72.54239723449581 24.842119656178077L 72.6446922344958 24.893943520858056L 72.7473872344958 24.94666342377237L 72.85045223449582 25.00029728568571L 72.95385723449581 25.054863027362764L 73.05757223449581 25.110378569568216L 73.16156723449582 25.16686183306675L 73.26581223449581 25.224330738623056L 73.37027723449582 25.28280320700182L 73.47493223449581 25.342297158967728L 73.57974723449581 25.40283051528547L 73.68469223449581 25.46442119671973L 73.7897372344958 25.527087124035194L 73.89485223449581 25.59084621799655L 74.00000723449581 25.655716399368487L 74.10517223449581 25.72171558891569L 74.2103172344958 25.78886170740284L 74.31541223449581 25.857172675594633L 74.42042723449582 25.926666414255752L 74.52533223449582 25.997360844150883L 74.6300972344958 26.069273886044712L 74.73469223449581 26.142423460701927L 74.8390872344958 26.21682748888722L 74.9432522344958 26.292503891365264L 75.04715723449581 26.36947058890076L 75.15077223449582 26.44774550225839L 75.2540672344958 26.527346552202836L 75.35701223449581 26.60829165949879L 75.45957723449581 26.690598744910936L 75.5617322344958 26.774285729203964L 75.66344723449582 26.85937053314256L 75.76469223449581 26.945871077491407L 75.86543723449581 27.033805283015194L 75.9656522344958 27.123191070478608L 76.06530723449582 27.21404636064634L 76.16437223449581 27.306389074283068L 76.26281723449581 27.400237132153485L 76.3606122344958 27.49560845502228L 76.4577272344958 27.592520963654128L 76.55413223449581 27.690992578813727L 76.64979723449581 27.791041221265765L 76.74469223449582 27.892684811774917L 76.83878723449581 27.99594127110588L 76.93205223449581 28.100828520023338L 77.02445723449581 28.207364479291975L 77.11597223449581 28.315567069676483L 77.20656723449581 28.425454211941545L 77.29621223449581 28.53704382685185L 77.38487723449582 28.650353835172083L 77.4725322344958 28.765402157666927L 77.55914723449581 28.882206715101077L 77.6446922344958 29.000785428239215L 77.6446922344958 29.000785428239215L 77.72984023449581 29.1211502442578L 77.81527623449581 29.243289215980372L 77.90098823449581 29.367184422642246L 77.9869642344958 29.492817943478737L 78.0731922344958 29.620171857725158L 78.1596602344958 29.749228244616816L 78.2463562344958 29.87996918338903L 78.3332682344958 30.012376753277117L 78.42038423449581 30.14643303351638L 78.5076922344958 30.282120103342137L 78.59518023449581 30.419420041989703L 78.68283623449581 30.558314928694394L 78.77064823449581 30.698786842691515L 78.85860423449581 30.840817863216387L 78.94669223449581 30.984390069504315L 79.03490023449581 31.129485540790622L 79.12321623449581 31.276086356310614L 79.21162823449582 31.424174595299608L 79.30012423449581 31.57373233699291L 79.3886922344958 31.724741660625845L 79.4773202344958 31.877184645433722L 79.56599623449581 32.03104337065185L 79.65470823449581 32.18629991551555L 79.74344423449581 32.34293635926012L 79.8321922344958 32.50093478112089L 79.9209402344958 32.66027726033316L 80.00967623449581 32.82094587613226L 80.09838823449581 32.98292270775348L 80.18706423449581 33.14618983443216L 80.2756922344958 33.31072933540359L 80.3642602344958 33.4765232899031L 80.45275623449581 33.64355377716599L 80.54116823449581 33.81180287642758L 80.62948423449582 33.98125266692318L 80.71769223449581 34.151885227888116L 80.80578023449581 34.323682638557685L 80.89373623449582 34.49662697816721L 80.9815482344958 34.67070032595199L 81.06920423449581 34.84588476114735L 81.15669223449581 35.02216236298861L 81.24400023449581 35.19951521071107L 81.33111623449581 35.37792538355005L 81.41802823449581 35.557374960740866L 81.50472423449581 35.73784602151883L 81.59119223449581 35.91932064511924L 81.67742023449581 36.10178091077743L 81.7633962344958 36.2852088977287L 81.8491082344958 36.46958668520837L 81.93454423449582 36.65489635245175L 82.0196922344958 36.84111997869415L 82.10454023449581 37.028239643170906L 82.18907623449581 37.2162374251173L 82.27328823449581 37.405095403768655L 82.35716423449581 37.59479565836029L 82.44069223449581 37.78532026812752L 82.52386023449581 37.97665131230565L 82.60665623449582 38.16877087012999L 82.6890682344958 38.36166102083587L 82.7710842344958 38.55530384365859L 82.8526922344958 38.74968141783347L 82.93388023449582 38.94477582259582L 83.01463623449581 39.140569137180954L 83.09494823449582 39.33704344082419L 83.17480423449581 39.53418081276082L 83.25419223449582 39.73196333222619L 83.3331002344958 39.93037307845559L 83.4115162344958 40.12939213068434L 83.4894282344958 40.32900256814774L 83.56682423449581 40.52918647008113L 83.64369223449582 40.729925915719804L 83.7200202344958 40.931202984299084L 83.79579623449581 41.132999755054286L 83.87100823449582 41.335298307220704L 83.94564423449582 41.538080720033676L 84.0196922344958 41.74132907272849L 84.0931402344958 41.945025444540484L 84.1659762344958 42.14915191470496L 84.23818823449581 42.35369056245723L 84.3097642344958 42.558623467032604L 84.38069223449581 42.7639327076664L 84.45096023449581 42.96960036359394L 84.52055623449581 43.175608514050516L 84.58946823449581 43.381939238271464L 84.65768423449582 43.58857461549208L 84.72519223449581 43.79549672494769L 84.79198023449581 44.00268764587359L 84.85803623449581 44.21012945750512L 84.9233482344958 44.41780423907757L 84.98790423449582 44.62569406982626L 85.0516922344958 44.83378102898651L 85.11470023449581 45.04204719579362L 85.1769162344958 45.25047464948291L 85.23832823449581 45.459045469289705L 85.29892423449581 45.667741734449294L 85.3586922344958 45.87654552419701L 85.41762023449581 46.08543891776816L 85.47569623449581 46.29440399439806L 85.5329082344958 46.50342283332202L 85.58924423449581 46.71247751377535L 85.6446922344958 46.921550114993366L 85.6446922344958 46.921550114993366L 85.69939273449582 47.13181146026894L 85.75349623449581 47.34440847854202L 85.8070057344958 47.559287407518546L 85.85992423449581 47.77639448490446L 85.91225473449582 47.9956759484057L 85.96400023449581 48.2170780357282L 86.01516373449581 48.44054698457791L 86.06574823449581 48.66602903266077L 86.1157567344958 48.89347041768271L 86.1651922344958 49.12281737734967L 86.21405773449581 49.3540161493676L 86.26235623449581 49.587012971442434L 86.3100907344958 49.82175408128011L 86.35726423449582 50.05818571658658L 86.40387973449582 50.29625411506776L 86.44994023449581 50.53590551442961L 86.49544873449581 50.77708615237806L 86.54040823449581 51.019742266619055L 86.5848217344958 51.26382009485853L 86.62869223449582 51.50926587480243L 86.67202273449581 51.756025844156696L 86.71481623449581 52.00404624062726L 86.75707573449581 52.25327330192006L 86.79880423449582 52.50365326574105L 86.8400047344958 52.75513236979616L 86.88068023449581 53.007656851791324L 86.92083373449582 53.26117294943249L 86.9604682344958 53.5156269004256L 86.99958673449581 53.77096494247658L 87.03819223449581 54.02713331329139L 87.0762877344958 54.28407825057596L 87.1138762344958 54.541745992036226L 87.15096073449581 54.80008277537813L 87.1875442344958 55.05903483830761L 87.22362973449582 55.31854841853061L 87.25922023449581 55.57856975375307L 87.2943187344958 55.83904508168093L 87.3289282344958 56.09992064002012L 87.36305173449581 56.361142666476596L 87.3966922344958 56.62265739875629L 87.42985273449581 56.88441107456513L 87.46253623449581 57.14634993160907L 87.49474573449581 57.40842020759405L 87.52648423449581 57.670568140226L 87.55775473449582 57.93273996721088L 87.58856023449582 58.1948819262546L 87.61890373449582 58.45694025506312L 87.64878823449581 58.71886119134238L 87.6782167344958 58.9805909727983L 87.7071922344958 59.24207583713685L 87.73571773449581 59.50326202206395L 87.76379623449581 59.76409576528554L 87.7914307344958 60.02452330450757L 87.81862423449581 60.28449087743597L 87.84537973449581 60.54394472177668L 87.8717002344958 60.802831075235645L 87.89758873449581 61.0610961755188L 87.92304823449581 61.318686260332086L 87.94808173449582 61.57554756738145L 87.97269223449581 61.83162633437283L 87.99688273449581 62.08686879901215L 88.0206562344958 62.34122119900537L 88.04401573449582 62.59462977205841L 88.06696423449581 62.84704075587723L 88.0895047344958 63.09840038816776L 88.11164023449581 63.34865490663594L 88.1333737344958 63.597750548987705L 88.15470823449581 63.84563355292901L 88.17564673449581 64.09225015616578L 88.19619223449581 64.33754659640395L 88.21634773449581 64.58146911134948L 88.23611623449581 64.82396393870829L 88.25550073449581 65.06497731618633L 88.27450423449581 65.30445548148954L 88.2931297344958 65.54234467232386L 88.31138023449581 65.77859112639523L 88.32925873449581 66.01314108140959L 88.34676823449581 66.24594077507285L 88.36391173449582 66.47693644509101L 88.38069223449581 66.70607432916997L 88.3971127344958 66.93330066501566L 88.41317623449581 67.15856169033404L 88.42888573449581 67.38180364283104L 88.44424423449581 67.60297276021262L 88.45925473449581 67.8220152801847L 88.47392023449581 68.03887744045323L 88.48824373449581 68.25350547872415L 88.5022282344958 68.46584563270338L 88.51587673449582 68.67584414009688L 88.52919223449581 68.88344723861059L 88.54217773449581 69.08860116595044L 88.55483623449581 69.29125215982236L 88.5671707344958 69.49134645793232L 88.57918423449581 69.68883029798624L 88.59087973449581 69.88364991769005L 88.6022602344958 70.07575155474971L 88.61332873449581 70.26508144687115L 88.62408823449582 70.45158583176033L 88.63454173449581 70.63521094712314L 88.6446922344958 70.81590303066558L 88.6446922344958 70.81590303066557L 88.6542447344958 70.99451331871023L 88.6629122344958 71.1719288891091L 88.67070973449582 71.34814974186217L 88.67765223449581 71.52317587696947L 88.6837547344958 71.69700729443099L 88.68903223449581 71.86964399424672L 88.6934997344958 72.04108597641667L 88.69717223449581 72.21133324094083L 88.70006473449581 72.38038578781921L 88.70219223449581 72.54824361705181L 88.70356973449582 72.71490672863862L 88.70421223449581 72.88037512257965L 88.70413473449581 73.0446487988749L 88.70335223449581 73.20772775752437L 88.70187973449582 73.36961199852804L 88.69973223449581 73.53030152188595L 88.69692473449581 73.68979632759805L 88.69347223449581 73.84809641566437L 88.6893897344958 74.00520178608492L 88.68469223449581 74.16111243885967L 88.67939473449582 74.31582837398867L 88.67351223449582 74.46934959147185L 88.66705973449581 74.62167609130927L 88.66005223449581 74.77280787350088L 88.6525047344958 74.92274493804673L 88.64443223449581 75.07148728494678L 88.6358497344958 75.21903491420107L 88.62677223449582 75.36538782580956L 88.61721473449582 75.51054601977228L 88.60719223449581 75.65450949608919L 88.5967197344958 75.79727825476033L 88.5858122344958 75.9388522957857L 88.57448473449581 76.07923161916527L 88.56275223449582 76.21841622489906L 88.55062973449581 76.35640611298706L 88.5381322344958 76.49320128342929L 88.52527473449581 76.62880173622572L 88.51207223449582 76.76320747137638L 88.49853973449581 76.89641848888127L 88.48469223449581 77.02843478874036L 88.47054473449582 77.15925637095364L 88.45611223449582 77.28888323552118L 88.4414097344958 77.41731538244292L 88.42645223449581 77.54455281171886L 88.41125473449581 77.67059552334904L 88.39583223449581 77.79544351733342L 88.3801997344958 77.91909679367203L 88.3643722344958 78.04155535236484L 88.3483647344958 78.16281919341188L 88.3321922344958 78.28288831681314L 88.3158697344958 78.4017627225686L 88.29941223449582 78.5194424106783L 88.28283473449581 78.6359273811422L 88.2661522344958 78.75121763396031L 88.2493797344958 78.86531316913265L 88.2325322344958 78.9782139866592L 88.21562473449582 79.08992008653996L 88.19867223449582 79.20043146877495L 88.1816897344958 79.30974813336415L 88.1646922344958 79.41787008030757L 88.14769473449581 79.52479730960519L 88.13071223449582 79.63052982125706L 88.11375973449582 79.73506761526312L 88.09685223449581 79.8384106916234L 88.0800047344958 79.9405590503379L 88.06323223449581 80.04151269140661L 88.04654973449581 80.14127161482955L 88.02997223449582 80.23983582060669L 88.01351473449581 80.33720530873805L 87.99719223449581 80.43338007922364L 87.9810197344958 80.52836013206343L 87.9650122344958 80.62214546725744L 87.94918473449582 80.71473608480568L 87.9335522344958 80.80613198470812L 87.9181297344958 80.89633316696478L 87.90293223449581 80.98533963157567L 87.88797473449581 81.07315137854076L 87.87327223449581 81.15976840786007L 87.85883973449582 81.2451907195336L 87.84469223449581 81.32941831356135L 87.83084473449581 81.41245118994331L 87.81731223449582 81.49428934867947L 87.80410973449581 81.57493278976987L 87.79125223449581 81.65438151321449L 87.7787547344958 81.73263551901331L 87.76663223449582 81.80969480716635L 87.75489973449581 81.88555937767362L 87.74357223449582 81.96022923053509L 87.73266473449581 82.03370436575078L 87.72219223449581 82.1059847833207L 87.71216973449582 82.17707048324482L 87.70261223449582 82.24696146552316L 87.69353473449581 82.31565773015572L 87.68495223449581 82.38315927714248L 87.67687973449581 82.44946610648347L 87.66933223449581 82.51457821817868L 87.66232473449581 82.57849561222811L 87.65587223449582 82.64121828863175L 87.6499897344958 82.7027462473896L 87.6446922344958 82.76307948850167M 62.49999999999999 70.76714853109144L 64.96461082729219 70.82491221747281L 67.40548610502422 70.99764698074029L 69.7991188699534 71.28368929069714L 72.12245713006067 71.68028440353183L 74.35312586783532 72.18361289150687L 76.46964252392502 72.7888274261357L 78.45162388592591 73.4900994606059L 80.2799823898607 74.28067536187126L 81.9371099438541 75.15294145182986L 83.40704750368305 76.0984973312062L 84.6756387670968 77.10823677998852L 85.73066650674618 78.1724354553053L 86.56197022876148 79.28084454216304L 87.1615440238629 80.42278945513726L 87.52361366864322 81.58727264046547L 87.6446922344958 82.76307948850169L 87.52361366864322 83.93888633653788L 87.1615440238629 85.10336952186609L 86.56197022876148 86.24531443484031L 85.73066650674616 87.35372352169807L 84.6756387670968 88.41792219701483L 83.40704750368305 89.42766164579714L 81.9371099438541 90.37321752517349L 80.2799823898607 91.24548361513209L 78.45162388592591 92.03605951639744L 76.469642523925 92.73733155086765L 74.35312586783532 93.34254608549648L 72.12245713006067 93.84587457347152L 69.79911886995339 94.24246968630624L 67.40548610502422 94.52851199626306L 64.96461082729219 94.70124675953053L 62.49999999999999 94.75901044591191L 60.035389172707816 94.70124675953053L 57.59451389497577 94.52851199626306L 55.200881130046604 94.24246968630624L 52.877542869939326 93.84587457347152L 50.64687413216467 93.34254608549648L 48.53035747607498 92.73733155086768L 46.54837611407409 92.03605951639744L 44.72001761013929 91.24548361513209L 43.0628900561459 90.37321752517352L 41.59295249631694 89.42766164579714L 40.324361232903186 88.41792219701483L 39.269333493253825 87.35372352169807L 38.438029771238504 86.24531443484031L 37.83845597613709 85.10336952186609L 37.47638633135677 83.93888633653788L 37.355307765504186 82.76307948850169L 37.47638633135677 81.58727264046547L 37.83845597613709 80.42278945513726L 38.438029771238504 79.28084454216304L 39.269333493253825 78.17243545530528L 40.324361232903186 77.10823677998852L 41.59295249631694 76.0984973312062L 43.0628900561459 75.15294145182986L 44.72001761013928 74.28067536187126L 46.548376114074074 73.4900994606059L 48.53035747607498 72.7888274261357L 50.64687413216466 72.18361289150687L 52.87754286993931 71.68028440353183L 55.20088113004659 71.28368929069714L 57.59451389497576 70.99764698074029L 60.035389172707816 70.82491221747281L 62.49999999999999 70.76714853109144M 81.30725465854222 35.32905780595132L 81.45546541388046 35.32889633174716L 81.66457086983374 35.32886347701189L 81.87345729421861 35.32903173308034L 82.08206495115282 35.32940707354073L 82.29033410475404 35.32999547198128L 82.49820501914002 35.33080290199022L 82.70561795842842 35.33183533715578L 82.912513186737 35.3330987510662L 83.11883096818345 35.33459911730969L 83.32451156688548 35.3363424094745L 83.5294952469608 35.338334601148844L 83.73372227252713 35.34058166592096L 83.93713290770218 35.34308957737906L 84.13966741660364 35.3458643091114L 84.34126606334924 35.348911834706186L 84.54186911205669 35.35223812775165L 84.7414168268437 35.35584916183603L 84.93984947182797 35.359750910547554L 85.13710731112722 35.363949347474446L 85.33313060885918 35.36845044620494L 85.52785962914152 35.37326018032725L 85.72123463609198 35.37838452342963L 85.91319589382826 35.38382944910029L 86.10368366646807 35.38960093092746L 86.29263821812914 35.39570494249938L 86.47999981292915 35.40214745740427L 86.66570871498584 35.40893444923035L 86.84970518841689 35.41607189156587L 87.03192949734003 35.42356575799905L 87.21232190587298 35.43142202211811L 87.39082267813343 35.43964665751129L 87.5673720782391 35.448245637766824L 87.7419103703077 35.457224936472926L 87.91437781845696 35.46659052721783L 88.08471468680455 35.476348383589766L 88.08471468680455 35.476348383589766L 88.25435961451564 35.48620679536356L 88.42477115271609 35.49587803470618L 88.59591943346479 35.50537404879408L 88.76777458882057 35.51470678480373L 88.9403067508423 35.523888189911574L 89.11348605158882 35.53293021129408L 89.287282623119 35.541844796127705L 89.46166659749169 35.5506438915889L 89.63660810676575 35.55933944485413L 89.81207728300002 35.56794340309985L 89.98804425825338 35.57646771350251L 90.16447916458466 35.58492432323858L 90.34135213405273 35.59332517948452L 90.51863329871645 35.601682229416774L 90.69629279063466 35.610007420211815L 90.87430074186624 35.618312699046086L 91.05262728447 35.62661001309605L 91.23124255050485 35.63491130953817L 91.4101166720296 35.6432285355489L 91.58921978110314 35.6515736383047L 91.7685220097843 35.65995856498202L 91.94799349013196 35.66839526275733L 92.12760435420495 35.676895678807085L 92.30732473406215 35.685471760307735L 92.48712476176239 35.69413545443574L 92.66697456936454 35.70289870836756L 92.84684428892746 35.71177346927966L 93.02670405250998 35.720771684348485L 93.20652399217099 35.7299053007505L 93.38627423996932 35.73918626566216L 93.56592492796385 35.748626526259926L 93.7454461882134 35.75823802972026L 93.92480815277686 35.768032723219605L 94.10398095371306 35.778022553934434L 94.28293472308087 35.788219469041195L 94.46163959293915 35.798635415716355L 94.64006569534675 35.80928234113637L 94.8181831623625 35.820172192477685L 94.9959621260453 35.83131691691676L 95.17337271845398 35.842728461630074L 95.35038507164738 35.854418773794066L 95.52696931768439 35.8663998005852L 95.70309558862385 35.878683489179934L 95.87873401652462 35.89128178675472L 96.05385473344553 35.904206640486024L 96.22842787144548 35.9174699975503L 96.4024235625833 35.931083805124004L 96.57581193891782 35.94506001038359L 96.74856313250794 35.95941056050553L 96.9206472754125 35.974147402666276L 97.09203449969036 35.98928248404228L 97.26269493740035 36.00482775181L 97.43259872060135 36.0207951531459L 97.60171598135221 36.03719663522642L 97.77001685171179 36.05404414522805L 97.93747146373893 36.07134963032723L 98.1040499494925 36.08912503770041L 98.26972244103135 36.10738231452406L 98.43445907041435 36.126133407974635L 98.59822996970033 36.14539026522859L 98.76100527094815 36.165164833462384L 98.92275510621667 36.18546905985248L 99.08344960756476 36.20631489157533L 99.24305890705126 36.22771427580739L 99.40155313673503 36.24967915972512L 99.55890242867493 36.272221490504975L 99.7150769149298 36.29535321532342L 99.8700467275585 36.31908628135692L 100.0237819986199 36.34343263578191L 100.17625286017284 36.36840422577487L 100.32742944427619 36.39401299851224L 100.47728188298879 36.42027090117048L 100.6257803083695 36.44718988092606L 100.77289485247718 36.47478188495543L 100.91859564737068 36.50305886043506L 101.06285282510886 36.53203275454139L 101.20563651775058 36.56171551445088L 101.34691685735467 36.592119087339995L 101.48666397598002 36.62325542038519L 101.62484800568546 36.65513646076293L 101.76143907852988 36.68777415564966L 101.89640732657209 36.721180452221844L 102.02972288187097 36.755367297655944L 102.16135587648536 36.790346639128416L 102.29127644247414 36.82613042381571L 102.41945471189615 36.86273059889429L 102.54586081681025 36.90015911154062L 102.67046488927528 36.938427908931146L 102.79323706135013 36.97754893824232L 102.9141474650936 37.01753414665063L 103.03316623256461 37.0583954813325L 103.15026349582199 37.10014488946441L 103.26540938692457 37.14279431822281L 103.37857403793123 37.186355714784156L 103.48972758090082 37.23084102632491L 103.5988401478922 37.27626220002152L 103.70588187096422 37.32263118305046L 103.81082288217574 37.36995992258818L 103.9136333135856 37.418260365811136L 104.01428329725269 37.467544459895784L 104.01428329725269 37.467544459895784L 104.11285148542198 37.51713022018599L 104.2094523718679 37.5663476092021L 104.30410985094333 37.615226494885206L 104.39684781700122 37.66379674517651L 104.48769016439445 37.71208822801712L 104.57666078747594 37.76013081134819L 104.66378358059865 37.80795436311087L 104.74908243811544 37.8555887512463L 104.83258125437925 37.903063843695634L 104.914303923743 37.95040950839999L 104.99427434055961 37.997655613300545L 105.07251639918198 38.044832026338426L 105.14905399396304 38.09196861545478L 105.22391101925568 38.13909524859075L 105.29711136941285 38.186241793687486L 105.36867893878743 38.23343811868613L 105.43863762173237 38.28071409152783L 105.50701131260055 38.32809958015372L 105.57382390574493 38.37562445250495L 105.6390992955184 38.423318576522675L 105.70286137627387 38.47121182014803L 105.76513404236427 38.51933405132215L 105.8259411881425 38.5677151379862L 105.88530670796149 38.616384948081304L 105.94325449617415 38.665373349548624L 105.99980844713339 38.7147102103293L 106.05499245519214 38.764425398364466L 106.10883041470329 38.81454878159528L 106.1613462200198 38.86511022796288L 106.21256376549454 38.91613960540841L 106.26250694548044 38.96766678187302L 106.31119965433042 39.01972162529785L 106.35866578639741 39.07233400362405L 106.4049292360343 39.12553378479275L 106.45001389759403 39.179350836745115L 106.49394366542948 39.23381502742228L 106.53674243389361 39.28895622476538L 106.57843409733931 39.344804296715566L 106.61904255011949 39.401389111214L 106.65859168658707 39.4587405362018L 106.69710540109499 39.51688843962013L 106.73460758799614 39.57586268941012L 106.77112214164343 39.635693153512925L 106.8066729563898 39.69640969986969L 106.84128392658816 39.758042196421556L 106.8749789465914 39.82062051110965L 106.90778191075248 39.88417451187516L 106.93971671342427 39.948734066659185L 106.97080724895972 40.014329043402896L 107.00107741171172 40.08098931004743L 107.0305510960332 40.148744734533935L 107.05925219627707 40.21762518480355L 107.08720460679626 40.28766052879743L 107.11443222194366 40.358880634456696L 107.14095893607221 40.431315369722526L 107.16680864353482 40.50499460253604L 107.1920052386844 40.57994820083839L 107.21657261587386 40.65620603257071L 107.24053466945612 40.73379796567417L 107.26391529378411 40.81275386808989L 107.28673838321073 40.89310360775903L 107.3090278320889 40.97487705262273L 107.33080753477154 41.058104070622136L 107.35210138561155 41.142814529698384L 107.37293327896187 41.22903829779262L 107.39332710917539 41.316805242846L 107.41330677060505 41.40614523279966L 107.43289615760375 41.49708813559475L 107.4521191645244 41.5896638191724L 107.47099968571993 41.683902151473774L 107.48956161554327 41.77983300044001L 107.50782884834729 41.877486234012245L 107.52582527848494 41.97689172013163L 107.54357480030913 42.078079326739314L 107.56110130817278 42.18107892177643L 107.5784286964288 42.28592037318414L 107.5955808594301 42.39263354890357L 107.6125816915296 42.50124831687587L 107.6294550870802 42.61179454504219L 107.64622494043486 42.72430210134367L 107.66291514594646 42.83880085372146L 107.67954959796792 42.95532067011669L 107.69615219085216 43.073891418470524L 107.7127468189521 43.1945429667241L 107.72935737662064 43.31730518281856L 107.74600775821071 43.44220793469504L 107.76272185807522 43.5692810902947L 107.7795235705671 43.69855451755868L 107.79643679003924 43.83005808442812L 107.81348541084456 43.96382165884417L 107.83069332733601 44.099875108747966L 107.84808443386646 44.23824830208066L 107.86568262478886 44.378971106783396L 107.8835117944561 44.52207339079732L 107.90159583722111 44.66758502206358L 107.9199586474368 44.8155358685233L 107.9386241194561 44.96595579811765L 107.95761614763191 45.11887467878776L 107.97695862631714 45.27432237847478L 107.99667544986472 45.432328765119856L 107.99667544986472 45.432328765119856L 108.01638829102015 45.59399795694729L 108.03570289296033 45.7603504419462L 108.05461925568522 45.93129064270492L 108.07313737919488 46.106722981811785L 108.09125726348925 46.28655188185513L 108.10897890856839 46.47068176542331L 108.12630231443225 46.659017055104634L 108.14322748108084 46.85146217348746L 108.15975440851419 47.047921543160115L 108.17588309673226 47.24829958671094L 108.19161354573508 47.452500726728275L 108.20694575552264 47.660429385800455L 108.22187972609493 47.871989986515814L 108.23641545745197 48.087086951462695L 108.25055294959374 48.305624703229434L 108.26429220252025 48.52750766440437L 108.2776332162315 48.752640257575834L 108.29057599072749 48.98092690533216L 108.30312052600821 49.2122720302617L 108.31526682207368 49.44658005495278L 108.32701487892389 49.68375540199375L 108.33836469655884 49.923702493972925L 108.34931627497852 50.16632575347866L 108.35986961418294 50.41152960309929L 108.3700247141721 50.65921846542315L 108.379781574946 50.909296763038576L 108.38914019650464 51.161668918533906L 108.39810057884802 51.41623935449748L 108.40666272197613 51.67291249351763L 108.41482662588899 51.931592758182695L 108.42259229058658 52.192184571081015L 108.42995971606891 52.45459235480092L 108.43692890233598 52.71872053193077L 108.44349984938779 52.984473525058874L 108.44967255722435 53.25175575677358L 108.45544702584563 53.52047164966323L 108.46082325525165 53.79052562631616L 108.46580124544242 54.0618221093207L 108.47038099641793 54.334265521265195L 108.47456250817817 54.60776028473798L 108.47834578072315 54.882210822327394L 108.48173081405287 55.15752155662177L 108.48471760816733 55.433596910209445L 108.48730616306652 55.71034130567876L 108.48949647875047 55.98765916561805L 108.49128855521914 56.26545491261565L 108.49268239247255 56.54363296925991L 108.4936779905107 56.82209775813915L 108.4942753493336 57.100753701841725L 108.49447446894123 57.379505222955956L 108.4942753493336 57.65825674407019L 108.4936779905107 57.93691268777276L 108.49268239247255 58.215377476652L 108.49128855521914 58.49355553329626L 108.48949647875047 58.771351280293864L 108.48730616306652 59.04866914023315L 108.48471760816733 59.32541353570247L 108.48173081405287 59.601488889290145L 108.47834578072315 59.87679962358452L 108.47456250817817 60.151250161173934L 108.47038099641793 60.42474492464672L 108.46580124544242 60.69718833659121L 108.46082325525165 60.96848481959575L 108.45544702584563 61.23853879624868L 108.44967255722435 61.50725468913833L 108.44349984938779 61.77453692085304L 108.43692890233598 62.04028991398115L 108.42995971606891 62.30441809111099L 108.42259229058658 62.5668258748309L 108.41482662588899 62.827417687729216L 108.40666272197613 63.08609795239428L 108.39810057884802 63.342771091414434L 108.38914019650464 63.597341527378006L 108.379781574946 63.849713682873336L 108.3700247141721 64.09979198048876L 108.35986961418294 64.34748084281262L 108.34931627497852 64.59268469243325L 108.33836469655884 64.83530795193899L 108.32701487892389 65.07525504391816L 108.31526682207368 65.31243039095914L 108.30312052600821 65.54673841565021L 108.29057599072749 65.77808354057976L 108.2776332162315 66.00637018833608L 108.26429220252025 66.23150278150754L 108.25055294959374 66.45338574268247L 108.23641545745197 66.67192349444922L 108.22187972609493 66.8870204593961L 108.20694575552264 67.09858106011146L 108.19161354573508 67.30650971918364L 108.17588309673226 67.51071085920097L 108.15975440851419 67.7110889027518L 108.14322748108084 67.90754827242446L 108.12630231443225 68.09999339080728L 108.10897890856839 68.2883286804886L 108.09125726348925 68.47245856405678L 108.07313737919488 68.65228746410013L 108.05461925568522 68.82771980320699L 108.03570289296033 68.99866000396571L 108.01638829102015 69.16501248896462L 107.99667544986472 69.32668168079206L 107.99667544986472 69.32668168079206L 107.97695862631714 69.48468806743713L 107.95761614763191 69.64013576712415L 107.9386241194561 69.79305464779426L 107.9199586474368 69.94347457738861L 107.90159583722111 70.09142542384834L 107.8835117944561 70.2369370551146L 107.86568262478886 70.38003933912852L 107.84808443386646 70.52076214383125L 107.83069332733601 70.65913533716395L 107.81348541084456 70.79518878706774L 107.79643679003924 70.9289523614838L 107.7795235705671 71.06045592835324L 107.76272185807522 71.1897293556172L 107.74600775821071 71.31680251121688L 107.72935737662064 71.44170526309335L 107.7127468189521 71.56446747918781L 107.69615219085216 71.68511902744139L 107.67954959796792 71.80368977579522L 107.66291514594647 71.92020959219046L 107.64622494043486 72.03470834456824L 107.62945508708022 72.14721590086972L 107.6125816915296 72.25776212903604L 107.5955808594301 72.36637689700834L 107.5784286964288 72.47309007272777L 107.56110130817278 72.57793152413548L 107.54357480030913 72.6809311191726L 107.52582527848494 72.78211872578028L 107.50782884834729 72.88152421189966L 107.48956161554327 72.9791774454719L 107.47099968571993 73.07510829443814L 107.4521191645244 73.16934662673951L 107.43289615760374 73.26192231031716L 107.41330677060505 73.35286521311225L 107.39332710917539 73.44220520306591L 107.37293327896187 73.5299721481193L 107.35210138561155 73.61619591621353L 107.33080753477154 73.70090637528978L 107.3090278320889 73.78413339328918L 107.28673838321073 73.86590683815288L 107.26391529378411 73.94625657782203L 107.24053466945612 74.02521248023774L 107.21657261587386 74.1028044133412L 107.1920052386844 74.17906224507352L 107.16680864353482 74.25401584337587L 107.14095893607221 74.32769507618939L 107.11443222194366 74.40012981145522L 107.08720460679625 74.47134991711448L 107.05925219627707 74.54138526110836L 107.0305510960332 74.61026571137798L 107.00107741171172 74.67802113586448L 106.97080724895972 74.74468140250902L 106.93971671342427 74.81027637925273L 106.90778191075248 74.87483593403675L 106.8749789465914 74.93838993480226L 106.84128392658816 75.00096824949036L 106.8066729563898 75.06260074604222L 106.77112214164343 75.12331729239898L 106.73460758799614 75.1831477565018L 106.69710540109499 75.24212200629178L 106.65859168658707 75.30026990971011L 106.61904255011949 75.35762133469791L 106.57843409733931 75.41420614919635L 106.53674243389361 75.47005422114654L 106.49394366542948 75.52519541848963L 106.45001389759403 75.5796596091668L 106.4049292360343 75.63347666111916L 106.35866578639741 75.68667644228786L 106.31119965433042 75.73928882061406L 106.26250694548044 75.79134366403889L 106.21256376549454 75.84287084050351L 106.1613462200198 75.89390021794904L 106.10883041470329 75.94446166431663L 106.05499245519214 75.99458504754745L 105.99980844713339 76.04430023558263L 105.94325449617415 76.0936370963633L 105.88530670796149 76.14262549783061L 105.8259411881425 76.19129530792571L 105.76513404236427 76.23967639458976L 105.70286137627387 76.28779862576388L 105.63909929551839 76.33569186938924L 105.57382390574493 76.38338599340696L 105.50701131260055 76.4309108657582L 105.43863762173237 76.47829635438409L 105.36867893878743 76.52557232722577L 105.29711136941285 76.57276865222443L 105.22391101925568 76.61991519732116L 105.14905399396304 76.66704183045712L 105.07251639918198 76.71417841957349L 104.99427434055961 76.76135483261137L 104.914303923743 76.80860093751193L 104.83258125437925 76.85594660221628L 104.74908243811544 76.90342169466561L 104.66378358059865 76.95105608280105L 104.57666078747594 76.99887963456372L 104.48769016439445 77.04692221789479L 104.39684781700122 77.0952137007354L 104.30410985094333 77.1437839510267L 104.2094523718679 77.19266283670981L 104.11285148542198 77.24188022572592L 104.01428329725269 77.29146598601614L 104.01428329725269 77.29146598601614L 103.9132390567625 77.34075008010078L 103.80926178445192 77.38905052332373L 103.70240524261499 77.43637926286145L 103.5927231935458 77.48274824589039L 103.48026939953837 77.528169419587L 103.3650976228868 77.57265473112776L 103.24726162588512 77.6162161276891L 103.1268151708274 77.6588655564475L 103.00381202000771 77.70061496457942L 102.8783059357201 77.74147629926128L 102.75035068025863 77.78146150766959L 102.62000001591738 77.82058253698077L 102.48730770499039 77.8588513343713L 102.35232750977173 77.89627984701762L 102.21511319255544 77.9328800220962L 102.07571851563559 77.9686638067835L 101.93419724130625 78.00364314825597L 101.79060313186149 78.03782999369007L 101.64498994959534 78.07123629026225L 101.49741145680188 78.10387398514898L 101.34792141577518 78.13575502552672L 101.19657358880926 78.16689135857192L 101.04342173819822 78.19729493146103L 100.88851962623612 78.22697769137052L 100.73192101521698 78.25595158547685L 100.57367966743492 78.28422856095648L 100.41384934518393 78.31182056498585L 100.25248381075814 78.33873954474143L 100.08963682645157 78.36499744739967L 99.92536215455829 78.39060622013704L 99.75971355737235 78.41557781013L 99.59274479718782 78.439924164555L 99.42450963629877 78.4636572305885L 99.25506183699923 78.48678895540694L 99.08445516158329 78.5093312861868L 98.912743372345 78.53129617010453L 98.73998023157843 78.55269555433658L 98.56621950157762 78.57354138605943L 98.39151494463665 78.59384561244953L 98.21592032304957 78.61362018068331L 98.03948939911044 78.63287703793728L 97.86227593511332 78.65162813138785L 97.68433369335227 78.6698854082115L 97.50571643612135 78.68766081558468L 97.32647792571463 78.70496630068386L 97.14667192442616 78.72181381068549L 96.96635219455 78.73821529276601L 96.7855724983802 78.75418269410191L 96.60438659821085 78.76972796186963L 96.422848256336 78.78486304324564L 96.2410112350497 78.79959988540638L 96.058929296646 78.81395043552831L 95.87665620341899 78.82792664078791L 95.69424571766271 78.84154044836161L 95.51175160167122 78.85480380542589L 95.3292276177386 78.8677286591572L 95.14672752815889 78.88032695673198L 94.96430509522615 78.89261064532671L 94.78201408123445 78.90459167211785L 94.59990824847785 78.91628198428184L 94.4180413592504 78.92769352899515L 94.23646717584616 78.93883825343423L 94.0552394605592 78.94972810477555L 93.87441197568359 78.96037503019556L 93.69403848351337 78.97079097687072L 93.51417274634261 78.98098789197748L 93.33486852646537 78.9909777226923L 93.1561795861757 79.00077241619165L 92.97815968776769 79.01038391965199L 92.80086259353536 79.01982418024974L 92.6243420657728 79.02910514516141L 92.44865186677404 79.03823876156343L 92.27384575883318 79.04723697663225L 92.09997750424425 79.05611173754434L 91.92710086530133 79.06487499147617L 91.75526960429846 79.07353868560418L 91.58453748352972 79.08211476710483L 91.41495826528914 79.09061518315458L 91.24658571187082 79.09905188092989L 91.0794735855688 79.10743680760721L 90.91367564867714 79.11578191036301L 90.7492456634899 79.12409913637374L 90.58623739230116 79.13240043281587L 90.42470459740494 79.14069774686583L 90.26470104109534 79.1490030257001L 90.10628048566639 79.15732821649513L 89.94949669341217 79.16568526642739L 89.79440342662673 79.17408612267333L 89.64105444760413 79.1825427324094L 89.48950351863844 79.19106704281207L 89.33980440202372 79.19967100105778L 89.19201086005403 79.20836655432302L 89.0461766550234 79.2171656497842L 88.90235554922594 79.22608023461783L 88.76060130495567 79.23512225600034L 88.62096768450668 79.24430366110818L 88.483508450173 79.25363639711783L 88.34827736424872 79.26313241120573L 88.21532818902789 79.27280365054835M 84.12319916980884 42.02926708826547L 84.22631829625624 42.03390902241784L 84.36429225477565 42.04046493593927L 84.50056174945372 42.047295435399626L 84.50056174945372 42.047295435399626L 84.63627769162258 42.05419632364128L 84.77260692218296 42.06096619118111L 84.90952554678191 42.06761340104264L 85.04700967106653 42.0741463162494L 85.18503540068392 42.08057329982489L 85.32357884128113 42.08690271479264L 85.46261609850528 42.09314292417618L 85.60212327800343 42.09930229099902L 85.74207648542267 42.10538917828468L 85.88245182641009 42.111411949056674L 86.02322540661278 42.11737896633855L 86.16437333167781 42.12329859315379L 86.30587170725227 42.12917919252595L 86.44769663898325 42.13502912747853L 86.58982423251781 42.14085676103505L 86.73223059350306 42.14667045621904L 86.87489182758608 42.15247857605402L 87.01778404041396 42.15828948356351L 87.16088333763376 42.16411154177102L 87.30416582489259 42.169953113700075L 87.44760760783753 42.17582256237421L 87.59118479211566 42.18172825081692L 87.73487348337405 42.18767854205174L 87.87864978725979 42.1936817991022L 88.02248980942 42.199746384991805L 88.16636965550171 42.20588066274408L 88.31026543115203 42.21209299538255L 88.45415324201807 42.21839174593073L 88.59800919374686 42.22478527741214L 88.74180939198554 42.2312819528503L 88.88552994238115 42.23789013526874L 89.02914695058081 42.24461818769097L 89.17263652223157 42.25147447314051L 89.31597476298053 42.25846735464089L 89.45913777847478 42.26560519521563L 89.60210167436139 42.272896357888236L 89.74484255628747 42.28034920568224L 89.88733652990008 42.287972101621165L 90.02955970084632 42.29577340872852L 90.17148817477326 42.30376149002784L 90.31309805732799 42.31194470854264L 90.4543654541576 42.32033142729643L 90.59526647090917 42.32893000931274L 90.73577721322977 42.33774881761509L 90.8758737867665 42.346796215227L 91.01553229716646 42.35608056517199L 91.15472885007671 42.36561023047359L 91.29343955114435 42.375393574155304L 91.43164050601644 42.38543895924066L 91.56930782034009 42.39575474875318L 91.70641759976236 42.406349305716375L 91.84294594993037 42.41723099315379L 91.97886897649116 42.428408174088915L 92.11416278509185 42.439889211545285L 92.24880348137951 42.45168246854642L 92.38276717100123 42.463796308115846L 92.51602995960408 42.47623909327707L 92.64856795283517 42.48901918705363L 92.78035725634155 42.50214495246903L 92.91137397577035 42.5156247525468L 93.0415942167686 42.52946695031046L 93.17099408498342 42.54367990878352L 93.2995496860619 42.55827199098952L 93.42723712565109 42.573251559951956L 93.5540325093981 42.58862697869437L 93.67991194295001 42.604406610240275L 93.80485153195391 42.620598817613185L 93.92882738205688 42.63721196383663L 94.05181559890599 42.654254411934126L 94.17379228814835 42.67173452492919L 94.29473355543104 42.68966066584535L 94.4146155064011 42.70804119770612L 94.53341424670568 42.72688448353503L 94.65110588199182 42.74619888635559L 94.76766651790663 42.76599276919133L 94.88307226009717 42.78627449506576L 94.99729921421053 42.807052427002404L 95.11032348589382 42.82833492802479L 95.22212118079409 42.850130361156424L 95.33266840455846 42.87244708942084L 95.44194126283398 42.895293475841555L 95.54991586126775 42.91867788344208L 95.65656830550685 42.94260867524595L 95.76187470119837 42.96709421427668L 95.8658111539894 42.99214286355779L 95.968353769527 43.01776298611279L 96.06947865345828 43.043962944965216L 96.16916191143031 43.07075110313859L 96.26737964909017 43.09813582365641L 96.36410797208498 43.12612546954223L 96.45932298606178 43.15472840381954L 96.55300079666767 43.18395298951187L 96.64511750954973 43.213807589642755L 96.73564923035507 43.2443005672357L 96.82457206473075 43.275440285314225L 96.91186211832384 43.30723510690186L 96.99749549678145 43.33969339502211L 97.08144830575068 43.37282351269852L 97.16369665087856 43.40663382295458L 97.24421663781223 43.44113268881384L 97.24421663781223 43.44113268881384L 97.32307118834768 43.47584272101698L 97.40035189750441 43.51029489332825L 97.47607788076475 43.54451011330644L 97.55026825361105 43.57850928851035L 97.62294213152563 43.61231332649877L 97.69411862999084 43.645943134830524L 97.763816864489 43.6794196210644L 97.83205595050242 43.7127636927592L 97.89885500351349 43.74599625747373L 97.96423313900448 43.77913822276678L 98.02820947245777 43.81221049619717L 98.09080311935566 43.84523398532369L 98.15203319518051 43.878229597705136L 98.21191881541463 43.91121824090031L 98.27047909554035 43.94422082246803L 98.32773315104004 43.97725824996708L 98.38370009739597 44.01035143095626L 98.43839905009054 44.0435212729944L 98.49184912460603 44.07678868364026L 98.54406943642479 44.110174570452656L 98.59507910102917 44.14369984099041L 98.64489723390149 44.17738540281229L 98.69354295052409 44.21125216347713L 98.74103536637926 44.2453210305437L 98.78739359694939 44.27961291157082L 98.83263675771678 44.314148714117295L 98.87678396416379 44.348949345741914L 98.91985433177271 44.38403571400349L 98.9618669760259 44.41942872646081L 99.0028410124057 44.45514929067268L 99.04279555639442 44.4912183141979L 99.08174972347442 44.52765670459529L 99.119722629128 44.56448536942362L 99.15673338883752 44.60172521624172L 99.1928011180853 44.63939715260837L 99.22794493235367 44.677522086082384L 99.26218394712498 44.71612092422255L 99.29553727788152 44.75521457458768L 99.32802404010567 44.79482394473659L 99.35966334927974 44.83496994222805L 99.39047432088609 44.875673474620875L 99.42047607040699 44.916955449473875L 99.44968771332483 44.95883677434583L 99.47812836512193 45.00133835679557L 99.5058171412806 45.04448110438187L 99.5327731572832 45.088285924663545L 99.55901552861206 45.1327737251994L 99.58456337074949 45.177965413548215L 99.60943579917785 45.22388189726882L 99.63365192937945 45.27054408391999L 99.65723087683665 45.31797288106054L 99.68019175703174 45.36618919624927L 99.70255368544709 45.41521393704499L 99.72433577756502 45.46506801100648L 99.74555714886785 45.51577232569255L 99.76623691483793 45.56734778866201L 99.7863941909576 45.61981530747366L 99.80604809270918 45.67319578968629L 99.82521773557497 45.727510142858705L 99.84392223503737 45.78277927454971L 99.86218070657867 45.83902409231811L 99.88001226568119 45.8962655037227L 99.8974360278273 45.95452441632228L 99.91447110849933 46.013821737675656L 99.93113662317957 46.07417837534162L 99.9474516873504 46.135615236878984L 99.96343541649412 46.198153229846554L 99.97910692609307 46.26181326180311L 99.99448533162959 46.32661624030747L 100.00958974858602 46.39258307291843L 100.0244392924447 46.459734667194795L 100.03905307868791 46.52809193069536L 100.05345022279803 46.59767577097893L 100.06764984025739 46.66850709560431L 100.08167104654831 46.740606812130295L 100.09553295715313 46.81399582811569L 100.10925468755416 46.888695051119285L 100.12285535323376 46.9647253886999L 100.13635406967424 47.04210774841632L 100.14976995235797 47.120863037827355L 100.16312211676725 47.20101216449181L 100.17642967838441 47.282576035968475L 100.1897117526918 47.36557555981616L 100.20298745517175 47.45003164359366L 100.2162759013066 47.53596519485978L 100.22959620657866 47.62339712117331L 100.24296748647026 47.71234833009308L 100.25640885646376 47.80283972917786L 100.26993943204147 47.89489222598647L 100.28357832868573 47.9885267280777L 100.29734466187888 48.08376414301036L 100.31125754710325 48.18062537834325L 100.32533609984117 48.279131341635164L 100.33959943557497 48.37930294044491L 100.35406666978696 48.48116108233129L 100.36875691795953 48.5847266748531L 100.38368929557495 48.69002062556914L 100.3988829181156 48.79706384203822L 100.4143569010638 48.90587723181913L 100.43013035990185 49.016481702470685L 100.43013035990185 49.016481702470685L 100.44590063282621 49.12965013674989L 100.46135231437833 49.246096876249126L 100.47648540455828 49.365755016780234L 100.49129990336598 49.48855765415504L 100.50579581080149 49.614437884185385L 100.51997312686478 49.7433288026831L 100.53383185155587 49.87516350546003L 100.54737198487476 50.00987508832801L 100.56059352682144 50.147396647098866L 100.57349647739589 50.28766127758445L 100.58608083659814 50.43060207559658L 100.5983466044282 50.57615213694711L 100.61029378088602 50.72424455744786L 100.62192236597166 50.87481243291067L 100.63323235968508 51.02778885914739L 100.64422376202629 51.183106931969846L 100.65489657299528 51.34069974718987L 100.66525079259208 51.5005004006193L 100.67528642081666 51.66244198806998L 100.68500345766904 51.82645760535374L 100.6944019031492 51.99248034828241L 100.70348175725715 52.16044331266784L 100.71224301999288 52.33027959432185L 100.72068569135644 52.50192228905629L 100.72880977134776 52.67530449268299L 100.73661525996688 52.85035930101379L 100.7441021572138 53.02701980986052L 100.75127046308849 53.20521911503502L 100.75812017759098 53.38489031234913L 100.76465130072127 53.565966497614674L 100.77086383247935 53.7483807666435L 100.77675777286521 53.93206621524744L 100.78233312187888 54.11695593923832L 100.78758987952031 54.302983034427996L 100.79252804578955 54.490080596628296L 100.79714762068659 54.67818172165105L 100.8014486042114 54.8672195053081L 100.80543099636401 55.05712704341128L 100.80909479714441 55.247837431772425L 100.8124400065526 55.439283766203374L 100.8154666245886 55.63139914251596L 100.81817465125238 55.82411665652202L 100.82056408654395 56.017369404033396L 100.8226349304633 56.21109048086192L 100.82438718301046 56.40521298281942L 100.82582084418539 56.59967000571775L 100.82693591398812 56.794394645368726L 100.82773239241865 56.9893199975842L 100.82821027947696 57.18437915817599L 100.82836957516307 57.379505222955956L 100.82821027947696 57.57463128773592L 100.82773239241865 57.769690448327715L 100.82693591398812 57.964615800543186L 100.82582084418539 58.159340440194164L 100.82438718301046 58.35379746309249L 100.8226349304633 58.54791996504999L 100.82056408654395 58.741641041878516L 100.81817465125238 58.93489378938989L 100.8154666245886 59.12761130339595L 100.8124400065526 59.31972667970854L 100.80909479714441 59.51117301413949L 100.80543099636401 59.701883402500634L 100.8014486042114 59.89179094060381L 100.79714762068659 60.08082872426086L 100.79252804578955 60.268929849283616L 100.78758987952031 60.456027411483916L 100.78233312187888 60.64205450667359L 100.77675777286521 60.82694423066448L 100.77086383247935 61.01062967926841L 100.76465130072127 61.19304394829724L 100.75812017759098 61.37412013356278L 100.75127046308849 61.55379133087689L 100.7441021572138 61.73199063605139L 100.73661525996688 61.90865114489812L 100.72880977134776 62.08370595322892L 100.72068569135644 62.25708815685562L 100.71224301999288 62.42873085159006L 100.70348175725715 62.598567133244075L 100.6944019031492 62.766530097629506L 100.68500345766904 62.93255284055818L 100.67528642081666 63.09656845784193L 100.66525079259208 63.25851004529261L 100.65489657299528 63.41831069872204L 100.64422376202629 63.575903513942066L 100.63323235968508 63.73122158676452L 100.62192236597166 63.88419801300123L 100.61029378088602 64.03476588846405L 100.5983466044282 64.18285830896481L 100.58608083659814 64.32840837031533L 100.57349647739589 64.47134916832746L 100.56059352682144 64.61161379881304L 100.54737198487476 64.74913535758391L 100.53383185155587 64.88384694045189L 100.51997312686478 65.01568164322882L 100.50579581080149 65.14457256172653L 100.49129990336598 65.27045279175688L 100.47648540455828 65.39325542913168L 100.46135231437833 65.51291356966279L 100.44590063282621 65.62936030916202L 100.43013035990185 65.74252874344123L 100.43013035990185 65.74252874344123L 100.4143569010638 65.85313321409278L 100.3988829181156 65.96194660387368L 100.38368929557495 66.06898982034276L 100.36875691795953 66.17428377105881L 100.35406666978696 66.27784936358063L 100.33959943557497 66.379707505467L 100.32533609984117 66.47987910427675L 100.31125754710325 66.57838506756866L 100.29734466187888 66.67524630290154L 100.28357832868573 66.77048371783421L 100.26993943204147 66.86411821992544L 100.25640885646376 66.95617071673405L 100.24296748647026 67.04666211581883L 100.22959620657866 67.1356133247386L 100.2162759013066 67.22304525105213L 100.20298745517175 67.30897880231825L 100.1897117526918 67.39343488609576L 100.17642967838441 67.47643440994344L 100.16312211676725 67.55799828142011L 100.14976995235797 67.63814740808456L 100.13635406967424 67.71690269749558L 100.12285535323376 67.79428505721202L 100.10925468755416 67.87031539479263L 100.09553295715313 67.94501461779623L 100.08167104654831 68.01840363378162L 100.06764984025739 68.0905033503076L 100.05345022279803 68.16133467493299L 100.03905307868791 68.23091851521656L 100.0244392924447 68.29927577871712L 100.00958974858602 68.36642737299348L 99.99448533162959 68.43239420560444L 99.97910692609307 68.4971971841088L 99.96343541649412 68.56085721606536L 99.9474516873504 68.62339520903292L 99.93113662317957 68.6848320705703L 99.91447110849933 68.74518870823626L 99.8974360278273 68.80448602958964L 99.88001226568119 68.86274494218921L 99.86218070657867 68.9199863535938L 99.84392223503737 68.9762311713622L 99.82521773557497 69.0315003030532L 99.80604809270918 69.08581465622562L 99.7863941909576 69.13919513843825L 99.76623691483793 69.19166265724989L 99.74555714886785 69.24323812021936L 99.72433577756502 69.29394243490543L 99.70255368544709 69.34379650886693L 99.68019175703174 69.39282124966263L 99.65723087683665 69.44103756485137L 99.63365192937945 69.48846636199193L 99.60943579917785 69.5351285486431L 99.58456337074949 69.58104503236369L 99.55901552861206 69.62623672071251L 99.5327731572832 69.67072452124836L 99.5058171412806 69.71452934153004L 99.47812836512193 69.75767208911634L 99.44968771332483 69.80017367156607L 99.42047607040699 69.84205499643804L 99.39047432088609 69.88333697129103L 99.35966334927974 69.92404050368387L 99.32802404010567 69.96418650117532L 99.29553727788152 70.00379587132423L 99.26218394712498 70.04288952168936L 99.22794493235367 70.08148835982954L 99.1928011180853 70.11961329330354L 99.15673338883752 70.1572852296702L 99.119722629128 70.19452507648829L 99.08174972347442 70.23135374131662L 99.04279555639442 70.267792131714L 99.0028410124057 70.30386115523923L 98.9618669760259 70.3395817194511L 98.91985433177271 70.37497473190842L 98.87678396416379 70.41006110017L 98.83263675771678 70.44486173179462L 98.78739359694939 70.47939753434109L 98.74103536637926 70.51368941536822L 98.69354295052409 70.54775828243478L 98.64489723390149 70.58162504309962L 98.59507910102917 70.6153106049215L 98.54406943642479 70.64883587545926L 98.49184912460603 70.68222176227165L 98.43839905009054 70.71548917291751L 98.38370009739597 70.74865901495565L 98.32773315104004 70.78175219594483L 98.27047909554035 70.81478962344389L 98.21191881541463 70.8477922050116L 98.15203319518051 70.88078084820678L 98.09080311935566 70.91377646058822L 98.02820947245777 70.94679994971474L 97.96423313900448 70.97987222314512L 97.89885500351349 71.01301418843819L 97.83205595050242 71.04624675315272L 97.763816864489 71.07959082484751L 97.69411862999084 71.1130673110814L 97.62294213152563 71.14669711941315L 97.55026825361105 71.18050115740157L 97.47607788076475 71.21450033260548L 97.40035189750441 71.24871555258366L 97.32307118834768 71.28316772489492L 97.24421663781223 71.31787775709807L 97.24421663781223 71.31787775709807L 97.16338124542008 71.35237662295734L 97.08019942757161 71.3861869332134L 96.99471419410207 71.4193170508898L 96.90696855484671 71.45177533901006L 96.81700551964077 71.48357016059768L 96.72486809831952 71.51470987867621L 96.63059930071817 71.54520285626916L 96.534242136672 71.57505745640003L 96.43583961601625 71.60428204209238L 96.33543474858617 71.63288497636968L 96.23307054421699 71.66087462225549L 96.12879001274399 71.68825934277332L 96.02263616400239 71.7150475009467L 95.91465200782746 71.74124745979913L 95.80488055405442 71.76686758235412L 95.69336481251855 71.79191623163524L 95.58014779305509 71.81640177066596L 95.46527250549927 71.84033256246983L 95.34878195968636 71.86371697007036L 95.23071916545159 71.88656335649107L 95.11112713263022 71.90888008475548L 94.9900488710575 71.93067551788712L 94.86752739056865 71.95195801890951L 94.74360570099897 71.97273595084616L 94.61832681218368 71.99301767672058L 94.491733733958 72.01281155955633L 94.36386947615723 72.03212596237688L 94.23477704861659 72.05096924820579L 94.10449946117134 72.06934978006656L 93.97307972365671 72.08727592098272L 93.84056084590796 72.1047560339778L 93.70698583776033 72.12179848207528L 93.57239770904908 72.13841162829873L 93.43683946960947 72.15460383567164L 93.30035412927671 72.17038346721753L 93.16298469788609 72.18575888595996L 93.02477418527283 72.2007384549224L 92.88576560127218 72.2153305371284L 92.74600195571941 72.22954349560146L 92.60552625844974 72.24338569336511L 92.46438151929843 72.25686549344287L 92.32261074810073 72.26999125885828L 92.18025695469188 72.28277135263484L 92.03736314890716 72.29521413779607L 91.89397234058178 72.30732797736549L 91.750127539551 72.31912123436663L 91.60587175565007 72.330602271823L 91.46124799871424 72.34177945275812L 91.31629927857877 72.35266114019554L 91.17106860507889 72.36325569715873L 91.02559898804984 72.37357148667125L 90.87993343732688 72.3836168717566L 90.73411496274528 72.39340021543832L 90.58818657414025 72.40292988073992L 90.44219128134706 72.41221423068491L 90.29617209420095 72.42126162829682L 90.15017202253719 72.43008043659917L 90.004234076191 72.43867901861549L 89.85840126499764 72.44706573736927L 89.71271659879235 72.45524895588407L 89.5672230874104 72.46323703718339L 89.421963740687 72.47103834429075L 89.27698156845744 72.47866124022967L 89.13231958055695 72.48611408802367L 88.98802078682078 72.49340525069628L 88.84412819708416 72.50054309127103L 88.70167567663822 72.507487668451M 39.40301168721784 8.980979582476813L 62.500000000000014 4.4167518814726705L 85.59698831278219 8.980979582476813L 95.16407412190942 20L 85.59698831278219 31.01902041752318L 79.65826572040369 32.19257957587078M 45.3417342795963 32.19257957587078L 39.40301168721784 31.019020417523187L 29.835925878090578 20L 39.40301168721783 8.98097958247682" 
                    stroke-width="1" 
                    stroke="black" 
                    fill="none" 
                    stroke-linecap="round"
                    stroke-linejoin="round"
                    style="transform: scale(1, 1);"
                    />
<path 
                    d="M 53.33717900780614 100.21055898944763L 53.42171764353817 100.26335561098463L 53.51286732114494 100.31826986094062L 53.61047379089726 100.37526824151382L 53.714382803065945 100.43431725490244L 53.82444010792181 100.49538340330471L 53.94049145573566 100.55843318891881L 54.06238259677833 100.623433113943L 54.189959281320604 100.69034968057544L 54.32306725963331 100.75914939101438L 54.46155228198727 100.829798747458L 54.60526009865328 100.90226425210454L 54.75403645990216 100.97651240715221L 54.90772711600473 101.05250971479921L 55.0661778172318 101.13022267724376L 55.22923431385417 101.20961779668409L 55.396742356142674 101.29066157531838L 55.56854769436811 101.37332051534486L 55.74449607880129 101.45756111896173L 55.92443325971304 101.54334988836722L 56.108204987374165 101.63065332575952L 56.29565701205548 101.71943793333688L 56.486635084027796 101.80967021329748L 56.68098495356193 101.90131666783954L 56.878552370928695 101.99434379916127L 57.0791830863989 102.0887181094609L 57.28272285024336 102.18440610093663L 57.489017412732885 102.28137427578666L 57.697912524138296 102.37958913620922L 57.90925393473041 102.47901718440252L 58.122887394780015 102.57962492256478L 58.33865865455795 102.68137885289418L 58.55641346433502 102.78424547758897L 58.77599757438204 102.88819129884735L 58.99725673496982 102.99318281886752L 59.22003669636917 103.09918653984772L 59.44418320885091 103.20616896398613L 59.66954202268585 103.31409659348098L 59.895958888144804 103.42293593053049L 60.123279555498584 103.53265347733286L 60.351349775018 103.64321573608629L 60.580015296973876 103.75458920898902L 60.80912187163702 103.86674039823926L 61.038515249278234 103.9796358060352L 61.268041180168346 104.09324193457508L 61.49754541457816 104.20752528605708L 61.7268737027785 104.32245236267944L 61.955871795040174 104.43798966664036L 62.184385441633985 104.55410370013807L 62.41226039283075 104.67076096537076L 62.6393423989013 104.78792796453665L 62.86547721011643 104.90557119983396L 63.09051057674696 105.02365717346089L 63.3142882490637 105.14215238761565L 63.53665597733746 105.26102334449648L 63.757459511839066 105.38023654630156L 63.97654460283932 105.49975849522913L 64.19375700060904 105.61955569347738L 64.40894245541904 105.73959464324453L 64.62194671754011 105.8598418467288L 64.8326155372431 105.98026380612839L 65.0407946647988 106.10082702364153L 65.24632985047803 106.22149800146641L 65.44906684455162 106.34224324180127L 65.64885139729034 106.4630292468443L 65.84552925896506 106.58382251879371L 66.03894617984653 106.70458955984773L 66.22894791020562 106.82529687220458L 66.41538020031311 106.94591095806243L 66.59808880043981 107.06639831961954L 66.77691946085656 107.1867254590741L 66.95171793183417 107.30685887862431L 67.12232996364341 107.42676508046841L 67.28860130655515 107.5464105668046L 67.45037771084017 107.66576183983109L 67.6075049267693 107.78478540174609L 67.75982870461333 107.90344775474783L 67.90719479464309 108.0217154010345L 68.04944894712939 108.13955484280433L 68.18643691234305 108.25693258225553L 68.31800444055487 108.37381512158629L 68.44399728203568 108.49016896299486L 68.56426118705629 108.60596060867942L 68.67864190588749 108.72115656083821L 68.78698518880012 108.8357233216694L 68.88913678606498 108.94962739337126L 68.98494244795287 109.06283527814196L 69.07424792473465 109.17531347817973L 69.15689896668108 109.28702849568279L 69.232741324063 109.39794683284933L 69.30162074715122 109.50803499187757L 69.36338298621655 109.61725947496572L 69.41787379152981 109.72558678431201L 69.46493891336182 109.83298342211464L 69.50442410198337 109.93941589057182L 69.53617510766529 110.04485069188178L 69.56003768067836 110.1492543282427L 69.57585757129345 110.25259330185283L 69.58348052978134 110.35483411491035L 69.58275230641286 110.4559432696135L 69.57351865145878 110.55588726816046L 69.57351865145878 110.55588726816046L 69.55436633218041 110.65550999428385L 69.52414072758238 110.75566499684186L 69.4830755055506 110.85633327572106L 69.431404333971 110.9574958308081L 69.36936088072947 111.05913366198956L 69.29717881371194 111.16122776915208L 69.2150918008043 111.26375915218223L 69.12333350989248 111.36670881096666L 69.02213760886237 111.47005774539194L 68.91173776559991 111.5737869553447L 68.79236764799099 111.67787744071154L 68.66426092392152 111.78231020137909L 68.52765126127743 111.88706623723394L 68.38277232794461 111.99212654816269L 68.22985779180897 112.09747213405197L 68.06914132075644 112.20308399478837L 67.90085658267293 112.30894313025851L 67.72523724544433 112.415030540349L 67.54251697695658 112.52132722494645L 67.35292944509557 112.62781418393746L 67.15670831774722 112.73447241720864L 66.95408726279743 112.8412829246466L 66.74529994813211 112.94822670613796L 66.5305800416372 113.05528476156931L 66.31016121119858 113.16243809082727L 66.08427712470217 113.26966769379845L 65.85316145003388 113.37695457036945L 65.61704785507963 113.4842797204269L 65.37617000772534 113.59162414385737L 65.13076157585688 113.69896884054751L 64.8810562273602 113.8062948103839L 64.6272876301212 113.91358305325316L 64.36968945202578 114.0208145690419L 64.10849536095988 114.12797035763674L 63.843939024809366 114.23503141892427L 63.576254111460194 114.34197875279109L 63.30567428879825 114.44879335912383L 63.03243322470946 114.5554562378091L 62.756764587079715 114.66194838873349L 62.47890204379494 114.76825081178363L 62.19907926274105 114.87434450684611L 61.917529911803946 114.98021047380755L 61.63448765886954 115.08582971255456L 61.35018617182375 115.19118322297373L 61.064859118552484 115.2962520049517L 60.778740166941645 115.40101705837506L 60.49206298487716 115.50545938313041L 60.20506124024492 115.60955997910438L 59.91796860093086 115.71329984618356L 59.63101873482088 115.81665998425458L 59.344445309800875 115.91962139320403L 59.05848199375678 116.02216507291853L 58.773362454574496 116.12427202328468L 58.489320360139935 116.22592324418908L 58.20658937833901 116.32709973551836L 57.925403177057625 116.42778249715911L 57.6459954241817 116.52795252899797L 57.36859978759714 116.62759083092152L 57.09344993518987 116.72667840281638L 56.82077953484578 116.82519624456914L 56.550822254450786 116.92312535606644L 56.28381176189081 117.02044673719486L 56.01998172505176 117.11714138784103L 55.75956581181954 117.21319030789154L 55.502797690080065 117.30857449723301L 55.24991102771924 117.40327495575207L 55.001139492623 117.49727268333527L 54.75671675267723 117.59054867986927L 54.516876475767845 117.68308394524068L 54.28185232978076 117.77485947933607L 54.051877982601894 117.86585628204209L 53.82718710211714 117.95605535324532L 53.60801335621243 118.0454376928324L 53.39459041277367 118.13398430068989L 53.18715193968676 118.22167617670443L 52.98593160483761 118.30849432076263L 52.79116307611215 118.3944197327511L 52.60308002139627 118.47943341255643L 52.42191610857589 118.56351636006525L 52.24790500553693 118.64664957516416L 52.081280380165296 118.72881405773978L 51.9222759003469 118.8099908076787L 51.77112523396763 118.89016082486754L 51.62806204891343 118.96930510919289L 51.493320013070196 119.04740466054139L 51.36713279432384 119.12444047879963L 51.249734060560264 119.20039356385422L 51.141357479665395 119.27524491559177L 51.042236719525135 119.34897553389888L 50.9526054480254 119.42156641866218L 50.87269733305211 119.49299856976826L 50.80274604249115 119.56325298710374L 50.74298524422846 119.63231067055523L 50.69364860614992 119.70015262000933L 50.65496979614147 119.76675983535264L 50.627182482089005 119.83211331647179L 50.61052033187845 119.89619406325339L 50.605217013395695 119.95898307558403L 50.61150619452666 120.02046135335033L 50.62962154315728 120.08060989643889L 50.62962154315728 120.08060989643889L 50.65915379165035 120.1394927700472L 50.69940494533814 120.19719627257689L 50.75017558156065 120.25373475372075L 50.81126627765789 120.3091225631716L 50.88247761096989 120.36337405062221L 50.96361015883666 120.41650356576541L 51.0544644985982 120.46852545829398L 51.15484120759455 120.51945407790073L 51.2645408631657 120.56930377427845L 51.38336404265167 120.61808889711995L 51.51111132339249 120.66582379611803L 51.64758328272816 120.71252282096549L 51.79258049799869 120.7582003213551L 51.94590354654411 120.80287064697973L 52.10735300570442 120.8465481475321L 52.276729452819644 120.88924717270507L 52.453833465229785 120.93098207219141L 52.63846562027488 120.97176719568394L 52.830426495294915 121.01161689287544L 53.02951666762993 121.05054551345872L 53.23553671461992 121.08856740712658L 53.44828721360491 121.12569692357181L 53.66756874192491 121.16194841248723L 53.89318187691993 121.19733622356563L 54.124927195930006 121.23187470649981L 54.36260527629513 121.26557821098257L 54.606016695355315 121.2984610867067L 54.854962030450594 121.33053768336502L 55.10924185892096 121.36182235065031L 55.36865675810645 121.3923294382554L 55.63300730534706 121.42207329587306L 55.90209407798281 121.45106827319611L 56.17571765335372 121.47932871991733L 56.4536786087998 121.50686898572954L 56.73577752166106 121.53370342032554L 57.02181496927752 121.5598463733981L 57.311591528989204 121.58531219464007L 57.6049077781361 121.61011523374421L 57.901564294058254 121.63426984040333L 58.20136165409565 121.65779036431023L 58.50410043558832 121.68069115515772L 58.80958121587628 121.7029865626386L 59.117604572299534 121.72469093644565L 59.427971082198106 121.7458186262717L 59.74048132291201 121.76638398180953L 60.054935871781254 121.78640135275194L 60.37113530614585 121.80588508879174L 60.688880203345825 121.82484953962172L 61.00797114072119 121.84330905493469L 61.32820869561194 121.86127798442345L 61.64939344535812 121.87877067778078L 61.97132596729973 121.89580148469952L 62.293806838776774 121.91238475487242L 62.61663663712928 121.92853483799233L 62.93961593969726 121.94426608375201L 63.262545323820724 121.95959284184428L 63.585225366839694 121.97452946196195L 63.90745664609418 121.9890902937978L 64.2290397389242 122.00328968704464L 64.54977522266975 122.01714199139526L 64.86946367467088 122.03066155654247L 65.18790567226756 122.04386273217908L 65.50490179279984 122.05675986799787L 65.82025261360772 122.06936731369166L 66.13375871203122 122.08169941895322L 66.44522066541036 122.09377053347538L 66.75443905108514 122.10559500695094L 67.06121444639557 122.11718718907267L 67.36534742868167 122.12856142953339L 67.66663857528349 122.13973207802592L 67.96488846354099 122.15071348424303L 68.2598976707942 122.16151999787753L 68.55146677438316 122.17216596862222L 68.83939635164786 122.1826657461699L 69.12348697992832 122.19303368021338L 69.40353923656455 122.20328412044545L 69.67935369889658 122.2134314165589L 69.95073094426442 122.22348991824656L 70.21747155000806 122.2334739752012L 70.47937609346755 122.24339793711565L 70.73624515198287 122.25327615368266L 70.98787930289406 122.26312297459509L 71.23407912354112 122.27295274954571L 71.47464519126407 122.28277982822732L 71.70937808340295 122.29261856033273L 71.93807837729773 122.30248329555472L 72.16054665028844 122.31238838358611L 72.37658347971511 122.3223481741197L 72.58598944291774 122.33237701684828L 72.78856511723635 122.34248926146466L 72.98411108001095 122.35269925766163L 73.17242790858154 122.36302135513199L 73.35331618028818 122.37346990356856L 73.52657647247082 122.38405925266412L 73.69200936246953 122.39480375211147L 73.8494154276243 122.40571775160342L 73.99859524527514 122.41681560083278L 74.13934939276209 122.42811164949232L 74.27147844742514 122.43962024727486L 74.39478298660431 122.4513557438732" 
                    stroke-width="1.5751546939311445" 
                    stroke="black" 
                    fill="none" 
                    stroke-linecap="round"
                    stroke-linejoin="round"
                    style="transform: scale(1, 1);"
                    />
                </svg>
            